<?xml version="1.0" standalone="no"?>
<!DOCTYPE svg PUBLIC "-//W3C//DTD SVG 1.1//EN" "http://www.w3.org/Graphics/SVG/1.1/DTD/svg11.dtd" >
<svg xmlns="http://www.w3.org/2000/svg" xmlns:xlink="http://www.w3.org/1999/xlink" version="1.1">
<metadata>
Created by FontForge 20170731 at Mon Sep 16 01:10:54 2019
 By Aleksey,,,
Copyright (c) 2018 by Alexander Slobzheninov. All rights reserved.
</metadata>
<defs>
<font id="Agrandir-TextBold" horiz-adv-x="686" >
  <font-face 
    font-family="Agrandir"
    font-weight="700"
    font-stretch="semi-condensed"
    units-per-em="1000"
    panose-1="0 0 8 6 0 0 0 0 0 0"
    ascent="750"
    descent="-250"
    x-height="510"
    cap-height="710"
    bbox="-177 -264 1441 970"
    underline-thickness="40"
    underline-position="-160"
    unicode-range="U+000D-F6C3"
  />
<missing-glyph horiz-adv-x="30" 
 />
    <glyph glyph-name=".notdef" horiz-adv-x="30" 
 />
    <glyph glyph-name=".null" horiz-adv-x="0" 
 />
    <glyph glyph-name="nonmarkingreturn" unicode="&#xd;" horiz-adv-x="76" 
 />
    <glyph glyph-name="NULL" horiz-adv-x="731" 
d="M111 710h510v-710h-510v710zM505 100v510h-279v-510h279z" />
    <glyph glyph-name="NULL" horiz-adv-x="731" 
d="M111 710h510v-710h-510v710zM505 100v510h-279v-510h279z" />
    <glyph glyph-name="space" unicode=" " horiz-adv-x="226" 
 />
    <glyph glyph-name="exclam" unicode="!" horiz-adv-x="280" 
d="M72 520v190h137v-190l-34 -313h-70zM81 10.5q-23 22.5 -23 57.5t23 57t59 22q35 0 58.5 -22.5t23.5 -56.5q0 -35 -23.5 -57.5t-58.5 -22.5q-36 0 -59 22.5z" />
    <glyph glyph-name="quotedbl" unicode="&#x22;" horiz-adv-x="271" 
d="M56 710h40v-284h-41zM176 710h40v-284h-41z" />
    <glyph glyph-name="numbersign" unicode="#" horiz-adv-x="922" 
d="M213 0l66 244h-239v40h250l51 190h-251v40h262l60 222l39 -10l-57 -212h192l59 222l38 -11l-56 -211h255l1 -40h-267l-50 -190h267l-1 -40h-277l-67 -254l-39 10l65 244h-193l-69 -254zM525 284l50 190h-192l-52 -190h194z" />
    <glyph glyph-name="dollar" unicode="$" horiz-adv-x="624" 
d="M560 87.5q-32 -50.5 -91.5 -79.5t-139.5 -30v-108h-40v109q-112 10 -181 75t-74 169l136 24q2 -58 34.5 -98t84.5 -52v204l-41 12q-98 26 -142.5 74.5t-44.5 127.5q0 93 61.5 152.5t166.5 64.5v88h40v-89q96 -6 157 -62.5t68 -145.5l-133 -28q-2 48 -27 80.5t-65 40.5
v-190l68 -19q101 -26 148 -75t47 -129q0 -65 -32 -115.5zM222 473q21 -22 67 -36v180q-40 -4 -64 -28.5t-24 -60.5q0 -33 21 -55zM417.5 120.5q33.5 27.5 33.5 69.5q0 34 -25 56.5t-80 38.5l-17 5v-197q55 0 88.5 27.5z" />
    <glyph glyph-name="percent" unicode="%" horiz-adv-x="989" 
d="M223 13l521 733l33 -23l-521 -733zM137.5 361.5q-45.5 25.5 -71.5 70.5t-26 101q0 58 26 104.5t71.5 72.5t102.5 26t102.5 -26t71.5 -71.5t26 -103.5q0 -57 -26 -102.5t-71.5 -71t-102.5 -25.5t-102.5 25.5zM318 458.5q30 30.5 30 76.5q0 47 -30.5 78t-76.5 31
q-48 0 -79 -31t-31 -78q0 -46 31.5 -76.5t78.5 -30.5t77 30.5zM647.5 11.5q-45.5 25.5 -71.5 71t-26 102.5q0 58 26 103.5t71.5 71.5t102.5 26t102.5 -26t71.5 -71.5t26 -103.5q0 -57 -26 -102.5t-71.5 -71t-102.5 -25.5t-102.5 25.5zM828 108.5q30 30.5 30 76.5
q0 47 -30.5 78t-76.5 31q-48 0 -79 -31t-31 -78t31 -77t79 -30q47 0 77 30.5z" />
    <glyph glyph-name="ampersand" unicode="&#x26;" horiz-adv-x="721" 
d="M706 0h-158l-62 62q-45 -38 -101.5 -58.5t-114.5 -21.5q-104 0 -167 55t-63 150q0 69 32.5 115.5t100.5 81.5q-24 32 -38 70t-14 74q0 59 26 104t73 70t107 25q89 0 145 -48t56 -131q0 -67 -41.5 -113.5t-130.5 -80.5l134 -136q44 55 74 132l84 -80q-34 -72 -81 -128z
M268.5 597q-22.5 -25 -22.5 -66q0 -26 11 -53.5t32 -52.5q62 23 90.5 50.5t28.5 62.5q0 37 -23 60.5t-58 23.5q-36 0 -58.5 -25zM355 102q32 13 56 37l-163 165q-39 -19 -57.5 -44.5t-18.5 -64.5q0 -47 32 -76.5t83 -29.5q36 0 68 13z" />
    <glyph glyph-name="quotesingle" unicode="'" horiz-adv-x="145" 
d="M53 710h40v-284h-41z" />
    <glyph glyph-name="parenleft" unicode="(" horiz-adv-x="253" 
d="M90 21q-45 134 -45 260q0 127 44.5 259.5t114.5 209.5l31 -26q-66 -77 -108 -202t-42 -240t42.5 -242.5t107.5 -203.5l-31 -26q-69 77 -114 211z" />
    <glyph glyph-name="parenright" unicode=")" horiz-adv-x="253" 
d="M18 -164q70 82 110 205t40 241t-40 238.5t-110 203.5l31 26q75 -83 117 -211t42 -258q0 -129 -42.5 -259t-116.5 -212z" />
    <glyph glyph-name="asterisk" unicode="*" horiz-adv-x="483" 
d="M221 405q0 15 -6 23.5t-17 8.5q-9 0 -20 -7l-113 -65l-20 35l112 65q19 12 19 25q0 15 -19 25l-112 65l20 35l113 -65q11 -7 20 -7q11 0 17 8.5t6 23.5v130h40v-130q0 -15 6 -23.5t17 -8.5q9 0 20 7l113 65l20 -35l-113 -65q-19 -11 -19 -25q0 -12 19 -25l113 -65
l-20 -35l-113 65q-11 7 -20 7q-11 0 -17 -8.5t-6 -23.5v-130h-40v130z" />
    <glyph glyph-name="plus" unicode="+" horiz-adv-x="532" 
d="M202 309h-145v107h145v164h127v-164h145v-107h-145v-169h-127v169z" />
    <glyph glyph-name="comma" unicode="," horiz-adv-x="278" 
d="M60 -115q12 -4 27 -4q42 0 70.5 34t29.5 86q-22 -11 -46 -11q-33 0 -55 22t-22 55q0 34 22.5 56t55.5 22q39 0 63 -32.5t24 -91.5q1 -81 -38 -130t-102 -49q-17 0 -40 5z" />
    <glyph glyph-name="hyphen" unicode="-" horiz-adv-x="426" 
d="M57 315h311v-98h-311v98z" />
    <glyph glyph-name="period" unicode="." horiz-adv-x="261" 
d="M72 10.5q-23 22.5 -23 57.5q0 34 23 56.5t58 22.5q36 0 59 -22t23 -57t-23 -57.5t-59 -22.5q-35 0 -58 22.5z" />
    <glyph glyph-name="slash" unicode="/" horiz-adv-x="347" 
d="M18 -230l271 952l40 -12l-273 -950z" />
    <glyph glyph-name="zero" unicode="0" horiz-adv-x="684" 
d="M192 25.5q-64 45.5 -99 130.5t-35 199q0 115 35 199.5t99 130t150 45.5t150 -45.5t99 -130.5t35 -199t-35 -199t-99 -130.5t-150 -45.5t-150 45.5zM447 170q38 67 38 185t-38 185.5t-105 67.5q-66 0 -104.5 -67.5t-38.5 -185.5q0 -117 38.5 -184.5t104.5 -67.5
q67 0 105 67z" />
    <glyph glyph-name="one" unicode="1" horiz-adv-x="480" 
d="M41 117h149v413h-1q-28 -47 -99 -75l-45 121q58 17 98 51.5t58 82.5h132v-593h120v-117h-412v117z" />
    <glyph glyph-name="two" unicode="2" horiz-adv-x="595" 
d="M57 66q0 101 37 162.5t126 108.5l90 51q47 26 66 53.5t19 69.5q0 46 -23 73.5t-61 27.5q-44 0 -70.5 -40t-27.5 -114l-143 26q2 73 33 129t86 86.5t126 30.5q67 0 118 -27.5t79 -77.5t28 -115q0 -72 -33 -120t-112 -90l-97 -54q-51 -30 -71 -60t-20 -74h333v-112h-483v66
z" />
    <glyph glyph-name="three" unicode="3" horiz-adv-x="607" 
d="M173.5 10.5q-58.5 30.5 -92 85t-35.5 125.5l137 30q2 -70 35 -111.5t88 -41.5q47 0 76 30t29 79q0 51 -30 83.5t-75 34.5l-38 2v84l42 2q35 2 55 29t20 71q0 46 -22 73.5t-58 27.5q-41 0 -66.5 -36.5t-26.5 -97.5l-142 20q2 67 32.5 119.5t83 81.5t120.5 29q64 0 113 -25
t76 -70.5t27 -103.5q0 -55 -23.5 -95.5t-67.5 -60.5v-2q59 -22 92 -68.5t33 -108.5q0 -64 -31 -113t-87 -76t-130 -27q-76 0 -134.5 30.5z" />
    <glyph glyph-name="four" unicode="4" horiz-adv-x="595" 
d="M336 148h-304v83l261 479h180v-454h77v-108h-77v-148h-137v148zM336 256v308h-2l-164 -308h166z" />
    <glyph glyph-name="five" unicode="5" horiz-adv-x="583" 
d="M158 8q-57 28 -90 79t-35 117l140 32q2 -63 33.5 -100.5t81.5 -37.5t79.5 36t29.5 97q0 65 -30 103.5t-81 38.5q-24 0 -48.5 -12.5t-37.5 -33.5l-111 24l24 359h371v-114h-250l-12 -159q17 17 48 27t64 10q62 0 109.5 -30t73 -85t25.5 -128q0 -75 -31.5 -132t-89.5 -88
t-134 -31q-72 0 -129 28z" />
    <glyph glyph-name="six" unicode="6" horiz-adv-x="629" 
d="M486.5 669q59.5 -62 73.5 -175l-130 -18q-15 143 -107 143q-57 0 -90.5 -58t-34.5 -168q26 34 65.5 51t95.5 17q62 0 110.5 -29.5t75.5 -82t27 -119.5q0 -74 -31 -130.5t-89.5 -87.5t-136.5 -31q-126 0 -191 83t-65 246q0 193 63.5 307t201.5 114q103 0 162.5 -62z
M233.5 324.5q-30.5 -35.5 -30.5 -93.5q0 -60 30.5 -96t82.5 -36t81.5 36.5t29.5 95.5q0 57 -29.5 93t-80.5 36q-53 0 -83.5 -35.5z" />
    <glyph glyph-name="seven" unicode="7" horiz-adv-x="509" 
d="M332 591h-297v119h440v-106q-91 -136 -139.5 -285.5t-61.5 -318.5h-157q32 340 215 591z" />
    <glyph glyph-name="eight" unicode="8" horiz-adv-x="605" 
d="M114.5 39q-68.5 57 -68.5 155q0 70 37.5 119t104.5 66q-51 18 -81 61.5t-30 100.5q0 88 61 139.5t165 51.5t164.5 -51.5t60.5 -139.5q0 -57 -30 -100t-83 -62q68 -16 106 -65t38 -120q0 -99 -68.5 -155.5t-187.5 -56.5q-120 0 -188.5 57zM366.5 445.5
q23.5 27.5 23.5 74.5q0 44 -23.5 70.5t-63.5 26.5q-41 0 -65 -26.5t-24 -70.5q0 -46 24 -74t65 -28q40 0 63.5 27.5zM383.5 127q30.5 30 30.5 81q0 52 -30.5 83t-80.5 31q-51 0 -81.5 -31t-30.5 -83q0 -51 30.5 -81t81.5 -30q50 0 80.5 30z" />
    <glyph glyph-name="nine" unicode="9" horiz-adv-x="645" 
d="M120.5 45q-69.5 64 -82.5 173l131 18q6 -66 43 -105t95 -39q64 0 101.5 58t38.5 169q-26 -33 -64.5 -51t-99.5 -18q-60 0 -108.5 29.5t-75.5 82.5t-27 120q0 74 31.5 130t89 87t134.5 31q125 0 191.5 -83.5t66.5 -244.5q0 -199 -65.5 -310t-216.5 -111q-113 0 -182.5 64z
M411.5 387.5q30.5 35.5 30.5 93.5q0 60 -30.5 96t-83.5 36q-51 -1 -80.5 -37t-29.5 -95q0 -57 29.5 -93t80.5 -36q53 0 83.5 35.5z" />
    <glyph glyph-name="colon" unicode=":" horiz-adv-x="261" 
d="M72 392.5q-23 22.5 -23 57.5q0 34 23 56.5t58 22.5q36 0 59 -22t23 -57t-23 -57.5t-59 -22.5q-35 0 -58 22.5zM72 10.5q-23 22.5 -23 57.5q0 34 23 56.5t58 22.5q36 0 59 -22t23 -57t-23 -57.5t-59 -22.5q-35 0 -58 22.5z" />
    <glyph glyph-name="semicolon" unicode=";" horiz-adv-x="279" 
d="M60 -115q12 -4 27 -4q42 0 70.5 34t29.5 86q-22 -11 -46 -11q-33 0 -55 22t-22 55q0 34 22.5 56t55.5 22q39 0 63 -32.5t24 -91.5q1 -81 -38 -130t-102 -49q-17 0 -40 5zM87 392.5q-23 22.5 -23 57.5q0 34 23 56.5t58 22.5q36 0 59 -22t23 -57t-23 -57.5t-59 -22.5
q-35 0 -58 22.5z" />
    <glyph glyph-name="less" unicode="&#x3c;" horiz-adv-x="432" 
d="M57 270v143l272 163l46 -98l-240 -136l240 -136l-48 -98z" />
    <glyph glyph-name="equal" unicode="=" horiz-adv-x="525" 
d="M57 506h410v-96h-410v96zM57 305h410v-96h-410v96z" />
    <glyph glyph-name="greater" unicode="&#x3e;" horiz-adv-x="432" 
d="M375 413v-143l-272 -162l-46 98l240 136l-240 136l48 98z" />
    <glyph glyph-name="question" unicode="?" horiz-adv-x="532" 
d="M213.5 322q19.5 42 61.5 78l25 22q25 20 38 42t13 52q0 43 -25.5 71t-65.5 28q-44 0 -72.5 -36.5t-30.5 -97.5l-132 28q2 67 33 117.5t84 78t120 27.5t120 -26t82.5 -73t29.5 -108q0 -56 -23 -95.5t-67 -72.5l-28 -20q-33 -26 -46.5 -54t-13.5 -77h-122q0 74 19.5 116z
M198 9.5q-23 22.5 -23 57.5t23 57t59 22q35 0 58 -22.5t23 -56.5q0 -35 -23 -57.5t-58 -22.5q-36 0 -59 22.5z" />
    <glyph glyph-name="at" unicode="@" horiz-adv-x="854" 
d="M227.5 -121.5q-86.5 50.5 -134.5 142t-48 211.5q0 125 48 219t134.5 145.5t199.5 51.5q114 0 200.5 -49t134 -140t47.5 -213q0 -82 -21.5 -141t-60 -89.5t-87.5 -30.5q-97 0 -119 80l-2 8h-1q-24 -42 -65.5 -65t-94.5 -23q-73 0 -119 41t-46 108q0 69 51.5 112.5
t148.5 54.5l84 10q19 2 30.5 13.5t11.5 32.5q0 31 -25.5 50.5t-62.5 19.5q-45 0 -74 -29.5t-31 -71.5l-119 28q1 48 30 87.5t79.5 62.5t115.5 23q98 0 156 -52t58 -138v-235q0 -52 40 -52q18 0 37.5 22t32.5 66.5t13 106.5q0 111 -42.5 193t-119.5 126t-178 44
q-103 0 -181 -46.5t-120.5 -131.5t-42.5 -199q0 -108 43 -190.5t121 -127.5t180 -45q99 0 179 50l22 -34q-89 -56 -203 -56q-113 0 -199.5 50.5zM485.5 121q31.5 33 31.5 84v28l-91 -10q-52 -6 -77.5 -25.5t-25.5 -49.5q0 -28 23 -44t60 -16q48 0 79.5 33z" />
    <glyph glyph-name="A" unicode="A" 
d="M252 710h181l231 -710h-149l-45 149h-255l-45 -149h-148zM444 259l-99 328h-2l-102 -328h203z" />
    <glyph glyph-name="B" unicode="B" horiz-adv-x="662" 
d="M68 710h312q106 0 165 -50t59 -141q0 -58 -30 -99t-83 -55v-2q62 -14 96 -57.5t34 -110.5q0 -92 -62 -143.5t-174 -51.5h-317v710zM358 414q48 0 75 24.5t27 67.5t-27 67.5t-75 24.5h-144v-184h144zM358 112q55 0 86.5 26t31.5 73t-31.5 73t-86.5 26h-144v-198h144z" />
    <glyph glyph-name="C" unicode="C" horiz-adv-x="749" 
d="M207 24q-78 46 -120 131t-42 200t39.5 200.5t113.5 131t173 45.5q116 0 194.5 -69.5t98.5 -192.5l-136 -27q-13 78 -54.5 121t-103.5 43q-83 0 -131 -67.5t-48 -184.5q0 -116 53.5 -183t146.5 -67q75 0 126 51.5t64 140.5l136 -25q-12 -90 -55.5 -156.5t-113 -102
t-157.5 -35.5q-106 0 -184 46z" />
    <glyph glyph-name="D" unicode="D" horiz-adv-x="722" 
d="M68 710h258q169 0 260 -92t91 -263t-91 -263t-260 -92h-258v710zM325 120q100 0 153.5 60.5t53.5 174.5t-53.5 175t-153.5 61h-114v-471h114z" />
    <glyph glyph-name="E" unicode="E" horiz-adv-x="555" 
d="M68 710h439v-119h-298v-173h258v-107h-258v-191h308v-120h-449v710z" />
    <glyph glyph-name="F" unicode="F" horiz-adv-x="521" 
d="M68 710h419v-125h-273v-188h214v-113h-214v-284h-146v710z" />
    <glyph glyph-name="G" unicode="G" horiz-adv-x="794" 
d="M199 25.5q-74 46.5 -114 131.5t-40 198t42 198.5t119 132t180 46.5q104 0 183 -58.5t108 -157.5l-136 -32q-19 56 -61 89.5t-96 33.5q-58 0 -101.5 -31t-67.5 -87.5t-24 -131.5q0 -76 26.5 -133.5t74.5 -89t111 -31.5q86 0 140.5 53.5t56.5 141.5h-276v102h417v-400h-110
l-12 116h-1q-38 -64 -103.5 -100.5t-143.5 -36.5q-98 0 -172 46.5z" />
    <glyph glyph-name="H" unicode="H" horiz-adv-x="691" 
d="M68 710h146v-282h263v282h146v-710h-146v309h-263v-309h-146v710z" />
    <glyph glyph-name="I" unicode="I" horiz-adv-x="283" 
d="M68 710h146v-710h-146v710z" />
    <glyph glyph-name="J" unicode="J" horiz-adv-x="537" 
d="M100.5 31q-59.5 52 -69.5 146l127 46q5 -60 29.5 -92.5t65.5 -32.5q37 0 57.5 25.5t20.5 71.5v515h145v-523q0 -99 -57 -153.5t-160 -54.5q-99 0 -158.5 52z" />
    <glyph glyph-name="K" unicode="K" horiz-adv-x="645" 
d="M68 710h146v-287h1l226 287h172l-233 -283l243 -427h-167l-172 317l-70 -84v-233h-146v710z" />
    <glyph glyph-name="L" unicode="L" horiz-adv-x="508" 
d="M68 710h146v-585h266v-125h-412v710z" />
    <glyph glyph-name="M" unicode="M" horiz-adv-x="912" 
d="M68 710h198l190 -544h1l189 544h198v-710h-137v521h-2l-185 -521h-128l-185 521h-2v-521h-137v710z" />
    <glyph glyph-name="N" unicode="N" horiz-adv-x="715" 
d="M68 710h184l254 -532h2v532h138v-710h-183l-255 531h-2v-531h-138v710z" />
    <glyph glyph-name="O" unicode="O" horiz-adv-x="798" 
d="M213 24.5q-80 46.5 -124 132t-44 198.5t44 198.5t124 132t186 46.5t185.5 -46.5t123.5 -132t44 -198.5q0 -112 -44 -197.5t-124 -132.5t-185 -47q-106 0 -186 46.5zM508.5 134.5q47.5 31.5 73 88.5t25.5 132t-25.5 132t-73 88.5t-109.5 31.5t-109.5 -31.5t-73 -88.5
t-25.5 -132t25.5 -132t73 -88.5t109.5 -31.5t109.5 31.5z" />
    <glyph glyph-name="P" unicode="P" horiz-adv-x="642" 
d="M68 710h289q75 0 132 -28.5t88.5 -80t31.5 -118.5t-31.5 -118t-87.5 -79.5t-129 -28.5h-149v-257h-144v710zM337 371q56 0 91 31.5t35 80.5q0 50 -35 81.5t-91 31.5h-125v-225h125z" />
    <glyph glyph-name="Q" unicode="Q" horiz-adv-x="798" 
d="M578.5 -103.5q22.5 16.5 30.5 43.5l62 -79q-14 -39 -58 -63.5t-102 -24.5q-78 0 -127.5 44t-49.5 114v52q-88 13 -153 62.5t-100.5 129t-35.5 180.5q0 113 44 198.5t124 132t186 46.5t185.5 -46.5t123.5 -132t44 -198.5q0 -101 -35.5 -180.5t-101.5 -129.5t-154 -63v-31
q0 -32 18 -51.5t49 -19.5q28 0 50.5 16.5zM216.5 223q25.5 -57 73 -88.5t109.5 -31.5t109.5 31.5t73 88.5t25.5 132t-25.5 132t-73 88.5t-109.5 31.5t-109.5 -31.5t-73 -88.5t-25.5 -132t25.5 -132z" />
    <glyph glyph-name="R" unicode="R" horiz-adv-x="689" 
d="M463 8q-31 27 -43 72l-35 131q-9 31 -31 50.5t-48 19.5h-92v-281h-146v710h297q76 0 134.5 -27t90.5 -76t32 -114q0 -68 -42.5 -119t-115.5 -68v-1q49 -23 63 -84l26 -101q10 -36 33 -36t45 31l42 -73q-24 -28 -59 -44.5t-73 -16.5q-47 0 -78 27zM355 389q54 0 88 28.5
t34 73.5q0 48 -33.5 76.5t-88.5 28.5h-141v-207h141z" />
    <glyph glyph-name="S" unicode="S" horiz-adv-x="624" 
d="M176 8q-64 30 -101.5 85.5t-40.5 129.5l136 24q2 -69 46.5 -111.5t111.5 -42.5q56 0 89.5 27.5t33.5 69.5q0 34 -25 56.5t-80 38.5l-98 28q-98 26 -142.5 74.5t-44.5 127.5q0 64 29.5 113t85.5 76.5t131 27.5q69 0 123.5 -26t87 -73.5t36.5 -109.5l-133 -28
q-2 55 -34.5 89t-81.5 34q-47 0 -75.5 -25.5t-28.5 -64.5q0 -35 23.5 -57.5t75.5 -36.5l97 -27q101 -26 148 -75t47 -129q0 -66 -32.5 -117t-93.5 -79.5t-143 -28.5q-83 0 -147 30z" />
    <glyph glyph-name="T" unicode="T" horiz-adv-x="584" 
d="M219 585h-191v125h528v-125h-191v-585h-146v585z" />
    <glyph glyph-name="U" unicode="U" 
d="M192.5 10.5q-63.5 32.5 -97.5 93t-34 142.5v464h145v-458q0 -66 37.5 -107.5t99.5 -41.5q63 0 99.5 40.5t36.5 109.5v457h146v-464q0 -82 -34 -142.5t-98 -93t-150 -32.5q-87 0 -150.5 32.5z" />
    <glyph glyph-name="V" unicode="V" horiz-adv-x="680" 
d="M22 710h152l166 -568h2l165 568h151l-227 -710h-181z" />
    <glyph glyph-name="W" unicode="W" horiz-adv-x="1016" 
d="M22 710h148l125 -563h2l120 563h184l120 -563h2l123 563h148l-176 -710h-191l-117 552h-2l-119 -552h-190z" />
    <glyph glyph-name="X" unicode="X" horiz-adv-x="688" 
d="M247 372l-217 338h165l145 -245l150 245h168l-224 -338l232 -372h-168l-158 264l-153 -264h-165z" />
    <glyph glyph-name="Y" unicode="Y" horiz-adv-x="637" 
d="M247 250l-225 460h153l145 -325h1l138 325h156l-222 -460v-250h-146v250z" />
    <glyph glyph-name="Z" unicode="Z" horiz-adv-x="576" 
d="M30 129l350 466h-340v115h496v-130l-350 -465h360v-115h-516v129z" />
    <glyph glyph-name="bracketleft" unicode="[" horiz-adv-x="249" 
d="M68 750h163v-40h-122v-860h122v-40h-163v940z" />
    <glyph glyph-name="backslash" unicode="\" horiz-adv-x="350" 
d="M20 710l39 12l271 -952l-38 -10z" />
    <glyph glyph-name="bracketright" unicode="]" horiz-adv-x="250" 
d="M18 -190v40h122v860h-122v40h163v-940h-163z" />
    <glyph glyph-name="asciicircum" unicode="^" horiz-adv-x="491" 
d="M40 435l129 275h153l129 -275l-107 -35l-98 222l-97 -222z" />
    <glyph glyph-name="underscore" unicode="_" horiz-adv-x="470" 
d="M15 0h440v-40h-440v40z" />
    <glyph glyph-name="grave" unicode="`" horiz-adv-x="195" 
d="M36 750l34 20l89 -150l-34 -20z" />
    <glyph glyph-name="a" unicode="a" horiz-adv-x="597" 
d="M76.5 27.5q-45.5 39.5 -45.5 106.5q0 69 52.5 113.5t151.5 54.5l81 9q19 2 30.5 14t11.5 32q0 32 -25 51t-64 19q-45 0 -73.5 -29.5t-30.5 -71.5l-120 28q2 48 31 87.5t79 62.5t115 23q98 0 156.5 -52t58.5 -138v-221q0 -29 23 -29q19 0 38 20l36 -76
q-21 -21 -52.5 -32.5t-63.5 -11.5q-42 0 -70.5 21.5t-36.5 55.5l-2 11h-1q-24 -42 -65.5 -64.5t-94.5 -22.5q-74 0 -119.5 39.5zM323.5 120q31.5 33 31.5 86v26l-90 -10q-52 -6 -77.5 -25.5t-25.5 -49.5q0 -28 22.5 -44t59.5 -16q48 0 79.5 33z" />
    <glyph glyph-name="b" unicode="b" horiz-adv-x="589" 
d="M248.5 9.5q-41.5 24.5 -63.5 69.5h-1l-15 -79h-112v740h131v-306h1q23 44 62.5 67.5t90.5 23.5q62 0 109 -33t72.5 -94t25.5 -143t-25.5 -143t-72.5 -94t-109 -33q-52 0 -93.5 24.5zM386.5 142q32.5 42 32.5 113q0 70 -32.5 112.5t-85.5 42.5q-54 0 -86 -42t-32 -113
t32 -113t86 -42q53 0 85.5 42z" />
    <glyph glyph-name="c" unicode="c" horiz-adv-x="556" 
d="M157 16q-56 33 -86.5 94t-30.5 142q0 83 29 145t82 96t123 34q85 0 143.5 -49t75.5 -133l-121 -29q-10 49 -36 76t-61 27q-48 0 -76.5 -44t-28.5 -120t32.5 -120t85.5 -44q45 0 76 32.5t39 90.5l121 -22q-14 -95 -78 -152t-159 -57q-74 0 -130 33z" />
    <glyph glyph-name="d" unicode="d" horiz-adv-x="589" 
d="M138 18q-47 33 -72.5 94t-25.5 143t25.5 143t72.5 94t109 33q51 0 90.5 -23.5t62.5 -67.5h1v306h131v-740h-112l-15 79h-1q-22 -45 -63.5 -69.5t-93.5 -24.5q-62 0 -109 33zM374 142q32 42 32 113t-32 113t-86 42q-53 0 -85.5 -42.5t-32.5 -112.5q0 -71 32.5 -113
t85.5 -42q54 0 86 42z" />
    <glyph glyph-name="e" unicode="e" horiz-adv-x="563" 
d="M166 17q-60 34 -93 97t-33 146q0 80 30 140.5t85 93.5t128 33q71 0 124 -32t81.5 -91.5t28.5 -138.5q0 -35 -4 -48h-343q5 -62 41.5 -97.5t94.5 -35.5q43 0 75 21t46 58l101 -40q-21 -65 -81.5 -102.5t-140.5 -37.5t-140 34zM385 302q-3 59 -29.5 91.5t-72.5 32.5
q-49 0 -77.5 -32.5t-35.5 -91.5h215z" />
    <glyph glyph-name="f" unicode="f" horiz-adv-x="460" 
d="M110 410h-93v100h93v85q0 74 47.5 117.5t127.5 43.5q62 0 105 -28.5t59 -78.5l-66 -71q-8 32 -28.5 51.5t-48.5 19.5q-29 0 -47 -20.5t-18 -53.5v-65h171v-100h-171v-410h-130z" />
    <glyph glyph-name="g" unicode="g" horiz-adv-x="588" 
d="M113 -199q-67 28 -102 75l65 90q29 -38 75 -60.5t94 -22.5q71 0 113 41t42 111v53h-1q-23 -42 -64.5 -68t-88.5 -26q-61 0 -107.5 32.5t-72 91.5t-25.5 138q0 81 25 142t71 94t107 33q50 0 92.5 -25t63.5 -68h1l15 78h114l1 -477q0 -80 -33.5 -138.5t-95.5 -90
t-145 -31.5q-77 0 -144 28zM372.5 146q32.5 43 32.5 112q0 70 -32.5 113.5t-84.5 43.5q-53 0 -84.5 -43t-31.5 -114q0 -70 31.5 -112.5t84.5 -42.5q52 0 84.5 43z" />
    <glyph glyph-name="h" unicode="h" horiz-adv-x="552" 
d="M57 740h131v-307h1q24 44 64.5 67.5t93.5 23.5q71 0 111 -43t40 -122v-359h-130v334q0 39 -20.5 61t-55.5 22q-48 0 -76 -30.5t-28 -83.5v-303h-131v740z" />
    <glyph glyph-name="i" unicode="i" horiz-adv-x="257" 
d="M69.5 611q-22.5 22 -22.5 58q0 35 22.5 57t58.5 22q37 0 59.5 -22t22.5 -57q0 -36 -22.5 -58t-59.5 -22q-36 0 -58.5 22zM62 510h131v-510h-131v510z" />
    <glyph glyph-name="j" unicode="j" horiz-adv-x="255" 
d="M67.5 611q-22.5 22 -22.5 58q0 35 22.5 57t58.5 22t59 -22t23 -57q0 -36 -23 -58t-59 -22t-58.5 22zM-67 -210l17 98q20 -10 49 -10t45.5 18t16.5 51v563h131v-576q0 -76 -43.5 -118.5t-119.5 -42.5q-56 0 -96 17z" />
    <glyph glyph-name="k" unicode="k" horiz-adv-x="521" 
d="M57 740h131v-415h1l155 185h152l-169 -190l177 -320h-141l-121 231l-54 -61v-170h-131v740z" />
    <glyph glyph-name="l" unicode="l" horiz-adv-x="245" 
d="M57 740h131v-740h-131v740z" />
    <glyph glyph-name="m" unicode="m" horiz-adv-x="865" 
d="M57 510h107l16 -82h1q21 46 63 71.5t95 25.5q55 0 93 -26t55 -74h1q27 49 70.5 74.5t96.5 25.5q74 0 115 -46.5t41 -128.5v-350h-131l1 331q0 38 -21.5 60t-59.5 22q-47 0 -73.5 -33t-26.5 -89l-1 -291h-130v331q0 38 -21.5 60t-59.5 22q-47 0 -73.5 -33t-26.5 -89v-291
h-131v510z" />
    <glyph glyph-name="n" unicode="n" horiz-adv-x="552" 
d="M457.5 480.5q40.5 -43.5 40.5 -121.5v-359h-130v334q0 39 -20.5 61t-55.5 22q-47 0 -75.5 -31t-28.5 -83v-303h-131v510h110l17 -77h1q24 44 65.5 67.5t94.5 23.5q72 0 112.5 -43.5z" />
    <glyph glyph-name="o" unicode="o" horiz-adv-x="583" 
d="M159 16.5q-57 33.5 -88 95.5t-31 144t31 143t88 94.5t133 33.5t133 -33.5t88 -94.5t31 -143t-31 -144t-88 -95.5t-133 -33.5t-133 33.5zM381 138.5q33 43.5 33 117.5q0 73 -33 116t-89 43t-89 -43t-33 -116q0 -74 33 -117.5t89 -43.5t89 43.5z" />
    <glyph glyph-name="p" unicode="p" horiz-adv-x="589" 
d="M57 510h112l15 -79h1q22 45 63.5 69.5t93.5 24.5q62 0 109 -33t72.5 -94t25.5 -143t-25.5 -143t-72.5 -94t-109 -33q-51 0 -90.5 23.5t-62.5 67.5h-1v-286h-131v720zM386.5 142.5q32.5 42.5 32.5 112.5q0 71 -32.5 113t-85.5 42q-54 0 -86 -42t-32 -113t32 -113t86 -42
q53 0 85.5 42.5z" />
    <glyph glyph-name="q" unicode="q" horiz-adv-x="589" 
d="M401 76h-1q-23 -44 -62.5 -67.5t-90.5 -23.5q-62 0 -109 33t-72.5 94t-25.5 143t25.5 143t72.5 94t109 33q52 0 93.5 -24.5t63.5 -69.5h1l15 79h112v-720h-131v286zM374 142q32 42 32 113t-32 113t-86 42q-53 0 -85.5 -42t-32.5 -113q0 -70 32.5 -112.5t85.5 -42.5
q54 0 86 42z" />
    <glyph glyph-name="r" unicode="r" horiz-adv-x="481" 
d="M409 480q37 -45 40 -127l-110 -31q-2 49 -20 75t-48 26q-39 0 -61 -39.5t-22 -109.5v-274h-131v510h106l16 -85h1q17 47 51 73.5t78 26.5q63 0 100 -45z" />
    <glyph glyph-name="s" unicode="s" horiz-adv-x="514" 
d="M100 31q-64 47 -67 132l118 19q2 -49 33.5 -76t81.5 -27q40 0 66.5 16t26.5 43q-1 23 -22 38t-69 27l-73 19q-72 19 -105 53t-33 89q0 74 53.5 118.5t139.5 44.5q82 0 138 -41.5t62 -114.5l-117 -19q-2 39 -25.5 60t-61.5 21q-32 0 -52 -16t-20 -41q0 -21 19 -35t63 -27
l73 -19q79 -21 115.5 -56t36.5 -90q0 -49 -28 -86.5t-78 -58t-113 -20.5q-98 0 -162 47z" />
    <glyph glyph-name="t" unicode="t" horiz-adv-x="455" 
d="M149.5 27.5q-44.5 43.5 -44.5 119.5v263h-88v100h88v138l130 29v-167h173v-100h-173v-240q0 -37 16.5 -57.5t45.5 -20.5q60 0 77 76l63 -69q-15 -54 -58.5 -84.5t-105.5 -30.5q-79 0 -123.5 43.5z" />
    <glyph glyph-name="u" unicode="u" horiz-adv-x="552" 
d="M94.5 29.5q-40.5 43.5 -40.5 121.5v359h130v-334q0 -39 20.5 -61t55.5 -22q47 0 75.5 31t28.5 83v303h131v-510h-110l-17 77h-1q-24 -44 -65.5 -67.5t-94.5 -23.5q-72 0 -112.5 43.5z" />
    <glyph glyph-name="v" unicode="v" horiz-adv-x="539" 
d="M23 510h136l110 -401h1l111 401h136l-164 -510h-168z" />
    <glyph glyph-name="w" unicode="w" horiz-adv-x="825" 
d="M22 510h132l91 -379h1l99 379h135l101 -382h1l89 382h132l-138 -510h-154l-98 378h-2l-95 -378h-155z" />
    <glyph glyph-name="x" unicode="x" horiz-adv-x="536" 
d="M185 265l-154 245h143l94 -169l95 169h142l-154 -245l163 -265h-146l-100 182l-101 -182h-145z" />
    <glyph glyph-name="y" unicode="y" horiz-adv-x="550" 
d="M99 -200q-61 27 -98 76l68 88q27 -38 67.5 -59t87.5 -21q65 0 102.5 38t37.5 105v37h-1q-22 -42 -59.5 -66t-81.5 -24q-79 0 -125 51t-46 139v346h131v-332q0 -43 22 -69t61 -26q43 0 70 28.5t27 75.5v323h130l1 -489q0 -116 -69.5 -182t-189.5 -66q-74 0 -135 27z" />
    <glyph glyph-name="z" unicode="z" horiz-adv-x="481" 
d="M34 119l265 288h-255v103h394v-119l-266 -287h276v-104h-414v119z" />
    <glyph glyph-name="braceleft" unicode="{" horiz-adv-x="320" 
d="M152.5 -162.5q-24.5 27.5 -24.5 72.5v263q0 34 -17 55t-46 23l-20 1v63l20 1q29 2 46 23t17 56v255q0 45 24.5 72.5t65.5 27.5h84v-40h-84q-22 0 -36 -16.5t-14 -43.5v-265q0 -41 -22 -68.5t-58 -31.5v-2q36 -4 58 -31.5t22 -68.5v-273q0 -27 14 -43.5t36 -16.5h84
l-1 -40h-84q-40 0 -64.5 27.5z" />
    <glyph glyph-name="bar" unicode="|" horiz-adv-x="177" 
d="M68 740h40v-970h-40v970z" />
    <glyph glyph-name="braceright" unicode="}" horiz-adv-x="320" 
d="M19 -190l-1 40h84q22 0 36 16.5t14 43.5v273q0 41 22 68.5t58 31.5v2q-36 4 -58 31.5t-22 68.5v265q0 27 -14 43.5t-36 16.5h-84v40h84q41 0 65.5 -27.5t24.5 -72.5v-255q0 -35 17 -56t46 -23l20 -1v-63l-20 -1q-29 -2 -46 -23t-17 -55v-263q0 -45 -24.5 -72.5
t-64.5 -27.5h-84z" />
    <glyph glyph-name="asciitilde" unicode="~" horiz-adv-x="610" 
d="M570 300q-30 -47 -71 -76.5t-80 -29.5q-28 0 -56.5 14.5t-67.5 41.5q-43 29 -65.5 41.5t-43.5 12.5q-47 0 -91 -58l-55 65q29 46 71 75t81 29q31 0 61.5 -16t72.5 -46q34 -24 56 -36t41 -12q25 0 48 15.5t42 42.5z" />
    <glyph glyph-name="exclamdown" unicode="&#xa1;" horiz-adv-x="280" 
d="M199 509.5q23 -22.5 23 -57.5t-23 -57t-59 -22q-35 0 -58.5 22.5t-23.5 56.5q0 35 23.5 57.5t58.5 22.5q36 0 59 -22.5zM208 0v-190h-137v190l34 313h70z" />
    <glyph glyph-name="cent" unicode="&#xa2;" horiz-adv-x="560" 
d="M453 44q-62 -57 -153 -61v-113h-40v114q-101 10 -160.5 82t-59.5 186q0 79 27 140t76.5 96t116.5 39v113h40v-114q76 -8 129 -56t67 -125l-116 -29q-8 40 -29 66t-51 34v-325q45 4 74.5 36.5t36.5 86.5l116 -22q-12 -91 -74 -148zM191 147.5q25 -41.5 69 -52.5v323
q-44 -8 -69.5 -51t-25.5 -112q1 -66 26 -107.5z" />
    <glyph glyph-name="sterling" unicode="&#xa3;" horiz-adv-x="576" 
d="M40 121q104 36 104 219h-94v40h94v147q0 92 51 147.5t139 55.5q90 0 144.5 -57.5t58.5 -152.5l-120 -21q-2 55 -21.5 88t-52.5 33q-30 0 -46.5 -26t-16.5 -70v-144h219v-40h-219q-7 -181 -120 -230v-1h373v-109h-493v121z" />
    <glyph glyph-name="currency" unicode="&#xa4;" horiz-adv-x="716" 
d="M40 -23l110 111q-51 68 -51 162t51 162l-109 110l27 28l109 -108q35 33 81.5 50.5t99.5 17.5q54 0 100.5 -17.5t81.5 -50.5l109 108l28 -28l-110 -111q51 -66 51 -161t-51 -161l110 -111l-28 -28l-109 108q-35 -33 -81.5 -50.5t-99.5 -17.5q-54 0 -100.5 17.5t-81.5 50.5
l-109 -108zM463.5 145q41.5 41 41.5 105q0 63 -41 104.5t-105 41.5t-105.5 -41.5t-41.5 -104.5q0 -64 41.5 -105t105.5 -41q63 0 104.5 41z" />
    <glyph glyph-name="yen" unicode="&#xa5;" horiz-adv-x="649" 
d="M253 141h-189v40h189l1 46h-190v40h170l-212 443h156l148 -348l142 348h158l-209 -443h169v-40h-187v-46h187v-40h-187v-141h-146v141z" />
    <glyph glyph-name="section" unicode="&#xa7;" horiz-adv-x="553" 
d="M116.5 31q-66.5 47 -71.5 127l118 24q2 -49 36 -76t88 -27q41 0 68.5 16t27.5 44q-1 23 -25 39t-78 30l-75 16q-70 16 -107 48t-37 91q0 33 15.5 61t42.5 49q-34 34 -34 91q0 48 24 85t67 57.5t97 20.5q79 0 133.5 -41.5t59.5 -111.5l-113 -21q-2 37 -24.5 58.5
t-55.5 21.5q-30 0 -49 -16.5t-19 -40.5q0 -22 16.5 -36.5t52.5 -25.5l88 -21q139 -32 140 -136q0 -61 -48 -106q54 -38 54 -102q0 -50 -29 -87.5t-80 -57.5t-115 -20q-101 0 -167.5 47zM373.5 312.5q9.5 13.5 9.5 29.5q0 41 -70 59l-98 26q-18 -9 -29 -23.5t-11 -31.5
q-1 -37 57 -52l115 -30q17 9 26.5 22.5z" />
    <glyph glyph-name="dieresis" unicode="&#xa8;" horiz-adv-x="454" 
d="M57 616.5q-21 20.5 -21 52.5t21 52.5t54 20.5t54.5 -20.5t21.5 -52.5t-21.5 -52.5t-54.5 -20.5t-54 20.5zM288.5 617q-21.5 21 -21.5 52q0 32 21.5 52.5t53.5 20.5q34 0 55 -20.5t21 -52.5t-21 -52.5t-55 -20.5q-32 0 -53.5 21z" />
    <glyph glyph-name="copyright" unicode="&#xa9;" horiz-adv-x="807" 
d="M218 23.5q-82 48.5 -127.5 136t-45.5 199.5q0 113 46 200.5t127.5 136.5t185.5 49t185.5 -49t127 -136.5t45.5 -200.5q0 -112 -45.5 -199.5t-127 -136t-185.5 -48.5t-186 48.5zM569 58.5q72 43.5 112.5 121.5t40.5 178q0 101 -40.5 180t-112 123t-163.5 44
q-94 0 -167 -44t-113.5 -123t-40.5 -180q0 -100 41 -178t114 -121.5t166 -43.5q91 0 163 43.5zM282 119q-56 33 -86.5 94t-30.5 142q0 83 29 145t82 96t123 34q85 0 143.5 -49t75.5 -133l-121 -29q-10 49 -36 76t-61 27q-48 0 -76.5 -44t-28.5 -120q1 -76 33 -120t86 -44
q45 0 76 33t38 90l121 -22q-13 -95 -77.5 -152t-159.5 -57q-74 0 -130 33z" />
    <glyph glyph-name="guillemotleft" unicode="&#xab;" horiz-adv-x="453" 
d="M40 255l180 265l33 -22l-163 -243l163 -243l-33 -22zM200 255l180 265l33 -22l-163 -243l163 -243l-33 -22z" />
    <glyph glyph-name="logicalnot" unicode="&#xac;" horiz-adv-x="600" 
d="M433 362h-376v102h486v-287h-110v185z" />
    <glyph glyph-name="registered" unicode="&#xae;" horiz-adv-x="807" 
d="M218 23.5q-82 48.5 -127.5 136t-45.5 199.5q0 113 46 200.5t127.5 136.5t185.5 49t185.5 -49t127 -136.5t45.5 -200.5q0 -112 -45.5 -199.5t-127 -136t-185.5 -48.5t-186 48.5zM569 58.5q72 43.5 112.5 121.5t40.5 178q0 101 -40.5 180t-112 123t-163.5 44
q-94 0 -167 -44t-113.5 -123t-40.5 -180q0 -100 41 -178t114 -121.5t166 -43.5q91 0 163 43.5zM238 626h178q82 0 129 -43t47 -116q0 -50 -24 -86t-68 -53l89 -217h-114l-73 201h-58v-201h-106v515zM411 395q36 0 58 19.5t22 51.5t-22 52t-58 20h-67v-143h67z" />
    <glyph glyph-name="macron" unicode="&#xaf;" horiz-adv-x="374" 
d="M45 637h283v-40h-283v40z" />
    <glyph glyph-name="degree" unicode="&#xb0;" horiz-adv-x="479" 
d="M137.5 361.5q-45.5 25.5 -71.5 70.5t-26 101q0 58 26 104.5t71.5 72.5t102.5 26t102.5 -26t71.5 -71.5t26 -103.5q0 -57 -26 -102.5t-71.5 -71t-102.5 -25.5t-102.5 25.5zM322.5 396.5q36.5 20.5 57 57t20.5 81.5q0 46 -20.5 82.5t-57 57.5t-81.5 21q-46 0 -83 -21
t-57.5 -57.5t-20.5 -82.5q0 -45 21 -81.5t57.5 -57t82.5 -20.5q45 0 81.5 20.5z" />
    <glyph glyph-name="plusminus" unicode="&#xb1;" horiz-adv-x="525" 
d="M205 380h-148v100h148v107h115v-107h147v-100h-147v-113h-115v113zM58 190h410v-40h-410v40z" />
    <glyph glyph-name="acute" unicode="&#xb4;" horiz-adv-x="199" 
d="M36 620l89 150l34 -20l-89 -150z" />
    <glyph glyph-name="paragraph" unicode="&#xb6;" horiz-adv-x="693" 
d="M265 310q-67 0 -118 24.5t-79 69.5t-28 104q0 60 28 106t79 71t118 25h388v-95h-75v-830h-116v830h-82v-830h-115v525z" />
    <glyph glyph-name="periodcentered" unicode="&#xb7;" horiz-adv-x="261" 
d="M72 235.5q-23 22.5 -23 57.5q0 34 23 56.5t58 22.5q36 0 59 -22t23 -57t-23 -57.5t-59 -22.5q-35 0 -58 22.5z" />
    <glyph glyph-name="cedilla" unicode="&#xb8;" horiz-adv-x="257" 
d="M75 -190q-26 15 -39 38l31 25q8 -17 26 -27.5t37 -10.5q23 0 37 10t14 27q0 19 -18 31t-47 12h-35l10 87h40l-6 -50q44 -3 70 -23t26 -55q0 -36 -25 -57.5t-66 -21.5q-29 0 -55 15z" />
    <glyph glyph-name="guillemotright" unicode="&#xbb;" horiz-adv-x="454" 
d="M40 12l163 243l-163 243l33 22l180 -265l-180 -265zM201 12l163 243l-163 243l33 22l180 -265l-180 -265z" />
    <glyph glyph-name="questiondown" unicode="&#xbf;" horiz-adv-x="532" 
d="M321 509.5q23 -22.5 23 -57.5t-23 -57t-59 -22q-35 0 -58.5 22.5t-23.5 56.5q0 35 23.5 57.5t58.5 22.5q36 0 59 -22.5zM305.5 197q-19.5 -42 -61.5 -78l-25 -21q-25 -21 -38 -43t-13 -52q0 -43 25.5 -71t65.5 -28q44 0 72.5 36.5t30.5 98.5l132 -29q-2 -67 -33 -117.5
t-84 -78t-120 -27.5t-120 26.5t-82.5 73.5t-29.5 108q0 56 23 95.5t67 71.5l28 21q32 25 46 53t14 77h122q0 -74 -19.5 -116z" />
    <glyph glyph-name="Agrave" unicode="&#xc0;" 
d="M252 710h181l231 -710h-149l-45 149h-255l-45 -149h-148zM444 259l-99 328h-2l-102 -328h203zM263 909l34 21l75 -131l-34 -19z" />
    <glyph glyph-name="Aacute" unicode="&#xc1;" 
d="M252 710h181l231 -710h-149l-45 149h-255l-45 -149h-148zM444 259l-99 328h-2l-102 -328h203zM325 799l75 131l34 -21l-75 -129z" />
    <glyph glyph-name="Acircumflex" unicode="&#xc2;" 
d="M252 710h181l231 -710h-149l-45 149h-255l-45 -149h-148zM444 259l-99 328h-2l-102 -328h203zM211 806l105 114h54l104 -114l-29 -26l-103 109l-101 -109z" />
    <glyph glyph-name="Atilde" unicode="&#xc3;" 
d="M252 710h181l231 -710h-149l-45 149h-255l-45 -149h-148zM444 259l-99 328h-2l-102 -328h203zM364 796.5q-18 16.5 -41 48.5q-14 19 -24.5 28.5t-21.5 9.5q-20 0 -32.5 -26.5t-12.5 -66.5h-40q0 59 23 96t62 37q27 0 44.5 -16t38.5 -46q14 -21 24.5 -31t23.5 -10
q20 0 33 26.5t13 67.5h41q0 -59 -23.5 -96.5t-62.5 -37.5q-27 0 -45 16.5z" />
    <glyph glyph-name="Adieresis" unicode="&#xc4;" 
d="M252 710h181l231 -710h-149l-45 149h-255l-45 -149h-148zM444 259l-99 328h-2l-102 -328h203zM167.5 812q-21.5 21 -21.5 54q0 32 21.5 53t54.5 21t54.5 -21t21.5 -53q0 -33 -21.5 -54t-54.5 -21t-54.5 21zM411 812q-21 21 -21 54q0 32 21 53t54 21t54 -21t21 -53
q0 -33 -21 -54t-54 -21t-54 21z" />
    <glyph glyph-name="Aring" unicode="&#xc5;" 
d="M252 710h181l231 -710h-149l-45 149h-255l-45 -149h-148zM444 259l-99 328h-2l-102 -328h203zM275 807q-27 27 -27 68t27 68t68 27t68 -27t27 -68t-26.5 -68t-68.5 -27q-41 0 -68 27zM382 835.5q15 15.5 15 39.5t-15 39.5t-40 15.5q-23 0 -39 -15.5t-16 -39.5t16 -39.5
t39 -15.5q25 0 40 15.5z" />
    <glyph glyph-name="AE" unicode="&#xc6;" horiz-adv-x="896" 
d="M348 710h500v-120h-266v-176h226v-107h-226v-187h276v-120h-417v125h-210l-57 -125h-160zM441 232v364h-1l-168 -364h169z" />
    <glyph glyph-name="Ccedilla" unicode="&#xc7;" horiz-adv-x="749" 
d="M617 62q-83 -79 -210 -84l-3 -26q44 -3 70 -23t26 -55q0 -36 -25 -57.5t-66 -21.5q-29 0 -55 15t-39 38l31 25q8 -17 26 -27.5t37 -10.5q23 0 37 10t14 27q0 19 -18 31t-47 12h-35l7 64q-99 5 -171.5 52t-111.5 130t-39 194q0 115 39.5 200.5t113.5 131t173 45.5
q116 0 194.5 -69.5t98.5 -192.5l-136 -27q-13 78 -54.5 121t-103.5 43q-83 0 -131 -67.5t-48 -184.5q0 -116 53.5 -183t146.5 -67q75 0 126 51.5t64 140.5l136 -25q-17 -131 -100 -210z" />
    <glyph glyph-name="Egrave" unicode="&#xc8;" horiz-adv-x="555" 
d="M68 710h439v-119h-298v-173h258v-107h-258v-191h308v-120h-449v710zM214 909l34 21l75 -131l-34 -19z" />
    <glyph glyph-name="Eacute" unicode="&#xc9;" horiz-adv-x="555" 
d="M68 710h439v-119h-298v-173h258v-107h-258v-191h308v-120h-449v710zM276 799l75 131l34 -21l-75 -129z" />
    <glyph glyph-name="Ecircumflex" unicode="&#xca;" horiz-adv-x="555" 
d="M68 710h439v-119h-298v-173h258v-107h-258v-191h308v-120h-449v710zM163 806l105 114h54l104 -114l-29 -26l-103 109l-101 -109z" />
    <glyph glyph-name="Edieresis" unicode="&#xcb;" horiz-adv-x="555" 
d="M68 710h439v-119h-298v-173h258v-107h-258v-191h308v-120h-449v710zM119.5 812q-21.5 21 -21.5 54q0 32 21.5 53t54.5 21t54.5 -21t21.5 -53q0 -33 -21.5 -54t-54.5 -21t-54.5 21zM363 812q-21 21 -21 54q0 32 21 53t54 21t54 -21t21 -53q0 -33 -21 -54t-54 -21t-54 21z
" />
    <glyph glyph-name="Igrave" unicode="&#xcc;" horiz-adv-x="283" 
d="M33 902l29 27l119 -122l-28 -28zM68 710h146v-710h-146v710z" />
    <glyph glyph-name="Iacute" unicode="&#xcd;" horiz-adv-x="283" 
d="M101 807l120 122l28 -27l-120 -123zM68 710h146v-710h-146v710z" />
    <glyph glyph-name="Icircumflex" unicode="&#xce;" horiz-adv-x="283" 
d="M14 806l100 114h54l101 -114l-31 -26l-98 109l-95 -109zM68 710h146v-710h-146v710z" />
    <glyph glyph-name="Idieresis" unicode="&#xcf;" horiz-adv-x="283" 
d="M-3 812q-21 21 -21 54q0 32 21 53t54 21t54.5 -21t21.5 -53q0 -33 -21.5 -54t-54.5 -21t-54 21zM178 812q-21 21 -21 54q0 32 21 53t54 21t54 -21t21 -53q0 -33 -21 -54t-54 -21t-54 21zM68 710h146v-710h-146v710z" />
    <glyph glyph-name="Ntilde" unicode="&#xd1;" horiz-adv-x="715" 
d="M68 710h184l254 -532h2v532h138v-710h-183l-255 531h-2v-531h-138v710zM383 796.5q-18 16.5 -41 48.5q-14 19 -24.5 28.5t-21.5 9.5q-20 0 -32.5 -26.5t-12.5 -66.5h-40q0 59 23 96t62 37q27 0 44.5 -16t38.5 -46q14 -21 24.5 -31t23.5 -10q20 0 33 26.5t13 67.5h41
q0 -59 -23.5 -96.5t-62.5 -37.5q-27 0 -45 16.5z" />
    <glyph glyph-name="Ograve" unicode="&#xd2;" horiz-adv-x="798" 
d="M213 24.5q-80 46.5 -124 132t-44 198.5t44 198.5t124 132t186 46.5t185.5 -46.5t123.5 -132t44 -198.5q0 -112 -44 -197.5t-124 -132.5t-185 -47q-106 0 -186 46.5zM508.5 134.5q47.5 31.5 73 88.5t25.5 132t-25.5 132t-73 88.5t-109.5 31.5t-109.5 -31.5t-73 -88.5
t-25.5 -132t25.5 -132t73 -88.5t109.5 -31.5t109.5 31.5zM319 909l34 21l75 -131l-34 -19z" />
    <glyph glyph-name="Oacute" unicode="&#xd3;" horiz-adv-x="798" 
d="M213 24.5q-80 46.5 -124 132t-44 198.5t44 198.5t124 132t186 46.5t185.5 -46.5t123.5 -132t44 -198.5q0 -112 -44 -197.5t-124 -132.5t-185 -47q-106 0 -186 46.5zM508.5 134.5q47.5 31.5 73 88.5t25.5 132t-25.5 132t-73 88.5t-109.5 31.5t-109.5 -31.5t-73 -88.5
t-25.5 -132t25.5 -132t73 -88.5t109.5 -31.5t109.5 31.5zM381 799l75 131l34 -21l-75 -129z" />
    <glyph glyph-name="Ocircumflex" unicode="&#xd4;" horiz-adv-x="798" 
d="M213 24.5q-80 46.5 -124 132t-44 198.5t44 198.5t124 132t186 46.5t185.5 -46.5t123.5 -132t44 -198.5q0 -112 -44 -197.5t-124 -132.5t-185 -47q-106 0 -186 46.5zM508.5 134.5q47.5 31.5 73 88.5t25.5 132t-25.5 132t-73 88.5t-109.5 31.5t-109.5 -31.5t-73 -88.5
t-25.5 -132t25.5 -132t73 -88.5t109.5 -31.5t109.5 31.5zM267 806l105 114h54l104 -114l-29 -26l-103 109l-101 -109z" />
    <glyph glyph-name="Otilde" unicode="&#xd5;" horiz-adv-x="798" 
d="M213 24.5q-80 46.5 -124 132t-44 198.5t44 198.5t124 132t186 46.5t185.5 -46.5t123.5 -132t44 -198.5q0 -112 -44 -197.5t-124 -132.5t-185 -47q-106 0 -186 46.5zM508.5 134.5q47.5 31.5 73 88.5t25.5 132t-25.5 132t-73 88.5t-109.5 31.5t-109.5 -31.5t-73 -88.5
t-25.5 -132t25.5 -132t73 -88.5t109.5 -31.5t109.5 31.5zM420 796.5q-18 16.5 -41 48.5q-14 19 -24.5 28.5t-21.5 9.5q-20 0 -32.5 -26.5t-12.5 -66.5h-40q0 59 23 96t62 37q27 0 44.5 -16t38.5 -46q14 -21 24.5 -31t23.5 -10q20 0 33 26.5t13 67.5h41q0 -59 -23.5 -96.5
t-62.5 -37.5q-27 0 -45 16.5z" />
    <glyph glyph-name="Odieresis" unicode="&#xd6;" horiz-adv-x="798" 
d="M213 24.5q-80 46.5 -124 132t-44 198.5t44 198.5t124 132t186 46.5t185.5 -46.5t123.5 -132t44 -198.5q0 -112 -44 -197.5t-124 -132.5t-185 -47q-106 0 -186 46.5zM508.5 134.5q47.5 31.5 73 88.5t25.5 132t-25.5 132t-73 88.5t-109.5 31.5t-109.5 -31.5t-73 -88.5
t-25.5 -132t25.5 -132t73 -88.5t109.5 -31.5t109.5 31.5zM223.5 812q-21.5 21 -21.5 54q0 32 21.5 53t54.5 21t54.5 -21t21.5 -53q0 -33 -21.5 -54t-54.5 -21t-54.5 21zM467 812q-21 21 -21 54q0 32 21 53t54 21t54 -21t21 -53q0 -33 -21 -54t-54 -21t-54 21z" />
    <glyph glyph-name="multiply" unicode="&#xd7;" horiz-adv-x="428" 
d="M58 262l86 101l-87 102l76 75l81 -97l81 96l76 -75l-86 -101l86 -101l-76 -75l-81 96l-81 -96z" />
    <glyph glyph-name="Oslash" unicode="&#xd8;" horiz-adv-x="798" 
d="M692 582q60 -94 60 -227q0 -112 -44 -197.5t-124 -132.5t-185 -47q-39 0 -81 8l-35 -123l-39 10l35 123q-109 34 -171.5 128.5t-62.5 230.5q0 113 44 198.5t124 132t186 46.5q46 0 88 -9l29 101l39 -11l-29 -101q106 -36 166 -130zM224 207.5q33 -61.5 91 -87.5l137 481
q-25 6 -53 6q-62 0 -109.5 -31.5t-73 -88.5t-25.5 -132q0 -86 33 -147.5zM508.5 134.5q47.5 31.5 73 88.5t25.5 132q0 83 -31 143.5t-86 87.5l-137 -478q25 -5 46 -5q62 0 109.5 31.5z" />
    <glyph glyph-name="Ugrave" unicode="&#xd9;" 
d="M192.5 10.5q-63.5 32.5 -97.5 93t-34 142.5v464h145v-458q0 -66 37.5 -107.5t99.5 -41.5q63 0 99.5 40.5t36.5 109.5v457h146v-464q0 -82 -34 -142.5t-98 -93t-150 -32.5q-87 0 -150.5 32.5zM262 909l34 21l75 -131l-34 -19z" />
    <glyph glyph-name="Uacute" unicode="&#xda;" 
d="M192.5 10.5q-63.5 32.5 -97.5 93t-34 142.5v464h145v-458q0 -66 37.5 -107.5t99.5 -41.5q63 0 99.5 40.5t36.5 109.5v457h146v-464q0 -82 -34 -142.5t-98 -93t-150 -32.5q-87 0 -150.5 32.5zM324 799l75 131l34 -21l-75 -129z" />
    <glyph glyph-name="Ucircumflex" unicode="&#xdb;" 
d="M192.5 10.5q-63.5 32.5 -97.5 93t-34 142.5v464h145v-458q0 -66 37.5 -107.5t99.5 -41.5q63 0 99.5 40.5t36.5 109.5v457h146v-464q0 -82 -34 -142.5t-98 -93t-150 -32.5q-87 0 -150.5 32.5zM211 806l105 114h54l104 -114l-29 -26l-103 109l-101 -109z" />
    <glyph glyph-name="Udieresis" unicode="&#xdc;" 
d="M192.5 10.5q-63.5 32.5 -97.5 93t-34 142.5v464h145v-458q0 -66 37.5 -107.5t99.5 -41.5q63 0 99.5 40.5t36.5 109.5v457h146v-464q0 -82 -34 -142.5t-98 -93t-150 -32.5q-87 0 -150.5 32.5zM166.5 812q-21.5 21 -21.5 54q0 32 21.5 53t54.5 21t54.5 -21t21.5 -53
q0 -33 -21.5 -54t-54.5 -21t-54.5 21zM410 812q-21 21 -21 54q0 32 21 53t54 21t54 -21t21 -53q0 -33 -21 -54t-54 -21t-54 21z" />
    <glyph glyph-name="Yacute" unicode="&#xdd;" horiz-adv-x="637" 
d="M247 250l-225 460h153l145 -325h1l138 325h156l-222 -460v-250h-146v250zM301 799l75 131l34 -21l-75 -129z" />
    <glyph glyph-name="germandbls" unicode="&#xdf;" horiz-adv-x="610" 
d="M548.5 228.5q20.5 -35.5 20.5 -81.5q0 -71 -47 -114.5t-121 -43.5q-65 0 -109.5 39.5t-54.5 106.5l73 57q4 -45 25 -70.5t51 -25.5q23 0 36.5 12.5t13.5 36.5q0 19 -12 36.5t-37 36.5l-56 42q-40 29 -57.5 57t-17.5 61q0 49 31 83.5t95 58.5q4 30 4 41q0 38 -23 59.5
t-63 21.5q-48 0 -75 -35t-27 -98v-509h-137v511q0 114 64 179t177 65q99 0 159 -51t60 -141q0 -60 -22 -105q-60 -11 -84.5 -26t-24.5 -39q0 -12 10 -25t32 -31l53 -42q43 -31 63.5 -66.5z" />
    <glyph glyph-name="agrave" unicode="&#xe0;" horiz-adv-x="597" 
d="M76.5 27.5q-45.5 39.5 -45.5 106.5q0 69 52.5 113.5t151.5 54.5l81 9q19 2 30.5 14t11.5 32q0 32 -25 51t-64 19q-45 0 -73.5 -29.5t-30.5 -71.5l-120 28q2 48 31 87.5t79 62.5t115 23q98 0 156.5 -52t58.5 -138v-221q0 -29 23 -29q19 0 38 20l36 -76
q-21 -21 -52.5 -32.5t-63.5 -11.5q-42 0 -70.5 21.5t-36.5 55.5l-2 11h-1q-24 -42 -65.5 -64.5t-94.5 -22.5q-74 0 -119.5 39.5zM323.5 120q31.5 33 31.5 86v26l-90 -10q-52 -6 -77.5 -25.5t-25.5 -49.5q0 -28 22.5 -44t59.5 -16q48 0 79.5 33zM175 750l34 20l89 -150
l-34 -20z" />
    <glyph glyph-name="aacute" unicode="&#xe1;" horiz-adv-x="597" 
d="M76.5 27.5q-45.5 39.5 -45.5 106.5q0 69 52.5 113.5t151.5 54.5l81 9q19 2 30.5 14t11.5 32q0 32 -25 51t-64 19q-45 0 -73.5 -29.5t-30.5 -71.5l-120 28q2 48 31 87.5t79 62.5t115 23q98 0 156.5 -52t58.5 -138v-221q0 -29 23 -29q19 0 38 20l36 -76
q-21 -21 -52.5 -32.5t-63.5 -11.5q-42 0 -70.5 21.5t-36.5 55.5l-2 11h-1q-24 -42 -65.5 -64.5t-94.5 -22.5q-74 0 -119.5 39.5zM323.5 120q31.5 33 31.5 86v26l-90 -10q-52 -6 -77.5 -25.5t-25.5 -49.5q0 -28 22.5 -44t59.5 -16q48 0 79.5 33zM248 620l89 150l34 -20
l-89 -150z" />
    <glyph glyph-name="acircumflex" unicode="&#xe2;" horiz-adv-x="597" 
d="M76.5 27.5q-45.5 39.5 -45.5 106.5q0 69 52.5 113.5t151.5 54.5l81 9q19 2 30.5 14t11.5 32q0 32 -25 51t-64 19q-45 0 -73.5 -29.5t-30.5 -71.5l-120 28q2 48 31 87.5t79 62.5t115 23q98 0 156.5 -52t58.5 -138v-221q0 -29 23 -29q19 0 38 20l36 -76
q-21 -21 -52.5 -32.5t-63.5 -11.5q-42 0 -70.5 21.5t-36.5 55.5l-2 11h-1q-24 -42 -65.5 -64.5t-94.5 -22.5q-74 0 -119.5 39.5zM323.5 120q31.5 33 31.5 86v26l-90 -10q-52 -6 -77.5 -25.5t-25.5 -49.5q0 -28 22.5 -44t59.5 -16q48 0 79.5 33zM121 616l122 134h54l123 -134
l-30 -26l-120 129l-119 -129z" />
    <glyph glyph-name="atilde" unicode="&#xe3;" horiz-adv-x="597" 
d="M76.5 27.5q-45.5 39.5 -45.5 106.5q0 69 52.5 113.5t151.5 54.5l81 9q19 2 30.5 14t11.5 32q0 32 -25 51t-64 19q-45 0 -73.5 -29.5t-30.5 -71.5l-120 28q2 48 31 87.5t79 62.5t115 23q98 0 156.5 -52t58.5 -138v-221q0 -29 23 -29q19 0 38 20l36 -76
q-21 -21 -52.5 -32.5t-63.5 -11.5q-42 0 -70.5 21.5t-36.5 55.5l-2 11h-1q-24 -42 -65.5 -64.5t-94.5 -22.5q-74 0 -119.5 39.5zM323.5 120q31.5 33 31.5 86v26l-90 -10q-52 -6 -77.5 -25.5t-25.5 -49.5q0 -28 22.5 -44t59.5 -16q48 0 79.5 33zM294 604.5q-18 14.5 -36 39.5
q-19 26 -30 37.5t-24 11.5q-20 0 -32.5 -26.5t-12.5 -66.5h-40q0 59 23 96t62 37q25 0 43 -15t36 -41q19 -26 28.5 -36.5t23.5 -10.5q20 0 33 26.5t13 67.5h41q0 -59 -23.5 -96.5t-62.5 -37.5q-24 0 -42 14.5z" />
    <glyph glyph-name="adieresis" unicode="&#xe4;" horiz-adv-x="597" 
d="M76.5 27.5q-45.5 39.5 -45.5 106.5q0 69 52.5 113.5t151.5 54.5l81 9q19 2 30.5 14t11.5 32q0 32 -25 51t-64 19q-45 0 -73.5 -29.5t-30.5 -71.5l-120 28q2 48 31 87.5t79 62.5t115 23q98 0 156.5 -52t58.5 -138v-221q0 -29 23 -29q19 0 38 20l36 -76
q-21 -21 -52.5 -32.5t-63.5 -11.5q-42 0 -70.5 21.5t-36.5 55.5l-2 11h-1q-24 -42 -65.5 -64.5t-94.5 -22.5q-74 0 -119.5 39.5zM323.5 120q31.5 33 31.5 86v26l-90 -10q-52 -6 -77.5 -25.5t-25.5 -49.5q0 -28 22.5 -44t59.5 -16q48 0 79.5 33zM100 616.5q-21 20.5 -21 52.5
t21 52.5t54 20.5t54.5 -20.5t21.5 -52.5t-21.5 -52.5t-54.5 -20.5t-54 20.5zM331.5 617q-21.5 21 -21.5 52q0 32 21.5 52.5t53.5 20.5q34 0 55 -20.5t21 -52.5t-21 -52.5t-55 -20.5q-32 0 -53.5 21z" />
    <glyph glyph-name="aring" unicode="&#xe5;" horiz-adv-x="597" 
d="M76.5 27.5q-45.5 39.5 -45.5 106.5q0 69 52.5 113.5t151.5 54.5l81 9q19 2 30.5 14t11.5 32q0 32 -25 51t-64 19q-45 0 -73.5 -29.5t-30.5 -71.5l-120 28q2 48 31 87.5t79 62.5t115 23q98 0 156.5 -52t58.5 -138v-221q0 -29 23 -29q19 0 38 20l36 -76
q-21 -21 -52.5 -32.5t-63.5 -11.5q-42 0 -70.5 21.5t-36.5 55.5l-2 11h-1q-24 -42 -65.5 -64.5t-94.5 -22.5q-74 0 -119.5 39.5zM323.5 120q31.5 33 31.5 86v26l-90 -10q-52 -6 -77.5 -25.5t-25.5 -49.5q0 -28 22.5 -44t59.5 -16q48 0 79.5 33zM201.5 617.5
q-26.5 27.5 -26.5 69.5q0 40 27 66.5t68 26.5t67.5 -27t27.5 -68q0 -41 -26.5 -68t-68.5 -27t-68.5 27.5zM309 645.5q15 15.5 15 39.5t-15 39.5t-40 15.5q-23 0 -39 -15.5t-16 -39.5t16 -39.5t39 -15.5q25 0 40 15.5z" />
    <glyph glyph-name="ae" unicode="&#xe6;" horiz-adv-x="860" 
d="M122 2q-43 19 -67 53.5t-24 78.5q0 67 52.5 110.5t148.5 53.5l86 10q41 5 41 48q0 33 -24 52t-60 19q-47 0 -76 -28.5t-31 -68.5l-120 28q2 46 29 85t73.5 61.5t105.5 22.5q56 0 103 -22.5t71 -63.5q27 41 71 63.5t99 22.5q63 0 111 -32t74.5 -91.5t26.5 -138.5
q0 -25 -5 -48h-317q7 -60 41 -96.5t84 -36.5q35 0 63 21.5t45 61.5l102 -40q-25 -70 -79 -107t-126 -37q-67 0 -117.5 33t-73.5 91q-24 -60 -80 -92t-130 -32q-54 0 -97 19zM678 303q-1 56 -26 89.5t-66 33.5q-38 0 -64 -33.5t-31 -89.5h187zM327.5 116q31.5 33 31.5 86v28
l-104 -11q-43 -4 -68 -23.5t-25 -48.5t23.5 -46.5t60.5 -17.5q50 0 81.5 33z" />
    <glyph glyph-name="ccedilla" unicode="&#xe7;" horiz-adv-x="556" 
d="M451.5 44.5q-59.5 -56.5 -148.5 -61.5l-4 -31q44 -3 70 -23t26 -55q0 -36 -25 -57.5t-66 -21.5q-29 0 -55 15t-39 38l31 25q8 -17 26 -27.5t37 -10.5q23 0 37 10t14 27q0 19 -18 31t-47 12h-35l8 69q-102 8 -162.5 80t-60.5 188q0 83 29 145t82 96t123 34q85 0 143.5 -49
t75.5 -133l-121 -29q-10 49 -36 76t-61 27q-48 0 -76.5 -44t-28.5 -120t32.5 -120t85.5 -44q45 0 76 32.5t39 90.5l121 -22q-13 -91 -72.5 -147.5z" />
    <glyph glyph-name="egrave" unicode="&#xe8;" horiz-adv-x="563" 
d="M166 17q-60 34 -93 97t-33 146q0 80 30 140.5t85 93.5t128 33q71 0 124 -32t81.5 -91.5t28.5 -138.5q0 -35 -4 -48h-343q5 -62 41.5 -97.5t94.5 -35.5q43 0 75 21t46 58l101 -40q-21 -65 -81.5 -102.5t-140.5 -37.5t-140 34zM385 302q-3 59 -29.5 91.5t-72.5 32.5
q-49 0 -77.5 -32.5t-35.5 -91.5h215zM186 750l34 20l89 -150l-34 -20z" />
    <glyph glyph-name="eacute" unicode="&#xe9;" horiz-adv-x="563" 
d="M166 17q-60 34 -93 97t-33 146q0 80 30 140.5t85 93.5t128 33q71 0 124 -32t81.5 -91.5t28.5 -138.5q0 -35 -4 -48h-343q5 -62 41.5 -97.5t94.5 -35.5q43 0 75 21t46 58l101 -40q-21 -65 -81.5 -102.5t-140.5 -37.5t-140 34zM385 302q-3 59 -29.5 91.5t-72.5 32.5
q-49 0 -77.5 -32.5t-35.5 -91.5h215zM259 620l89 150l34 -20l-89 -150z" />
    <glyph glyph-name="ecircumflex" unicode="&#xea;" horiz-adv-x="563" 
d="M166 17q-60 34 -93 97t-33 146q0 80 30 140.5t85 93.5t128 33q71 0 124 -32t81.5 -91.5t28.5 -138.5q0 -35 -4 -48h-343q5 -62 41.5 -97.5t94.5 -35.5q43 0 75 21t46 58l101 -40q-21 -65 -81.5 -102.5t-140.5 -37.5t-140 34zM385 302q-3 59 -29.5 91.5t-72.5 32.5
q-49 0 -77.5 -32.5t-35.5 -91.5h215zM132 616l122 134h54l123 -134l-30 -26l-120 129l-119 -129z" />
    <glyph glyph-name="edieresis" unicode="&#xeb;" horiz-adv-x="563" 
d="M166 17q-60 34 -93 97t-33 146q0 80 30 140.5t85 93.5t128 33q71 0 124 -32t81.5 -91.5t28.5 -138.5q0 -35 -4 -48h-343q5 -62 41.5 -97.5t94.5 -35.5q43 0 75 21t46 58l101 -40q-21 -65 -81.5 -102.5t-140.5 -37.5t-140 34zM385 302q-3 59 -29.5 91.5t-72.5 32.5
q-49 0 -77.5 -32.5t-35.5 -91.5h215zM111 616.5q-21 20.5 -21 52.5t21 52.5t54 20.5t54.5 -20.5t21.5 -52.5t-21.5 -52.5t-54.5 -20.5t-54 20.5zM342.5 617q-21.5 21 -21.5 52q0 32 21.5 52.5t53.5 20.5q34 0 55 -20.5t21 -52.5t-21 -52.5t-55 -20.5q-32 0 -53.5 21z" />
    <glyph glyph-name="igrave" unicode="&#xec;" horiz-adv-x="245" 
d="M2 731l29 27l142 -142l-28 -28zM57 510h131v-510h-131v510z" />
    <glyph glyph-name="iacute" unicode="&#xed;" horiz-adv-x="245" 
d="M73 616l142 142l29 -27l-143 -143zM57 510h131v-510h-131v510z" />
    <glyph glyph-name="icircumflex" unicode="&#xee;" horiz-adv-x="245" 
d="M-9 614l104 136h54l105 -136l-32 -24l-100 129l-99 -129zM57 510h131v-510h-131v510z" />
    <glyph glyph-name="idieresis" unicode="&#xef;" horiz-adv-x="246" 
d="M-20 615.5q-21 20.5 -21 53.5q0 32 21 52.5t54 20.5q34 0 55 -20.5t21 -52.5q0 -33 -21 -53.5t-55 -20.5q-33 0 -54 20.5zM156.5 615.5q-20.5 20.5 -20.5 53.5q0 32 20.5 52.5t54.5 20.5t55 -20.5t21 -52.5q0 -33 -21 -53.5t-55 -20.5t-54.5 20.5zM57 510h131v-510h-131
v510z" />
    <glyph glyph-name="ntilde" unicode="&#xf1;" horiz-adv-x="552" 
d="M457.5 480.5q40.5 -43.5 40.5 -121.5v-359h-130v334q0 39 -20.5 61t-55.5 22q-47 0 -75.5 -31t-28.5 -83v-303h-131v510h110l17 -77h1q24 44 65.5 67.5t94.5 23.5q72 0 112.5 -43.5zM307 604.5q-18 14.5 -36 39.5q-19 26 -30 37.5t-24 11.5q-20 0 -32.5 -26.5
t-12.5 -66.5h-40q0 59 23 96t62 37q25 0 43 -15t36 -41q19 -26 28.5 -36.5t23.5 -10.5q20 0 33 26.5t13 67.5h41q0 -59 -23.5 -96.5t-62.5 -37.5q-24 0 -42 14.5z" />
    <glyph glyph-name="ograve" unicode="&#xf2;" horiz-adv-x="583" 
d="M159 16.5q-57 33.5 -88 95.5t-31 144t31 143t88 94.5t133 33.5t133 -33.5t88 -94.5t31 -143t-31 -144t-88 -95.5t-133 -33.5t-133 33.5zM381 138.5q33 43.5 33 117.5q0 73 -33 116t-89 43t-89 -43t-33 -116q0 -74 33 -117.5t89 -43.5t89 43.5zM197 750l34 20l89 -150
l-34 -20z" />
    <glyph glyph-name="oacute" unicode="&#xf3;" horiz-adv-x="583" 
d="M159 16.5q-57 33.5 -88 95.5t-31 144t31 143t88 94.5t133 33.5t133 -33.5t88 -94.5t31 -143t-31 -144t-88 -95.5t-133 -33.5t-133 33.5zM381 138.5q33 43.5 33 117.5q0 73 -33 116t-89 43t-89 -43t-33 -116q0 -74 33 -117.5t89 -43.5t89 43.5zM269 620l89 150l34 -20
l-89 -150z" />
    <glyph glyph-name="ocircumflex" unicode="&#xf4;" horiz-adv-x="583" 
d="M159 16.5q-57 33.5 -88 95.5t-31 144t31 143t88 94.5t133 33.5t133 -33.5t88 -94.5t31 -143t-31 -144t-88 -95.5t-133 -33.5t-133 33.5zM381 138.5q33 43.5 33 117.5q0 73 -33 116t-89 43t-89 -43t-33 -116q0 -74 33 -117.5t89 -43.5t89 43.5zM143 616l122 134h54
l123 -134l-30 -26l-120 129l-119 -129z" />
    <glyph glyph-name="otilde" unicode="&#xf5;" horiz-adv-x="583" 
d="M159 16.5q-57 33.5 -88 95.5t-31 144t31 143t88 94.5t133 33.5t133 -33.5t88 -94.5t31 -143t-31 -144t-88 -95.5t-133 -33.5t-133 33.5zM381 138.5q33 43.5 33 117.5q0 73 -33 116t-89 43t-89 -43t-33 -116q0 -74 33 -117.5t89 -43.5t89 43.5zM315 604.5
q-18 14.5 -36 39.5q-19 26 -30 37.5t-24 11.5q-20 0 -32.5 -26.5t-12.5 -66.5h-40q0 59 23 96t62 37q25 0 43 -15t36 -41q19 -26 28.5 -36.5t23.5 -10.5q20 0 33 26.5t13 67.5h41q0 -59 -23.5 -96.5t-62.5 -37.5q-24 0 -42 14.5z" />
    <glyph glyph-name="odieresis" unicode="&#xf6;" horiz-adv-x="583" 
d="M159 16.5q-57 33.5 -88 95.5t-31 144t31 143t88 94.5t133 33.5t133 -33.5t88 -94.5t31 -143t-31 -144t-88 -95.5t-133 -33.5t-133 33.5zM381 138.5q33 43.5 33 117.5q0 73 -33 116t-89 43t-89 -43t-33 -116q0 -74 33 -117.5t89 -43.5t89 43.5zM121 616.5
q-21 20.5 -21 52.5t21 52.5t54 20.5t54.5 -20.5t21.5 -52.5t-21.5 -52.5t-54.5 -20.5t-54 20.5zM352.5 617q-21.5 21 -21.5 52q0 32 21.5 52.5t53.5 20.5q34 0 55 -20.5t21 -52.5t-21 -52.5t-55 -20.5q-32 0 -53.5 21z" />
    <glyph glyph-name="divide" unicode="&#xf7;" horiz-adv-x="505" 
d="M198 491q-21 21 -21 54t21 54t54 21t54.5 -21t21.5 -54t-21.5 -54t-54.5 -21t-54 21zM57 376h391v-40h-391v40zM198 114q-21 21 -21 54t21 54t54 21t54.5 -21t21.5 -54t-21.5 -54t-54.5 -21t-54 21z" />
    <glyph glyph-name="oslash" unicode="&#xf8;" horiz-adv-x="583" 
d="M502.5 418q41.5 -67 41.5 -162q0 -82 -31 -144t-88 -95.5t-133 -33.5q-27 0 -55 5l-66 -228l-38 10l65 228q-74 27 -116 94.5t-42 163.5q0 82 31 143t88 94.5t133 33.5q27 0 55 -5l57 200l40 -12l-57 -199q74 -26 115.5 -93zM182 167.5q17 -37.5 48 -56.5l86 303
q-14 2 -24 2q-58 0 -92.5 -43.5t-34.5 -116.5q0 -51 17 -88.5zM383.5 138q34.5 44 34.5 118q0 50 -16.5 87t-46.5 56l-87 -303q14 -2 24 -2q57 0 91.5 44z" />
    <glyph glyph-name="ugrave" unicode="&#xf9;" horiz-adv-x="552" 
d="M94.5 29.5q-40.5 43.5 -40.5 121.5v359h130v-334q0 -39 20.5 -61t55.5 -22q47 0 75.5 31t28.5 83v303h131v-510h-110l-17 77h-1q-24 -44 -65.5 -67.5t-94.5 -23.5q-72 0 -112.5 43.5zM179 750l34 20l89 -150l-34 -20z" />
    <glyph glyph-name="uacute" unicode="&#xfa;" horiz-adv-x="552" 
d="M94.5 29.5q-40.5 43.5 -40.5 121.5v359h130v-334q0 -39 20.5 -61t55.5 -22q47 0 75.5 31t28.5 83v303h131v-510h-110l-17 77h-1q-24 -44 -65.5 -67.5t-94.5 -23.5q-72 0 -112.5 43.5zM252 620l89 150l34 -20l-89 -150z" />
    <glyph glyph-name="ucircumflex" unicode="&#xfb;" horiz-adv-x="552" 
d="M94.5 29.5q-40.5 43.5 -40.5 121.5v359h130v-334q0 -39 20.5 -61t55.5 -22q47 0 75.5 31t28.5 83v303h131v-510h-110l-17 77h-1q-24 -44 -65.5 -67.5t-94.5 -23.5q-72 0 -112.5 43.5zM125 616l122 134h54l123 -134l-30 -26l-120 129l-119 -129z" />
    <glyph glyph-name="udieresis" unicode="&#xfc;" horiz-adv-x="552" 
d="M94.5 29.5q-40.5 43.5 -40.5 121.5v359h130v-334q0 -39 20.5 -61t55.5 -22q47 0 75.5 31t28.5 83v303h131v-510h-110l-17 77h-1q-24 -44 -65.5 -67.5t-94.5 -23.5q-72 0 -112.5 43.5zM104 616.5q-21 20.5 -21 52.5t21 52.5t54 20.5t54.5 -20.5t21.5 -52.5t-21.5 -52.5
t-54.5 -20.5t-54 20.5zM335.5 617q-21.5 21 -21.5 52q0 32 21.5 52.5t53.5 20.5q34 0 55 -20.5t21 -52.5t-21 -52.5t-55 -20.5q-32 0 -53.5 21z" />
    <glyph glyph-name="yacute" unicode="&#xfd;" horiz-adv-x="550" 
d="M99 -200q-61 27 -98 76l68 88q27 -38 67.5 -59t87.5 -21q65 0 102.5 38t37.5 105v37h-1q-22 -42 -59.5 -66t-81.5 -24q-79 0 -125 51t-46 139v346h131v-332q0 -43 22 -69t61 -26q43 0 70 28.5t27 75.5v323h130l1 -489q0 -116 -69.5 -182t-189.5 -66q-74 0 -135 27z
M252 620l89 150l34 -20l-89 -150z" />
    <glyph glyph-name="ydieresis" unicode="&#xff;" horiz-adv-x="550" 
d="M99 -200q-61 27 -98 76l68 88q27 -38 67.5 -59t87.5 -21q65 0 102.5 38t37.5 105v37h-1q-22 -42 -59.5 -66t-81.5 -24q-79 0 -125 51t-46 139v346h131v-332q0 -43 22 -69t61 -26q43 0 70 28.5t27 75.5v323h130l1 -489q0 -116 -69.5 -182t-189.5 -66q-74 0 -135 27z
M105 616.5q-21 20.5 -21 52.5t21 52.5t54 20.5t54.5 -20.5t21.5 -52.5t-21.5 -52.5t-54.5 -20.5t-54 20.5zM336.5 617q-21.5 21 -21.5 52q0 32 21.5 52.5t53.5 20.5q34 0 55 -20.5t21 -52.5t-21 -52.5t-55 -20.5q-32 0 -53.5 21z" />
    <glyph glyph-name="Amacron" unicode="&#x100;" 
d="M252 710h181l231 -710h-149l-45 149h-255l-45 -149h-148zM444 259l-99 328h-2l-102 -328h203zM201 837h283v-40h-283v40z" />
    <glyph glyph-name="amacron" unicode="&#x101;" horiz-adv-x="597" 
d="M76.5 27.5q-45.5 39.5 -45.5 106.5q0 69 52.5 113.5t151.5 54.5l81 9q19 2 30.5 14t11.5 32q0 32 -25 51t-64 19q-45 0 -73.5 -29.5t-30.5 -71.5l-120 28q2 48 31 87.5t79 62.5t115 23q98 0 156.5 -52t58.5 -138v-221q0 -29 23 -29q19 0 38 20l36 -76
q-21 -21 -52.5 -32.5t-63.5 -11.5q-42 0 -70.5 21.5t-36.5 55.5l-2 11h-1q-24 -42 -65.5 -64.5t-94.5 -22.5q-74 0 -119.5 39.5zM323.5 120q31.5 33 31.5 86v26l-90 -10q-52 -6 -77.5 -25.5t-25.5 -49.5q0 -28 22.5 -44t59.5 -16q48 0 79.5 33zM129 637h283v-40h-283v40z
" />
    <glyph glyph-name="Abreve" unicode="&#x102;" 
d="M252 710h181l231 -710h-149l-45 149h-255l-45 -149h-148zM444 259l-99 328h-2l-102 -328h203zM258.5 827q-34.5 37 -35.5 93h41q0 -39 23 -64.5t58 -25.5q36 0 59.5 25.5t23.5 64.5h39q1 -56 -34 -93t-88 -37q-52 0 -86.5 37z" />
    <glyph glyph-name="abreve" unicode="&#x103;" horiz-adv-x="597" 
d="M76.5 27.5q-45.5 39.5 -45.5 106.5q0 69 52.5 113.5t151.5 54.5l81 9q19 2 30.5 14t11.5 32q0 32 -25 51t-64 19q-45 0 -73.5 -29.5t-30.5 -71.5l-120 28q2 48 31 87.5t79 62.5t115 23q98 0 156.5 -52t58.5 -138v-221q0 -29 23 -29q19 0 38 20l36 -76
q-21 -21 -52.5 -32.5t-63.5 -11.5q-42 0 -70.5 21.5t-36.5 55.5l-2 11h-1q-24 -42 -65.5 -64.5t-94.5 -22.5q-74 0 -119.5 39.5zM323.5 120q31.5 33 31.5 86v26l-90 -10q-52 -6 -77.5 -25.5t-25.5 -49.5q0 -28 22.5 -44t59.5 -16q48 0 79.5 33zM169.5 635
q-39.5 45 -39.5 115h41q0 -52 28 -86t71 -34q44 0 72.5 34t28.5 86h39q0 -70 -39.5 -115t-100.5 -45t-100.5 45z" />
    <glyph glyph-name="Aogonek" unicode="&#x104;" 
d="M521.5 -55.5q-38.5 -24.5 -38.5 -63.5q0 -21 13.5 -33.5t35.5 -12.5q16 0 34.5 10t34.5 26l28 -26q-19 -23 -46.5 -36.5t-52.5 -13.5q-40 0 -64 22.5t-24 59.5q0 40 27 69t80 54h-34l-45 149h-255l-45 -149h-148l230 710h181l231 -710h-16q-88 -31 -126.5 -55.5zM444 259
l-99 328h-2l-102 -328h203z" />
    <glyph glyph-name="aogonek" unicode="&#x105;" horiz-adv-x="597" 
d="M449.5 -155q18.5 10 34.5 26l28 -26q-19 -23 -46.5 -36.5t-52.5 -13.5q-40 0 -64 22.5t-24 59.5q0 38 24 66.5t71 51.5q-24 9 -40 27t-21 42l-2 11h-1q-24 -42 -65.5 -64.5t-94.5 -22.5q-74 0 -119.5 39.5t-45.5 106.5q0 69 52.5 113.5t151.5 54.5l81 9q19 2 30.5 14
t11.5 32q0 32 -25 51t-64 19q-45 0 -73.5 -29.5t-30.5 -71.5l-120 28q2 48 31 87.5t79 62.5t115 23q98 0 156.5 -52t58.5 -138v-221q0 -29 23 -29q19 0 38 20l36 -76q-28 -28 -73 -39q-74 -26 -108.5 -50t-34.5 -61q0 -21 13.5 -33.5t35.5 -12.5q16 0 34.5 10zM355 232
l-90 -10q-52 -6 -77.5 -25.5t-25.5 -49.5q0 -28 22.5 -44t59.5 -16q48 0 79.5 33t31.5 86v26z" />
    <glyph glyph-name="Cacute" unicode="&#x106;" horiz-adv-x="749" 
d="M207 24q-78 46 -120 131t-42 200t39.5 200.5t113.5 131t173 45.5q116 0 194.5 -69.5t98.5 -192.5l-136 -27q-13 78 -54.5 121t-103.5 43q-83 0 -131 -67.5t-48 -184.5q0 -116 53.5 -183t146.5 -67q75 0 126 51.5t64 140.5l136 -25q-12 -90 -55.5 -156.5t-113 -102
t-157.5 -35.5q-106 0 -184 46zM350 799l75 131l34 -21l-75 -129z" />
    <glyph glyph-name="cacute" unicode="&#x107;" horiz-adv-x="556" 
d="M157 16q-56 33 -86.5 94t-30.5 142q0 83 29 145t82 96t123 34q85 0 143.5 -49t75.5 -133l-121 -29q-10 49 -36 76t-61 27q-48 0 -76.5 -44t-28.5 -120t32.5 -120t85.5 -44q45 0 76 32.5t39 90.5l121 -22q-14 -95 -78 -152t-159 -57q-74 0 -130 33zM252 620l89 150l34 -20
l-89 -150z" />
    <glyph glyph-name="Ccircumflex" unicode="&#x108;" horiz-adv-x="749" 
d="M207 24q-78 46 -120 131t-42 200t39.5 200.5t113.5 131t173 45.5q116 0 194.5 -69.5t98.5 -192.5l-136 -27q-13 78 -54.5 121t-103.5 43q-83 0 -131 -67.5t-48 -184.5q0 -116 53.5 -183t146.5 -67q75 0 126 51.5t64 140.5l136 -25q-12 -90 -55.5 -156.5t-113 -102
t-157.5 -35.5q-106 0 -184 46zM237 806l105 114h54l104 -114l-29 -26l-103 109l-101 -109z" />
    <glyph glyph-name="ccircumflex" unicode="&#x109;" horiz-adv-x="556" 
d="M157 16q-56 33 -86.5 94t-30.5 142q0 83 29 145t82 96t123 34q85 0 143.5 -49t75.5 -133l-121 -29q-10 49 -36 76t-61 27q-48 0 -76.5 -44t-28.5 -120t32.5 -120t85.5 -44q45 0 76 32.5t39 90.5l121 -22q-14 -95 -78 -152t-159 -57q-74 0 -130 33zM125 616l122 134h54
l123 -134l-30 -26l-120 129l-119 -129z" />
    <glyph glyph-name="Cdotaccent" unicode="&#x10a;" horiz-adv-x="749" 
d="M207 24q-78 46 -120 131t-42 200t39.5 200.5t113.5 131t173 45.5q116 0 194.5 -69.5t98.5 -192.5l-136 -27q-13 78 -54.5 121t-103.5 43q-83 0 -131 -67.5t-48 -184.5q0 -116 53.5 -183t146.5 -67q75 0 126 51.5t64 140.5l136 -25q-12 -90 -55.5 -156.5t-113 -102
t-157.5 -35.5q-106 0 -184 46zM312 812.5q-22 21.5 -22 55.5q0 33 22 54t57 21q34 0 56 -21t22 -54q0 -34 -21.5 -55.5t-56.5 -21.5t-57 21.5z" />
    <glyph glyph-name="cdotaccent" unicode="&#x10b;" horiz-adv-x="556" 
d="M157 16q-56 33 -86.5 94t-30.5 142q0 83 29 145t82 96t123 34q85 0 143.5 -49t75.5 -133l-121 -29q-10 49 -36 76t-61 27q-48 0 -76.5 -44t-28.5 -120t32.5 -120t85.5 -44q45 0 76 32.5t39 90.5l121 -22q-14 -95 -78 -152t-159 -57q-74 0 -130 33zM218 616.5
q-22 21.5 -22 55.5q0 33 22 54.5t56 21.5t56.5 -21.5t22.5 -54.5q0 -34 -22 -55.5t-57 -21.5q-34 0 -56 21.5z" />
    <glyph glyph-name="Ccaron" unicode="&#x10c;" horiz-adv-x="749" 
d="M207 24q-78 46 -120 131t-42 200t39.5 200.5t113.5 131t173 45.5q116 0 194.5 -69.5t98.5 -192.5l-136 -27q-13 78 -54.5 121t-103.5 43q-83 0 -131 -67.5t-48 -184.5q0 -116 53.5 -183t146.5 -67q75 0 126 51.5t64 140.5l136 -25q-12 -90 -55.5 -156.5t-113 -102
t-157.5 -35.5q-106 0 -184 46zM237 904l30 26l101 -109l103 109l29 -26l-104 -114h-54z" />
    <glyph glyph-name="ccaron" unicode="&#x10d;" horiz-adv-x="556" 
d="M157 16q-56 33 -86.5 94t-30.5 142q0 83 29 145t82 96t123 34q85 0 143.5 -49t75.5 -133l-121 -29q-10 49 -36 76t-61 27q-48 0 -76.5 -44t-28.5 -120t32.5 -120t85.5 -44q45 0 76 32.5t39 90.5l121 -22q-14 -95 -78 -152t-159 -57q-74 0 -130 33zM124 734l30 26
l119 -129l120 129l30 -26l-123 -134h-54z" />
    <glyph glyph-name="Dcaron" unicode="&#x10e;" horiz-adv-x="722" 
d="M68 710h258q169 0 260 -92t91 -263t-91 -263t-260 -92h-258v710zM325 120q100 0 153.5 60.5t53.5 174.5t-53.5 175t-153.5 61h-114v-471h114zM208 904l30 26l101 -109l103 109l29 -26l-104 -114h-54z" />
    <glyph glyph-name="dcaron" unicode="&#x10f;" horiz-adv-x="589" 
d="M138 18q-47 33 -72.5 94t-25.5 143t25.5 143t72.5 94t109 33q51 0 90.5 -23.5t62.5 -67.5h1v306h131v-740h-112l-15 79h-1q-22 -45 -63.5 -69.5t-93.5 -24.5q-62 0 -109 33zM374 142q32 42 32 113t-32 113t-86 42q-53 0 -85.5 -42.5t-32.5 -112.5q0 -71 32.5 -113
t85.5 -42q54 0 86 42zM587 577q13 -3 27 -3q26 0 43 12t18 37q-15 -7 -32 -7q-28 0 -47.5 17t-19.5 43q0 25 17.5 41t45.5 16q34 0 56 -27.5t22 -70.5q0 -48 -27.5 -73.5t-72.5 -25.5q-20 0 -37 4z" />
    <glyph glyph-name="Dcroat" unicode="&#x110;" horiz-adv-x="768" 
d="M631.5 618q90.5 -92 90.5 -263t-91 -263t-260 -92h-257v382h-99v40h99v288h258q169 0 259.5 -92zM524 180.5q54 60.5 54 174.5t-54 175t-154 61h-113v-169h140v-40h-140v-262h113q100 0 154 60.5z" />
    <glyph glyph-name="dcroat" unicode="&#x111;" horiz-adv-x="590" 
d="M612 601h-80v-601h-112l-15 79h-1q-22 -45 -63.5 -69.5t-93.5 -24.5q-62 0 -109 33t-72.5 94t-25.5 143t25.5 143t72.5 94t109 33q51 0 90.5 -23.5t62.5 -67.5h1v167h-149v40h149v99h131v-99h80v-40zM374 142q32 42 32 113t-32 113t-86 42q-53 0 -85.5 -42.5
t-32.5 -112.5q0 -71 32.5 -113t85.5 -42q54 0 86 42z" />
    <glyph glyph-name="Emacron" unicode="&#x112;" horiz-adv-x="555" 
d="M68 710h439v-119h-298v-173h258v-107h-258v-191h308v-120h-449v710zM153 837h283v-40h-283v40z" />
    <glyph glyph-name="emacron" unicode="&#x113;" horiz-adv-x="563" 
d="M166 17q-60 34 -93 97t-33 146q0 80 30 140.5t85 93.5t128 33q71 0 124 -32t81.5 -91.5t28.5 -138.5q0 -35 -4 -48h-343q5 -62 41.5 -97.5t94.5 -35.5q43 0 75 21t46 58l101 -40q-21 -65 -81.5 -102.5t-140.5 -37.5t-140 34zM385 302q-3 59 -29.5 91.5t-72.5 32.5
q-49 0 -77.5 -32.5t-35.5 -91.5h215zM140 637h283v-40h-283v40z" />
    <glyph glyph-name="Ebreve" unicode="&#x114;" horiz-adv-x="555" 
d="M68 710h439v-119h-298v-173h258v-107h-258v-191h308v-120h-449v710zM210.5 827q-34.5 37 -35.5 93h41q0 -39 23 -64.5t58 -25.5q36 0 59.5 25.5t23.5 64.5h39q1 -56 -34 -93t-88 -37q-52 0 -86.5 37z" />
    <glyph glyph-name="ebreve" unicode="&#x115;" horiz-adv-x="563" 
d="M166 17q-60 34 -93 97t-33 146q0 80 30 140.5t85 93.5t128 33q71 0 124 -32t81.5 -91.5t28.5 -138.5q0 -35 -4 -48h-343q5 -62 41.5 -97.5t94.5 -35.5q43 0 75 21t46 58l101 -40q-21 -65 -81.5 -102.5t-140.5 -37.5t-140 34zM385 302q-3 59 -29.5 91.5t-72.5 32.5
q-49 0 -77.5 -32.5t-35.5 -91.5h215zM180.5 635q-39.5 45 -39.5 115h41q0 -52 28 -86t71 -34q44 0 72.5 34t28.5 86h39q0 -70 -39.5 -115t-100.5 -45t-100.5 45z" />
    <glyph glyph-name="Edotaccent" unicode="&#x116;" horiz-adv-x="555" 
d="M68 710h439v-119h-298v-173h258v-107h-258v-191h308v-120h-449v710zM238 812.5q-22 21.5 -22 55.5q0 33 22 54t57 21q34 0 56 -21t22 -54q0 -34 -21.5 -55.5t-56.5 -21.5t-57 21.5z" />
    <glyph glyph-name="edotaccent" unicode="&#x117;" horiz-adv-x="563" 
d="M166 17q-60 34 -93 97t-33 146q0 80 30 140.5t85 93.5t128 33q71 0 124 -32t81.5 -91.5t28.5 -138.5q0 -35 -4 -48h-343q5 -62 41.5 -97.5t94.5 -35.5q43 0 75 21t46 58l101 -40q-21 -65 -81.5 -102.5t-140.5 -37.5t-140 34zM385 302q-3 59 -29.5 91.5t-72.5 32.5
q-49 0 -77.5 -32.5t-35.5 -91.5h215zM225 616.5q-22 21.5 -22 55.5q0 33 22 54.5t56 21.5t56.5 -21.5t22.5 -54.5q0 -34 -22 -55.5t-57 -21.5q-34 0 -56 21.5z" />
    <glyph glyph-name="Eogonek" unicode="&#x118;" horiz-adv-x="555" 
d="M390.5 -55.5q-38.5 -24.5 -38.5 -63.5q0 -21 13.5 -33.5t35.5 -12.5q16 0 34.5 10t34.5 26l28 -26q-19 -23 -46.5 -36.5t-52.5 -13.5q-40 0 -64 22.5t-24 59.5q0 40 27 69t80 54h-350v710h439v-119h-298v-173h258v-107h-258v-191h308v-120q-88 -31 -126.5 -55.5z" />
    <glyph glyph-name="eogonek" unicode="&#x119;" horiz-adv-x="563" 
d="M275 -57.5q-36 -24.5 -36 -61.5q0 -21 13.5 -33.5t35.5 -12.5q16 0 34.5 10t34.5 26l28 -26q-19 -23 -46.5 -36.5t-52.5 -13.5q-40 0 -64 22.5t-24 59.5q0 64 76 108q-108 10 -171 84t-63 191q0 80 30 140.5t85 93.5t128 33q71 0 124 -32t81.5 -91.5t28.5 -138.5
q0 -35 -4 -48h-343q5 -62 41.5 -97.5t94.5 -35.5q43 0 75 21t46 58l101 -40q-15 -46 -51 -79t-87 -49q-79 -28 -115 -52.5zM205.5 393.5q-28.5 -32.5 -35.5 -91.5h215q-3 59 -29.5 91.5t-72.5 32.5q-49 0 -77.5 -32.5z" />
    <glyph glyph-name="Ecaron" unicode="&#x11a;" horiz-adv-x="555" 
d="M68 710h439v-119h-298v-173h258v-107h-258v-191h308v-120h-449v710zM163 904l30 26l101 -109l103 109l29 -26l-104 -114h-54z" />
    <glyph glyph-name="ecaron" unicode="&#x11b;" horiz-adv-x="563" 
d="M166 17q-60 34 -93 97t-33 146q0 80 30 140.5t85 93.5t128 33q71 0 124 -32t81.5 -91.5t28.5 -138.5q0 -35 -4 -48h-343q5 -62 41.5 -97.5t94.5 -35.5q43 0 75 21t46 58l101 -40q-21 -65 -81.5 -102.5t-140.5 -37.5t-140 34zM385 302q-3 59 -29.5 91.5t-72.5 32.5
q-49 0 -77.5 -32.5t-35.5 -91.5h215zM132 734l30 26l119 -129l120 129l30 -26l-123 -134h-54z" />
    <glyph glyph-name="Gcircumflex" unicode="&#x11c;" horiz-adv-x="794" 
d="M199 25.5q-74 46.5 -114 131.5t-40 198t42 198.5t119 132t180 46.5q104 0 183 -58.5t108 -157.5l-136 -32q-19 56 -61 89.5t-96 33.5q-58 0 -101.5 -31t-67.5 -87.5t-24 -131.5q0 -76 26.5 -133.5t74.5 -89t111 -31.5q86 0 140.5 53.5t56.5 141.5h-276v102h417v-400h-110
l-12 116h-1q-38 -64 -103.5 -100.5t-143.5 -36.5q-98 0 -172 46.5zM253 806l105 114h54l104 -114l-29 -26l-103 109l-101 -109z" />
    <glyph glyph-name="gcircumflex" unicode="&#x11d;" horiz-adv-x="588" 
d="M113 -199q-67 28 -102 75l65 90q29 -38 75 -60.5t94 -22.5q71 0 113 41t42 111v53h-1q-23 -42 -64.5 -68t-88.5 -26q-61 0 -107.5 32.5t-72 91.5t-25.5 138q0 81 25 142t71 94t107 33q50 0 92.5 -25t63.5 -68h1l15 78h114l1 -477q0 -80 -33.5 -138.5t-95.5 -90
t-145 -31.5q-77 0 -144 28zM372.5 146q32.5 43 32.5 112q0 70 -32.5 113.5t-84.5 43.5q-53 0 -84.5 -43t-31.5 -114q0 -70 31.5 -112.5t84.5 -42.5q52 0 84.5 43zM134 616l122 134h54l123 -134l-30 -26l-120 129l-119 -129z" />
    <glyph glyph-name="Gbreve" unicode="&#x11e;" horiz-adv-x="794" 
d="M199 25.5q-74 46.5 -114 131.5t-40 198t42 198.5t119 132t180 46.5q104 0 183 -58.5t108 -157.5l-136 -32q-19 56 -61 89.5t-96 33.5q-58 0 -101.5 -31t-67.5 -87.5t-24 -131.5q0 -76 26.5 -133.5t74.5 -89t111 -31.5q86 0 140.5 53.5t56.5 141.5h-276v102h417v-400h-110
l-12 116h-1q-38 -64 -103.5 -100.5t-143.5 -36.5q-98 0 -172 46.5zM300.5 827q-34.5 37 -35.5 93h41q0 -39 23 -64.5t58 -25.5q36 0 59.5 25.5t23.5 64.5h39q1 -56 -34 -93t-88 -37q-52 0 -86.5 37z" />
    <glyph glyph-name="gbreve" unicode="&#x11f;" horiz-adv-x="588" 
d="M113 -199q-67 28 -102 75l65 90q29 -38 75 -60.5t94 -22.5q71 0 113 41t42 111v53h-1q-23 -42 -64.5 -68t-88.5 -26q-61 0 -107.5 32.5t-72 91.5t-25.5 138q0 81 25 142t71 94t107 33q50 0 92.5 -25t63.5 -68h1l15 78h114l1 -477q0 -80 -33.5 -138.5t-95.5 -90
t-145 -31.5q-77 0 -144 28zM372.5 146q32.5 43 32.5 112q0 70 -32.5 113.5t-84.5 43.5q-53 0 -84.5 -43t-31.5 -114q0 -70 31.5 -112.5t84.5 -42.5q52 0 84.5 43zM182.5 635q-39.5 45 -39.5 115h41q0 -52 28 -86t71 -34q44 0 72.5 34t28.5 86h39q0 -70 -39.5 -115
t-100.5 -45t-100.5 45z" />
    <glyph glyph-name="Gdotaccent" unicode="&#x120;" horiz-adv-x="794" 
d="M199 25.5q-74 46.5 -114 131.5t-40 198t42 198.5t119 132t180 46.5q104 0 183 -58.5t108 -157.5l-136 -32q-19 56 -61 89.5t-96 33.5q-58 0 -101.5 -31t-67.5 -87.5t-24 -131.5q0 -76 26.5 -133.5t74.5 -89t111 -31.5q86 0 140.5 53.5t56.5 141.5h-276v102h417v-400h-110
l-12 116h-1q-38 -64 -103.5 -100.5t-143.5 -36.5q-98 0 -172 46.5zM329 812.5q-22 21.5 -22 55.5q0 33 22 54t57 21q34 0 56 -21t22 -54q0 -34 -21.5 -55.5t-56.5 -21.5t-57 21.5z" />
    <glyph glyph-name="gdotaccent" unicode="&#x121;" horiz-adv-x="588" 
d="M113 -199q-67 28 -102 75l65 90q29 -38 75 -60.5t94 -22.5q71 0 113 41t42 111v53h-1q-23 -42 -64.5 -68t-88.5 -26q-61 0 -107.5 32.5t-72 91.5t-25.5 138q0 81 25 142t71 94t107 33q50 0 92.5 -25t63.5 -68h1l15 78h114l1 -477q0 -80 -33.5 -138.5t-95.5 -90
t-145 -31.5q-77 0 -144 28zM372.5 146q32.5 43 32.5 112q0 70 -32.5 113.5t-84.5 43.5q-53 0 -84.5 -43t-31.5 -114q0 -70 31.5 -112.5t84.5 -42.5q52 0 84.5 43zM227 616.5q-22 21.5 -22 55.5q0 33 22 54.5t56 21.5t56.5 -21.5t22.5 -54.5q0 -34 -22 -55.5t-57 -21.5
q-34 0 -56 21.5z" />
    <glyph glyph-name="uni0122" unicode="&#x122;" horiz-adv-x="794" 
d="M199 25.5q-74 46.5 -114 131.5t-40 198t42 198.5t119 132t180 46.5q104 0 183 -58.5t108 -157.5l-136 -32q-19 56 -61 89.5t-96 33.5q-58 0 -101.5 -31t-67.5 -87.5t-24 -131.5q0 -76 26.5 -133.5t74.5 -89t111 -31.5q86 0 140.5 53.5t56.5 141.5h-276v102h417v-400h-110
l-12 116h-1q-38 -64 -103.5 -100.5t-143.5 -36.5q-98 0 -172 46.5zM341 -223q13 -3 27 -3q26 0 43 12t18 37q-15 -7 -32 -7q-28 0 -47.5 17t-19.5 43q0 25 17.5 41t45.5 16q34 0 56 -27.5t22 -70.5q0 -48 -27.5 -73.5t-72.5 -25.5q-20 0 -37 4z" />
    <glyph glyph-name="uni0123" unicode="&#x123;" horiz-adv-x="588" 
d="M338 733q-14 3 -27 3q-26 0 -43 -12t-18 -37q15 7 32 7q28 0 47.5 -17t19.5 -43q0 -25 -17.5 -41t-45.5 -16q-34 0 -56 27.5t-22 70.5q0 48 27.5 73.5t72.5 25.5q20 0 37 -4zM113 -199q-67 28 -102 75l65 90q29 -38 75 -60.5t94 -22.5q71 0 113 41t42 111v53h-1
q-23 -42 -64.5 -68t-88.5 -26q-61 0 -107.5 32.5t-72 91.5t-25.5 138q0 81 25 142t71 94t107 33q50 0 92.5 -25t63.5 -68h1l15 78h114l1 -477q0 -80 -33.5 -138.5t-95.5 -90t-145 -31.5q-77 0 -144 28zM372.5 146q32.5 43 32.5 112q0 70 -32.5 113.5t-84.5 43.5
q-53 0 -84.5 -43t-31.5 -114q0 -70 31.5 -112.5t84.5 -42.5q52 0 84.5 43z" />
    <glyph glyph-name="Itilde" unicode="&#x128;" horiz-adv-x="283" 
d="M159 796q-17 16 -35 44q-15 22 -24 32.5t-20 10.5q-17 0 -27.5 -26t-10.5 -67h-40q0 59 21 96t57 37q25 0 42.5 -16.5t35.5 -46.5q13 -21 22 -30.5t19 -9.5q18 0 30 26.5t12 67.5h40q0 -59 -22 -96.5t-58 -37.5q-25 0 -42 16zM68 710h146v-710h-146v710z" />
    <glyph glyph-name="itilde" unicode="&#x129;" horiz-adv-x="245" 
d="M143 598q-16 14 -32 39q-3 5 -12.5 20t-18 22.5t-16.5 7.5q-16 0 -26 -26t-10 -67h-40q0 59 20.5 96t55.5 37q24 0 40 -15t33 -43q15 -25 23 -35t19 -10q17 0 28 26.5t11 67.5h40q0 -60 -21 -97t-56 -37q-22 0 -38 14zM57 510h131v-510h-131v510z" />
    <glyph glyph-name="Imacron" unicode="&#x12a;" horiz-adv-x="283" 
d="M28 837h227v-40h-227v40zM68 710h146v-710h-146v710z" />
    <glyph glyph-name="imacron" unicode="&#x12b;" horiz-adv-x="245" 
d="M17 637h211v-40h-211v40zM57 510h131v-510h-131v510z" />
    <glyph glyph-name="Iogonek" unicode="&#x12e;" horiz-adv-x="283" 
d="M214 710v-710h-8q-88 -31 -126.5 -55.5t-38.5 -63.5q0 -21 13.5 -33.5t35.5 -12.5q16 0 34.5 10t34.5 26l28 -26q-19 -23 -46.5 -36.5t-52.5 -13.5q-40 0 -64 22.5t-24 59.5q0 40 27 69t80 54h-39v710h146z" />
    <glyph glyph-name="iogonek" unicode="&#x12f;" horiz-adv-x="245" 
d="M69.5 611q-22.5 22 -22.5 58q0 35 22.5 57t58.5 22q37 0 59.5 -22t22.5 -57q0 -36 -22.5 -58t-59.5 -22q-36 0 -58.5 22zM62 510h131v-510h-5q-88 -31 -126.5 -55.5t-38.5 -63.5q0 -21 13.5 -33.5t35.5 -12.5q16 0 34.5 10t34.5 26l28 -26q-19 -23 -46.5 -36.5
t-52.5 -13.5q-40 0 -64 22.5t-24 59.5q0 40 27 69t80 54h-27v510z" />
    <glyph glyph-name="Idotaccent" unicode="&#x130;" horiz-adv-x="283" 
d="M68 710h146v-710h-146v710zM84 812.5q-22 21.5 -22 55.5q0 33 22 54t57 21q34 0 56 -21t22 -54q0 -34 -21.5 -55.5t-56.5 -21.5t-57 21.5z" />
    <glyph glyph-name="dotlessi" unicode="&#x131;" horiz-adv-x="245" 
d="M57 510h131v-510h-131v510z" />
    <glyph glyph-name="IJ" unicode="&#x132;" horiz-adv-x="789" 
d="M68 710h146v-710h-146v710zM353.5 31q-59.5 52 -69.5 146l127 46q5 -60 29.5 -92.5t65.5 -32.5q37 0 57.5 25.5t20.5 71.5v515h145v-523q0 -99 -57 -153.5t-160 -54.5q-99 0 -158.5 52z" />
    <glyph glyph-name="ij" unicode="&#x133;" horiz-adv-x="482" 
d="M69.5 611q-22.5 22 -22.5 58q0 35 22.5 57t58.5 22q37 0 59.5 -22t22.5 -57q0 -36 -22.5 -58t-59.5 -22q-36 0 -58.5 22zM62 510h131v-510h-131v510zM294.5 611q-22.5 22 -22.5 58q0 35 22.5 57t58.5 22t59 -22t23 -57q0 -36 -23 -58t-59 -22t-58.5 22zM160 -210l17 98
q20 -10 49 -10t45.5 18t16.5 51v563h131v-576q0 -76 -43.5 -118.5t-119.5 -42.5q-56 0 -96 17z" />
    <glyph glyph-name="uni0136" unicode="&#x136;" horiz-adv-x="645" 
d="M68 710h146v-287h1l226 287h172l-233 -283l243 -427h-167l-172 317l-70 -84v-233h-146v710zM273 -223q13 -3 27 -3q26 0 43 12t18 37q-15 -7 -32 -7q-28 0 -47.5 17t-19.5 43q0 25 17.5 41t45.5 16q34 0 56 -27.5t22 -70.5q0 -48 -27.5 -73.5t-72.5 -25.5q-20 0 -37 4z
" />
    <glyph glyph-name="uni0137" unicode="&#x137;" horiz-adv-x="521" 
d="M57 740h131v-415h1l155 185h152l-169 -190l177 -320h-141l-121 231l-54 -61v-170h-131v740zM208 -223q13 -3 27 -3q26 0 43 12t18 37q-15 -7 -32 -7q-28 0 -47.5 17t-19.5 43q0 25 17.5 41t45.5 16q34 0 56 -27.5t22 -70.5q0 -48 -27.5 -73.5t-72.5 -25.5q-20 0 -37 4z
" />
    <glyph glyph-name="Lacute" unicode="&#x139;" horiz-adv-x="508" 
d="M68 710h146v-585h266v-125h-412v710zM122 799l75 131l34 -21l-75 -129z" />
    <glyph glyph-name="lacute" unicode="&#x13a;" horiz-adv-x="245" 
d="M57 740h131v-740h-131v740zM104 799l75 131l34 -21l-75 -129z" />
    <glyph glyph-name="uni013B" unicode="&#x13b;" horiz-adv-x="508" 
d="M68 710h146v-585h266v-125h-412v710zM223 -223q13 -3 27 -3q26 0 43 12t18 37q-15 -7 -32 -7q-28 0 -47.5 17t-19.5 43q0 25 17.5 41t45.5 16q34 0 56 -27.5t22 -70.5q0 -48 -27.5 -73.5t-72.5 -25.5q-20 0 -37 4z" />
    <glyph glyph-name="uni013C" unicode="&#x13c;" horiz-adv-x="245" 
d="M57 740h131v-740h-131v740zM69 -223q13 -3 27 -3q26 0 43 12t18 37q-15 -7 -32 -7q-28 0 -47.5 17t-19.5 43q0 25 17.5 41t45.5 16q34 0 56 -27.5t22 -70.5q0 -48 -27.5 -73.5t-72.5 -25.5q-20 0 -37 4z" />
    <glyph glyph-name="Lcaron" unicode="&#x13d;" horiz-adv-x="508" 
d="M68 710h146v-585h266v-125h-412v710zM308 577q13 -3 27 -3q26 0 43 12t18 37q-15 -7 -32 -7q-28 0 -47.5 17t-19.5 43q0 25 17.5 41t45.5 16q34 0 56 -27.5t22 -70.5q0 -48 -27.5 -73.5t-72.5 -25.5q-20 0 -37 4z" />
    <glyph glyph-name="lcaron" unicode="&#x13e;" horiz-adv-x="245" 
d="M57 740h131v-740h-131v740zM244 577q13 -3 27 -3q26 0 43 12t18 37q-15 -7 -32 -7q-28 0 -47.5 17t-19.5 43q0 25 17.5 41t45.5 16q34 0 56 -27.5t22 -70.5q0 -48 -27.5 -73.5t-72.5 -25.5q-20 0 -37 4z" />
    <glyph glyph-name="Lslash" unicode="&#x141;" horiz-adv-x="586" 
d="M558 125v-125h-411v313l-112 -66l-20 35l132 77v351h146v-265l160 94l20 -35l-180 -106v-273h265z" />
    <glyph glyph-name="lslash" unicode="&#x142;" horiz-adv-x="430" 
d="M280 408v-408h-130v326l-115 -73l-20 35l135 85v367h130v-284l116 73l20 -35z" />
    <glyph glyph-name="Nacute" unicode="&#x143;" horiz-adv-x="715" 
d="M68 710h184l254 -532h2v532h138v-710h-183l-255 531h-2v-531h-138v710zM344 799l75 131l34 -21l-75 -129z" />
    <glyph glyph-name="nacute" unicode="&#x144;" horiz-adv-x="552" 
d="M457.5 480.5q40.5 -43.5 40.5 -121.5v-359h-130v334q0 39 -20.5 61t-55.5 22q-47 0 -75.5 -31t-28.5 -83v-303h-131v510h110l17 -77h1q24 44 65.5 67.5t94.5 23.5q72 0 112.5 -43.5zM261 620l89 150l34 -20l-89 -150z" />
    <glyph glyph-name="uni0145" unicode="&#x145;" horiz-adv-x="715" 
d="M68 710h184l254 -532h2v532h138v-710h-183l-255 531h-2v-531h-138v710zM306 -223q13 -3 27 -3q26 0 43 12t18 37q-15 -7 -32 -7q-28 0 -47.5 17t-19.5 43q0 25 17.5 41t45.5 16q34 0 56 -27.5t22 -70.5q0 -48 -27.5 -73.5t-72.5 -25.5q-20 0 -37 4z" />
    <glyph glyph-name="uni0146" unicode="&#x146;" horiz-adv-x="552" 
d="M457.5 480.5q40.5 -43.5 40.5 -121.5v-359h-130v334q0 39 -20.5 61t-55.5 22q-47 0 -75.5 -31t-28.5 -83v-303h-131v510h110l17 -77h1q24 44 65.5 67.5t94.5 23.5q72 0 112.5 -43.5zM224 -223q13 -3 27 -3q26 0 43 12t18 37q-15 -7 -32 -7q-28 0 -47.5 17t-19.5 43
q0 25 17.5 41t45.5 16q34 0 56 -27.5t22 -70.5q0 -48 -27.5 -73.5t-72.5 -25.5q-20 0 -37 4z" />
    <glyph glyph-name="Ncaron" unicode="&#x147;" horiz-adv-x="715" 
d="M68 710h184l254 -532h2v532h138v-710h-183l-255 531h-2v-531h-138v710zM230 904l30 26l101 -109l103 109l29 -26l-104 -114h-54z" />
    <glyph glyph-name="ncaron" unicode="&#x148;" horiz-adv-x="552" 
d="M457.5 480.5q40.5 -43.5 40.5 -121.5v-359h-130v334q0 39 -20.5 61t-55.5 22q-47 0 -75.5 -31t-28.5 -83v-303h-131v510h110l17 -77h1q24 44 65.5 67.5t94.5 23.5q72 0 112.5 -43.5zM134 734l30 26l119 -129l120 129l30 -26l-123 -134h-54z" />
    <glyph glyph-name="Omacron" unicode="&#x14c;" horiz-adv-x="798" 
d="M213 24.5q-80 46.5 -124 132t-44 198.5t44 198.5t124 132t186 46.5t185.5 -46.5t123.5 -132t44 -198.5q0 -112 -44 -197.5t-124 -132.5t-185 -47q-106 0 -186 46.5zM508.5 134.5q47.5 31.5 73 88.5t25.5 132t-25.5 132t-73 88.5t-109.5 31.5t-109.5 -31.5t-73 -88.5
t-25.5 -132t25.5 -132t73 -88.5t109.5 -31.5t109.5 31.5zM257 837h283v-40h-283v40z" />
    <glyph glyph-name="omacron" unicode="&#x14d;" horiz-adv-x="583" 
d="M159 16.5q-57 33.5 -88 95.5t-31 144t31 143t88 94.5t133 33.5t133 -33.5t88 -94.5t31 -143t-31 -144t-88 -95.5t-133 -33.5t-133 33.5zM381 138.5q33 43.5 33 117.5q0 73 -33 116t-89 43t-89 -43t-33 -116q0 -74 33 -117.5t89 -43.5t89 43.5zM150 637h283v-40h-283v40z
" />
    <glyph glyph-name="Obreve" unicode="&#x14e;" horiz-adv-x="798" 
d="M213 24.5q-80 46.5 -124 132t-44 198.5t44 198.5t124 132t186 46.5t185.5 -46.5t123.5 -132t44 -198.5q0 -112 -44 -197.5t-124 -132.5t-185 -47q-106 0 -186 46.5zM508.5 134.5q47.5 31.5 73 88.5t25.5 132t-25.5 132t-73 88.5t-109.5 31.5t-109.5 -31.5t-73 -88.5
t-25.5 -132t25.5 -132t73 -88.5t109.5 -31.5t109.5 31.5zM314.5 827q-34.5 37 -35.5 93h41q0 -39 23 -64.5t58 -25.5q36 0 59.5 25.5t23.5 64.5h39q1 -56 -34 -93t-88 -37q-52 0 -86.5 37z" />
    <glyph glyph-name="obreve" unicode="&#x14f;" horiz-adv-x="583" 
d="M159 16.5q-57 33.5 -88 95.5t-31 144t31 143t88 94.5t133 33.5t133 -33.5t88 -94.5t31 -143t-31 -144t-88 -95.5t-133 -33.5t-133 33.5zM381 138.5q33 43.5 33 117.5q0 73 -33 116t-89 43t-89 -43t-33 -116q0 -74 33 -117.5t89 -43.5t89 43.5zM190.5 635
q-39.5 45 -39.5 115h41q0 -52 28 -86t71 -34q44 0 72.5 34t28.5 86h39q0 -70 -39.5 -115t-100.5 -45t-100.5 45z" />
    <glyph glyph-name="Ohungarumlaut" unicode="&#x150;" horiz-adv-x="798" 
d="M213 24.5q-80 46.5 -124 132t-44 198.5t44 198.5t124 132t186 46.5t185.5 -46.5t123.5 -132t44 -198.5q0 -112 -44 -197.5t-124 -132.5t-185 -47q-106 0 -186 46.5zM508.5 134.5q47.5 31.5 73 88.5t25.5 132t-25.5 132t-73 88.5t-109.5 31.5t-109.5 -31.5t-73 -88.5
t-25.5 -132t25.5 -132t73 -88.5t109.5 -31.5t109.5 31.5zM310 789l75 131l34 -21l-75 -129zM446 789l75 131l34 -21l-75 -129z" />
    <glyph glyph-name="ohungarumlaut" unicode="&#x151;" horiz-adv-x="583" 
d="M159 16.5q-57 33.5 -88 95.5t-31 144t31 143t88 94.5t133 33.5t133 -33.5t88 -94.5t31 -143t-31 -144t-88 -95.5t-133 -33.5t-133 33.5zM381 138.5q33 43.5 33 117.5q0 73 -33 116t-89 43t-89 -43t-33 -116q0 -74 33 -117.5t89 -43.5t89 43.5zM197 620l89 150l34 -20
l-89 -150zM333 620l89 150l34 -20l-89 -150z" />
    <glyph glyph-name="OE" unicode="&#x152;" horiz-adv-x="983" 
d="M207 30q-78 45 -120 128.5t-42 196.5t41.5 196.5t119 128.5t182.5 45q57 0 127 -15h421v-119h-289v-177h249v-107h-249v-187h299v-120h-431q-68 -15 -125 -15q-105 0 -183 45zM458.5 118q27.5 7 46.5 18v437q-18 12 -44.5 19t-52.5 7q-100 0 -158.5 -65.5t-58.5 -178.5
t57 -178.5t153 -65.5q30 0 57.5 7z" />
    <glyph glyph-name="oe" unicode="&#x153;" horiz-adv-x="953" 
d="M917 118q-25 -62 -84.5 -97.5t-136.5 -35.5q-70 0 -122 26t-83 75q-31 -49 -82 -75t-118 -26q-76 0 -132.5 33t-87.5 94t-31 143t31 143t87.5 94t132.5 33q65 0 115 -25t81 -72q29 47 76 72t111 25q69 0 121 -32t80 -91.5t28 -139.5q0 -33 -2 -45h-345q7 -61 43 -96
t92 -35q43 0 76.5 20t47.5 54zM590 389.5q-30 -32.5 -35 -89.5h216q-4 56 -32 89t-72 33q-47 0 -77 -32.5zM382 137q33 43 33 118t-33 118t-90 43t-89.5 -43t-32.5 -118t32.5 -118t89.5 -43t90 43z" />
    <glyph glyph-name="Racute" unicode="&#x154;" horiz-adv-x="689" 
d="M463 8q-31 27 -43 72l-35 131q-9 31 -31 50.5t-48 19.5h-92v-281h-146v710h297q76 0 134.5 -27t90.5 -76t32 -114q0 -68 -42.5 -119t-115.5 -68v-1q49 -23 63 -84l26 -101q10 -36 33 -36t45 31l42 -73q-24 -28 -59 -44.5t-73 -16.5q-47 0 -78 27zM355 389q54 0 88 28.5
t34 73.5q0 48 -33.5 76.5t-88.5 28.5h-141v-207h141zM299 799l75 131l34 -21l-75 -129z" />
    <glyph glyph-name="racute" unicode="&#x155;" horiz-adv-x="481" 
d="M409 480q37 -45 40 -127l-110 -31q-2 49 -20 75t-48 26q-39 0 -61 -39.5t-22 -109.5v-274h-131v510h106l16 -85h1q17 47 51 73.5t78 26.5q63 0 100 -45zM224 620l89 150l34 -20l-89 -150z" />
    <glyph glyph-name="uni0156" unicode="&#x156;" horiz-adv-x="689" 
d="M463 8q-31 27 -43 72l-35 131q-9 31 -31 50.5t-48 19.5h-92v-281h-146v710h297q76 0 134.5 -27t90.5 -76t32 -114q0 -68 -42.5 -119t-115.5 -68v-1q49 -23 63 -84l26 -101q10 -36 33 -36t45 31l42 -73q-24 -28 -59 -44.5t-73 -16.5q-47 0 -78 27zM355 389q54 0 88 28.5
t34 73.5q0 48 -33.5 76.5t-88.5 28.5h-141v-207h141zM277 -223q13 -3 27 -3q26 0 43 12t18 37q-15 -7 -32 -7q-28 0 -47.5 17t-19.5 43q0 25 17.5 41t45.5 16q34 0 56 -27.5t22 -70.5q0 -48 -27.5 -73.5t-72.5 -25.5q-20 0 -37 4z" />
    <glyph glyph-name="uni0157" unicode="&#x157;" horiz-adv-x="481" 
d="M409 480q37 -45 40 -127l-110 -31q-2 49 -20 75t-48 26q-39 0 -61 -39.5t-22 -109.5v-274h-131v510h106l16 -85h1q17 47 51 73.5t78 26.5q63 0 100 -45zM68 -223q13 -3 27 -3q26 0 43 12t18 37q-15 -7 -32 -7q-28 0 -47.5 17t-19.5 43q0 25 17.5 41t45.5 16
q34 0 56 -27.5t22 -70.5q0 -48 -27.5 -73.5t-72.5 -25.5q-20 0 -37 4z" />
    <glyph glyph-name="Rcaron" unicode="&#x158;" horiz-adv-x="689" 
d="M463 8q-31 27 -43 72l-35 131q-9 31 -31 50.5t-48 19.5h-92v-281h-146v710h297q76 0 134.5 -27t90.5 -76t32 -114q0 -68 -42.5 -119t-115.5 -68v-1q49 -23 63 -84l26 -101q10 -36 33 -36t45 31l42 -73q-24 -28 -59 -44.5t-73 -16.5q-47 0 -78 27zM355 389q54 0 88 28.5
t34 73.5q0 48 -33.5 76.5t-88.5 28.5h-141v-207h141zM186 904l30 26l101 -109l103 109l29 -26l-104 -114h-54z" />
    <glyph glyph-name="rcaron" unicode="&#x159;" horiz-adv-x="481" 
d="M409 480q37 -45 40 -127l-110 -31q-2 49 -20 75t-48 26q-39 0 -61 -39.5t-22 -109.5v-274h-131v510h106l16 -85h1q17 47 51 73.5t78 26.5q63 0 100 -45zM97 734l30 26l119 -129l120 129l30 -26l-123 -134h-54z" />
    <glyph glyph-name="Sacute" unicode="&#x15a;" horiz-adv-x="624" 
d="M176 8q-64 30 -101.5 85.5t-40.5 129.5l136 24q2 -69 46.5 -111.5t111.5 -42.5q56 0 89.5 27.5t33.5 69.5q0 34 -25 56.5t-80 38.5l-98 28q-98 26 -142.5 74.5t-44.5 127.5q0 64 29.5 113t85.5 76.5t131 27.5q69 0 123.5 -26t87 -73.5t36.5 -109.5l-133 -28
q-2 55 -34.5 89t-81.5 34q-47 0 -75.5 -25.5t-28.5 -64.5q0 -35 23.5 -57.5t75.5 -36.5l97 -27q101 -26 148 -75t47 -129q0 -66 -32.5 -117t-93.5 -79.5t-143 -28.5q-83 0 -147 30zM285 799l75 131l34 -21l-75 -129z" />
    <glyph glyph-name="sacute" unicode="&#x15b;" horiz-adv-x="514" 
d="M100 31q-64 47 -67 132l118 19q2 -49 33.5 -76t81.5 -27q40 0 66.5 16t26.5 43q-1 23 -22 38t-69 27l-73 19q-72 19 -105 53t-33 89q0 74 53.5 118.5t139.5 44.5q82 0 138 -41.5t62 -114.5l-117 -19q-2 39 -25.5 60t-61.5 21q-32 0 -52 -16t-20 -41q0 -21 19 -35t63 -27
l73 -19q79 -21 115.5 -56t36.5 -90q0 -49 -28 -86.5t-78 -58t-113 -20.5q-98 0 -162 47zM227 620l89 150l34 -20l-89 -150z" />
    <glyph glyph-name="Scircumflex" unicode="&#x15c;" horiz-adv-x="624" 
d="M176 8q-64 30 -101.5 85.5t-40.5 129.5l136 24q2 -69 46.5 -111.5t111.5 -42.5q56 0 89.5 27.5t33.5 69.5q0 34 -25 56.5t-80 38.5l-98 28q-98 26 -142.5 74.5t-44.5 127.5q0 64 29.5 113t85.5 76.5t131 27.5q69 0 123.5 -26t87 -73.5t36.5 -109.5l-133 -28
q-2 55 -34.5 89t-81.5 34q-47 0 -75.5 -25.5t-28.5 -64.5q0 -35 23.5 -57.5t75.5 -36.5l97 -27q101 -26 148 -75t47 -129q0 -66 -32.5 -117t-93.5 -79.5t-143 -28.5q-83 0 -147 30zM171 806l105 114h54l104 -114l-29 -26l-103 109l-101 -109z" />
    <glyph glyph-name="scircumflex" unicode="&#x15d;" horiz-adv-x="514" 
d="M100 31q-64 47 -67 132l118 19q2 -49 33.5 -76t81.5 -27q40 0 66.5 16t26.5 43q-1 23 -22 38t-69 27l-73 19q-72 19 -105 53t-33 89q0 74 53.5 118.5t139.5 44.5q82 0 138 -41.5t62 -114.5l-117 -19q-2 39 -25.5 60t-61.5 21q-32 0 -52 -16t-20 -41q0 -21 19 -35t63 -27
l73 -19q79 -21 115.5 -56t36.5 -90q0 -49 -28 -86.5t-78 -58t-113 -20.5q-98 0 -162 47zM101 616l122 134h54l123 -134l-30 -26l-120 129l-119 -129z" />
    <glyph glyph-name="Scedilla" unicode="&#x15e;" horiz-adv-x="624" 
d="M560.5 87.5q-31.5 -50.5 -90.5 -79.5t-139 -30l-3 -26q44 -3 70 -23t26 -55q0 -36 -25 -57.5t-66 -21.5q-29 0 -55 15t-39 38l31 25q8 -17 26 -27.5t37 -10.5q23 0 37 10t14 27q0 19 -18 31t-47 12h-35l7 64q-112 9 -182 74.5t-75 169.5l136 24q2 -69 46.5 -111.5
t111.5 -42.5q56 0 89.5 27.5t33.5 69.5q0 34 -25 56.5t-80 38.5l-98 28q-98 26 -142.5 74.5t-44.5 127.5q0 64 29.5 113t85.5 76.5t131 27.5q69 0 123.5 -26t87 -73.5t36.5 -109.5l-133 -28q-2 55 -34.5 89t-81.5 34q-47 0 -75.5 -25.5t-28.5 -64.5q0 -35 23.5 -57.5
t75.5 -36.5l97 -27q101 -26 148 -75t47 -129q0 -65 -31.5 -115.5z" />
    <glyph glyph-name="scedilla" unicode="&#x15f;" horiz-adv-x="514" 
d="M425 33.5q-56 -44.5 -146 -49.5l-4 -32q44 -3 70 -23t26 -55q0 -36 -25 -57.5t-66 -21.5q-29 0 -55 15t-39 38l31 25q8 -17 26 -27.5t37 -10.5q23 0 37 10t14 27q0 19 -18 31t-47 12h-35l8 70q-90 5 -146.5 51.5t-59.5 126.5l118 19q2 -49 33.5 -76t81.5 -27
q40 0 66.5 16t26.5 43q-1 23 -22 38t-69 27l-73 19q-72 19 -105 53t-33 89q0 74 53.5 118.5t139.5 44.5q82 0 138 -41.5t62 -114.5l-117 -19q-2 39 -25.5 60t-61.5 21q-32 0 -52 -16t-20 -41q0 -21 19 -35t63 -27l73 -19q79 -21 115.5 -56t36.5 -90q0 -71 -56 -115.5z" />
    <glyph glyph-name="Scaron" unicode="&#x160;" horiz-adv-x="624" 
d="M176 8q-64 30 -101.5 85.5t-40.5 129.5l136 24q2 -69 46.5 -111.5t111.5 -42.5q56 0 89.5 27.5t33.5 69.5q0 34 -25 56.5t-80 38.5l-98 28q-98 26 -142.5 74.5t-44.5 127.5q0 64 29.5 113t85.5 76.5t131 27.5q69 0 123.5 -26t87 -73.5t36.5 -109.5l-133 -28
q-2 55 -34.5 89t-81.5 34q-47 0 -75.5 -25.5t-28.5 -64.5q0 -35 23.5 -57.5t75.5 -36.5l97 -27q101 -26 148 -75t47 -129q0 -66 -32.5 -117t-93.5 -79.5t-143 -28.5q-83 0 -147 30zM171 904l30 26l101 -109l103 109l29 -26l-104 -114h-54z" />
    <glyph glyph-name="scaron" unicode="&#x161;" horiz-adv-x="514" 
d="M100 31q-64 47 -67 132l118 19q2 -49 33.5 -76t81.5 -27q40 0 66.5 16t26.5 43q-1 23 -22 38t-69 27l-73 19q-72 19 -105 53t-33 89q0 74 53.5 118.5t139.5 44.5q82 0 138 -41.5t62 -114.5l-117 -19q-2 39 -25.5 60t-61.5 21q-32 0 -52 -16t-20 -41q0 -21 19 -35t63 -27
l73 -19q79 -21 115.5 -56t36.5 -90q0 -49 -28 -86.5t-78 -58t-113 -20.5q-98 0 -162 47zM100 734l30 26l119 -129l120 129l30 -26l-123 -134h-54z" />
    <glyph glyph-name="uni0162" unicode="&#x162;" horiz-adv-x="584" 
d="M312 0l-6 -48q44 -3 70 -23t26 -55q0 -36 -25 -57.5t-66 -21.5q-29 0 -55 15t-39 38l31 25q8 -17 26 -27.5t37 -10.5q23 0 37 10t14 27q0 19 -18 31t-47 12h-35l10 85h-53v585h-191v125h528v-125h-191v-585h-53z" />
    <glyph glyph-name="uni0163" unicode="&#x163;" horiz-adv-x="455" 
d="M381.5 16q-41.5 -30 -100.5 -32l-4 -32q44 -3 70 -23t26 -55q0 -36 -25 -57.5t-66 -21.5q-29 0 -55 15t-39 38l31 25q8 -17 26 -27.5t37 -10.5q23 0 37 10t14 27q0 19 -18 31t-47 12h-35l8 71q-65 9 -100.5 51.5t-35.5 109.5v263h-88v100h88v138l130 29v-167h173v-100
h-173v-240q0 -37 16.5 -57.5t45.5 -20.5q60 0 77 76l63 -69q-14 -53 -55.5 -83z" />
    <glyph glyph-name="Tcaron" unicode="&#x164;" horiz-adv-x="584" 
d="M219 585h-191v125h528v-125h-191v-585h-146v585zM160 904l30 26l101 -109l103 109l29 -26l-104 -114h-54z" />
    <glyph glyph-name="tcaron" unicode="&#x165;" horiz-adv-x="455" 
d="M149.5 27.5q-44.5 43.5 -44.5 119.5v263h-88v100h88v138l130 29v-167h173v-100h-173v-240q0 -37 16.5 -57.5t45.5 -20.5q60 0 77 76l63 -69q-15 -54 -58.5 -84.5t-105.5 -30.5q-79 0 -123.5 43.5zM302 606q13 -3 27 -3q26 0 43 12t18 37q-15 -7 -32 -7q-28 0 -47.5 17
t-19.5 43q0 25 17.5 41t45.5 16q34 0 56 -27.5t22 -70.5q0 -48 -27.5 -73.5t-72.5 -25.5q-20 0 -37 4z" />
    <glyph glyph-name="Utilde" unicode="&#x168;" 
d="M192.5 10.5q-63.5 32.5 -97.5 93t-34 142.5v464h145v-458q0 -66 37.5 -107.5t99.5 -41.5q63 0 99.5 40.5t36.5 109.5v457h146v-464q0 -82 -34 -142.5t-98 -93t-150 -32.5q-87 0 -150.5 32.5zM363 796.5q-18 16.5 -41 48.5q-14 19 -24.5 28.5t-21.5 9.5q-20 0 -32.5 -26.5
t-12.5 -66.5h-40q0 59 23 96t62 37q27 0 44.5 -16t38.5 -46q14 -21 24.5 -31t23.5 -10q20 0 33 26.5t13 67.5h41q0 -59 -23.5 -96.5t-62.5 -37.5q-27 0 -45 16.5z" />
    <glyph glyph-name="utilde" unicode="&#x169;" horiz-adv-x="552" 
d="M94.5 29.5q-40.5 43.5 -40.5 121.5v359h130v-334q0 -39 20.5 -61t55.5 -22q47 0 75.5 31t28.5 83v303h131v-510h-110l-17 77h-1q-24 -44 -65.5 -67.5t-94.5 -23.5q-72 0 -112.5 43.5zM298 604.5q-18 14.5 -36 39.5q-19 26 -30 37.5t-24 11.5q-20 0 -32.5 -26.5
t-12.5 -66.5h-40q0 59 23 96t62 37q25 0 43 -15t36 -41q19 -26 28.5 -36.5t23.5 -10.5q20 0 33 26.5t13 67.5h41q0 -59 -23.5 -96.5t-62.5 -37.5q-24 0 -42 14.5z" />
    <glyph glyph-name="Umacron" unicode="&#x16a;" 
d="M192.5 10.5q-63.5 32.5 -97.5 93t-34 142.5v464h145v-458q0 -66 37.5 -107.5t99.5 -41.5q63 0 99.5 40.5t36.5 109.5v457h146v-464q0 -82 -34 -142.5t-98 -93t-150 -32.5q-87 0 -150.5 32.5zM201 837h283v-40h-283v40z" />
    <glyph glyph-name="umacron" unicode="&#x16b;" horiz-adv-x="552" 
d="M94.5 29.5q-40.5 43.5 -40.5 121.5v359h130v-334q0 -39 20.5 -61t55.5 -22q47 0 75.5 31t28.5 83v303h131v-510h-110l-17 77h-1q-24 -44 -65.5 -67.5t-94.5 -23.5q-72 0 -112.5 43.5zM133 637h283v-40h-283v40z" />
    <glyph glyph-name="Ubreve" unicode="&#x16c;" 
d="M192.5 10.5q-63.5 32.5 -97.5 93t-34 142.5v464h145v-458q0 -66 37.5 -107.5t99.5 -41.5q63 0 99.5 40.5t36.5 109.5v457h146v-464q0 -82 -34 -142.5t-98 -93t-150 -32.5q-87 0 -150.5 32.5zM257.5 827q-34.5 37 -35.5 93h41q0 -39 23 -64.5t58 -25.5q36 0 59.5 25.5
t23.5 64.5h39q1 -56 -34 -93t-88 -37q-52 0 -86.5 37z" />
    <glyph glyph-name="ubreve" unicode="&#x16d;" horiz-adv-x="552" 
d="M94.5 29.5q-40.5 43.5 -40.5 121.5v359h130v-334q0 -39 20.5 -61t55.5 -22q47 0 75.5 31t28.5 83v303h131v-510h-110l-17 77h-1q-24 -44 -65.5 -67.5t-94.5 -23.5q-72 0 -112.5 43.5zM173.5 635q-39.5 45 -39.5 115h41q0 -52 28 -86t71 -34q44 0 72.5 34t28.5 86h39
q0 -70 -39.5 -115t-100.5 -45t-100.5 45z" />
    <glyph glyph-name="Uring" unicode="&#x16e;" 
d="M192.5 10.5q-63.5 32.5 -97.5 93t-34 142.5v464h145v-458q0 -66 37.5 -107.5t99.5 -41.5q63 0 99.5 40.5t36.5 109.5v457h146v-464q0 -82 -34 -142.5t-98 -93t-150 -32.5q-87 0 -150.5 32.5zM274 807q-27 27 -27 68t27 68t68 27t68 -27t27 -68t-26.5 -68t-68.5 -27
q-41 0 -68 27zM381 835.5q15 15.5 15 39.5t-15 39.5t-40 15.5q-23 0 -39 -15.5t-16 -39.5t16 -39.5t39 -15.5q25 0 40 15.5z" />
    <glyph glyph-name="uring" unicode="&#x16f;" horiz-adv-x="552" 
d="M94.5 29.5q-40.5 43.5 -40.5 121.5v359h130v-334q0 -39 20.5 -61t55.5 -22q47 0 75.5 31t28.5 83v303h131v-510h-110l-17 77h-1q-24 -44 -65.5 -67.5t-94.5 -23.5q-72 0 -112.5 43.5zM205.5 617.5q-26.5 27.5 -26.5 69.5q0 40 27 66.5t68 26.5t67.5 -27t27.5 -68
q0 -41 -26.5 -68t-68.5 -27t-68.5 27.5zM313 645.5q15 15.5 15 39.5t-15 39.5t-40 15.5q-23 0 -39 -15.5t-16 -39.5t16 -39.5t39 -15.5q25 0 40 15.5z" />
    <glyph glyph-name="Uhungarumlaut" unicode="&#x170;" 
d="M192.5 10.5q-63.5 32.5 -97.5 93t-34 142.5v464h145v-458q0 -66 37.5 -107.5t99.5 -41.5q63 0 99.5 40.5t36.5 109.5v457h146v-464q0 -82 -34 -142.5t-98 -93t-150 -32.5q-87 0 -150.5 32.5zM254 789l75 131l34 -21l-75 -129zM390 789l75 131l34 -21l-75 -129z" />
    <glyph glyph-name="uhungarumlaut" unicode="&#x171;" horiz-adv-x="552" 
d="M94.5 29.5q-40.5 43.5 -40.5 121.5v359h130v-334q0 -39 20.5 -61t55.5 -22q47 0 75.5 31t28.5 83v303h131v-510h-110l-17 77h-1q-24 -44 -65.5 -67.5t-94.5 -23.5q-72 0 -112.5 43.5zM180 620l89 150l34 -20l-89 -150zM316 620l89 150l34 -20l-89 -150z" />
    <glyph glyph-name="Uogonek" unicode="&#x172;" 
d="M625 710v-464q0 -99 -49 -166t-137 -90q-71 -26 -104 -49.5t-33 -59.5q0 -21 13.5 -33.5t35.5 -12.5q16 0 34.5 10t34.5 26l28 -26q-19 -23 -46.5 -36.5t-52.5 -13.5q-40 0 -64 23t-24 60q0 60 65 100q-124 5 -194.5 76.5t-70.5 191.5v464h145v-458q0 -66 37.5 -107.5
t99.5 -41.5q63 0 99.5 40.5t36.5 109.5v457h146z" />
    <glyph glyph-name="uogonek" unicode="&#x173;" horiz-adv-x="552" 
d="M368.5 -55.5q-38.5 -24.5 -38.5 -63.5q0 -21 13.5 -33.5t35.5 -12.5q16 0 34.5 10t34.5 26l28 -26q-19 -23 -46.5 -36.5t-52.5 -13.5q-40 0 -64 22.5t-24 59.5q0 40 27 69t80 54h-11l-17 77h-1q-24 -44 -65.5 -67.5t-94.5 -23.5q-72 0 -112.5 43.5t-40.5 121.5v359h130
v-334q0 -39 20.5 -61t55.5 -22q47 0 75.5 31t28.5 83v303h131v-510q-88 -31 -126.5 -55.5z" />
    <glyph glyph-name="Wcircumflex" unicode="&#x174;" horiz-adv-x="1016" 
d="M22 710h148l125 -563h2l120 563h184l120 -563h2l123 563h148l-176 -710h-191l-117 552h-2l-119 -552h-190zM377 806l105 114h54l104 -114l-29 -26l-103 109l-101 -109z" />
    <glyph glyph-name="wcircumflex" unicode="&#x175;" horiz-adv-x="825" 
d="M22 510h132l91 -379h1l99 379h135l101 -382h1l89 382h132l-138 -510h-154l-98 378h-2l-95 -378h-155zM263 616l122 134h54l123 -134l-30 -26l-120 129l-119 -129z" />
    <glyph glyph-name="Ycircumflex" unicode="&#x176;" horiz-adv-x="637" 
d="M247 250l-225 460h153l145 -325h1l138 325h156l-222 -460v-250h-146v250zM188 806l105 114h54l104 -114l-29 -26l-103 109l-101 -109z" />
    <glyph glyph-name="ycircumflex" unicode="&#x177;" horiz-adv-x="550" 
d="M99 -200q-61 27 -98 76l68 88q27 -38 67.5 -59t87.5 -21q65 0 102.5 38t37.5 105v37h-1q-22 -42 -59.5 -66t-81.5 -24q-79 0 -125 51t-46 139v346h131v-332q0 -43 22 -69t61 -26q43 0 70 28.5t27 75.5v323h130l1 -489q0 -116 -69.5 -182t-189.5 -66q-74 0 -135 27z
M126 616l122 134h54l123 -134l-30 -26l-120 129l-119 -129z" />
    <glyph glyph-name="Ydieresis" unicode="&#x178;" horiz-adv-x="637" 
d="M247 250l-225 460h153l145 -325h1l138 325h156l-222 -460v-250h-146v250zM144.5 812q-21.5 21 -21.5 54q0 32 21.5 53t54.5 21t54.5 -21t21.5 -53q0 -33 -21.5 -54t-54.5 -21t-54.5 21zM388 812q-21 21 -21 54q0 32 21 53t54 21t54 -21t21 -53q0 -33 -21 -54t-54 -21
t-54 21z" />
    <glyph glyph-name="Zacute" unicode="&#x179;" horiz-adv-x="576" 
d="M30 129l350 466h-340v115h496v-130l-350 -465h360v-115h-516v129zM275 799l75 131l34 -21l-75 -129z" />
    <glyph glyph-name="zacute" unicode="&#x17a;" horiz-adv-x="481" 
d="M34 119l265 288h-255v103h394v-119l-266 -287h276v-104h-414v119zM221 620l89 150l34 -20l-89 -150z" />
    <glyph glyph-name="Zdotaccent" unicode="&#x17b;" horiz-adv-x="576" 
d="M30 129l350 466h-340v115h496v-130l-350 -465h360v-115h-516v129zM237 812.5q-22 21.5 -22 55.5q0 33 22 54t57 21q34 0 56 -21t22 -54q0 -34 -21.5 -55.5t-56.5 -21.5t-57 21.5z" />
    <glyph glyph-name="zdotaccent" unicode="&#x17c;" horiz-adv-x="481" 
d="M34 119l265 288h-255v103h394v-119l-266 -287h276v-104h-414v119zM187 616.5q-22 21.5 -22 55.5q0 33 22 54.5t56 21.5t56.5 -21.5t22.5 -54.5q0 -34 -22 -55.5t-57 -21.5q-34 0 -56 21.5z" />
    <glyph glyph-name="Zcaron" unicode="&#x17d;" horiz-adv-x="576" 
d="M30 129l350 466h-340v115h496v-130l-350 -465h360v-115h-516v129zM161 904l30 26l101 -109l103 109l29 -26l-104 -114h-54z" />
    <glyph glyph-name="zcaron" unicode="&#x17e;" horiz-adv-x="481" 
d="M34 119l265 288h-255v103h394v-119l-266 -287h276v-104h-414v119zM94 734l30 26l119 -129l120 129l30 -26l-123 -134h-54z" />
    <glyph glyph-name="AEacute" unicode="&#x1fc;" horiz-adv-x="896" 
d="M348 710h500v-120h-266v-176h226v-107h-226v-187h276v-120h-417v125h-210l-57 -125h-160zM441 232v364h-1l-168 -364h169zM425 799l75 131l34 -21l-75 -129z" />
    <glyph glyph-name="aeacute" unicode="&#x1fd;" horiz-adv-x="860" 
d="M122 2q-43 19 -67 53.5t-24 78.5q0 67 52.5 110.5t148.5 53.5l86 10q41 5 41 48q0 33 -24 52t-60 19q-47 0 -76 -28.5t-31 -68.5l-120 28q2 46 29 85t73.5 61.5t105.5 22.5q56 0 103 -22.5t71 -63.5q27 41 71 63.5t99 22.5q63 0 111 -32t74.5 -91.5t26.5 -138.5
q0 -25 -5 -48h-317q7 -60 41 -96.5t84 -36.5q35 0 63 21.5t45 61.5l102 -40q-25 -70 -79 -107t-126 -37q-67 0 -117.5 33t-73.5 91q-24 -60 -80 -92t-130 -32q-54 0 -97 19zM678 303q-1 56 -26 89.5t-66 33.5q-38 0 -64 -33.5t-31 -89.5h187zM327.5 116q31.5 33 31.5 86v28
l-104 -11q-43 -4 -68 -23.5t-25 -48.5t23.5 -46.5t60.5 -17.5q50 0 81.5 33zM408 620l89 150l34 -20l-89 -150z" />
    <glyph glyph-name="Oslashacute" unicode="&#x1fe;" horiz-adv-x="798" 
d="M692 582q60 -94 60 -227q0 -112 -44 -197.5t-124 -132.5t-185 -47q-39 0 -81 8l-35 -123l-39 10l35 123q-109 34 -171.5 128.5t-62.5 230.5q0 113 44 198.5t124 132t186 46.5q46 0 88 -9l29 101l39 -11l-29 -101q106 -36 166 -130zM224 207.5q33 -61.5 91 -87.5l137 481
q-25 6 -53 6q-62 0 -109.5 -31.5t-73 -88.5t-25.5 -132q0 -86 33 -147.5zM508.5 134.5q47.5 31.5 73 88.5t25.5 132q0 83 -31 143.5t-86 87.5l-137 -478q25 -5 46 -5q62 0 109.5 31.5zM361 799l75 131l34 -21l-75 -129z" />
    <glyph glyph-name="oslashacute" unicode="&#x1ff;" horiz-adv-x="583" 
d="M502.5 418q41.5 -67 41.5 -162q0 -82 -31 -144t-88 -95.5t-133 -33.5q-27 0 -55 5l-66 -228l-38 10l65 228q-74 27 -116 94.5t-42 163.5q0 82 31 143t88 94.5t133 33.5q27 0 55 -5l57 200l40 -12l-57 -199q74 -26 115.5 -93zM182 167.5q17 -37.5 48 -56.5l86 303
q-14 2 -24 2q-58 0 -92.5 -43.5t-34.5 -116.5q0 -51 17 -88.5zM383.5 138q34.5 44 34.5 118q0 50 -16.5 87t-46.5 56l-87 -303q14 -2 24 -2q57 0 91.5 44zM218 620l89 150l34 -20l-89 -150z" />
    <glyph glyph-name="uni0218" unicode="&#x218;" horiz-adv-x="624" 
d="M176 8q-64 30 -101.5 85.5t-40.5 129.5l136 24q2 -69 46.5 -111.5t111.5 -42.5q56 0 89.5 27.5t33.5 69.5q0 34 -25 56.5t-80 38.5l-98 28q-98 26 -142.5 74.5t-44.5 127.5q0 64 29.5 113t85.5 76.5t131 27.5q69 0 123.5 -26t87 -73.5t36.5 -109.5l-133 -28
q-2 55 -34.5 89t-81.5 34q-47 0 -75.5 -25.5t-28.5 -64.5q0 -35 23.5 -57.5t75.5 -36.5l97 -27q101 -26 148 -75t47 -129q0 -66 -32.5 -117t-93.5 -79.5t-143 -28.5q-83 0 -147 30zM260 -223q13 -3 27 -3q26 0 43 12t18 37q-15 -7 -32 -7q-28 0 -47.5 17t-19.5 43
q0 25 17.5 41t45.5 16q34 0 56 -27.5t22 -70.5q0 -48 -27.5 -73.5t-72.5 -25.5q-20 0 -37 4z" />
    <glyph glyph-name="uni0219" unicode="&#x219;" horiz-adv-x="514" 
d="M100 31q-64 47 -67 132l118 19q2 -49 33.5 -76t81.5 -27q40 0 66.5 16t26.5 43q-1 23 -22 38t-69 27l-73 19q-72 19 -105 53t-33 89q0 74 53.5 118.5t139.5 44.5q82 0 138 -41.5t62 -114.5l-117 -19q-2 39 -25.5 60t-61.5 21q-32 0 -52 -16t-20 -41q0 -21 19 -35t63 -27
l73 -19q79 -21 115.5 -56t36.5 -90q0 -49 -28 -86.5t-78 -58t-113 -20.5q-98 0 -162 47zM207 -223q13 -3 27 -3q26 0 43 12t18 37q-15 -7 -32 -7q-28 0 -47.5 17t-19.5 43q0 25 17.5 41t45.5 16q34 0 56 -27.5t22 -70.5q0 -48 -27.5 -73.5t-72.5 -25.5q-20 0 -37 4z" />
    <glyph glyph-name="uni021A" unicode="&#x21a;" horiz-adv-x="584" 
d="M219 585h-191v125h528v-125h-191v-585h-146v585zM238 -223q13 -3 27 -3q26 0 43 12t18 37q-15 -7 -32 -7q-28 0 -47.5 17t-19.5 43q0 25 17.5 41t45.5 16q34 0 56 -27.5t22 -70.5q0 -48 -27.5 -73.5t-72.5 -25.5q-20 0 -37 4z" />
    <glyph glyph-name="uni021B" unicode="&#x21b;" horiz-adv-x="455" 
d="M149.5 27.5q-44.5 43.5 -44.5 119.5v263h-88v100h88v138l130 29v-167h173v-100h-173v-240q0 -37 16.5 -57.5t45.5 -20.5q60 0 77 76l63 -69q-15 -54 -58.5 -84.5t-105.5 -30.5q-79 0 -123.5 43.5zM209 -223q13 -3 27 -3q26 0 43 12t18 37q-15 -7 -32 -7q-28 0 -47.5 17
t-19.5 43q0 25 17.5 41t45.5 16q34 0 56 -27.5t22 -70.5q0 -48 -27.5 -73.5t-72.5 -25.5q-20 0 -37 4z" />
    <glyph glyph-name="uni0237" unicode="&#x237;" horiz-adv-x="248" 
d="M-67 -210l17 98q20 -10 49 -10t45.5 18t16.5 51v563h131v-576q0 -76 -43.5 -118.5t-119.5 -42.5q-56 0 -96 17z" />
    <glyph glyph-name="circumflex" unicode="&#x2c6;" horiz-adv-x="371" 
d="M36 616l122 134h54l123 -134l-30 -26l-120 129l-119 -129z" />
    <glyph glyph-name="caron" unicode="&#x2c7;" horiz-adv-x="371" 
d="M36 734l30 26l119 -129l120 129l30 -26l-123 -134h-54z" />
    <glyph glyph-name="breve" unicode="&#x2d8;" horiz-adv-x="352" 
d="M75.5 635q-39.5 45 -39.5 115h41q0 -52 28 -86t71 -34q44 0 72.5 34t28.5 86h39q0 -70 -39.5 -115t-100.5 -45t-100.5 45z" />
    <glyph glyph-name="dotaccent" unicode="&#x2d9;" horiz-adv-x="229" 
d="M58 616.5q-22 21.5 -22 55.5q0 33 22 54.5t56 21.5t56.5 -21.5t22.5 -54.5q0 -34 -22 -55.5t-57 -21.5q-34 0 -56 21.5z" />
    <glyph glyph-name="ring" unicode="&#x2da;" horiz-adv-x="262" 
d="M62.5 617.5q-26.5 27.5 -26.5 69.5q0 40 27 66.5t68 26.5t67.5 -27t27.5 -68q0 -41 -26.5 -68t-68.5 -27t-68.5 27.5zM170 645.5q15 15.5 15 39.5t-15 39.5t-40 15.5q-23 0 -39 -15.5t-16 -39.5t16 -39.5t39 -15.5q25 0 40 15.5z" />
    <glyph glyph-name="ogonek" unicode="&#x2db;" horiz-adv-x="268" 
d="M49 -182q-24 23 -24 60q0 53 47.5 88t142.5 65l16 -31q-88 -31 -126.5 -55.5t-38.5 -63.5q0 -21 13.5 -33.5t35.5 -12.5q16 0 34.5 10t34.5 26l28 -26q-19 -23 -46.5 -36.5t-52.5 -13.5q-40 0 -64 23z" />
    <glyph glyph-name="tilde" unicode="&#x2dc;" horiz-adv-x="375" 
d="M211 604.5q-18 14.5 -36 39.5q-19 26 -30 37.5t-24 11.5q-20 0 -32.5 -26.5t-12.5 -66.5h-40q0 59 23 96t62 37q25 0 43 -15t36 -41q19 -26 28.5 -36.5t23.5 -10.5q20 0 33 26.5t13 67.5h41q0 -59 -23.5 -96.5t-62.5 -37.5q-24 0 -42 14.5z" />
    <glyph glyph-name="hungarumlaut" unicode="&#x2dd;" horiz-adv-x="331" 
d="M36 620l89 150l34 -20l-89 -150zM172 620l89 150l34 -20l-89 -150z" />
    <glyph glyph-name="Wgrave" unicode="&#x1e80;" horiz-adv-x="1016" 
d="M22 710h148l125 -563h2l120 563h184l120 -563h2l123 563h148l-176 -710h-191l-117 552h-2l-119 -552h-190zM428 909l34 21l75 -131l-34 -19z" />
    <glyph glyph-name="wgrave" unicode="&#x1e81;" horiz-adv-x="825" 
d="M22 510h132l91 -379h1l99 379h135l101 -382h1l89 382h132l-138 -510h-154l-98 378h-2l-95 -378h-155zM317 750l34 20l89 -150l-34 -20z" />
    <glyph glyph-name="Wacute" unicode="&#x1e82;" horiz-adv-x="1016" 
d="M22 710h148l125 -563h2l120 563h184l120 -563h2l123 563h148l-176 -710h-191l-117 552h-2l-119 -552h-190zM490 799l75 131l34 -21l-75 -129z" />
    <glyph glyph-name="wacute" unicode="&#x1e83;" horiz-adv-x="825" 
d="M22 510h132l91 -379h1l99 379h135l101 -382h1l89 382h132l-138 -510h-154l-98 378h-2l-95 -378h-155zM390 620l89 150l34 -20l-89 -150z" />
    <glyph glyph-name="Wdieresis" unicode="&#x1e84;" horiz-adv-x="1016" 
d="M22 710h148l125 -563h2l120 563h184l120 -563h2l123 563h148l-176 -710h-191l-117 552h-2l-119 -552h-190zM333.5 812q-21.5 21 -21.5 54q0 32 21.5 53t54.5 21t54.5 -21t21.5 -53q0 -33 -21.5 -54t-54.5 -21t-54.5 21zM577 812q-21 21 -21 54q0 32 21 53t54 21t54 -21
t21 -53q0 -33 -21 -54t-54 -21t-54 21z" />
    <glyph glyph-name="wdieresis" unicode="&#x1e85;" horiz-adv-x="825" 
d="M22 510h132l91 -379h1l99 379h135l101 -382h1l89 382h132l-138 -510h-154l-98 378h-2l-95 -378h-155zM242 616.5q-21 20.5 -21 52.5t21 52.5t54 20.5t54.5 -20.5t21.5 -52.5t-21.5 -52.5t-54.5 -20.5t-54 20.5zM473.5 617q-21.5 21 -21.5 52q0 32 21.5 52.5t53.5 20.5
q34 0 55 -20.5t21 -52.5t-21 -52.5t-55 -20.5q-32 0 -53.5 21z" />
    <glyph glyph-name="uni1E9E" unicode="&#x1e9e;" horiz-adv-x="639" 
d="M576.5 232q21.5 -37 21.5 -86q0 -72 -46.5 -114.5t-124.5 -42.5q-74 0 -121.5 39.5t-58.5 106.5l74 57q4 -46 26.5 -73.5t57.5 -27.5q23 0 37.5 14t14.5 38q0 20 -14 39.5t-45 40.5l-55 38q-41 27 -59 55.5t-18 65.5q0 45 33.5 78t99.5 51q3 15 3 29q0 37 -21.5 56.5
t-59.5 19.5q-51 0 -83 -33.5t-32 -91.5v-491h-145v495q0 71 32 124t91 81.5t137 28.5q102 0 163 -47.5t61 -131.5q0 -63 -21 -102q-59 -8 -86.5 -22t-27.5 -35q0 -23 38 -47l59 -41q48 -34 69.5 -71z" />
    <glyph glyph-name="Ygrave" unicode="&#x1ef2;" horiz-adv-x="637" 
d="M247 250l-225 460h153l145 -325h1l138 325h156l-222 -460v-250h-146v250zM239 909l34 21l75 -131l-34 -19z" />
    <glyph glyph-name="ygrave" unicode="&#x1ef3;" horiz-adv-x="550" 
d="M99 -200q-61 27 -98 76l68 88q27 -38 67.5 -59t87.5 -21q65 0 102.5 38t37.5 105v37h-1q-22 -42 -59.5 -66t-81.5 -24q-79 0 -125 51t-46 139v346h131v-332q0 -43 22 -69t61 -26q43 0 70 28.5t27 75.5v323h130l1 -489q0 -116 -69.5 -182t-189.5 -66q-74 0 -135 27z
M180 750l34 20l89 -150l-34 -20z" />
    <glyph glyph-name="endash" unicode="&#x2013;" horiz-adv-x="596" 
d="M57 290h481v-40h-481v40z" />
    <glyph glyph-name="emdash" unicode="&#x2014;" horiz-adv-x="882" 
d="M57 290h767v-40h-767v40z" />
    <glyph glyph-name="quoteleft" unicode="&#x2018;" horiz-adv-x="278" 
d="M218 690q-12 4 -27 4q-42 0 -70.5 -33.5t-29.5 -85.5q22 11 45 11q33 0 55.5 -21.5t22.5 -53.5q0 -35 -22 -58t-56 -23q-39 0 -63 32.5t-24 91.5q0 82 39 131t102 49q16 0 39 -5z" />
    <glyph glyph-name="quoteright" unicode="&#x2019;" horiz-adv-x="278" 
d="M60 473q12 -4 27 -4q42 0 70.5 34t29.5 86q-22 -11 -46 -11q-33 0 -55 22t-22 55q0 34 22.5 56t55.5 22q39 0 63 -32.5t24 -91.5q1 -81 -38 -130t-102 -49q-17 0 -40 5z" />
    <glyph glyph-name="quotesinglbase" unicode="&#x201a;" horiz-adv-x="278" 
d="M60 -115q12 -4 27 -4q42 0 70.5 34t29.5 86q-22 -11 -46 -11q-33 0 -55 22t-22 55q0 34 22.5 56t55.5 22q39 0 63 -32.5t24 -91.5q1 -81 -38 -130t-102 -49q-17 0 -40 5z" />
    <glyph glyph-name="quotedblleft" unicode="&#x201c;" horiz-adv-x="484" 
d="M218 690q-12 4 -27 4q-42 0 -70.5 -33.5t-29.5 -85.5q22 11 45 11q33 0 55.5 -21.5t22.5 -53.5q0 -35 -22 -58t-56 -23q-39 0 -63 32.5t-24 91.5q0 82 39 131t102 49q16 0 39 -5zM423 690q-12 4 -27 4q-42 0 -70.5 -33.5t-29.5 -85.5q22 11 45 11q33 0 55.5 -21.5
t22.5 -53.5q0 -35 -22 -58t-56 -23q-39 0 -63 32.5t-24 91.5q0 82 39 131t102 49q16 0 39 -5z" />
    <glyph glyph-name="quotedblright" unicode="&#x201d;" horiz-adv-x="484" 
d="M60 473q18 -4 27 -4q42 0 70.5 34t29.5 86q-22 -11 -45 -11q-33 0 -55.5 22.5t-22.5 54.5q0 34 22.5 56.5t55.5 22.5q39 0 63 -32.5t24 -91.5q1 -82 -38 -131t-103 -49q-16 0 -39 5zM266 473q18 -4 26 -4q42 0 70.5 33.5t30.5 86.5q-22 -11 -45 -11q-34 0 -56.5 22.5
t-22.5 54.5q0 34 22.5 56.5t56.5 22.5q39 0 62.5 -32t24.5 -92q0 -82 -39 -131t-102 -49q-16 0 -39 5z" />
    <glyph glyph-name="quotedblbase" unicode="&#x201e;" horiz-adv-x="484" 
d="M60 -115q12 -4 27 -4q42 0 70.5 34t29.5 86q-22 -11 -46 -11q-33 0 -55 22t-22 55q0 34 22.5 56t55.5 22q39 0 63 -32.5t24 -91.5q1 -81 -38 -130t-102 -49q-17 0 -40 5zM266 -115q12 -4 27 -4q41 0 69.5 34t30.5 86q-22 -11 -46 -11q-33 0 -55.5 22t-22.5 55
q0 34 22.5 56t56.5 22q39 0 62.5 -32t24.5 -92q0 -81 -38.5 -130t-101.5 -49q-17 0 -40 5z" />
    <glyph glyph-name="bullet" unicode="&#x2022;" horiz-adv-x="344" 
d="M83.5 224.5q-34.5 33.5 -34.5 85.5t34.5 85.5t88.5 33.5t88 -33t34 -86t-34 -86t-88 -33t-88.5 33.5z" />
    <glyph glyph-name="ellipsis" unicode="&#x2026;" horiz-adv-x="680" 
d="M72 10.5q-23 22.5 -23 57.5q0 34 23 56.5t58 22.5q36 0 59 -22t23 -57t-23 -57.5t-59 -22.5q-35 0 -58 22.5zM281 10.5q-23 22.5 -23 57.5q0 34 23 56.5t58 22.5q36 0 59 -22t23 -57t-23 -57.5t-59 -22.5q-35 0 -58 22.5zM490 10.5q-23 22.5 -23 57.5q0 34 23 56.5
t58 22.5q36 0 59 -22t23 -57t-23 -57.5t-59 -22.5q-35 0 -58 22.5z" />
    <glyph glyph-name="perthousand" unicode="&#x2030;" horiz-adv-x="1480" 
d="M223 13l521 733l33 -23l-521 -733zM137.5 361.5q-45.5 25.5 -71.5 70.5t-26 101q0 58 26 104.5t71.5 72.5t102.5 26t102.5 -26t71.5 -71.5t26 -103.5q0 -57 -26 -102.5t-71.5 -71t-102.5 -25.5t-102.5 25.5zM318 458.5q30 30.5 30 76.5q0 47 -30.5 78t-76.5 31
q-48 0 -79 -31t-31 -78q0 -46 31.5 -76.5t78.5 -30.5t77 30.5zM647.5 11.5q-45.5 25.5 -71.5 71t-26 102.5q0 58 26 103.5t71.5 71.5t102.5 26t102.5 -26t71.5 -71.5t26 -103.5q0 -57 -26 -102.5t-71.5 -71t-102.5 -25.5t-102.5 25.5zM1138.5 11.5q-45.5 25.5 -71.5 70.5
t-26 101q0 58 26 104.5t71.5 72.5t102.5 26t102.5 -26t71.5 -71.5t26 -103.5q0 -57 -26 -102.5t-71.5 -71t-102.5 -25.5t-102.5 25.5zM828 108.5q30 30.5 30 76.5q0 47 -30.5 78t-76.5 31q-48 0 -79 -31t-31 -78t31 -77t79 -30q47 0 77 30.5zM1319 108.5q30 30.5 30 76.5
q0 47 -30.5 78t-76.5 31q-48 0 -79 -31t-31 -78t31 -77t79 -30q47 0 77 30.5z" />
    <glyph glyph-name="guilsinglleft" unicode="&#x2039;" horiz-adv-x="293" 
d="M40 255l180 265l33 -22l-163 -243l163 -243l-33 -22z" />
    <glyph glyph-name="guilsinglright" unicode="&#x203a;" horiz-adv-x="293" 
d="M40 12l163 243l-163 243l33 22l180 -265l-180 -265z" />
    <glyph glyph-name="lira" unicode="&#x20a4;" horiz-adv-x="576" 
d="M40 118q48 15 76 60.5t28 112.5h-99v39h99v47h-99v40h99v109q0 92 51 148t137 56q91 0 145.5 -57.5t58.5 -152.5l-120 -21q-2 56 -21 88.5t-52 32.5q-30 0 -47 -27t-16 -73v-103h217v-40h-217v-47h217v-40h-218q0 -63 -33 -114t-87 -73v-1h375v-102h-494v118z" />
    <glyph glyph-name="Euro" unicode="&#x20ac;" horiz-adv-x="830" 
d="M798 272q-12 -90 -55.5 -156.5t-113 -102t-157.5 -35.5q-143 0 -233 81.5t-109 225.5h-90v40h87q-1 10 -1 30q0 23 1 34h-87v40h91q18 142 103 222.5t218 80.5q117 0 195.5 -69.5t97.5 -192.5l-135 -27q-13 78 -55 121t-104 43q-68 0 -113.5 -47t-59.5 -131h261v-40h-266
q-1 -11 -1 -34q0 -20 1 -30h266v-40h-261q15 -85 66 -132.5t128 -47.5q75 0 126 51.5t64 140.5z" />
    <glyph glyph-name="trademark" unicode="&#x2122;" horiz-adv-x="1012" 
d="M139 618h-111v92h334v-92h-112v-338h-111v338zM403 710h139l131 -308l129 308h141v-430h-99v299l-125 -299h-90l-126 299v-299h-99z" />
    <glyph glyph-name="arrowleft" unicode="&#x2190;" horiz-adv-x="618" 
d="M45 261l220 229l29 -27l-174 -182h452v-40h-452l174 -181l-29 -28z" />
    <glyph glyph-name="arrowup" unicode="&#x2191;" horiz-adv-x="549" 
d="M274 527l229 -220l-27 -29l-182 174v-452h-40v452l-181 -174l-28 29z" />
    <glyph glyph-name="arrowright" unicode="&#x2192;" horiz-adv-x="618" 
d="M323 60l174 181h-452v40h452l-174 182l29 27l220 -229l-220 -229z" />
    <glyph glyph-name="arrowdown" unicode="&#x2193;" horiz-adv-x="549" 
d="M73 232l181 -174v452h40v-452l182 174l27 -29l-229 -220l-229 220z" />
    <glyph glyph-name="arrowboth" unicode="&#x2194;" horiz-adv-x="946" 
d="M900 261l-220 -229l-29 27l174 182h-705l174 -181l-29 -28l-220 229l220 229l29 -27l-174 -182h705l-174 181l29 28z" />
    <glyph glyph-name="arrowupdn" unicode="&#x2195;" horiz-adv-x="549" 
d="M476 102l27 -29l-229 -220l-229 220l28 29l181 -174v654l-182 -174l-27 29l229 220l229 -220l-28 -29l-181 174v-654z" />
    <glyph glyph-name="uni2196" unicode="&#x2196;" horiz-adv-x="507" 
d="M393 414l-251 -5l319 -319l-28 -29l-319 320l-6 -252l-40 2l7 317l317 7z" />
    <glyph glyph-name="uni2197" unicode="&#x2197;" horiz-adv-x="507" 
d="M432 448l6 -317l-39 -2l-6 252l-319 -320l-29 29l320 319l-251 5l1 41z" />
    <glyph glyph-name="uni2198" unicode="&#x2198;" horiz-adv-x="507" 
d="M432 79l-317 -6l-2 40l252 5l-320 320l28 28l320 -319l5 251l40 -1z" />
    <glyph glyph-name="uni2199" unicode="&#x2199;" horiz-adv-x="507" 
d="M109 398l5 -251l319 319l29 -28l-320 -320l252 -5l-2 -40l-317 6l-7 318z" />
    <glyph glyph-name="minus" unicode="&#x2212;" horiz-adv-x="507" 
d="M57 420h392v-109h-392v109z" />
    <glyph glyph-name="notequal" unicode="&#x2260;" horiz-adv-x="525" 
d="M306 410l-33 -105h194v-96h-223l-70 -224l-38 10l66 214h-145v96h174l33 105h-207v96h236l63 205l40 -11l-60 -194h131v-96h-161z" />
    <glyph glyph-name="lessequal" unicode="&#x2264;" horiz-adv-x="420" 
d="M57 345v124l278 119l28 -92l-231 -89l231 -89l-29 -91zM57 175h306v-40h-306v40z" />
    <glyph glyph-name="greaterequal" unicode="&#x2265;" horiz-adv-x="420" 
d="M57 318l231 89l-231 89l28 92l278 -119v-124l-277 -118zM57 135v40h306v-40h-306z" />
    <glyph glyph-name="uniF6C3" unicode="&#xf6c3;" horiz-adv-x="0" 
d="M-166 -223q13 -3 27 -3q26 0 43 12t18 37q-15 -7 -32 -7q-28 0 -47.5 17t-19.5 43q0 25 17.5 41t45.5 16q34 0 56 -27.5t22 -70.5q0 -48 -27.5 -73.5t-72.5 -25.5q-20 0 -37 4z" />
    <glyph glyph-name="G.alt1" horiz-adv-x="795" 
d="M214.5 24.5q-81.5 46.5 -125.5 132t-44 198.5t42 198.5t119 132t180 46.5q104 0 183 -58t108 -155l-136 -32q-18 55 -60.5 87.5t-96.5 32.5q-58 0 -101.5 -31t-67.5 -87.5t-24 -131.5q0 -76 26.5 -133.5t75.5 -89t113 -31.5q86 0 140.5 53.5t58.5 141.5h-281v102h423
q2 -36 2 -53q0 -112 -42 -195.5t-120 -128.5t-183 -45q-108 0 -189.5 46.5z" />
    <glyph glyph-name="K.alt1" horiz-adv-x="638" 
d="M68 710h146v-297h1l224 297h174l-270 -342l280 -368h-178l-230 319h-1v-319h-146v710z" />
    <glyph glyph-name="R.alt1" horiz-adv-x="670" 
d="M68 710h297q76 0 134.5 -27t90.5 -76t32 -114q0 -56 -30.5 -101.5t-85.5 -69.5v-1q43 -9 66 -39t23 -73v-209h-146v199q0 35 -19.5 58.5t-50.5 23.5h-165v-281h-146v710zM355 389q54 0 88 28.5t34 73.5q0 48 -33.5 76.5t-88.5 28.5h-141v-207h141z" />
    <glyph glyph-name="R.alt2" horiz-adv-x="670" 
d="M68 710h297q76 0 134.5 -27t90.5 -76t32 -114q0 -64 -37.5 -114.5t-99.5 -69.5l140 -309h-156l-121 281h-134v-281h-146v710zM355 389q54 0 88 28.5t34 73.5q0 48 -33.5 76.5t-88.5 28.5h-141v-207h141z" />
    <glyph glyph-name="a.alt1" horiz-adv-x="538" 
d="M76.5 27.5q-45.5 39.5 -45.5 106.5q0 69 52.5 113.5t151.5 54.5l81 9q19 2 30.5 14t11.5 32q0 32 -25 51t-64 19q-45 0 -73.5 -29.5t-30.5 -71.5l-120 28q2 48 31 87.5t79 62.5t115 23q98 0 156.5 -52t58.5 -138v-337h-116l-14 71h-1q-24 -40 -65 -61.5t-93 -21.5
q-74 0 -119.5 39.5zM323.5 120q31.5 33 31.5 86v26l-90 -10q-52 -6 -77.5 -25.5t-25.5 -49.5q0 -28 22.5 -44t59.5 -16q48 0 79.5 33z" />
    <glyph glyph-name="a.alt2" horiz-adv-x="589" 
d="M138.5 19q-47.5 34 -73 95t-25.5 141t25.5 141t72.5 95t109 34q49 0 89.5 -24t63.5 -69h1l15 78h116v-510h-113l-16 79h-1q-22 -45 -63 -69.5t-91 -24.5q-62 0 -109.5 34zM374 142.5q32 42.5 32 112.5t-32 112.5t-86 42.5t-86 -42.5t-32 -112.5t32 -112.5t86 -42.5
t86 42.5z" />
    <glyph glyph-name="k.alt1" horiz-adv-x="517" 
d="M57 740h131v-435h1l151 205h152l-185 -237l195 -273h-151l-162 239h-1v-239h-131v740z" />
    <glyph glyph-name="u.alt1" horiz-adv-x="548" 
d="M113 37.5q-59 53.5 -59 145.5v327h130v-323q0 -41 24.5 -66t65.5 -25t65.5 25t24.5 66v323h131v-327q0 -92 -59 -145.5t-162 -53.5q-102 0 -161 53.5z" />
    <glyph glyph-name="y.alt1" horiz-adv-x="550" 
d="M231 19l-209 491h137l131 -331h1l104 331h133l-241 -720h-133z" />
    <glyph glyph-name="agrave.alt1" horiz-adv-x="538" 
d="M76.5 27.5q-45.5 39.5 -45.5 106.5q0 69 52.5 113.5t151.5 54.5l81 9q19 2 30.5 14t11.5 32q0 32 -25 51t-64 19q-45 0 -73.5 -29.5t-30.5 -71.5l-120 28q2 48 31 87.5t79 62.5t115 23q98 0 156.5 -52t58.5 -138v-337h-116l-14 71h-1q-24 -40 -65 -61.5t-93 -21.5
q-74 0 -119.5 39.5zM323.5 120q31.5 33 31.5 86v26l-90 -10q-52 -6 -77.5 -25.5t-25.5 -49.5q0 -28 22.5 -44t59.5 -16q48 0 79.5 33zM174 750l34 20l89 -150l-34 -20z" />
    <glyph glyph-name="agrave.alt2" horiz-adv-x="589" 
d="M138.5 19q-47.5 34 -73 95t-25.5 141t25.5 141t72.5 95t109 34q49 0 89.5 -24t63.5 -69h1l15 78h116v-510h-113l-16 79h-1q-22 -45 -63 -69.5t-91 -24.5q-62 0 -109.5 34zM374 142.5q32 42.5 32 112.5t-32 112.5t-86 42.5t-86 -42.5t-32 -112.5t32 -112.5t86 -42.5
t86 42.5zM193 750l34 20l89 -150l-34 -20z" />
    <glyph glyph-name="aacute.alt1" horiz-adv-x="538" 
d="M76.5 27.5q-45.5 39.5 -45.5 106.5q0 69 52.5 113.5t151.5 54.5l81 9q19 2 30.5 14t11.5 32q0 32 -25 51t-64 19q-45 0 -73.5 -29.5t-30.5 -71.5l-120 28q2 48 31 87.5t79 62.5t115 23q98 0 156.5 -52t58.5 -138v-337h-116l-14 71h-1q-24 -40 -65 -61.5t-93 -21.5
q-74 0 -119.5 39.5zM323.5 120q31.5 33 31.5 86v26l-90 -10q-52 -6 -77.5 -25.5t-25.5 -49.5q0 -28 22.5 -44t59.5 -16q48 0 79.5 33zM246 620l89 150l34 -20l-89 -150z" />
    <glyph glyph-name="aacute.alt2" horiz-adv-x="589" 
d="M138.5 19q-47.5 34 -73 95t-25.5 141t25.5 141t72.5 95t109 34q49 0 89.5 -24t63.5 -69h1l15 78h116v-510h-113l-16 79h-1q-22 -45 -63 -69.5t-91 -24.5q-62 0 -109.5 34zM374 142.5q32 42.5 32 112.5t-32 112.5t-86 42.5t-86 -42.5t-32 -112.5t32 -112.5t86 -42.5
t86 42.5zM266 620l89 150l34 -20l-89 -150z" />
    <glyph glyph-name="atilde.alt1" horiz-adv-x="538" 
d="M76.5 27.5q-45.5 39.5 -45.5 106.5q0 69 52.5 113.5t151.5 54.5l81 9q19 2 30.5 14t11.5 32q0 32 -25 51t-64 19q-45 0 -73.5 -29.5t-30.5 -71.5l-120 28q2 48 31 87.5t79 62.5t115 23q98 0 156.5 -52t58.5 -138v-337h-116l-14 71h-1q-24 -40 -65 -61.5t-93 -21.5
q-74 0 -119.5 39.5zM323.5 120q31.5 33 31.5 86v26l-90 -10q-52 -6 -77.5 -25.5t-25.5 -49.5q0 -28 22.5 -44t59.5 -16q48 0 79.5 33zM293 604.5q-18 14.5 -36 39.5q-19 26 -30 37.5t-24 11.5q-20 0 -32.5 -26.5t-12.5 -66.5h-40q0 59 23 96t62 37q25 0 43 -15t36 -41
q19 -26 28.5 -36.5t23.5 -10.5q20 0 33 26.5t13 67.5h41q0 -59 -23.5 -96.5t-62.5 -37.5q-24 0 -42 14.5z" />
    <glyph glyph-name="atilde.alt2" horiz-adv-x="589" 
d="M138.5 19q-47.5 34 -73 95t-25.5 141t25.5 141t72.5 95t109 34q49 0 89.5 -24t63.5 -69h1l15 78h116v-510h-113l-16 79h-1q-22 -45 -63 -69.5t-91 -24.5q-62 0 -109.5 34zM374 142.5q32 42.5 32 112.5t-32 112.5t-86 42.5t-86 -42.5t-32 -112.5t32 -112.5t86 -42.5
t86 42.5zM312 604.5q-18 14.5 -36 39.5q-19 26 -30 37.5t-24 11.5q-20 0 -32.5 -26.5t-12.5 -66.5h-40q0 59 23 96t62 37q25 0 43 -15t36 -41q19 -26 28.5 -36.5t23.5 -10.5q20 0 33 26.5t13 67.5h41q0 -59 -23.5 -96.5t-62.5 -37.5q-24 0 -42 14.5z" />
    <glyph glyph-name="adieresis.alt1" horiz-adv-x="538" 
d="M76.5 27.5q-45.5 39.5 -45.5 106.5q0 69 52.5 113.5t151.5 54.5l81 9q19 2 30.5 14t11.5 32q0 32 -25 51t-64 19q-45 0 -73.5 -29.5t-30.5 -71.5l-120 28q2 48 31 87.5t79 62.5t115 23q98 0 156.5 -52t58.5 -138v-337h-116l-14 71h-1q-24 -40 -65 -61.5t-93 -21.5
q-74 0 -119.5 39.5zM323.5 120q31.5 33 31.5 86v26l-90 -10q-52 -6 -77.5 -25.5t-25.5 -49.5q0 -28 22.5 -44t59.5 -16q48 0 79.5 33zM99 616.5q-21 20.5 -21 52.5t21 52.5t54 20.5t54.5 -20.5t21.5 -52.5t-21.5 -52.5t-54.5 -20.5t-54 20.5zM330.5 617q-21.5 21 -21.5 52
q0 32 21.5 52.5t53.5 20.5q34 0 55 -20.5t21 -52.5t-21 -52.5t-55 -20.5q-32 0 -53.5 21z" />
    <glyph glyph-name="adieresis.alt2" horiz-adv-x="589" 
d="M138.5 19q-47.5 34 -73 95t-25.5 141t25.5 141t72.5 95t109 34q49 0 89.5 -24t63.5 -69h1l15 78h116v-510h-113l-16 79h-1q-22 -45 -63 -69.5t-91 -24.5q-62 0 -109.5 34zM374 142.5q32 42.5 32 112.5t-32 112.5t-86 42.5t-86 -42.5t-32 -112.5t32 -112.5t86 -42.5
t86 42.5zM118 616.5q-21 20.5 -21 52.5t21 52.5t54 20.5t54.5 -20.5t21.5 -52.5t-21.5 -52.5t-54.5 -20.5t-54 20.5zM349.5 617q-21.5 21 -21.5 52q0 32 21.5 52.5t53.5 20.5q34 0 55 -20.5t21 -52.5t-21 -52.5t-55 -20.5q-32 0 -53.5 21z" />
    <glyph glyph-name="aring.alt1" horiz-adv-x="538" 
d="M76.5 27.5q-45.5 39.5 -45.5 106.5q0 69 52.5 113.5t151.5 54.5l81 9q19 2 30.5 14t11.5 32q0 32 -25 51t-64 19q-45 0 -73.5 -29.5t-30.5 -71.5l-120 28q2 48 31 87.5t79 62.5t115 23q98 0 156.5 -52t58.5 -138v-337h-116l-14 71h-1q-24 -40 -65 -61.5t-93 -21.5
q-74 0 -119.5 39.5zM323.5 120q31.5 33 31.5 86v26l-90 -10q-52 -6 -77.5 -25.5t-25.5 -49.5q0 -28 22.5 -44t59.5 -16q48 0 79.5 33zM200.5 617.5q-26.5 27.5 -26.5 69.5q0 40 27 66.5t68 26.5t67.5 -27t27.5 -68q0 -41 -26.5 -68t-68.5 -27t-68.5 27.5zM308 645.5
q15 15.5 15 39.5t-15 39.5t-40 15.5q-23 0 -39 -15.5t-16 -39.5t16 -39.5t39 -15.5q25 0 40 15.5z" />
    <glyph glyph-name="aring.alt2" horiz-adv-x="589" 
d="M138.5 19q-47.5 34 -73 95t-25.5 141t25.5 141t72.5 95t109 34q49 0 89.5 -24t63.5 -69h1l15 78h116v-510h-113l-16 79h-1q-22 -45 -63 -69.5t-91 -24.5q-62 0 -109.5 34zM374 142.5q32 42.5 32 112.5t-32 112.5t-86 42.5t-86 -42.5t-32 -112.5t32 -112.5t86 -42.5
t86 42.5zM219.5 617.5q-26.5 27.5 -26.5 69.5q0 40 27 66.5t68 26.5t67.5 -27t27.5 -68q0 -41 -26.5 -68t-68.5 -27t-68.5 27.5zM327 645.5q15 15.5 15 39.5t-15 39.5t-40 15.5q-23 0 -39 -15.5t-16 -39.5t16 -39.5t39 -15.5q25 0 40 15.5z" />
    <glyph glyph-name="amacron.alt1" horiz-adv-x="538" 
d="M76.5 27.5q-45.5 39.5 -45.5 106.5q0 69 52.5 113.5t151.5 54.5l81 9q19 2 30.5 14t11.5 32q0 32 -25 51t-64 19q-45 0 -73.5 -29.5t-30.5 -71.5l-120 28q2 48 31 87.5t79 62.5t115 23q98 0 156.5 -52t58.5 -138v-337h-116l-14 71h-1q-24 -40 -65 -61.5t-93 -21.5
q-74 0 -119.5 39.5zM323.5 120q31.5 33 31.5 86v26l-90 -10q-52 -6 -77.5 -25.5t-25.5 -49.5q0 -28 22.5 -44t59.5 -16q48 0 79.5 33zM127 637h283v-40h-283v40z" />
    <glyph glyph-name="amacron.alt2" horiz-adv-x="589" 
d="M138.5 19q-47.5 34 -73 95t-25.5 141t25.5 141t72.5 95t109 34q49 0 89.5 -24t63.5 -69h1l15 78h116v-510h-113l-16 79h-1q-22 -45 -63 -69.5t-91 -24.5q-62 0 -109.5 34zM374 142.5q32 42.5 32 112.5t-32 112.5t-86 42.5t-86 -42.5t-32 -112.5t32 -112.5t86 -42.5
t86 42.5zM146 637h283v-40h-283v40z" />
    <glyph glyph-name="abreve.alt1" horiz-adv-x="538" 
d="M76.5 27.5q-45.5 39.5 -45.5 106.5q0 69 52.5 113.5t151.5 54.5l81 9q19 2 30.5 14t11.5 32q0 32 -25 51t-64 19q-45 0 -73.5 -29.5t-30.5 -71.5l-120 28q2 48 31 87.5t79 62.5t115 23q98 0 156.5 -52t58.5 -138v-337h-116l-14 71h-1q-24 -40 -65 -61.5t-93 -21.5
q-74 0 -119.5 39.5zM323.5 120q31.5 33 31.5 86v26l-90 -10q-52 -6 -77.5 -25.5t-25.5 -49.5q0 -28 22.5 -44t59.5 -16q48 0 79.5 33zM168.5 635q-39.5 45 -39.5 115h41q0 -52 28 -86t71 -34q44 0 72.5 34t28.5 86h39q0 -70 -39.5 -115t-100.5 -45t-100.5 45z" />
    <glyph glyph-name="abreve.alt2" horiz-adv-x="589" 
d="M138.5 19q-47.5 34 -73 95t-25.5 141t25.5 141t72.5 95t109 34q49 0 89.5 -24t63.5 -69h1l15 78h116v-510h-113l-16 79h-1q-22 -45 -63 -69.5t-91 -24.5q-62 0 -109.5 34zM374 142.5q32 42.5 32 112.5t-32 112.5t-86 42.5t-86 -42.5t-32 -112.5t32 -112.5t86 -42.5
t86 42.5zM187.5 635q-39.5 45 -39.5 115h41q0 -52 28 -86t71 -34q44 0 72.5 34t28.5 86h39q0 -70 -39.5 -115t-100.5 -45t-100.5 45z" />
    <glyph glyph-name="aogonek.alt1" horiz-adv-x="538" 
d="M358.5 -55.5q-38.5 -24.5 -38.5 -63.5q0 -21 13.5 -33.5t35.5 -12.5q16 0 34.5 10t34.5 26l28 -26q-19 -23 -46.5 -36.5t-52.5 -13.5q-40 0 -64 22.5t-24 59.5q0 40 27 69t80 54h-17l-14 71h-1q-24 -40 -65 -61.5t-93 -21.5q-74 0 -119.5 39.5t-45.5 106.5
q0 69 52.5 113.5t151.5 54.5l81 9q19 2 30.5 14t11.5 32q0 32 -25 51t-64 19q-45 0 -73.5 -29.5t-30.5 -71.5l-120 28q2 48 31 87.5t79 62.5t115 23q98 0 156.5 -52t58.5 -138v-337q-88 -31 -126.5 -55.5zM355 232l-90 -10q-52 -6 -77.5 -25.5t-25.5 -49.5q0 -28 22.5 -44
t59.5 -16q48 0 79.5 33t31.5 86v26z" />
    <glyph glyph-name="aogonek.alt2" horiz-adv-x="589" 
d="M405.5 -55.5q-38.5 -24.5 -38.5 -63.5q0 -21 13.5 -33.5t35.5 -12.5q16 0 34.5 10t34.5 26l28 -26q-19 -23 -46.5 -36.5t-52.5 -13.5q-40 0 -64 22.5t-24 59.5q0 40 27 69t80 54h-14l-16 79h-1q-22 -45 -63 -69.5t-91 -24.5q-62 0 -109.5 34t-73 95t-25.5 141t25.5 141
t72.5 95t109 34q49 0 89.5 -24t63.5 -69h1l15 78h116v-510q-88 -31 -126.5 -55.5zM374 142.5q32 42.5 32 112.5t-32 112.5t-86 42.5t-86 -42.5t-32 -112.5t32 -112.5t86 -42.5t86 42.5z" />
    <glyph glyph-name="acircumflex.alt1" horiz-adv-x="538" 
d="M76.5 27.5q-45.5 39.5 -45.5 106.5q0 69 52.5 113.5t151.5 54.5l81 9q19 2 30.5 14t11.5 32q0 32 -25 51t-64 19q-45 0 -73.5 -29.5t-30.5 -71.5l-120 28q2 48 31 87.5t79 62.5t115 23q98 0 156.5 -52t58.5 -138v-337h-116l-14 71h-1q-24 -40 -65 -61.5t-93 -21.5
q-74 0 -119.5 39.5zM323.5 120q31.5 33 31.5 86v26l-90 -10q-52 -6 -77.5 -25.5t-25.5 -49.5q0 -28 22.5 -44t59.5 -16q48 0 79.5 33zM120 616l122 134h54l123 -134l-30 -26l-120 129l-119 -129z" />
    <glyph glyph-name="acircumflex.alt2" horiz-adv-x="589" 
d="M138.5 19q-47.5 34 -73 95t-25.5 141t25.5 141t72.5 95t109 34q49 0 89.5 -24t63.5 -69h1l15 78h116v-510h-113l-16 79h-1q-22 -45 -63 -69.5t-91 -24.5q-62 0 -109.5 34zM374 142.5q32 42.5 32 112.5t-32 112.5t-86 42.5t-86 -42.5t-32 -112.5t32 -112.5t86 -42.5
t86 42.5zM139 616l122 134h54l123 -134l-30 -26l-120 129l-119 -129z" />
    <glyph glyph-name="Gcircumflex.alt1" horiz-adv-x="795" 
d="M214.5 24.5q-81.5 46.5 -125.5 132t-44 198.5t42 198.5t119 132t180 46.5q104 0 183 -58t108 -155l-136 -32q-18 55 -60.5 87.5t-96.5 32.5q-58 0 -101.5 -31t-67.5 -87.5t-24 -131.5q0 -76 26.5 -133.5t75.5 -89t113 -31.5q86 0 140.5 53.5t58.5 141.5h-281v102h423
q2 -36 2 -53q0 -112 -42 -195.5t-120 -128.5t-183 -45q-108 0 -189.5 46.5zM254 806l105 114h54l104 -114l-29 -26l-103 109l-101 -109z" />
    <glyph glyph-name="Gbreve.alt1" horiz-adv-x="795" 
d="M214.5 24.5q-81.5 46.5 -125.5 132t-44 198.5t42 198.5t119 132t180 46.5q104 0 183 -58t108 -155l-136 -32q-18 55 -60.5 87.5t-96.5 32.5q-58 0 -101.5 -31t-67.5 -87.5t-24 -131.5q0 -76 26.5 -133.5t75.5 -89t113 -31.5q86 0 140.5 53.5t58.5 141.5h-281v102h423
q2 -36 2 -53q0 -112 -42 -195.5t-120 -128.5t-183 -45q-108 0 -189.5 46.5zM300.5 827q-34.5 37 -35.5 93h41q0 -39 23 -64.5t58 -25.5q36 0 59.5 25.5t23.5 64.5h39q1 -56 -34 -93t-88 -37q-52 0 -86.5 37z" />
    <glyph glyph-name="Gdotaccent.alt1" horiz-adv-x="795" 
d="M214.5 24.5q-81.5 46.5 -125.5 132t-44 198.5t42 198.5t119 132t180 46.5q104 0 183 -58t108 -155l-136 -32q-18 55 -60.5 87.5t-96.5 32.5q-58 0 -101.5 -31t-67.5 -87.5t-24 -131.5q0 -76 26.5 -133.5t75.5 -89t113 -31.5q86 0 140.5 53.5t58.5 141.5h-281v102h423
q2 -36 2 -53q0 -112 -42 -195.5t-120 -128.5t-183 -45q-108 0 -189.5 46.5zM329 812.5q-22 21.5 -22 55.5q0 33 22 54t57 21q34 0 56 -21t22 -54q0 -34 -21.5 -55.5t-56.5 -21.5t-57 21.5z" />
    <glyph glyph-name="uni0122.alt1" horiz-adv-x="795" 
d="M214.5 24.5q-81.5 46.5 -125.5 132t-44 198.5t42 198.5t119 132t180 46.5q104 0 183 -58t108 -155l-136 -32q-18 55 -60.5 87.5t-96.5 32.5q-58 0 -101.5 -31t-67.5 -87.5t-24 -131.5q0 -76 26.5 -133.5t75.5 -89t113 -31.5q86 0 140.5 53.5t58.5 141.5h-281v102h423
q2 -36 2 -53q0 -112 -42 -195.5t-120 -128.5t-183 -45q-108 0 -189.5 46.5zM350 -223q13 -3 27 -3q26 0 43 12t18 37q-15 -7 -32 -7q-28 0 -47.5 17t-19.5 43q0 25 17.5 41t45.5 16q34 0 56 -27.5t22 -70.5q0 -48 -27.5 -73.5t-72.5 -25.5q-20 0 -37 4z" />
    <glyph glyph-name="IJacute" horiz-adv-x="789" 
d="M103 807l119 122l29 -27l-120 -123zM617 807l119 122l28 -27l-120 -123zM68 710h146v-710h-146v710zM353.5 31q-59.5 52 -69.5 146l127 46q5 -60 29.5 -92.5t65.5 -32.5q37 0 57.5 25.5t20.5 71.5v515h145v-523q0 -99 -57 -153.5t-160 -54.5q-99 0 -158.5 52z" />
    <glyph glyph-name="ijacute" horiz-adv-x="463" 
d="M72 616l142 142l29 -27l-143 -143zM294 616l142 142l29 -27l-143 -143zM57 510h131v-510h-131v510zM148 -210l17 98q20 -10 49 -10q30 0 46 18t16 51v563h131v-576q0 -76 -43.5 -118.5t-119.5 -42.5q-56 0 -96 17z" />
    <glyph glyph-name="uni0136.alt1" horiz-adv-x="638" 
d="M68 710h146v-297h1l224 297h174l-270 -342l280 -368h-178l-230 319h-1v-319h-146v710zM273 -223q13 -3 27 -3q26 0 43 12t18 37q-15 -7 -32 -7q-28 0 -47.5 17t-19.5 43q0 25 17.5 41t45.5 16q34 0 56 -27.5t22 -70.5q0 -48 -27.5 -73.5t-72.5 -25.5q-20 0 -37 4z" />
    <glyph glyph-name="uni0137.alt1" horiz-adv-x="517" 
d="M57 740h131v-435h1l151 205h152l-185 -237l195 -273h-151l-162 239h-1v-239h-131v740zM208 -223q13 -3 27 -3q26 0 43 12t18 37q-15 -7 -32 -7q-28 0 -47.5 17t-19.5 43q0 25 17.5 41t45.5 16q34 0 56 -27.5t22 -70.5q0 -48 -27.5 -73.5t-72.5 -25.5q-20 0 -37 4z" />
    <glyph glyph-name="Racute.alt1" horiz-adv-x="670" 
d="M68 710h297q76 0 134.5 -27t90.5 -76t32 -114q0 -56 -30.5 -101.5t-85.5 -69.5v-1q43 -9 66 -39t23 -73v-209h-146v199q0 35 -19.5 58.5t-50.5 23.5h-165v-281h-146v710zM355 389q54 0 88 28.5t34 73.5q0 48 -33.5 76.5t-88.5 28.5h-141v-207h141zM299 799l75 131l34 -21
l-75 -129z" />
    <glyph glyph-name="Racute.alt2" horiz-adv-x="670" 
d="M68 710h297q76 0 134.5 -27t90.5 -76t32 -114q0 -64 -37.5 -114.5t-99.5 -69.5l140 -309h-156l-121 281h-134v-281h-146v710zM355 389q54 0 88 28.5t34 73.5q0 48 -33.5 76.5t-88.5 28.5h-141v-207h141zM299 799l75 131l34 -21l-75 -129z" />
    <glyph glyph-name="Rcaron.alt1" horiz-adv-x="670" 
d="M68 710h297q76 0 134.5 -27t90.5 -76t32 -114q0 -56 -30.5 -101.5t-85.5 -69.5v-1q43 -9 66 -39t23 -73v-209h-146v199q0 35 -19.5 58.5t-50.5 23.5h-165v-281h-146v710zM355 389q54 0 88 28.5t34 73.5q0 48 -33.5 76.5t-88.5 28.5h-141v-207h141zM186 904l30 26
l101 -109l103 109l29 -26l-104 -114h-54z" />
    <glyph glyph-name="Rcaron.alt2" horiz-adv-x="670" 
d="M68 710h297q76 0 134.5 -27t90.5 -76t32 -114q0 -64 -37.5 -114.5t-99.5 -69.5l140 -309h-156l-121 281h-134v-281h-146v710zM355 389q54 0 88 28.5t34 73.5q0 48 -33.5 76.5t-88.5 28.5h-141v-207h141zM186 904l30 26l101 -109l103 109l29 -26l-104 -114h-54z" />
    <glyph glyph-name="uni0156.alt1" horiz-adv-x="670" 
d="M68 710h297q76 0 134.5 -27t90.5 -76t32 -114q0 -56 -30.5 -101.5t-85.5 -69.5v-1q43 -9 66 -39t23 -73v-209h-146v199q0 35 -19.5 58.5t-50.5 23.5h-165v-281h-146v710zM355 389q54 0 88 28.5t34 73.5q0 48 -33.5 76.5t-88.5 28.5h-141v-207h141zM277 -223q13 -3 27 -3
q26 0 43 12t18 37q-15 -7 -32 -7q-28 0 -47.5 17t-19.5 43q0 25 17.5 41t45.5 16q34 0 56 -27.5t22 -70.5q0 -48 -27.5 -73.5t-72.5 -25.5q-20 0 -37 4z" />
    <glyph glyph-name="uni0156.alt2" horiz-adv-x="670" 
d="M68 710h297q76 0 134.5 -27t90.5 -76t32 -114q0 -64 -37.5 -114.5t-99.5 -69.5l140 -309h-156l-121 281h-134v-281h-146v710zM355 389q54 0 88 28.5t34 73.5q0 48 -33.5 76.5t-88.5 28.5h-141v-207h141zM278 -223q13 -3 27 -3q26 0 43 12t18 37q-15 -7 -32 -7
q-28 0 -47.5 17t-19.5 43q0 25 17.5 41t45.5 16q34 0 56 -27.5t22 -70.5q0 -48 -27.5 -73.5t-72.5 -25.5q-20 0 -37 4z" />
    <glyph glyph-name="ugrave.alt1" horiz-adv-x="548" 
d="M113 37.5q-59 53.5 -59 145.5v327h130v-323q0 -41 24.5 -66t65.5 -25t65.5 25t24.5 66v323h131v-327q0 -92 -59 -145.5t-162 -53.5q-102 0 -161 53.5zM182 750l34 20l89 -150l-34 -20z" />
    <glyph glyph-name="uacute.alt1" horiz-adv-x="548" 
d="M113 37.5q-59 53.5 -59 145.5v327h130v-323q0 -41 24.5 -66t65.5 -25t65.5 25t24.5 66v323h131v-327q0 -92 -59 -145.5t-162 -53.5q-102 0 -161 53.5zM254 620l89 150l34 -20l-89 -150z" />
    <glyph glyph-name="ucircumflex.alt1" horiz-adv-x="548" 
d="M113 37.5q-59 53.5 -59 145.5v327h130v-323q0 -41 24.5 -66t65.5 -25t65.5 25t24.5 66v323h131v-327q0 -92 -59 -145.5t-162 -53.5q-102 0 -161 53.5zM128 616l122 134h54l123 -134l-30 -26l-120 129l-119 -129z" />
    <glyph glyph-name="utilde.alt1" horiz-adv-x="548" 
d="M113 37.5q-59 53.5 -59 145.5v327h130v-323q0 -41 24.5 -66t65.5 -25t65.5 25t24.5 66v323h131v-327q0 -92 -59 -145.5t-162 -53.5q-102 0 -161 53.5zM300 604.5q-18 14.5 -36 39.5q-19 26 -30 37.5t-24 11.5q-20 0 -32.5 -26.5t-12.5 -66.5h-40q0 59 23 96t62 37
q25 0 43 -15t36 -41q19 -26 28.5 -36.5t23.5 -10.5q20 0 33 26.5t13 67.5h41q0 -59 -23.5 -96.5t-62.5 -37.5q-24 0 -42 14.5z" />
    <glyph glyph-name="umacron.alt1" horiz-adv-x="548" 
d="M113 37.5q-59 53.5 -59 145.5v327h130v-323q0 -41 24.5 -66t65.5 -25t65.5 25t24.5 66v323h131v-327q0 -92 -59 -145.5t-162 -53.5q-102 0 -161 53.5zM135 637h283v-40h-283v40z" />
    <glyph glyph-name="ubreve.alt1" horiz-adv-x="548" 
d="M113 37.5q-59 53.5 -59 145.5v327h130v-323q0 -41 24.5 -66t65.5 -25t65.5 25t24.5 66v323h131v-327q0 -92 -59 -145.5t-162 -53.5q-102 0 -161 53.5zM175.5 635q-39.5 45 -39.5 115h41q0 -52 28 -86t71 -34q44 0 72.5 34t28.5 86h39q0 -70 -39.5 -115t-100.5 -45
t-100.5 45z" />
    <glyph glyph-name="uring.alt1" horiz-adv-x="548" 
d="M113 37.5q-59 53.5 -59 145.5v327h130v-323q0 -41 24.5 -66t65.5 -25t65.5 25t24.5 66v323h131v-327q0 -92 -59 -145.5t-162 -53.5q-102 0 -161 53.5zM208.5 617.5q-26.5 27.5 -26.5 69.5q0 40 27 66.5t68 26.5t67.5 -27t27.5 -68q0 -41 -26.5 -68t-68.5 -27t-68.5 27.5z
M316 645.5q15 15.5 15 39.5t-15 39.5t-40 15.5q-23 0 -39 -15.5t-16 -39.5t16 -39.5t39 -15.5q25 0 40 15.5z" />
    <glyph glyph-name="uhungarumlaut.alt1" horiz-adv-x="548" 
d="M113 37.5q-59 53.5 -59 145.5v327h130v-323q0 -41 24.5 -66t65.5 -25t65.5 25t24.5 66v323h131v-327q0 -92 -59 -145.5t-162 -53.5q-102 0 -161 53.5zM182 620l89 150l34 -20l-89 -150zM318 620l89 150l34 -20l-89 -150z" />
    <glyph glyph-name="udieresis.alt1" horiz-adv-x="548" 
d="M113 37.5q-59 53.5 -59 145.5v327h130v-323q0 -41 24.5 -66t65.5 -25t65.5 25t24.5 66v323h131v-327q0 -92 -59 -145.5t-162 -53.5q-102 0 -161 53.5zM106 616.5q-21 20.5 -21 52.5t21 52.5t54 20.5t54.5 -20.5t21.5 -52.5t-21.5 -52.5t-54.5 -20.5t-54 20.5zM337.5 617
q-21.5 21 -21.5 52q0 32 21.5 52.5t53.5 20.5q34 0 55 -20.5t21 -52.5t-21 -52.5t-55 -20.5q-32 0 -53.5 21z" />
    <glyph glyph-name="uogonek.alt1" horiz-adv-x="548" 
d="M495 510v-327q0 -74 -39 -124t-109 -67q-74 -26 -108.5 -50t-34.5 -61q0 -21 13.5 -33.5t35.5 -12.5q16 0 34.5 10t34.5 26l28 -26q-19 -23 -46.5 -36.5t-52.5 -13.5q-40 0 -64 22.5t-24 59.5q0 34 20 60.5t58 48.5q-88 8 -137.5 60t-49.5 137v327h130v-323
q0 -41 24.5 -66t65.5 -25t65.5 25t24.5 66v323h131z" />
    <glyph glyph-name="ygrave.alt1" horiz-adv-x="550" 
d="M231 19l-209 491h137l131 -331h1l104 331h133l-241 -720h-133zM184 750l34 20l89 -150l-34 -20z" />
    <glyph glyph-name="yacute.alt1" horiz-adv-x="550" 
d="M231 19l-209 491h137l131 -331h1l104 331h133l-241 -720h-133zM256 620l89 150l34 -20l-89 -150z" />
    <glyph glyph-name="ydieresis.alt1" horiz-adv-x="550" 
d="M231 19l-209 491h137l131 -331h1l104 331h133l-241 -720h-133zM108 616.5q-21 20.5 -21 52.5t21 52.5t54 20.5t54.5 -20.5t21.5 -52.5t-21.5 -52.5t-54.5 -20.5t-54 20.5zM339.5 617q-21.5 21 -21.5 52q0 32 21.5 52.5t53.5 20.5q34 0 55 -20.5t21 -52.5t-21 -52.5
t-55 -20.5q-32 0 -53.5 21z" />
    <glyph glyph-name="ycircumflex.alt1" horiz-adv-x="550" 
d="M231 19l-209 491h137l131 -331h1l104 331h133l-241 -720h-133zM130 616l122 134h54l123 -134l-30 -26l-120 129l-119 -129z" />
    <glyph glyph-name="three.alt1" horiz-adv-x="603" 
d="M173.5 10q-58.5 30 -92 84.5t-35.5 124.5l137 31q2 -68 34.5 -110t85.5 -42q47 0 75.5 34.5t28.5 85.5q0 58 -30.5 93.5t-79.5 35.5q-28 0 -46 -9l-59 81l177 175h-264v116h399l1 -131l-164 -157q5 1 8.5 0.5t6.5 -0.5q56 -2 100.5 -30t70 -76.5t25.5 -110.5
q0 -67 -31 -118t-87 -79t-128 -28q-74 0 -132.5 30z" />
    <glyph glyph-name="colon.case" horiz-adv-x="261" 
d="M72 472.5q-23 22.5 -23 57.5q0 34 23 56.5t58 22.5q36 0 59 -22t23 -57t-23 -57.5t-59 -22.5q-35 0 -58 22.5zM72 90.5q-23 22.5 -23 57.5q0 34 23 56.5t58 22.5q36 0 59 -22t23 -57t-23 -57.5t-59 -22.5q-35 0 -58 22.5z" />
    <glyph glyph-name="semicolon.case" horiz-adv-x="279" 
d="M60 -35q12 -4 27 -4q42 0 70.5 34t29.5 86q-22 -11 -46 -11q-33 0 -55 22t-22 55q0 34 22.5 56t55.5 22q39 0 63 -32.5t24 -91.5q1 -81 -38 -130t-102 -49q-17 0 -40 5zM87 472.5q-23 22.5 -23 57.5q0 34 23 56.5t58 22.5q36 0 59 -22t23 -57t-23 -57.5t-59 -22.5
q-35 0 -58 22.5z" />
    <glyph glyph-name="exclamdown.case" horiz-adv-x="280" 
d="M199 699.5q23 -22.5 23 -57.5t-23 -57t-59 -22q-35 0 -58.5 22.5t-23.5 56.5q0 35 23.5 57.5t58.5 22.5q36 0 59 -22.5zM208 190v-190h-137v190l34 313h70z" />
    <glyph glyph-name="questiondown.case" horiz-adv-x="532" 
d="M321 699.5q23 -22.5 23 -57.5t-23 -57t-59 -22q-35 0 -58.5 22.5t-23.5 56.5q0 35 23.5 57.5t58.5 22.5q36 0 59 -22.5zM305.5 387q-19.5 -42 -61.5 -78l-25 -21q-25 -21 -38 -43t-13 -52q0 -43 25.5 -71t65.5 -28q44 0 72.5 36.5t30.5 98.5l132 -29q-2 -67 -33 -117.5
t-84 -78t-120 -27.5t-120 26.5t-82.5 73.5t-29.5 108q0 56 23 95.5t67 71.5l28 21q32 25 46 53t14 77h122q0 -74 -19.5 -116z" />
    <glyph glyph-name="slash.case" horiz-adv-x="346" 
d="M18 -40l271 800l39 -14l-273 -800z" />
    <glyph glyph-name="backslash.case" horiz-adv-x="346" 
d="M18 746l39 14l271 -800l-37 -14z" />
    <glyph glyph-name="parenleft.case" horiz-adv-x="253" 
d="M90 91q-45 134 -45 260q0 127 44.5 259.5t114.5 209.5l31 -26q-66 -77 -108 -202t-42 -240t42.5 -242.5t107.5 -203.5l-31 -26q-69 77 -114 211z" />
    <glyph glyph-name="parenright.case" horiz-adv-x="253" 
d="M18 -94q65 76 107.5 203.5t42.5 242.5t-42 240t-108 202l31 26q70 -77 114.5 -209.5t44.5 -259.5q0 -126 -45 -260t-114 -211z" />
    <glyph glyph-name="braceleft.case" horiz-adv-x="320" 
d="M152.5 -92.5q-24.5 27.5 -24.5 72.5v263q0 34 -17 55t-46 23l-20 1v63l20 1q29 2 46 23t17 56v255q0 45 24.5 72.5t65.5 27.5h84v-40h-84q-22 0 -36 -16.5t-14 -43.5v-265q0 -41 -22 -68.5t-58 -31.5v-2q36 -4 58 -31.5t22 -68.5v-273q0 -27 14 -43.5t36 -16.5h84l-1 -40
h-84q-40 0 -64.5 27.5z" />
    <glyph glyph-name="braceright.case" horiz-adv-x="320" 
d="M19 -120l-1 40h84q23 0 36.5 16.5t13.5 43.5v273q0 41 22 68.5t58 31.5v2q-36 4 -58 31.5t-22 68.5v265q0 27 -14 43.5t-36 16.5h-84v40h84q41 0 65.5 -27.5t24.5 -72.5v-255q0 -35 17 -56t46 -23l20 -1v-63l-20 -1q-29 -2 -46 -23t-17 -55v-263q0 -45 -24.5 -72.5
t-64.5 -27.5h-84z" />
    <glyph glyph-name="bracketleft.case" horiz-adv-x="249" 
d="M68 820h163v-40h-122v-860h122v-40h-163v940z" />
    <glyph glyph-name="bracketright.case" horiz-adv-x="250" 
d="M18 -120v40h122v860h-122v40h163v-940h-163z" />
    <glyph glyph-name="hyphen.case" horiz-adv-x="426" 
d="M57 419h311v-98h-311v98z" />
    <glyph glyph-name="endash.case" horiz-adv-x="596" 
d="M57 390h481v-40h-481v40z" />
    <glyph glyph-name="emdash.case" horiz-adv-x="882" 
d="M57 390h767v-40h-767v40z" />
    <glyph glyph-name="guillemotleft.case" horiz-adv-x="453" 
d="M40 355l180 265l33 -22l-163 -243l163 -243l-33 -22zM200 355l180 265l33 -22l-163 -243l163 -243l-33 -22z" />
    <glyph glyph-name="guillemotright.case" horiz-adv-x="454" 
d="M253 355l-180 -265l-33 22l163 243l-163 243l33 22zM413 355l-180 -265l-33 22l163 243l-163 243l33 22z" />
    <glyph glyph-name="guilsinglleft.case" horiz-adv-x="293" 
d="M40 355l180 265l33 -22l-163 -243l163 -243l-33 -22z" />
    <glyph glyph-name="guilsinglright.case" horiz-adv-x="293" 
d="M253 355l-180 -265l-33 22l163 243l-163 243l33 22z" />
    <glyph glyph-name="at.case" horiz-adv-x="854" 
d="M227.5 -4.5q-86.5 50.5 -134.5 142t-48 211.5q0 125 48 219t134.5 145.5t199.5 51.5q114 0 200.5 -49t134 -140t47.5 -213q0 -82 -21.5 -141t-60 -89.5t-87.5 -30.5q-97 0 -119 80l-2 8h-1q-24 -42 -65.5 -65t-94.5 -23q-73 0 -119 41t-46 108q0 69 51.5 112.5
t148.5 54.5l84 10q19 2 30.5 13.5t11.5 32.5q0 31 -25.5 50.5t-62.5 19.5q-45 0 -74 -29.5t-31 -71.5l-119 28q1 48 30 87.5t79.5 62.5t115.5 23q98 0 156 -52t58 -138v-235q0 -52 40 -52q18 0 37.5 22t32.5 66.5t13 106.5q0 111 -42.5 193t-119.5 126t-178 44
q-103 0 -181 -46.5t-120.5 -131.5t-42.5 -199q0 -108 43 -190.5t121 -127.5t180 -45q99 0 179 50l22 -34q-89 -56 -203 -56q-113 0 -199.5 50.5zM485.5 238q31.5 33 31.5 84v28l-91 -10q-52 -6 -77.5 -25.5t-25.5 -49.5q0 -28 23 -44t60 -16q48 0 79.5 33z" />
    <glyph glyph-name="acute.case" horiz-adv-x="185" 
d="M36 799l75 131l34 -21l-75 -129z" />
    <glyph glyph-name="breve.case" horiz-adv-x="317" 
d="M71.5 827q-34.5 37 -35.5 93h41q0 -39 23 -64.5t58 -25.5q36 0 59.5 25.5t23.5 64.5h39q1 -56 -34 -93t-88 -37q-52 0 -86.5 37z" />
    <glyph glyph-name="caron.case" horiz-adv-x="336" 
d="M36 904l30 26l101 -109l103 109l29 -26l-104 -114h-54z" />
    <glyph glyph-name="caron.alt1" horiz-adv-x="213" 
d="M47 577q13 -3 27 -3q26 0 43 12t18 37q-15 -7 -32 -7q-28 0 -47.5 17t-19.5 43q0 25 17.5 41t45.5 16q34 0 56 -27.5t22 -70.5q0 -48 -27.5 -73.5t-72.5 -25.5q-20 0 -37 4z" />
    <glyph glyph-name="circumflex.case" horiz-adv-x="336" 
d="M36 806l105 114h54l104 -114l-29 -26l-103 109l-101 -109z" />
    <glyph glyph-name="dieresis.case" horiz-adv-x="467" 
d="M57.5 812q-21.5 21 -21.5 54q0 32 21.5 53t54.5 21t54.5 -21t21.5 -53q0 -33 -21.5 -54t-54.5 -21t-54.5 21zM301 812q-21 21 -21 54q0 32 21 53t54 21t54 -21t21 -53q0 -33 -21 -54t-54 -21t-54 21z" />
    <glyph glyph-name="dotaccent.case" horiz-adv-x="229" 
d="M58 812.5q-22 21.5 -22 55.5q0 33 22 54t57 21q34 0 56 -21t22 -54q0 -34 -21.5 -55.5t-56.5 -21.5t-57 21.5z" />
    <glyph glyph-name="grave.case" horiz-adv-x="181" 
d="M36 909l34 21l75 -131l-34 -19z" />
    <glyph glyph-name="hungarumlaut.case" horiz-adv-x="317" 
d="M36 799l75 131l34 -21l-75 -129zM172 799l75 131l34 -21l-75 -129z" />
    <glyph glyph-name="ring.case" horiz-adv-x="263" 
d="M63 807q-27 27 -27 68t27 68t68 27t68 -27t27 -68t-26.5 -68t-68.5 -27q-41 0 -68 27zM170 835.5q15 15.5 15 39.5t-15 39.5t-40 15.5q-23 0 -39 -15.5t-16 -39.5t16 -39.5t39 -15.5q25 0 40 15.5z" />
    <glyph glyph-name="tilde.case" horiz-adv-x="375" 
d="M208 796.5q-18 16.5 -41 48.5q-14 19 -24.5 28.5t-21.5 9.5q-20 0 -32.5 -26.5t-12.5 -66.5h-40q0 59 23 96t62 37q27 0 44.5 -16t38.5 -46q14 -21 24.5 -31t23.5 -10q20 0 33 26.5t13 67.5h41q0 -59 -23.5 -96.5t-62.5 -37.5q-27 0 -45 16.5z" />
    <glyph glyph-name="arrowup.case" horiz-adv-x="549" 
d="M274 621l229 -220l-27 -29l-182 174v-452h-40v452l-181 -174l-28 29z" />
    <glyph glyph-name="uni2197.case" horiz-adv-x="507" 
d="M432 543l6 -318l-39 -1l-6 251l-319 -319l-29 28l320 320l-251 5l1 40z" />
    <glyph glyph-name="arrowright.case" horiz-adv-x="618" 
d="M323 160l174 181h-452v40h452l-174 182l29 27l220 -229l-220 -229z" />
    <glyph glyph-name="uni2198.case" horiz-adv-x="507" 
d="M432 174l-317 -7l-2 40l252 6l-320 319l28 28l320 -319l5 251l40 -1z" />
    <glyph glyph-name="arrowdown.case" horiz-adv-x="549" 
d="M73 322l181 -174v452h40v-452l182 174l27 -29l-229 -220l-229 220z" />
    <glyph glyph-name="uni2199.case" horiz-adv-x="507" 
d="M109 498l5 -251l319 319l29 -28l-320 -320l252 -5l-2 -40l-317 6l-7 318z" />
    <glyph glyph-name="arrowleft.case" horiz-adv-x="618" 
d="M45 361l220 229l29 -27l-174 -182h452v-40h-452l174 -181l-29 -28z" />
    <glyph glyph-name="uni2196.case" horiz-adv-x="507" 
d="M393 514l-251 -5l319 -319l-28 -29l-319 320l-6 -252l-40 2l7 317l317 7z" />
    <glyph glyph-name="arrowboth.case" horiz-adv-x="946" 
d="M900 361l-220 -229l-29 27l174 182h-705l174 -181l-29 -28l-220 229l220 229l29 -27l-174 -182h705l-174 181l29 28z" />
    <glyph glyph-name="arrowupdn.case" horiz-adv-x="549" 
d="M476 202l27 -29l-229 -220l-229 220l28 29l181 -174v654l-182 -174l-27 29l229 220l229 -220l-28 -29l-181 174v-654z" />
    </font>
</defs>
</svg>
