<?xml version="1.0" standalone="no"?>
<!DOCTYPE svg PUBLIC "-//W3C//DTD SVG 1.1//EN" "http://www.w3.org/Graphics/SVG/1.1/DTD/svg11.dtd" >
<svg xmlns="http://www.w3.org/2000/svg" xmlns:xlink="http://www.w3.org/1999/xlink" version="1.1">
<metadata>
Created by FontForge 20170731 at Mon Sep 16 01:10:58 2019
 By Aleksey,,,
Copyright (c) 2018 by Alexander Slobzheninov. All rights reserved.
</metadata>
<defs>
<font id="Agrandir-Italic" horiz-adv-x="523" >
  <font-face 
    font-family="Agrandir"
    font-weight="400"
    font-style="italic"
    font-stretch="normal"
    units-per-em="1000"
    panose-1="0 0 5 0 0 0 0 0 0 0"
    ascent="750"
    descent="-250"
    x-height="505"
    cap-height="705"
    bbox="-203 -244 1420 968"
    underline-thickness="38"
    underline-position="-158"
    slope="-9"
    unicode-range="U+000D-F6C3"
  />
<missing-glyph horiz-adv-x="0" 
 />
    <glyph glyph-name=".notdef" horiz-adv-x="0" 
 />
    <glyph glyph-name=".null" horiz-adv-x="0" 
 />
    <glyph glyph-name="nonmarkingreturn" unicode="&#xd;" horiz-adv-x="43" 
 />
    <glyph glyph-name="NULL" horiz-adv-x="731" 
d="M183 705h510l-112 -705h-510zM521 62l93 581h-372l-93 -581h372z" />
    <glyph glyph-name="NULL" horiz-adv-x="731" 
d="M183 705h510l-112 -705h-510zM521 62l93 581h-372l-93 -581h372z" />
    <glyph glyph-name="space" unicode=" " horiz-adv-x="249" 
 />
    <glyph glyph-name="exclam" unicode="!" horiz-adv-x="212" 
d="M106 515l30 190h83l-30 -190l-71 -336h-48zM31 1.5q-14 13.5 -14 35.5q0 26 17 43.5t43 17.5q23 0 37 -14t14 -36q0 -26 -17 -43t-43 -17q-23 0 -37 13.5z" />
    <glyph glyph-name="quotedbl" unicode="&#x22;" horiz-adv-x="239" 
d="M114 705h37l-44 -281h-38zM231 705h38l-44 -281h-39z" />
    <glyph glyph-name="numbersign" unicode="#" horiz-adv-x="901" 
d="M162 0l105 244h-239l6 38h249l83 194h-252l6 38h262l95 222l36 -9l-91 -213h197l94 222l34 -10l-90 -212h255l-5 -38h-266l-82 -194h268l-7 -38h-277l-108 -254l-35 9l105 245h-198l-110 -254zM520 282l82 194h-196l-84 -194h198z" />
    <glyph glyph-name="dollar" unicode="$" horiz-adv-x="581" 
d="M480 509q4 56 -24.5 94t-82.5 48l-40 -252l53 -18q83 -27 124 -71.5t41 -111.5q0 -70 -36 -120t-99 -75.5t-141 -25.5h-9l-17 -107h-38l17 110q-66 9 -115.5 42.5t-75 86.5t-22.5 117l83 10q-3 -74 35 -123t107 -60l44 275l-32 11q-79 26 -115.5 68.5t-36.5 107.5
q0 66 31.5 114t87.5 73.5t126 25.5h2l15 92h38l-15 -95q85 -11 132.5 -66t45.5 -135zM336 655h-1q-66 0 -107.5 -37t-41.5 -95q0 -43 25.5 -67.5t85.5 -44.5zM320 316l-42 -266h1q82 0 135 37t53 104q0 43 -30 69t-101 51z" />
    <glyph glyph-name="percent" unicode="%" horiz-adv-x="968" 
d="M177 11l630 734l30 -22l-631 -733zM122 389.5q-49 45.5 -49 119.5q0 63 30 115t82 82t115 30q79 0 127.5 -46.5t48.5 -122.5q0 -63 -29.5 -114t-81.5 -80t-115 -29q-79 0 -128 45.5zM335 425.5q35 21.5 54 58t19 79.5q0 51 -30.5 81.5t-80.5 30.5q-46 0 -82 -22
t-55 -58.5t-19 -79.5q0 -51 30.5 -81t82.5 -30q46 0 81 21.5zM576 33q-49 46 -49 120q0 62 30 114t82 82t115 30q79 0 127.5 -46.5t48.5 -122.5q0 -63 -29.5 -114t-81.5 -80t-115 -29q-79 0 -128 46zM789 69.5q35 21.5 54 58t19 79.5q0 50 -30.5 80.5t-80.5 30.5
q-46 0 -81.5 -22t-54.5 -58.5t-19 -79.5q0 -50 30.5 -80t81.5 -30q46 0 81 21.5z" />
    <glyph glyph-name="ampersand" unicode="&#x26;" horiz-adv-x="669" 
d="M629 0h-108l-71 78q-55 -48 -116.5 -74t-121.5 -26q-89 0 -142.5 47t-53.5 124q0 79 42.5 133.5t133.5 97.5q-45 70 -45 133q0 57 28 104.5t76 75.5t106 28q76 0 123 -40.5t47 -113.5q0 -70 -50.5 -121.5t-161.5 -94.5l148 -165q57 66 98 157l51 -60q-53 -94 -103 -148z
M291 631q-30 -18 -47.5 -49t-17.5 -69q0 -54 43 -111q94 35 136 72.5t42 87.5q0 38 -25 62.5t-65 24.5q-36 0 -66 -18zM406 130l-169 195q-72 -29 -106 -69t-34 -101q0 -47 35 -76t93 -29q93 0 181 80z" />
    <glyph glyph-name="quotesingle" unicode="'" horiz-adv-x="121" 
d="M114 705h37l-44 -281h-38z" />
    <glyph glyph-name="parenleft" unicode="(" horiz-adv-x="223" 
d="M56.5 -31q-26.5 96 -26.5 199q0 51 8 107q20 129 86 261.5t148 208.5l25 -24q-80 -78 -141.5 -202.5t-79.5 -243.5q-8 -54 -8 -106q0 -96 23.5 -186t64.5 -148l-29 -22q-44 60 -70.5 156z" />
    <glyph glyph-name="parenright" unicode=")" horiz-adv-x="222" 
d="M-66 -165q82 80 141.5 200.5t78.5 239.5q9 57 9 117q0 94 -23 180.5t-66 148.5l30 22q47 -64 72 -154t25 -190q0 -65 -10 -124q-21 -130 -83.5 -258t-148.5 -207z" />
    <glyph glyph-name="asterisk" unicode="*" horiz-adv-x="462" 
d="M237 406q2 13 -2.5 20.5t-13.5 7.5q-8 0 -20 -6l-130 -69l-14 33l130 69q20 12 20 26q0 11 -13 20l-108 69l24 32l109 -68q9 -6 18 -6t16 7.5t8 20.5l22 138h38l-22 -138q-2 -13 2.5 -20.5t13.5 -7.5t19 6l132 68l13 -32l-130 -69q-22 -12 -22 -26q0 -11 14 -20l109 -69
l-24 -33l-109 69q-9 6 -18 6t-16 -7.5t-9 -20.5l-21 -138h-38z" />
    <glyph glyph-name="plus" unicode="+" horiz-adv-x="539" 
d="M243 331h-181l11 68h181l29 181h77l-29 -181h181l-11 -68h-181l-30 -191h-77z" />
    <glyph glyph-name="comma" unicode="," horiz-adv-x="219" 
d="M-15 -100q14 -3 26 -3q39 0 62.5 27t27.5 72q-12 -6 -25 -6q-19 0 -32.5 13t-13.5 34q0 26 15 42.5t40 16.5t40 -19t15 -50q0 -66 -35 -113.5t-91 -47.5q-17 0 -32 4z" />
    <glyph glyph-name="hyphen" unicode="-" horiz-adv-x="444" 
d="M57 296h344l-11 -69h-344z" />
    <glyph glyph-name="period" unicode="." horiz-adv-x="192" 
d="M21 1.5q-14 13.5 -14 35.5q0 26 17 43.5t43 17.5q23 0 37 -14t14 -36q0 -26 -17 -43t-43 -17q-23 0 -37 13.5z" />
    <glyph glyph-name="slash" unicode="/" horiz-adv-x="325" 
d="M-76 -229l438 946l35 -12l-439 -945z" />
    <glyph glyph-name="zero" unicode="0" horiz-adv-x="661" 
d="M166.5 12q-52.5 35 -80 99t-27.5 149q0 117 43 225t121.5 175t178.5 67q72 0 124.5 -35t80 -99t27.5 -149q0 -116 -43 -224t-121.5 -175.5t-178.5 -67.5q-72 0 -124.5 35zM429 108.5q59 58.5 91.5 150.5t32.5 186q0 97 -40.5 153.5t-113.5 56.5q-76 0 -135 -59
t-91.5 -150.5t-32.5 -185.5q0 -96 40.5 -153t113.5 -57q76 0 135 58.5z" />
    <glyph glyph-name="one" unicode="1" horiz-adv-x="446" 
d="M-5 73h183l83 517h-1q-39 -49 -147 -87l-18 81q129 32 189 122l76 -1l-99 -632h146l-11 -73h-412z" />
    <glyph glyph-name="two" unicode="2" horiz-adv-x="542" 
d="M20 63q15 94 59.5 152.5t138.5 108.5l100 54q70 38 100.5 79t30.5 97q0 46 -27 73.5t-75 27.5q-61 0 -108.5 -48.5t-62.5 -132.5l-78 21q12 68 48 121t90 82t116 29q81 0 130 -47.5t49 -124.5q0 -78 -41.5 -134t-136.5 -109l-94 -53q-75 -42 -109 -83.5t-44 -102.5h368
l-12 -73h-452z" />
    <glyph glyph-name="three" unicode="3" horiz-adv-x="565" 
d="M140 5q-51 28 -78.5 77.5t-27.5 111.5q0 10 2 32l78 15q-2 -20 -2 -30q0 -71 40 -116t109 -45q49 0 89 23t63 62t23 85q0 50 -31 79.5t-86 31.5l-48 2l11 64l47 2q35 2 63 24t43.5 56.5t15.5 71.5q0 45 -25.5 71.5t-70.5 26.5q-61 0 -105 -47t-58 -125l-81 14
q19 108 86.5 171.5t163.5 63.5q80 0 127 -45.5t47 -121.5q0 -64 -34 -117.5t-90 -73.5v-1q50 -18 77.5 -58.5t27.5 -94.5q0 -66 -35 -120.5t-94.5 -85.5t-128.5 -31q-67 0 -118 28z" />
    <glyph glyph-name="four" unicode="4" horiz-adv-x="538" 
d="M328 161h-323l8 53l368 491h116l-74 -471h83l-12 -73h-83l-26 -161h-82zM340 234l62 383h-1l-284 -383h223z" />
    <glyph glyph-name="five" unicode="5" horiz-adv-x="534" 
d="M112 0.5q-49 24.5 -75 68t-26 99.5q0 22 2 34l76 18q-2 -10 -2 -30q0 -62 38 -101.5t101 -39.5q53 0 96.5 28t68.5 75t25 103q0 63 -34.5 100.5t-94.5 37.5q-35 0 -70.5 -15t-57.5 -40l-55 18l78 348h323l-10 -69h-252l-51 -216q21 19 56.5 31t71.5 12q80 0 129 -53.5
t49 -144.5q0 -81 -36.5 -147t-98.5 -103.5t-137 -37.5q-65 0 -114 24.5z" />
    <glyph glyph-name="six" unicode="6" horiz-adv-x="583" 
d="M553 486l-81 -9q2 84 -26 131.5t-89 47.5q-81 0 -139.5 -84t-82.5 -232q38 52 88 78.5t118 26.5q87 0 139 -52t52 -137q0 -76 -37 -139.5t-100.5 -100t-139.5 -36.5q-99 0 -153.5 55t-54.5 165q0 130 36.5 251.5t107.5 198.5t171 77q193 0 191 -241zM219 348.5
q-45 -26.5 -71 -72t-26 -97.5q0 -57 37.5 -91.5t100.5 -34.5q53 0 96.5 28t68.5 74t25 97q0 56 -36 89.5t-96 33.5q-54 0 -99 -26.5z" />
    <glyph glyph-name="seven" unicode="7" horiz-adv-x="485" 
d="M437 634l-357 -2l12 73h445l-9 -68q-259 -276 -359 -640l-90 6q103 363 358 631z" />
    <glyph glyph-name="eight" unicode="8" horiz-adv-x="553" 
d="M79 26.5q-58 48.5 -58 130.5q0 84 48.5 144.5t129.5 78.5q-39 12 -63 48.5t-24 85.5q0 61 31.5 109.5t85.5 76t119 27.5q84 0 134 -43t50 -114q0 -67 -39 -121.5t-100 -72.5q56 -12 88 -52.5t32 -99.5q0 -72 -36 -128t-99 -87t-140 -31q-101 0 -159 48.5zM409 447
q40 42 40 107q0 47 -30 74.5t-81 27.5q-65 0 -105 -40.5t-40 -104.5q0 -49 29.5 -77.5t81.5 -28.5q65 0 105 42zM381.5 96.5q50.5 46.5 50.5 120.5q0 56 -38.5 89.5t-104.5 33.5q-55 0 -97.5 -22t-65.5 -60.5t-23 -86.5q0 -56 39 -88.5t106 -32.5q83 0 133.5 46.5z" />
    <glyph glyph-name="nine" unicode="9" horiz-adv-x="603" 
d="M125.5 11.5q-50.5 31.5 -75.5 86.5t-22 125l81 9q-1 -8 -1 -22q0 -71 36.5 -114.5t104.5 -43.5q60 0 111.5 38.5t88.5 109t53 164.5q-35 -50 -85.5 -75t-121.5 -25q-87 0 -139 52t-52 136q0 77 36.5 140t100 99t140.5 36q98 0 152.5 -55.5t54.5 -168.5q0 -130 -40 -250.5
t-117.5 -196.5t-182.5 -76q-72 0 -122.5 31.5zM415.5 360q45.5 27 72 72.5t26.5 96.5q0 58 -37 92.5t-101 34.5q-52 0 -95.5 -27.5t-69 -73.5t-25.5 -99q0 -55 35.5 -89t94.5 -34q54 0 99.5 27z" />
    <glyph glyph-name="colon" unicode=":" horiz-adv-x="192" 
d="M86 408.5q-14 13.5 -14 35.5q0 27 17 44t43 17q23 0 37 -14t14 -35q0 -27 -17.5 -44t-42.5 -17q-23 0 -37 13.5zM21 1.5q-14 13.5 -14 35.5q0 26 17 43.5t43 17.5q23 0 37.5 -14t14.5 -36q0 -26 -17.5 -43t-43.5 -17q-23 0 -37 13.5z" />
    <glyph glyph-name="semicolon" unicode=";" horiz-adv-x="219" 
d="M-15 -100q14 -3 26 -3q39 0 62.5 27t27.5 72q-12 -6 -25 -6q-19 0 -32.5 13t-13.5 34q0 26 15 42.5t40 16.5t40 -19t15 -50q0 -66 -35 -113.5t-91 -47.5q-17 0 -32 4zM108 409.5q-14 13.5 -14 35.5q0 26 17 43.5t43 17.5q23 0 37 -14t14 -36q0 -26 -17 -43t-43 -17
q-23 0 -37 13.5z" />
    <glyph glyph-name="less" unicode="&#x3c;" horiz-adv-x="441" 
d="M56 292l16 100l337 183l23 -62l-319 -171l265 -171l-43 -63z" />
    <glyph glyph-name="equal" unicode="=" horiz-adv-x="539" 
d="M87 484h439l-11 -68h-439zM58 298h439l-12 -69h-439z" />
    <glyph glyph-name="greater" unicode="&#x3e;" horiz-adv-x="441" 
d="M413 392l-16 -100l-337 -184l-23 63l319 170l-265 172l43 62z" />
    <glyph glyph-name="question" unicode="?" horiz-adv-x="476" 
d="M206.5 293.5q25.5 44.5 72.5 77.5l41 34q48 35 70 69t22 74q0 48 -31 77t-81 29q-63 0 -110.5 -45t-64.5 -122l-74 26q23 99 93 157t161 58q55 0 98 -22.5t67 -62.5t24 -91q0 -62 -29.5 -110.5t-93.5 -90.5l-39 -31q-38 -26 -58.5 -59.5t-27.5 -84.5l-76 5
q11 68 36.5 112.5zM145 0.5q-14 13.5 -14 35.5q0 26 16.5 43.5t42.5 17.5q23 0 37.5 -14t14.5 -36q0 -26 -17.5 -43t-42.5 -17q-23 0 -37 13.5z" />
    <glyph glyph-name="at" unicode="@" horiz-adv-x="843" 
d="M183 -136.5q-75 40.5 -115.5 115.5t-40.5 175q0 136 59 250.5t164.5 181.5t236.5 67q99 0 172.5 -41t112.5 -117.5t39 -181.5q0 -82 -21 -158t-62.5 -124.5t-100.5 -48.5q-98 0 -97 84l1 11h-1q-33 -45 -83 -70t-110 -25q-75 0 -121 36.5t-46 95.5q0 70 57 119t171 63
l129 16q24 2 37 16.5t13 38.5q0 42 -29 65t-83 23q-43 0 -81.5 -17.5t-65 -45.5t-36.5 -59l-63 34q14 43 49 78.5t85.5 56.5t109.5 21q85 0 135 -40t50 -114q0 -18 -3 -39l-41 -248q-2 -14 -2 -18q0 -35 36 -35q43 0 73.5 44t46 110.5t15.5 132.5q0 142 -77 222t-213 80
q-121 0 -217 -64t-150 -171.5t-54 -230.5q0 -89 36 -155.5t103.5 -102.5t158.5 -36q105 0 194 50l18 -32q-97 -53 -213 -53q-101 0 -176 40.5zM445.5 71.5q42.5 21.5 71 59.5t35.5 85l5 35l-155 -19q-77 -9 -117 -39.5t-40 -72.5q0 -32 30 -51t78 -19q50 0 92.5 21.5z" />
    <glyph glyph-name="A" unicode="A" horiz-adv-x="634" 
d="M339 705h100l145 -705h-86l-33 170h-319l-87 -170h-90zM453 242l-74 383h-2l-197 -383h273z" />
    <glyph glyph-name="B" unicode="B" horiz-adv-x="624" 
d="M132 705h298q88 0 136.5 -44.5t48.5 -118.5q0 -65 -37.5 -114t-97.5 -64v-2q48 -11 77 -50.5t29 -92.5q0 -66 -34.5 -115.5t-94.5 -76.5t-135 -27h-302zM372 399q43 0 80.5 18.5t60 50t22.5 69.5q0 44 -30 69.5t-91 25.5h-212l-36 -233h206zM319 73q82 0 134.5 40.5
t52.5 109.5q0 46 -39 74.5t-105 28.5h-208l-40 -253h205z" />
    <glyph glyph-name="C" unicode="C" horiz-adv-x="730" 
d="M188 15q-68 38 -105 107.5t-37 160.5q0 114 48.5 216.5t135.5 165.5t196 63q114 0 185 -66t83 -176l-80 -13q-8 85 -57.5 133.5t-134.5 48.5t-152 -53t-104 -138t-37 -175q0 -110 59.5 -174.5t161.5 -64.5q63 0 121.5 30.5t102 84t62.5 119.5l75 -25q-24 -81 -79 -145.5
t-129.5 -100.5t-155.5 -36q-91 0 -159 38z" />
    <glyph glyph-name="D" unicode="D" horiz-adv-x="690" 
d="M132 705h208q163 0 248.5 -76t85.5 -217q0 -196 -114 -304t-328 -108h-212zM240 73q170 0 261.5 88.5t91.5 247.5q0 107 -66.5 165.5t-192.5 58.5h-131l-89 -560h126z" />
    <glyph glyph-name="E" unicode="E" horiz-adv-x="546" 
d="M132 705h450l-11 -73h-371l-37 -233h331l-11 -70h-331l-40 -256h380l-11 -73h-461z" />
    <glyph glyph-name="F" unicode="F" horiz-adv-x="499" 
d="M132 705h419l-12 -73h-337l-38 -245h278l-11 -70h-278l-51 -317h-82z" />
    <glyph glyph-name="G" unicode="G" horiz-adv-x="770" 
d="M184 15q-67 38 -103 106.5t-36 158.5q0 118 52.5 221t144 165t204.5 62q67 0 122 -27.5t90.5 -76t44.5 -109.5l-78 -19q-11 71 -61.5 115t-122.5 44q-88 0 -160 -53t-112.5 -138.5t-40.5 -179.5q0 -70 27 -123t77.5 -82t119.5 -29q73 0 138.5 35t110 96t56.5 137l-383 -2
l12 73h466l-62 -389h-69l13 130h-1q-55 -73 -131 -113t-162 -40q-89 0 -156 38z" />
    <glyph glyph-name="H" unicode="H" horiz-adv-x="644" 
d="M132 705h82l-48 -301h360l48 301h82l-112 -705h-82l52 331h-359l-53 -331h-82z" />
    <glyph glyph-name="I" unicode="I" horiz-adv-x="202" 
d="M132 705h82l-112 -705h-82z" />
    <glyph glyph-name="J" unicode="J" horiz-adv-x="478" 
d="M98.5 4q-42.5 23 -67 63.5t-26.5 91.5l76 25q-1 -57 31.5 -94t82.5 -37q56 0 93 37t49 107l80 508h82l-82 -521q-16 -99 -73.5 -151t-147.5 -52q-55 0 -97.5 23z" />
    <glyph glyph-name="K" unicode="K" horiz-adv-x="551" 
d="M132 705h82l-53 -325h1l334 325h101l-288 -280l192 -425h-94l-160 366l-100 -96l-45 -270h-82z" />
    <glyph glyph-name="L" unicode="L" horiz-adv-x="483" 
d="M132 705h82l-100 -632h330l-11 -73h-413z" />
    <glyph glyph-name="M" unicode="M" horiz-adv-x="844" 
d="M132 705h118l144 -614h2l340 614h120l-112 -705h-82l95 585l-2 1l-329 -586h-86l-142 585h-2l-94 -585h-82z" />
    <glyph glyph-name="N" unicode="N" horiz-adv-x="646" 
d="M132 705h108l237 -599h2l96 599h83l-112 -705h-108l-238 599h-2l-96 -599h-82z" />
    <glyph glyph-name="O" unicode="O" horiz-adv-x="783" 
d="M188 13.5q-69 36.5 -106 103.5t-37 159q0 125 53 228t148.5 163t216.5 60q95 0 164 -36.5t106 -103.5t37 -159q0 -124 -53.5 -227t-148.5 -163.5t-216 -60.5q-95 0 -164 36.5zM528 100.5q75 50.5 117 136t42 185.5q0 109 -61 171t-170 62q-94 0 -169 -50.5t-117 -136
t-42 -185.5q0 -110 61 -171.5t170 -61.5q94 0 169 50.5z" />
    <glyph glyph-name="P" unicode="P" horiz-adv-x="595" 
d="M132 705h267q103 0 159.5 -48.5t56.5 -135.5q0 -113 -74 -177.5t-204 -64.5h-193l-44 -279h-80zM342 353q90 0 141 44t51 121q0 54 -37 84t-106 30h-191l-44 -279h186z" />
    <glyph glyph-name="Q" unicode="Q" horiz-adv-x="783" 
d="M380 -62q-2 -8 -2 -24q0 -32 17 -51t50 -19q39 0 69 26t45 68l61 -46q-22 -53 -71.5 -86.5t-110.5 -33.5q-65 0 -104 35.5t-39 97.5q0 15 1 23l9 51q-123 13 -191.5 92t-68.5 205q0 125 53 228t148.5 163t216.5 60q95 0 164 -36.5t106 -103.5t37 -159
q0 -118 -48.5 -217.5t-135.5 -161.5t-199 -71zM189 111.5q61 -61.5 170 -61.5q94 0 169 50.5t117 136t42 185.5q0 109 -61 171t-170 62q-94 0 -169 -50.5t-117 -136t-42 -185.5q0 -110 61 -171.5z" />
    <glyph glyph-name="R" unicode="R" horiz-adv-x="656" 
d="M439 4q-22 23 -26 61l-18 146q-5 40 -28 63.5t-59 23.5h-159l-47 -298h-82l112 705h287q104 0 160.5 -46t56.5 -130t-60 -142.5t-154 -74.5v-1q24 -13 38 -38.5t17 -58.5l14 -125q3 -39 30 -39q16 0 34 12.5t33 33.5l36 -51q-26 -30 -57.5 -47t-64.5 -17q-41 0 -63 23z
M366 371q50 0 93.5 20t69.5 55t26 78q0 51 -37 79.5t-106 28.5h-209l-42 -261h205z" />
    <glyph glyph-name="S" unicode="S" horiz-adv-x="581" 
d="M135.5 9q-60.5 32 -92.5 88.5t-28 128.5l83 10q-4 -84 45 -135t136 -51q82 0 135 37t53 104q0 43 -30 69t-101 51l-84 28q-79 26 -115.5 68.5t-36.5 107.5q0 66 31.5 114t87.5 73.5t126 25.5q68 0 117.5 -26t75.5 -72.5t25 -105.5l-83 -15q5 66 -34.5 106t-110.5 40
q-66 0 -107.5 -37t-41.5 -95q0 -44 26.5 -68.5t90.5 -45.5l83 -28q83 -27 124 -71.5t41 -111.5q0 -70 -36 -120t-99 -75.5t-141 -25.5q-79 0 -139.5 32z" />
    <glyph glyph-name="T" unicode="T" horiz-adv-x="544" 
d="M291 632h-221l12 73h523l-11 -73h-221l-100 -632h-82z" />
    <glyph glyph-name="U" unicode="U" horiz-adv-x="640" 
d="M105.5 31q-60.5 54 -60.5 155q0 25 5 60l72 459h82l-75 -471q-4 -30 -4 -43q0 -68 40.5 -104.5t118.5 -36.5q92 0 149.5 49t71.5 140l74 466h83l-75 -471q-20 -124 -99.5 -190.5t-206.5 -66.5q-115 0 -175.5 54z" />
    <glyph glyph-name="V" unicode="V" horiz-adv-x="626" 
d="M83 705h85l117 -615h2l313 615h88l-365 -705h-97z" />
    <glyph glyph-name="W" unicode="W" horiz-adv-x="950" 
d="M82 705h84l69 -624h2l247 624h125l50 -624h2l265 624h86l-304 -705h-121l-51 622h-2l-250 -622h-120z" />
    <glyph glyph-name="X" unicode="X" horiz-adv-x="607" 
d="M267 368l-175 337h96l140 -282l233 282h98l-287 -338l185 -367h-96l-151 306l-243 -306h-97z" />
    <glyph glyph-name="Y" unicode="Y" horiz-adv-x="581" 
d="M253 262l-170 443h88l132 -361h1l246 361h94l-309 -443l-42 -262h-83z" />
    <glyph glyph-name="Z" unicode="Z" horiz-adv-x="542" 
d="M-18 78l512 559h-413l11 68h502l-11 -78l-512 -559h432l-11 -68h-522z" />
    <glyph glyph-name="bracketleft" unicode="[" horiz-adv-x="225" 
d="M138 745h165l-6 -38h-126l-137 -859h126l-5 -38h-165z" />
    <glyph glyph-name="backslash" unicode="\" horiz-adv-x="325" 
d="M72 705l38 12l139 -946l-37 -11z" />
    <glyph glyph-name="bracketright" unicode="]" horiz-adv-x="225" 
d="M-70 -190l6 38h126l136 859h-126l6 38h165l-148 -935h-165z" />
    <glyph glyph-name="asciicircum" unicode="^" horiz-adv-x="470" 
d="M57 430l205 275h91l116 -275l-63 -30l-107 248l-186 -248z" />
    <glyph glyph-name="underscore" unicode="_" horiz-adv-x="469" 
d="M-40 0h469l-6 -38h-469z" />
    <glyph glyph-name="grave" unicode="`" horiz-adv-x="176" 
d="M98 744l32 21l83 -146l-32 -20z" />
    <glyph glyph-name="a" unicode="a" horiz-adv-x="577" 
d="M122.5 9.5q-46.5 27.5 -71.5 77t-25 113.5q0 85 37 159.5t101.5 119t143.5 44.5q59 0 102 -26.5t65 -74.5h1l23 83h68l-80 -505h-66l7 82h-1q-37 -47 -88 -73.5t-108 -26.5q-62 0 -108.5 27.5zM352.5 86q49.5 36 77.5 94t28 120q0 68 -38.5 111t-103.5 43
q-60 0 -109.5 -36t-78 -93.5t-28.5 -119.5q0 -69 39 -112t104 -43q60 0 109.5 36z" />
    <glyph glyph-name="b" unicode="b" horiz-adv-x="577" 
d="M165 9.5q-44 27.5 -66 75.5h-1l-23 -85h-65l116 735h76l-51 -309h1q38 47 88 72t106 25q62 0 108.5 -27.5t71.5 -76.5t25 -114q0 -85 -37 -159.5t-101.5 -119t-143.5 -44.5q-60 0 -104 27.5zM370.5 86q49.5 36 77.5 93.5t28 119.5q0 69 -39 112t-104 43q-59 0 -108.5 -36
t-77.5 -93.5t-28 -119.5q0 -69 38.5 -112t103.5 -43q60 0 109.5 36z" />
    <glyph glyph-name="c" unicode="c" horiz-adv-x="540" 
d="M85 42q-59 60 -59 160q0 83 36 157t99.5 119t141.5 45q86 0 136.5 -49t55.5 -128l-73 -12q-6 57 -38 89t-84 32q-56 0 -101.5 -36t-71 -93.5t-25.5 -117.5q0 -74 40 -116.5t108 -42.5q62 0 115.5 42.5t72.5 107.5l70 -20q-17 -57 -57 -102t-94 -70t-113 -25
q-100 0 -159 60z" />
    <glyph glyph-name="d" unicode="d" horiz-adv-x="577" 
d="M122.5 9.5q-46.5 27.5 -72 76.5t-25.5 114q0 85 37 159.5t102 119t143 44.5q60 0 103 -26.5t66 -74.5h1l50 313h76l-116 -735h-66l7 82h-1q-38 -48 -88.5 -74t-107.5 -26q-62 0 -108.5 27.5zM351.5 85.5q49.5 35.5 78 93t28.5 118.5q0 70 -38.5 113.5t-104.5 43.5
q-59 0 -108.5 -36t-78 -93.5t-28.5 -119.5q0 -69 39 -112t104 -43q59 0 108.5 35.5z" />
    <glyph glyph-name="e" unicode="e" horiz-adv-x="545" 
d="M133.5 10.5q-51.5 28.5 -79.5 79.5t-28 118q0 84 36 156.5t100 115.5t143 43q94 0 149.5 -59.5t55.5 -156.5q0 -18 -2.5 -42.5t-6.5 -39.5h-399q-5 -80 37 -127.5t118 -47.5q58 0 107 28.5t74 73.5l62 -33q-32 -62 -99 -99.5t-147 -37.5q-69 0 -120.5 28.5zM433 290
q3 76 -33 120.5t-105 44.5q-64 0 -114.5 -46t-66.5 -119h319z" />
    <glyph glyph-name="f" unicode="f" horiz-adv-x="429" 
d="M138 444h-108l10 61h107l16 95q11 71 57 111t119 40q65 0 105.5 -37t42.5 -95l-69 -23q-2 41 -24 65t-62 24q-37 0 -63 -25t-33 -69l-13 -86h206l-9 -61h-207l-70 -444h-75z" />
    <glyph glyph-name="g" unicode="g" horiz-adv-x="572" 
d="M28 -190.5q-68 37.5 -91 98.5l64 45q19 -51 68.5 -82t112.5 -31q89 0 152.5 53.5t78.5 142.5l10 55h-1q-35 -44 -87.5 -70.5t-102.5 -26.5q-94 0 -149 57t-55 153q0 85 35.5 158t99 116.5t143.5 43.5q53 0 98.5 -27.5t67.5 -71.5h1l22 82h67l-75 -474q-12 -79 -54 -137.5
t-106.5 -90t-143.5 -31.5q-87 0 -155 37.5zM350.5 95.5q48.5 34.5 76 90.5t27.5 117q0 68 -37.5 110t-101.5 42q-60 0 -108.5 -35t-76 -92t-27.5 -120q0 -67 38 -107t102 -40q59 0 107.5 34.5z" />
    <glyph glyph-name="h" unicode="h" 
d="M126 735h76l-49 -298h1q74 86 189 86q72 0 112 -39t40 -108q0 -13 -4 -43l-53 -333h-75l52 331q3 17 3 31q0 46 -25.5 71t-72.5 25q-46 0 -86 -21t-67.5 -58t-34.5 -84l-47 -295h-75z" />
    <glyph glyph-name="i" unicode="i" horiz-adv-x="191" 
d="M118 616.5q-14 13.5 -14 35.5q0 27 16.5 44t42.5 17q24 0 38 -13t14 -35q0 -28 -17 -45t-43 -17q-23 0 -37 13.5zM97 505h75l-80 -505h-75z" />
    <glyph glyph-name="j" unicode="j" horiz-adv-x="192" 
d="M118 616.5q-14 13.5 -14 35.5q0 27 17 44t43 17q23 0 37.5 -13.5t14.5 -35.5q0 -26 -17.5 -43.5t-43.5 -17.5q-23 0 -37 13.5zM-157 -214l16 61q22 -9 50 -9q38 0 64.5 24t32.5 64l92 579h75l-94 -591q-10 -67 -53.5 -104.5t-110.5 -37.5q-44 0 -72 14z" />
    <glyph glyph-name="k" unicode="k" horiz-adv-x="441" 
d="M126 735h75l-71 -449h1l235 219h100l-214 -197l148 -308h-84l-120 255l-81 -74l-30 -181h-75z" />
    <glyph glyph-name="l" unicode="l" horiz-adv-x="175" 
d="M126 735h75l-116 -735h-75z" />
    <glyph glyph-name="m" unicode="m" horiz-adv-x="828" 
d="M90 505h65l-3 -67h1q27 40 73.5 62.5t101.5 22.5q56 0 91 -25t47 -70h1q38 49 87 72t102 23q69 0 107 -37t38 -103q0 -12 -4 -42l-54 -341h-76l55 342q2 18 2 26q0 42 -24 64.5t-68 22.5q-66 0 -113.5 -47t-58.5 -121l-46 -287h-75l54 342q2 18 2 26q0 42 -23.5 64.5
t-67.5 22.5q-67 0 -114 -47t-59 -121l-46 -287h-75z" />
    <glyph glyph-name="n" unicode="n" 
d="M455 484q40 -39 40 -108q0 -13 -4 -43l-53 -333h-75l52 331q3 17 3 31q0 46 -25.5 71t-72.5 25q-46 0 -86 -21t-67.5 -58t-34.5 -84l-47 -295h-75l80 505h68l-5 -68h1q74 86 189 86q72 0 112 -39z" />
    <glyph glyph-name="o" unicode="o" horiz-adv-x="567" 
d="M84 40q-59 58 -59 157q0 89 37.5 164t105.5 118.5t154 43.5q102 0 161 -58.5t59 -157.5q0 -89 -37.5 -163.5t-105.5 -118t-154 -43.5q-102 0 -161 58zM361 85q50 35 77.5 93.5t27.5 125.5q0 70 -38.5 110.5t-107.5 40.5q-64 0 -114 -35t-77.5 -93.5t-27.5 -125.5
q0 -71 38.5 -111t107.5 -40q64 0 114 35z" />
    <glyph glyph-name="p" unicode="p" horiz-adv-x="577" 
d="M90 505h65l-6 -82h1q37 48 87.5 74t108.5 26q61 0 107.5 -27.5t72 -77t25.5 -113.5q0 -86 -37 -160t-101.5 -118.5t-143.5 -44.5q-59 0 -102 26.5t-66 74.5h-1l-48 -293h-75zM370.5 87q49.5 36 77.5 93t28 119q0 70 -38.5 112.5t-103.5 42.5q-60 0 -109.5 -36
t-77.5 -93.5t-28 -119.5q0 -68 39 -111t104 -43q59 0 108.5 36z" />
    <glyph glyph-name="q" unicode="q" horiz-adv-x="577" 
d="M426 79h-1q-38 -47 -88 -72t-107 -25q-61 0 -107.5 27.5t-72 77t-25.5 113.5q0 85 37.5 159.5t102.5 119t143 44.5q60 0 103.5 -27.5t66.5 -76.5h1l22 86h66l-113 -715h-76zM352.5 86.5q49.5 35.5 77.5 93t28 119.5q0 70 -38.5 112.5t-103.5 42.5q-60 0 -109.5 -36
t-78 -93.5t-28.5 -119.5q0 -68 39 -111t104 -43q60 0 109.5 35.5z" />
    <glyph glyph-name="r" unicode="r" horiz-adv-x="425" 
d="M389.5 487.5q33.5 -36.5 33.5 -103.5q0 -15 -1 -22l-75 -17q4 55 -14.5 82.5t-55.5 27.5q-58 0 -96.5 -49t-52.5 -135l-43 -271h-75l80 505h64l-6 -74h1q27 45 65.5 69t82.5 24q59 0 92.5 -36.5z" />
    <glyph glyph-name="s" unicode="s" horiz-adv-x="471" 
d="M62 26q-58 44 -58 118l1 15l75 10q-5 -54 32.5 -87t104.5 -33q61 0 101.5 23.5t40.5 68.5q0 27 -20 44t-65 29l-85 23q-64 16 -93.5 44.5t-29.5 76.5q0 47 25.5 84.5t70 59t98.5 21.5q78 0 126 -40.5t50 -104.5l-73 -15q2 42 -27.5 68t-82.5 26q-50 0 -81.5 -24
t-31.5 -65q0 -25 19.5 -41.5t61.5 -27.5l81 -22q69 -17 100 -47t31 -80t-29.5 -88.5t-79.5 -59t-112 -20.5q-92 0 -150 44z" />
    <glyph glyph-name="t" unicode="t" horiz-adv-x="429" 
d="M123.5 17q-36.5 35 -36.5 91q0 8 2 28l48 307h-107l10 62h107l24 149l78 18l-27 -167h213l-10 -62h-212l-49 -303q-1 -7 -1 -20q0 -34 17.5 -53.5t48.5 -19.5q39 0 72.5 28t45.5 75l58 -31q-17 -63 -69 -100t-115 -37q-61 0 -97.5 35z" />
    <glyph glyph-name="u" unicode="u" 
d="M68 21q-40 39 -40 108q0 13 4 43l53 333h75l-52 -331q-3 -16 -3 -31q0 -46 25.5 -71t72.5 -25q46 0 86 21t67.5 58t34.5 84l47 295h75l-80 -505h-68l5 68h-1q-74 -86 -189 -86q-72 0 -112 39z" />
    <glyph glyph-name="v" unicode="v" horiz-adv-x="490" 
d="M52 505h77l85 -439h1l225 439h81l-266 -505h-98z" />
    <glyph glyph-name="w" unicode="w" horiz-adv-x="770" 
d="M51 505h77l57 -430h1l190 430h96l57 -431h1l191 431h80l-233 -505h-98l-56 425h-1l-187 -425h-99z" />
    <glyph glyph-name="x" unicode="x" horiz-adv-x="463" 
d="M188 265l-128 240h85l98 -193l154 193h86l-205 -245l135 -260h-87l-103 210l-166 -210h-87z" />
    <glyph glyph-name="y" unicode="y" 
d="M9.5 -191.5q-59.5 36.5 -77.5 99.5l69 39q14 -51 55 -79t101 -28q81 0 134.5 44.5t67.5 122.5l6 39h-1q-29 -40 -74.5 -62t-93.5 -22q-79 0 -123.5 46t-44.5 122q0 21 3 42l53 333h75l-53 -338q-3 -16 -3 -31q0 -49 27 -77.5t77 -28.5q42 0 80.5 20t65 55t33.5 79l51 321
h75l-79 -503q-17 -109 -90.5 -169.5t-184.5 -60.5q-89 0 -148.5 36.5z" />
    <glyph glyph-name="z" unicode="z" horiz-adv-x="462" 
d="M-8 83l387 354h-320l11 68h401l-12 -83l-387 -354h341l-11 -68h-422z" />
    <glyph glyph-name="braceleft" unicode="{" horiz-adv-x="289" 
d="M78.5 -169.5q-19.5 20.5 -19.5 55.5q0 6 2 22l42 263q1 6 1 17q0 27 -13.5 43t-38.5 18l-18 1l9 58l19 1q29 2 49.5 23t25.5 56l41 259q7 44 35 71t68 27h86l-6 -38h-86q-22 0 -38.5 -16.5t-21.5 -43.5l-42 -267q-6 -41 -32 -68.5t-62 -30.5v-2q30 -3 47 -24t17 -54
q0 -8 -2 -22l-42 -271q-1 -5 -1 -15q0 -21 11 -33t30 -12h86l-7 -38h-86q-34 0 -53.5 20.5z" />
    <glyph glyph-name="bar" unicode="|" horiz-adv-x="158" 
d="M136 735h38l-152 -965h-38z" />
    <glyph glyph-name="braceright" unicode="}" horiz-adv-x="288" 
d="M-69 -190l5 38h85q23 0 39.5 16t20.5 44l43 271q7 41 32.5 68.5t61.5 31.5v2q-30 2 -47 23t-17 54q0 8 2 22l42 267q1 5 1 14q0 21 -11 33.5t-30 12.5h-86l6 38h86q34 0 54 -21t20 -56q0 -7 -2 -21l-41 -259q-1 -6 -1 -18q0 -27 13.5 -43t38.5 -18l17 -1l-10 -58l-17 -1
q-29 -2 -49.5 -23t-25.5 -55l-42 -263q-8 -44 -35.5 -71t-67.5 -27h-85z" />
    <glyph glyph-name="asciitilde" unicode="~" horiz-adv-x="586" 
d="M567 311q-24 -40 -66.5 -65.5t-81.5 -25.5q-30 0 -61 15.5t-65 40.5q-37 29 -61 43t-49 14q-27 0 -57 -16.5t-55 -44.5l-33 37q32 44 72.5 67.5t80.5 23.5q33 0 66 -17.5t73 -47.5q33 -25 53.5 -36.5t41.5 -11.5q28 0 56 16t51 44z" />
    <glyph glyph-name="exclamdown" unicode="&#xa1;" horiz-adv-x="212" 
d="M183 513.5q14 -13.5 14 -35.5q0 -26 -17 -43.5t-43 -17.5q-23 0 -37.5 14t-14.5 36q0 26 17.5 43t43.5 17q23 0 37 -13.5zM108 -1l-31 -189h-83l31 189l71 336h48z" />
    <glyph glyph-name="cent" unicode="&#xa2;" horiz-adv-x="540" 
d="M451 77q-40 -44 -94.5 -69.5t-112.5 -25.5l-18 -112h-38l18 114q-83 11 -131.5 70t-48.5 148q0 81 34.5 154t95 118.5t135.5 48.5l19 117h38l-19 -118q71 -8 116.5 -55.5t50.5 -115.5l-74 -12q-5 47 -32 77t-72 37l-63 -403q62 4 113 45t70 103l70 -21q-17 -56 -57 -100z
M133 102q31 -41 84 -50l64 402q-50 -5 -91 -42t-64.5 -92t-23.5 -113q0 -64 31 -105z" />
    <glyph glyph-name="sterling" unicode="&#xa3;" horiz-adv-x="544" 
d="M3 88q115 23 151 243h-100l5 38h100l27 159q14 91 69.5 146t137.5 55q80 0 122 -50.5t42 -135.5q0 -17 -1 -26l-74 -8q1 10 1 29q0 59 -22.5 92t-67.5 33q-51 0 -86 -39t-44 -102l-26 -153h248l-6 -38h-248q-22 -116 -59 -178t-88 -85v-1l399 1l-11 -68h-481z" />
    <glyph glyph-name="currency" unicode="&#xa4;" horiz-adv-x="692" 
d="M-15 -25l130 113q-15 25 -23.5 58.5t-8.5 67.5q0 54 23 108.5t59 92.5l-92 109l29 26l91 -106q38 30 89 48t101 18q51 0 97.5 -19t75.5 -51l126 110l24 -26l-128 -113q15 -25 23 -57.5t8 -67.5q0 -53 -22.5 -107.5t-58.5 -93.5l91 -109l-29 -26l-91 106q-38 -30 -89 -48
t-101 -18q-51 0 -97.5 19t-75.5 51l-126 -110zM429 95.5q48 29.5 75.5 78.5t27.5 107q0 69 -43.5 111t-117.5 42q-60 0 -108.5 -29.5t-75.5 -79t-27 -108.5q0 -69 43.5 -110t117.5 -41q60 0 108 29.5z" />
    <glyph glyph-name="yen" unicode="&#xa5;" horiz-adv-x="595" 
d="M240 145h-224l6 38h225l7 52h-224l6 37h213l-166 433h90l136 -375l254 375h94l-302 -433h211l-6 -37h-223l-8 -52h223l-6 -38h-223l-23 -145h-83z" />
    <glyph glyph-name="section" unicode="&#xa7;" horiz-adv-x="509" 
d="M118 5q-49 23 -74.5 63t-23.5 90l75 10q-5 -54 33.5 -86.5t106.5 -32.5q57 0 99 23.5t49 64.5q1 3 1 10q0 44 -69 63l-106 24q-72 17 -106 46.5t-34 75.5q0 8 2 24q10 57 75 104q-24 27 -24 69q0 48 26 87t70.5 61.5t99.5 22.5q74 0 120 -40.5t47 -104.5l-73 -15
q2 42 -24.5 67.5t-71.5 25.5q-33 0 -61 -13.5t-44 -36.5t-16 -48q0 -20 14 -33t44 -21l101 -25q67 -18 98 -47t31 -75q0 -74 -64 -123q38 -33 38 -83q0 -5 -2 -21q-12 -71 -75.5 -110t-148.5 -39q-64 0 -113 23zM409 344q0 47 -78 70l-132 32q-47 -21 -57 -71q-1 -3 -1 -9
q0 -41 84 -64l138 -34q46 34 46 76z" />
    <glyph glyph-name="dieresis" unicode="&#xa8;" horiz-adv-x="363" 
d="M96 617.5q-13 12.5 -13 32.5q0 27 19 45t46 18q23 0 36 -12t13 -32q0 -27 -19.5 -45.5t-46.5 -18.5q-22 0 -35 12.5zM308.5 617q-12.5 12 -12.5 32q0 28 19 46t46 18q22 0 35 -12t13 -32q0 -27 -19.5 -45.5t-46.5 -18.5q-22 0 -34.5 12z" />
    <glyph glyph-name="copyright" unicode="&#xa9;" horiz-adv-x="803" 
d="M196.5 15.5q-71.5 39.5 -111 111t-39.5 163.5q0 120 57.5 223.5t156 165t215.5 61.5q94 0 165.5 -39.5t110.5 -111t39 -164.5q0 -120 -56.5 -223.5t-154.5 -164.5t-216 -61q-95 0 -166.5 39.5zM562 70q88 56 139 150.5t51 202.5q0 84 -34 147t-97.5 98t-148.5 35
q-105 0 -194 -56.5t-141.5 -151t-52.5 -202.5q0 -83 35 -146.5t99.5 -98t150.5 -34.5q105 0 193 56zM269 112.5q-49 27.5 -76 77t-27 115.5q0 83 36 157t99.5 119t141.5 45q87 0 137.5 -48.5t55.5 -128.5l-74 -12q-5 56 -37.5 88.5t-83.5 32.5q-57 0 -102 -36t-70.5 -93.5
t-25.5 -117.5q0 -74 40 -116.5t108 -42.5q62 0 115.5 42.5t72.5 107.5l70 -20q-17 -57 -57 -102t-94.5 -70t-113.5 -25q-66 0 -115 27.5z" />
    <glyph glyph-name="guillemotleft" unicode="&#xab;" horiz-adv-x="461" 
d="M29 252l242 263l26 -23l-220 -240l144 -239l-34 -23zM201 252l242 263l27 -23l-221 -240l144 -239l-33 -23z" />
    <glyph glyph-name="logicalnot" unicode="&#xac;" horiz-adv-x="599" 
d="M503 389h-431l10 64h499l-43 -273h-68z" />
    <glyph glyph-name="registered" unicode="&#xae;" horiz-adv-x="803" 
d="M196.5 15.5q-71.5 39.5 -111 111t-39.5 163.5q0 120 57.5 223.5t156 165t215.5 61.5q94 0 166 -39.5t111 -111t39 -164.5q0 -120 -56.5 -223t-155 -164.5t-216.5 -61.5q-95 0 -166.5 39.5zM562 70q88 56 139 150.5t51 202.5q0 84 -34 147t-97.5 98t-148.5 35
q-105 0 -194 -56.5t-141.5 -151t-52.5 -202.5q0 -83 35 -146.5t99.5 -98t150.5 -34.5q105 0 193 56zM298 620h174q77 0 118 -33.5t41 -92.5q0 -64 -36.5 -107.5t-104.5 -58.5l77 -219h-83l-71 213h-87l-35 -213h-74zM434 386q53 0 88 29t35 74q0 31 -24 49t-68 18h-103
l-27 -170h99z" />
    <glyph glyph-name="macron" unicode="&#xaf;" horiz-adv-x="355" 
d="M96 635h285l-6 -37h-285z" />
    <glyph glyph-name="degree" unicode="&#xb0;" horiz-adv-x="459" 
d="M157 357q-40 21 -63 59t-23 86q0 62 31.5 115.5t84.5 86t115 32.5q50 0 90 -21.5t62.5 -59.5t22.5 -87q0 -61 -31 -114.5t-84 -85.5t-115 -32q-50 0 -90 21zM345 399.5q43 26.5 68 71t25 95.5q0 60 -38 97t-100 37q-53 0 -96.5 -27t-68.5 -72t-25 -96q0 -59 38.5 -95.5
t101.5 -36.5q52 0 95 26.5z" />
    <glyph glyph-name="plusminus" unicode="&#xb1;" horiz-adv-x="535" 
d="M251 397h-178l11 70h179l19 120h77l-19 -120h179l-12 -70h-178l-20 -129h-78zM40 188h434l-5 -38h-434z" />
    <glyph glyph-name="acute" unicode="&#xb4;" horiz-adv-x="176" 
d="M77 623l129 145l28 -24l-129 -145z" />
    <glyph glyph-name="paragraph" unicode="&#xb6;" horiz-adv-x="616" 
d="M263 326q-91 0 -143.5 42.5t-52.5 114.5q0 16 3 32q15 86 84.5 138t168.5 52h336l-10 -60h-84l-137 -868h-69l138 868h-115l-137 -868h-69z" />
    <glyph glyph-name="periodcentered" unicode="&#xb7;" horiz-adv-x="192" 
d="M59 241.5q-14 13.5 -14 35.5q0 26 17 43.5t43 17.5q23 0 37 -14t14 -36q0 -26 -17 -43t-43 -17q-23 0 -37 13.5z" />
    <glyph glyph-name="cedilla" unicode="&#xb8;" horiz-adv-x="225" 
d="M-12 -190.5q-24 15.5 -32 38.5l34 23q4 -17 20.5 -28t37.5 -11q27 0 43.5 12.5t16.5 33.5q0 18 -16.5 28t-44.5 10h-33l24 86h37l-14 -51q85 -7 85 -68q0 -10 -1 -16q-5 -32 -34 -52.5t-70 -20.5q-29 0 -53 15.5z" />
    <glyph glyph-name="guillemotright" unicode="&#xbb;" horiz-adv-x="461" 
d="M-9 13l220 239l-144 240l34 23l158 -263l-242 -262zM164 13l220 239l-144 240l34 23l158 -263l-242 -262z" />
    <glyph glyph-name="questiondown" unicode="&#xbf;" horiz-adv-x="475" 
d="M316 513.5q14 -13.5 14 -35.5q0 -26 -16.5 -43.5t-42.5 -17.5q-23 0 -37.5 14t-14.5 36q0 26 17.5 43t42.5 17q23 0 37 -13.5zM254.5 220q-25.5 -44 -72.5 -77l-41 -34q-48 -35 -70 -69t-22 -74q0 -48 31 -77.5t81 -29.5q62 0 110 45.5t65 122.5l74 -26q-23 -99 -93 -157
t-161 -58q-55 0 -98 22t-67 62t-24 92q0 62 29.5 110t93.5 91l39 31q38 26 58.5 59.5t27.5 84.5l76 -5q-11 -69 -36.5 -113z" />
    <glyph glyph-name="Agrave" unicode="&#xc0;" horiz-adv-x="634" 
d="M339 705h100l145 -705h-86l-33 170h-319l-87 -170h-90zM453 242l-74 383h-2l-197 -383h273zM338 906l32 20l67 -125l-31 -20z" />
    <glyph glyph-name="Aacute" unicode="&#xc1;" horiz-adv-x="634" 
d="M339 705h100l145 -705h-86l-33 170h-319l-87 -170h-90zM453 242l-74 383h-2l-197 -383h273zM383 801l108 125l27 -22l-109 -125z" />
    <glyph glyph-name="Acircumflex" unicode="&#xc2;" horiz-adv-x="634" 
d="M339 705h100l145 -705h-86l-33 170h-319l-87 -170h-90zM453 242l-74 383h-2l-197 -383h273zM262 808l133 110h53l97 -110l-28 -27l-98 109l-133 -109z" />
    <glyph glyph-name="Atilde" unicode="&#xc3;" horiz-adv-x="634" 
d="M339 705h100l145 -705h-86l-33 170h-319l-87 -170h-90zM453 242l-74 383h-2l-197 -383h273zM429 797q-17 17 -37 49q-12 20 -22 30t-24 10q-23 0 -42 -27t-26 -69h-37q9 59 39 96t71 37q26 0 43.5 -15.5t32.5 -41.5q16 -26 26 -37.5t26 -11.5q24 0 43 27.5t26 69.5h38
q-10 -59 -40 -96.5t-71 -37.5q-29 0 -46 17z" />
    <glyph glyph-name="Adieresis" unicode="&#xc4;" horiz-adv-x="634" 
d="M339 705h100l145 -705h-86l-33 170h-319l-87 -170h-90zM453 242l-74 383h-2l-197 -383h273zM260 815.5q-13 12.5 -13 32.5q0 27 19 45.5t46 18.5q22 0 35 -12t13 -32q0 -27 -19 -46t-46 -19q-22 0 -35 12.5zM480 815.5q-13 12.5 -13 33.5q0 27 19 45t46 18q22 0 34.5 -12
t12.5 -32q0 -27 -18.5 -46t-45.5 -19q-22 0 -35 12.5z" />
    <glyph glyph-name="Aring" unicode="&#xc5;" horiz-adv-x="634" 
d="M339 705h100l145 -705h-86l-33 170h-319l-87 -170h-90zM453 242l-74 383h-2l-197 -383h273zM343.5 803.5q-21.5 21.5 -21.5 54.5q0 48 31.5 79t76.5 31q36 0 57.5 -21.5t21.5 -56.5q0 -45 -32 -76.5t-76 -31.5q-36 0 -57.5 21.5zM452.5 838.5q18.5 20.5 18.5 46.5
q0 21 -13 34t-35 13q-26 0 -45.5 -20t-19.5 -48q0 -20 13.5 -33t34.5 -13q28 0 46.5 20.5z" />
    <glyph glyph-name="AE" unicode="&#xc6;" horiz-adv-x="844" 
d="M445 705h436l-11 -73h-315l-38 -240h274l-10 -68h-275l-39 -251h324l-12 -73h-404l23 144h-248l-98 -144h-94zM409 213l66 413h-1l-280 -413h215z" />
    <glyph glyph-name="Ccedilla" unicode="&#xc7;" horiz-adv-x="730" 
d="M634 115.5q-53 -63.5 -126 -100t-152 -38.5l-7 -26q85 -7 85 -68q0 -10 -1 -16q-5 -32 -34 -52.5t-70 -20.5q-29 0 -53 15.5t-32 38.5l34 23q4 -17 20.5 -28t37.5 -11q27 0 43.5 12.5t16.5 33.5q0 18 -16.5 28t-44.5 10h-33l17 62q-83 6 -145 45.5t-95 106.5t-33 153
q0 114 48.5 216.5t135.5 165.5t196 63q114 0 185 -66t83 -176l-80 -13q-8 85 -57.5 133.5t-134.5 48.5t-152 -53t-104 -138t-37 -175q0 -110 59.5 -174.5t161.5 -64.5q63 0 121.5 30.5t102 84t62.5 119.5l75 -25q-24 -80 -77 -143.5z" />
    <glyph glyph-name="Egrave" unicode="&#xc8;" horiz-adv-x="546" 
d="M132 705h450l-11 -73h-371l-37 -233h331l-11 -70h-331l-40 -256h380l-11 -73h-461zM317 906l32 20l67 -125l-31 -20z" />
    <glyph glyph-name="Eacute" unicode="&#xc9;" horiz-adv-x="546" 
d="M132 705h450l-11 -73h-371l-37 -233h331l-11 -70h-331l-40 -256h380l-11 -73h-461zM362 801l108 125l27 -22l-109 -125z" />
    <glyph glyph-name="Ecircumflex" unicode="&#xca;" horiz-adv-x="546" 
d="M132 705h450l-11 -73h-371l-37 -233h331l-11 -70h-331l-40 -256h380l-11 -73h-461zM241 808l133 110h53l97 -110l-28 -27l-98 109l-133 -109z" />
    <glyph glyph-name="Edieresis" unicode="&#xcb;" horiz-adv-x="546" 
d="M132 705h450l-11 -73h-371l-37 -233h331l-11 -70h-331l-40 -256h380l-11 -73h-461zM239 815.5q-13 12.5 -13 32.5q0 27 19 45.5t46 18.5q22 0 35 -12t13 -32q0 -27 -19 -46t-46 -19q-22 0 -35 12.5zM459 815.5q-13 12.5 -13 33.5q0 27 19 45t46 18q22 0 34.5 -12
t12.5 -32q0 -27 -18.5 -46t-45.5 -19q-22 0 -35 12.5z" />
    <glyph glyph-name="Igrave" unicode="&#xcc;" horiz-adv-x="202" 
d="M119 906l32 20l65 -125l-31 -19zM132 705h82l-112 -705h-82z" />
    <glyph glyph-name="Iacute" unicode="&#xcd;" horiz-adv-x="202" 
d="M168 801l105 125l26 -22l-106 -125zM132 705h82l-112 -705h-82z" />
    <glyph glyph-name="Icircumflex" unicode="&#xce;" horiz-adv-x="202" 
d="M79 803l101 115h52l65 -115l-32 -22l-62 108l-95 -108zM132 705h82l-112 -705h-82z" />
    <glyph glyph-name="Idieresis" unicode="&#xcf;" horiz-adv-x="202" 
d="M85 816.5q-14 13.5 -14 34.5q0 27 17 44t43 17q23 0 37.5 -13.5t14.5 -34.5q0 -27 -17.5 -44t-43.5 -17q-23 0 -37 13.5zM227 816.5q-14 13.5 -14 34.5q0 27 16.5 44t42.5 17q23 0 37.5 -13.5t14.5 -34.5q0 -27 -17 -44t-43 -17q-23 0 -37 13.5zM132 705h82l-112 -705
h-82z" />
    <glyph glyph-name="Ntilde" unicode="&#xd1;" horiz-adv-x="646" 
d="M132 705h108l237 -599h2l96 599h83l-112 -705h-108l-238 599h-2l-96 -599h-82zM438 797q-17 17 -37 49q-12 20 -22 30t-24 10q-23 0 -42 -27t-26 -69h-37q9 59 39 96t71 37q26 0 43.5 -15.5t32.5 -41.5q16 -26 26 -37.5t26 -11.5q24 0 43 27.5t26 69.5h38
q-10 -59 -40 -96.5t-71 -37.5q-29 0 -46 17z" />
    <glyph glyph-name="Ograve" unicode="&#xd2;" horiz-adv-x="783" 
d="M188 13.5q-69 36.5 -106 103.5t-37 159q0 125 53 228t148.5 163t216.5 60q95 0 164 -36.5t106 -103.5t37 -159q0 -124 -53.5 -227t-148.5 -163.5t-216 -60.5q-95 0 -164 36.5zM528 100.5q75 50.5 117 136t42 185.5q0 109 -61 171t-170 62q-94 0 -169 -50.5t-117 -136
t-42 -185.5q0 -110 61 -171.5t170 -61.5q94 0 169 50.5zM413 906l32 20l67 -125l-31 -20z" />
    <glyph glyph-name="Oacute" unicode="&#xd3;" horiz-adv-x="783" 
d="M188 13.5q-69 36.5 -106 103.5t-37 159q0 125 53 228t148.5 163t216.5 60q95 0 164 -36.5t106 -103.5t37 -159q0 -124 -53.5 -227t-148.5 -163.5t-216 -60.5q-95 0 -164 36.5zM528 100.5q75 50.5 117 136t42 185.5q0 109 -61 171t-170 62q-94 0 -169 -50.5t-117 -136
t-42 -185.5q0 -110 61 -171.5t170 -61.5q94 0 169 50.5zM458 801l108 125l27 -22l-109 -125z" />
    <glyph glyph-name="Ocircumflex" unicode="&#xd4;" horiz-adv-x="783" 
d="M188 13.5q-69 36.5 -106 103.5t-37 159q0 125 53 228t148.5 163t216.5 60q95 0 164 -36.5t106 -103.5t37 -159q0 -124 -53.5 -227t-148.5 -163.5t-216 -60.5q-95 0 -164 36.5zM528 100.5q75 50.5 117 136t42 185.5q0 109 -61 171t-170 62q-94 0 -169 -50.5t-117 -136
t-42 -185.5q0 -110 61 -171.5t170 -61.5q94 0 169 50.5zM337 808l133 110h53l97 -110l-28 -27l-98 109l-133 -109z" />
    <glyph glyph-name="Otilde" unicode="&#xd5;" horiz-adv-x="783" 
d="M188 13.5q-69 36.5 -106 103.5t-37 159q0 125 53 228t148.5 163t216.5 60q95 0 164 -36.5t106 -103.5t37 -159q0 -124 -53.5 -227t-148.5 -163.5t-216 -60.5q-95 0 -164 36.5zM528 100.5q75 50.5 117 136t42 185.5q0 109 -61 171t-170 62q-94 0 -169 -50.5t-117 -136
t-42 -185.5q0 -110 61 -171.5t170 -61.5q94 0 169 50.5zM504 797q-17 17 -37 49q-12 20 -22 30t-24 10q-23 0 -42 -27t-26 -69h-37q9 59 39 96t71 37q26 0 43.5 -15.5t32.5 -41.5q16 -26 26 -37.5t26 -11.5q24 0 43 27.5t26 69.5h38q-10 -59 -40 -96.5t-71 -37.5
q-29 0 -46 17z" />
    <glyph glyph-name="Odieresis" unicode="&#xd6;" horiz-adv-x="783" 
d="M188 13.5q-69 36.5 -106 103.5t-37 159q0 125 53 228t148.5 163t216.5 60q95 0 164 -36.5t106 -103.5t37 -159q0 -124 -53.5 -227t-148.5 -163.5t-216 -60.5q-95 0 -164 36.5zM528 100.5q75 50.5 117 136t42 185.5q0 109 -61 171t-170 62q-94 0 -169 -50.5t-117 -136
t-42 -185.5q0 -110 61 -171.5t170 -61.5q94 0 169 50.5zM335 815.5q-13 12.5 -13 32.5q0 27 19 45.5t46 18.5q22 0 35 -12t13 -32q0 -27 -19 -46t-46 -19q-22 0 -35 12.5zM555 815.5q-13 12.5 -13 33.5q0 27 19 45t46 18q22 0 34.5 -12t12.5 -32q0 -27 -18.5 -46t-45.5 -19
q-22 0 -35 12.5z" />
    <glyph glyph-name="multiply" unicode="&#xd7;" horiz-adv-x="377" 
d="M51 257l112 109l-77 109l53 45l74 -106l110 106l39 -45l-111 -109l76 -109l-52 -45l-77 106l-107 -106z" />
    <glyph glyph-name="Oslash" unicode="&#xd8;" horiz-adv-x="783" 
d="M706.5 627.5q63.5 -77.5 63.5 -199.5q0 -124 -53.5 -227t-148.5 -163.5t-216 -60.5q-26 0 -52 3l-36 -117l-35 10l34 113q-104 23 -161 99t-57 191q0 125 53 228t148.5 163t216.5 60q17 0 26 -1l28 93l37 -11l-26 -86q115 -17 178.5 -94.5zM169 136q41 -58 116 -78
l182 597h-11q-94 0 -169 -50.5t-117 -136t-42 -185.5q0 -89 41 -147zM528 100.5q75 50.5 117 136t42 185.5q0 96 -47.5 155.5t-133.5 73.5l-184 -599q24 -2 37 -2q94 0 169 50.5z" />
    <glyph glyph-name="Ugrave" unicode="&#xd9;" horiz-adv-x="640" 
d="M105.5 31q-60.5 54 -60.5 155q0 25 5 60l72 459h82l-75 -471q-4 -30 -4 -43q0 -68 40.5 -104.5t118.5 -36.5q92 0 149.5 49t71.5 140l74 466h83l-75 -471q-20 -124 -99.5 -190.5t-206.5 -66.5q-115 0 -175.5 54zM341 906l32 20l67 -125l-31 -20z" />
    <glyph glyph-name="Uacute" unicode="&#xda;" horiz-adv-x="640" 
d="M105.5 31q-60.5 54 -60.5 155q0 25 5 60l72 459h82l-75 -471q-4 -30 -4 -43q0 -68 40.5 -104.5t118.5 -36.5q92 0 149.5 49t71.5 140l74 466h83l-75 -471q-20 -124 -99.5 -190.5t-206.5 -66.5q-115 0 -175.5 54zM386 801l108 125l27 -22l-109 -125z" />
    <glyph glyph-name="Ucircumflex" unicode="&#xdb;" horiz-adv-x="640" 
d="M105.5 31q-60.5 54 -60.5 155q0 25 5 60l72 459h82l-75 -471q-4 -30 -4 -43q0 -68 40.5 -104.5t118.5 -36.5q92 0 149.5 49t71.5 140l74 466h83l-75 -471q-20 -124 -99.5 -190.5t-206.5 -66.5q-115 0 -175.5 54zM265 808l133 110h53l97 -110l-28 -27l-98 109l-133 -109z
" />
    <glyph glyph-name="Udieresis" unicode="&#xdc;" horiz-adv-x="640" 
d="M105.5 31q-60.5 54 -60.5 155q0 25 5 60l72 459h82l-75 -471q-4 -30 -4 -43q0 -68 40.5 -104.5t118.5 -36.5q92 0 149.5 49t71.5 140l74 466h83l-75 -471q-20 -124 -99.5 -190.5t-206.5 -66.5q-115 0 -175.5 54zM262 815.5q-13 12.5 -13 32.5q0 27 19 45.5t46 18.5
q22 0 35 -12t13 -32q0 -27 -19 -46t-46 -19q-22 0 -35 12.5zM482 815.5q-13 12.5 -13 33.5q0 27 19 45t46 18q22 0 34.5 -12t12.5 -32q0 -27 -18.5 -46t-45.5 -19q-22 0 -35 12.5z" />
    <glyph glyph-name="Yacute" unicode="&#xdd;" horiz-adv-x="581" 
d="M253 262l-170 443h88l132 -361h1l246 361h94l-309 -443l-42 -262h-83zM356 801l108 125l27 -22l-109 -125z" />
    <glyph glyph-name="germandbls" unicode="&#xdf;" horiz-adv-x="541" 
d="M472.5 234.5q21.5 -32.5 21.5 -79.5q0 -76 -49 -122t-126 -46q-72 0 -113 42t-41 109q0 18 3 36l73 13q-3 -18 -3 -35q0 -47 23 -74.5t66 -27.5q38 0 65.5 27t27.5 67q0 27 -14.5 48t-46.5 40l-50 31q-44 24 -63.5 48.5t-19.5 55.5q0 57 49 97.5t139 49.5q20 49 20 83
q0 40 -24.5 61t-67.5 21q-68 0 -112.5 -46.5t-57.5 -125.5l-80 -507h-82l82 520q17 106 86 169t169 63q75 0 121 -39t46 -112q0 -33 -10 -71t-26 -68q-82 0 -127 -24t-47 -58q-1 -13 9 -26t34 -27l55 -33q49 -27 70.5 -59.5z" />
    <glyph glyph-name="agrave" unicode="&#xe0;" horiz-adv-x="577" 
d="M122.5 9.5q-46.5 27.5 -71.5 77t-25 113.5q0 85 37 159.5t101.5 119t143.5 44.5q59 0 102 -26.5t65 -74.5h1l23 83h68l-80 -505h-66l7 82h-1q-37 -47 -88 -73.5t-108 -26.5q-62 0 -108.5 27.5zM352.5 86q49.5 36 77.5 94t28 120q0 68 -38.5 111t-103.5 43
q-60 0 -109.5 -36t-78 -93.5t-28.5 -119.5q0 -69 39 -112t104 -43q60 0 109.5 36zM252 744l32 21l83 -146l-32 -20z" />
    <glyph glyph-name="aacute" unicode="&#xe1;" horiz-adv-x="577" 
d="M122.5 9.5q-46.5 27.5 -71.5 77t-25 113.5q0 85 37 159.5t101.5 119t143.5 44.5q59 0 102 -26.5t65 -74.5h1l23 83h68l-80 -505h-66l7 82h-1q-37 -47 -88 -73.5t-108 -26.5q-62 0 -108.5 27.5zM352.5 86q49.5 36 77.5 94t28 120q0 68 -38.5 111t-103.5 43
q-60 0 -109.5 -36t-78 -93.5t-28.5 -119.5q0 -69 39 -112t104 -43q60 0 109.5 36zM312 623l129 145l28 -24l-129 -145z" />
    <glyph glyph-name="acircumflex" unicode="&#xe2;" horiz-adv-x="577" 
d="M122.5 9.5q-46.5 27.5 -71.5 77t-25 113.5q0 85 37 159.5t101.5 119t143.5 44.5q59 0 102 -26.5t65 -74.5h1l23 83h68l-80 -505h-66l7 82h-1q-37 -47 -88 -73.5t-108 -26.5q-62 0 -108.5 27.5zM352.5 86q49.5 36 77.5 94t28 120q0 68 -38.5 111t-103.5 43
q-60 0 -109.5 -36t-78 -93.5t-28.5 -119.5q0 -69 39 -112t104 -43q60 0 109.5 36zM178 618l157 130h52l116 -130l-28 -27l-116 129l-156 -129z" />
    <glyph glyph-name="atilde" unicode="&#xe3;" horiz-adv-x="577" 
d="M122.5 9.5q-46.5 27.5 -71.5 77t-25 113.5q0 85 37 159.5t101.5 119t143.5 44.5q59 0 102 -26.5t65 -74.5h1l23 83h68l-80 -505h-66l7 82h-1q-37 -47 -88 -73.5t-108 -26.5q-62 0 -108.5 27.5zM352.5 86q49.5 36 77.5 94t28 120q0 68 -38.5 111t-103.5 43
q-60 0 -109.5 -36t-78 -93.5t-28.5 -119.5q0 -69 39 -112t104 -43q60 0 109.5 36zM363 604.5q-16 14.5 -34 42.5q-14 24 -25 36.5t-27 12.5q-23 0 -41.5 -27t-25.5 -69h-37q9 58 39.5 95.5t71.5 37.5q26 0 42.5 -14.5t31.5 -40.5q16 -28 26 -39.5t26 -11.5q24 0 43 26.5
t29 70.5h36q-12 -60 -42 -97t-70 -37q-27 0 -43 14.5z" />
    <glyph glyph-name="adieresis" unicode="&#xe4;" horiz-adv-x="577" 
d="M122.5 9.5q-46.5 27.5 -71.5 77t-25 113.5q0 85 37 159.5t101.5 119t143.5 44.5q59 0 102 -26.5t65 -74.5h1l23 83h68l-80 -505h-66l7 82h-1q-37 -47 -88 -73.5t-108 -26.5q-62 0 -108.5 27.5zM352.5 86q49.5 36 77.5 94t28 120q0 68 -38.5 111t-103.5 43
q-60 0 -109.5 -36t-78 -93.5t-28.5 -119.5q0 -69 39 -112t104 -43q60 0 109.5 36zM194 617.5q-13 12.5 -13 32.5q0 27 19 45t46 18q23 0 36 -12t13 -32q0 -27 -19.5 -45.5t-46.5 -18.5q-22 0 -35 12.5zM406.5 617q-12.5 12 -12.5 32q0 28 19 46t46 18q22 0 35 -12t13 -32
q0 -27 -19.5 -45.5t-46.5 -18.5q-22 0 -34.5 12z" />
    <glyph glyph-name="aring" unicode="&#xe5;" horiz-adv-x="577" 
d="M122.5 9.5q-46.5 27.5 -71.5 77t-25 113.5q0 85 37 159.5t101.5 119t143.5 44.5q59 0 102 -26.5t65 -74.5h1l23 83h68l-80 -505h-66l7 82h-1q-37 -47 -88 -73.5t-108 -26.5q-62 0 -108.5 27.5zM352.5 86q49.5 36 77.5 94t28 120q0 68 -38.5 111t-103.5 43
q-60 0 -109.5 -36t-78 -93.5t-28.5 -119.5q0 -69 39 -112t104 -43q60 0 109.5 36zM275.5 613q-21.5 21 -21.5 55q0 48 31.5 79t77.5 31q36 0 57.5 -21t21.5 -55q0 -48 -31.5 -79t-77.5 -31q-36 0 -57.5 21zM385 647.5q19 19.5 19 48.5q0 21 -13 33.5t-35 12.5
q-27 0 -46.5 -19t-19.5 -48q0 -22 13.5 -34.5t35.5 -12.5q27 0 46 19.5z" />
    <glyph glyph-name="ae" unicode="&#xe6;" horiz-adv-x="862" 
d="M46.5 17.5q-47.5 35.5 -47.5 93.5q0 68 58.5 116.5t164.5 60.5l136 16q21 3 33.5 20t12.5 45q0 41 -29 63.5t-78 22.5q-44 0 -81.5 -17t-61.5 -44t-31 -57l-62 34q10 41 43 76t82 55.5t105 20.5q65 0 111.5 -29t59.5 -80q35 51 86 80t106 29q80 0 126.5 -56t46.5 -151
q0 -26 -5 -63q-2 -15 -6 -29h-351q-4 -80 32.5 -127t103.5 -47q50 0 88.5 27.5t64.5 74.5l63 -33q-34 -64 -91 -100.5t-126 -36.5q-74 0 -124.5 40.5t-60.5 104.5q-30 -67 -97 -106t-147 -39q-77 0 -124.5 35.5zM749 289q2 22 2 30q0 63 -29 99.5t-78 36.5
q-56 0 -101.5 -46.5t-66.5 -119.5h273zM276.5 71q42.5 21 71 58.5t35.5 83.5l5 33l-171 -20q-60 -8 -101 -38.5t-41 -69.5q0 -31 30 -49.5t79 -18.5q50 0 92.5 21z" />
    <glyph glyph-name="ccedilla" unicode="&#xe7;" horiz-adv-x="540" 
d="M412 40q-71 -55 -158 -58l-9 -31q85 -7 85 -68q0 -10 -1 -16q-5 -32 -34 -52.5t-70 -20.5q-29 0 -53 15.5t-32 38.5l34 23q4 -17 20.5 -28t37.5 -11q27 0 43.5 12.5t16.5 33.5q0 18 -16.5 28t-44.5 10h-33l19 67q-88 8 -139.5 67.5t-51.5 151.5q0 83 36 157t99.5 119
t141.5 45q86 0 136.5 -49t55.5 -128l-73 -12q-6 57 -38 89t-84 32q-56 0 -101.5 -36t-71 -93.5t-25.5 -117.5q0 -74 40 -116.5t108 -42.5q62 0 115.5 42.5t72.5 107.5l70 -20q-25 -84 -96 -139z" />
    <glyph glyph-name="egrave" unicode="&#xe8;" horiz-adv-x="545" 
d="M133.5 10.5q-51.5 28.5 -79.5 79.5t-28 118q0 84 36 156.5t100 115.5t143 43q94 0 149.5 -59.5t55.5 -156.5q0 -18 -2.5 -42.5t-6.5 -39.5h-399q-5 -80 37 -127.5t118 -47.5q58 0 107 28.5t74 73.5l62 -33q-32 -62 -99 -99.5t-147 -37.5q-69 0 -120.5 28.5zM433 290
q3 76 -33 120.5t-105 44.5q-64 0 -114.5 -46t-66.5 -119h319zM244 744l32 21l83 -146l-32 -20z" />
    <glyph glyph-name="eacute" unicode="&#xe9;" horiz-adv-x="545" 
d="M133.5 10.5q-51.5 28.5 -79.5 79.5t-28 118q0 84 36 156.5t100 115.5t143 43q94 0 149.5 -59.5t55.5 -156.5q0 -18 -2.5 -42.5t-6.5 -39.5h-399q-5 -80 37 -127.5t118 -47.5q58 0 107 28.5t74 73.5l62 -33q-32 -62 -99 -99.5t-147 -37.5q-69 0 -120.5 28.5zM433 290
q3 76 -33 120.5t-105 44.5q-64 0 -114.5 -46t-66.5 -119h319zM304 623l129 145l28 -24l-129 -145z" />
    <glyph glyph-name="ecircumflex" unicode="&#xea;" horiz-adv-x="545" 
d="M133.5 10.5q-51.5 28.5 -79.5 79.5t-28 118q0 84 36 156.5t100 115.5t143 43q94 0 149.5 -59.5t55.5 -156.5q0 -18 -2.5 -42.5t-6.5 -39.5h-399q-5 -80 37 -127.5t118 -47.5q58 0 107 28.5t74 73.5l62 -33q-32 -62 -99 -99.5t-147 -37.5q-69 0 -120.5 28.5zM433 290
q3 76 -33 120.5t-105 44.5q-64 0 -114.5 -46t-66.5 -119h319zM170 618l157 130h52l116 -130l-28 -27l-116 129l-156 -129z" />
    <glyph glyph-name="edieresis" unicode="&#xeb;" horiz-adv-x="545" 
d="M133.5 10.5q-51.5 28.5 -79.5 79.5t-28 118q0 84 36 156.5t100 115.5t143 43q94 0 149.5 -59.5t55.5 -156.5q0 -18 -2.5 -42.5t-6.5 -39.5h-399q-5 -80 37 -127.5t118 -47.5q58 0 107 28.5t74 73.5l62 -33q-32 -62 -99 -99.5t-147 -37.5q-69 0 -120.5 28.5zM433 290
q3 76 -33 120.5t-105 44.5q-64 0 -114.5 -46t-66.5 -119h319zM185 617.5q-13 12.5 -13 32.5q0 27 19 45t46 18q23 0 36 -12t13 -32q0 -27 -19.5 -45.5t-46.5 -18.5q-22 0 -35 12.5zM397.5 617q-12.5 12 -12.5 32q0 28 19 46t46 18q22 0 35 -12t13 -32q0 -27 -19.5 -45.5
t-46.5 -18.5q-22 0 -34.5 12z" />
    <glyph glyph-name="igrave" unicode="&#xec;" horiz-adv-x="175" 
d="M87 755l37 12l44 -152l-36 -11zM90 505h75l-80 -505h-75z" />
    <glyph glyph-name="iacute" unicode="&#xed;" horiz-adv-x="175" 
d="M118 615l94 151l31 -16l-94 -150zM90 505h75l-80 -505h-75z" />
    <glyph glyph-name="icircumflex" unicode="&#xee;" horiz-adv-x="175" 
d="M21 613l119 135h52l76 -135l-32 -22l-73 128l-113 -128zM90 505h75l-80 -505h-75z" />
    <glyph glyph-name="idieresis" unicode="&#xef;" horiz-adv-x="176" 
d="M40 616.5q-14 13.5 -14 35.5q0 28 17 44.5t43 16.5q24 0 38 -13t14 -35q0 -28 -17 -45t-43 -17q-24 0 -38 13.5zM179.5 616q-13.5 13 -13.5 36q0 28 17 44.5t43 16.5q24 0 38 -13t14 -35q0 -27 -17 -44.5t-44 -17.5q-24 0 -37.5 13zM90 505h75l-80 -505h-75z" />
    <glyph glyph-name="ntilde" unicode="&#xf1;" 
d="M455 484q40 -39 40 -108q0 -13 -4 -43l-53 -333h-75l52 331q3 17 3 31q0 46 -25.5 71t-72.5 25q-46 0 -86 -21t-67.5 -58t-34.5 -84l-47 -295h-75l80 505h68l-5 -68h1q74 86 189 86q72 0 112 -39zM360 604.5q-16 14.5 -34 42.5q-14 24 -25 36.5t-27 12.5q-23 0 -41.5 -27
t-25.5 -69h-37q9 58 39.5 95.5t71.5 37.5q26 0 42.5 -14.5t31.5 -40.5q16 -28 26 -39.5t26 -11.5q24 0 43 26.5t29 70.5h36q-12 -60 -42 -97t-70 -37q-27 0 -43 14.5z" />
    <glyph glyph-name="ograve" unicode="&#xf2;" horiz-adv-x="567" 
d="M84 40q-59 58 -59 157q0 89 37.5 164t105.5 118.5t154 43.5q102 0 161 -58.5t59 -157.5q0 -89 -37.5 -163.5t-105.5 -118t-154 -43.5q-102 0 -161 58zM361 85q50 35 77.5 93.5t27.5 125.5q0 70 -38.5 110.5t-107.5 40.5q-64 0 -114 -35t-77.5 -93.5t-27.5 -125.5
q0 -71 38.5 -111t107.5 -40q64 0 114 35zM257 744l32 21l83 -146l-32 -20z" />
    <glyph glyph-name="oacute" unicode="&#xf3;" horiz-adv-x="567" 
d="M84 40q-59 58 -59 157q0 89 37.5 164t105.5 118.5t154 43.5q102 0 161 -58.5t59 -157.5q0 -89 -37.5 -163.5t-105.5 -118t-154 -43.5q-102 0 -161 58zM361 85q50 35 77.5 93.5t27.5 125.5q0 70 -38.5 110.5t-107.5 40.5q-64 0 -114 -35t-77.5 -93.5t-27.5 -125.5
q0 -71 38.5 -111t107.5 -40q64 0 114 35zM317 623l129 145l28 -24l-129 -145z" />
    <glyph glyph-name="ocircumflex" unicode="&#xf4;" horiz-adv-x="567" 
d="M84 40q-59 58 -59 157q0 89 37.5 164t105.5 118.5t154 43.5q102 0 161 -58.5t59 -157.5q0 -89 -37.5 -163.5t-105.5 -118t-154 -43.5q-102 0 -161 58zM361 85q50 35 77.5 93.5t27.5 125.5q0 70 -38.5 110.5t-107.5 40.5q-64 0 -114 -35t-77.5 -93.5t-27.5 -125.5
q0 -71 38.5 -111t107.5 -40q64 0 114 35zM182 618l157 130h52l116 -130l-28 -27l-116 129l-156 -129z" />
    <glyph glyph-name="otilde" unicode="&#xf5;" horiz-adv-x="567" 
d="M84 40q-59 58 -59 157q0 89 37.5 164t105.5 118.5t154 43.5q102 0 161 -58.5t59 -157.5q0 -89 -37.5 -163.5t-105.5 -118t-154 -43.5q-102 0 -161 58zM361 85q50 35 77.5 93.5t27.5 125.5q0 70 -38.5 110.5t-107.5 40.5q-64 0 -114 -35t-77.5 -93.5t-27.5 -125.5
q0 -71 38.5 -111t107.5 -40q64 0 114 35zM367 604.5q-16 14.5 -34 42.5q-14 24 -25 36.5t-27 12.5q-23 0 -41.5 -27t-25.5 -69h-37q9 58 39.5 95.5t71.5 37.5q26 0 42.5 -14.5t31.5 -40.5q16 -28 26 -39.5t26 -11.5q24 0 43 26.5t29 70.5h36q-12 -60 -42 -97t-70 -37
q-27 0 -43 14.5z" />
    <glyph glyph-name="odieresis" unicode="&#xf6;" horiz-adv-x="567" 
d="M84 40q-59 58 -59 157q0 89 37.5 164t105.5 118.5t154 43.5q102 0 161 -58.5t59 -157.5q0 -89 -37.5 -163.5t-105.5 -118t-154 -43.5q-102 0 -161 58zM361 85q50 35 77.5 93.5t27.5 125.5q0 70 -38.5 110.5t-107.5 40.5q-64 0 -114 -35t-77.5 -93.5t-27.5 -125.5
q0 -71 38.5 -111t107.5 -40q64 0 114 35zM198 617.5q-13 12.5 -13 32.5q0 27 19 45t46 18q23 0 36 -12t13 -32q0 -27 -19.5 -45.5t-46.5 -18.5q-22 0 -35 12.5zM410.5 617q-12.5 12 -12.5 32q0 28 19 46t46 18q22 0 35 -12t13 -32q0 -27 -19.5 -45.5t-46.5 -18.5
q-22 0 -34.5 12z" />
    <glyph glyph-name="divide" unicode="&#xf7;" horiz-adv-x="519" 
d="M264 504.5q-14 13.5 -14 36.5q0 26 17.5 43t42.5 17q24 0 38.5 -13.5t14.5 -36.5l-1 -10q-5 -23 -21 -36.5t-39 -13.5q-24 0 -38 13.5zM70 378h419l-6 -37h-419zM205 133.5q-14 13.5 -14 36.5q0 26 17.5 43t43.5 17q23 0 37 -13.5t14 -34.5q0 -8 -1 -12q-3 -22 -20 -36
t-40 -14t-37 13.5z" />
    <glyph glyph-name="oslash" unicode="&#xf8;" horiz-adv-x="566" 
d="M501 443q40 -55 40 -138q0 -24 -5 -57q-13 -80 -53.5 -140.5t-102 -93t-136.5 -32.5q-13 0 -20 1l-68 -223l-36 11l66 217q-76 15 -118.5 70.5t-42.5 140.5q0 25 5 58q13 80 53 140.5t101.5 93t136.5 32.5q19 0 28 -1l60 195l37 -12l-58 -190q73 -17 113 -72zM100 203
q0 -60 28 -99.5t78 -49.5l123 401h-10q-83 0 -141.5 -56.5t-73.5 -150.5q-4 -32 -4 -45zM466 302q0 57 -26 95t-73 52l-122 -399h1q83 0 142 56.5t74 150.5q4 32 4 45z" />
    <glyph glyph-name="ugrave" unicode="&#xf9;" 
d="M68 21q-40 39 -40 108q0 13 4 43l53 333h75l-52 -331q-3 -16 -3 -31q0 -46 25.5 -71t72.5 -25q46 0 86 21t67.5 58t34.5 84l47 295h75l-80 -505h-68l5 68h-1q-74 -86 -189 -86q-72 0 -112 39zM229 744l32 21l83 -146l-32 -20z" />
    <glyph glyph-name="uacute" unicode="&#xfa;" 
d="M68 21q-40 39 -40 108q0 13 4 43l53 333h75l-52 -331q-3 -16 -3 -31q0 -46 25.5 -71t72.5 -25q46 0 86 21t67.5 58t34.5 84l47 295h75l-80 -505h-68l5 68h-1q-74 -86 -189 -86q-72 0 -112 39zM289 623l129 145l28 -24l-129 -145z" />
    <glyph glyph-name="ucircumflex" unicode="&#xfb;" 
d="M68 21q-40 39 -40 108q0 13 4 43l53 333h75l-52 -331q-3 -16 -3 -31q0 -46 25.5 -71t72.5 -25q46 0 86 21t67.5 58t34.5 84l47 295h75l-80 -505h-68l5 68h-1q-74 -86 -189 -86q-72 0 -112 39zM154 618l157 130h52l116 -130l-28 -27l-116 129l-156 -129z" />
    <glyph glyph-name="udieresis" unicode="&#xfc;" 
d="M68 21q-40 39 -40 108q0 13 4 43l53 333h75l-52 -331q-3 -16 -3 -31q0 -46 25.5 -71t72.5 -25q46 0 86 21t67.5 58t34.5 84l47 295h75l-80 -505h-68l5 68h-1q-74 -86 -189 -86q-72 0 -112 39zM170 617.5q-13 12.5 -13 32.5q0 27 19 45t46 18q23 0 36 -12t13 -32
q0 -27 -19.5 -45.5t-46.5 -18.5q-22 0 -35 12.5zM382.5 617q-12.5 12 -12.5 32q0 28 19 46t46 18q22 0 35 -12t13 -32q0 -27 -19.5 -45.5t-46.5 -18.5q-22 0 -34.5 12z" />
    <glyph glyph-name="yacute" unicode="&#xfd;" 
d="M9.5 -191.5q-59.5 36.5 -77.5 99.5l69 39q14 -51 55 -79t101 -28q81 0 134.5 44.5t67.5 122.5l6 39h-1q-29 -40 -74.5 -62t-93.5 -22q-79 0 -123.5 46t-44.5 122q0 21 3 42l53 333h75l-53 -338q-3 -16 -3 -31q0 -49 27 -77.5t77 -28.5q42 0 80.5 20t65 55t33.5 79l51 321
h75l-79 -503q-17 -109 -90.5 -169.5t-184.5 -60.5q-89 0 -148.5 36.5zM293 623l129 145l28 -24l-129 -145z" />
    <glyph glyph-name="ydieresis" unicode="&#xff;" 
d="M9.5 -191.5q-59.5 36.5 -77.5 99.5l69 39q14 -51 55 -79t101 -28q81 0 134.5 44.5t67.5 122.5l6 39h-1q-29 -40 -74.5 -62t-93.5 -22q-79 0 -123.5 46t-44.5 122q0 21 3 42l53 333h75l-53 -338q-3 -16 -3 -31q0 -49 27 -77.5t77 -28.5q42 0 80.5 20t65 55t33.5 79l51 321
h75l-79 -503q-17 -109 -90.5 -169.5t-184.5 -60.5q-89 0 -148.5 36.5zM175 617.5q-13 12.5 -13 32.5q0 27 19 45t46 18q23 0 36 -12t13 -32q0 -27 -19.5 -45.5t-46.5 -18.5q-22 0 -35 12.5zM387.5 617q-12.5 12 -12.5 32q0 28 19 46t46 18q22 0 35 -12t13 -32
q0 -27 -19.5 -45.5t-46.5 -18.5q-22 0 -34.5 12z" />
    <glyph glyph-name="Amacron" unicode="&#x100;" horiz-adv-x="634" 
d="M339 705h100l145 -705h-86l-33 170h-319l-87 -170h-90zM453 242l-74 383h-2l-197 -383h273zM267 835h285l-6 -37h-285z" />
    <glyph glyph-name="amacron" unicode="&#x101;" horiz-adv-x="577" 
d="M122.5 9.5q-46.5 27.5 -71.5 77t-25 113.5q0 85 37 159.5t101.5 119t143.5 44.5q59 0 102 -26.5t65 -74.5h1l23 83h68l-80 -505h-66l7 82h-1q-37 -47 -88 -73.5t-108 -26.5q-62 0 -108.5 27.5zM352.5 86q49.5 36 77.5 94t28 120q0 68 -38.5 111t-103.5 43
q-60 0 -109.5 -36t-78 -93.5t-28.5 -119.5q0 -69 39 -112t104 -43q60 0 109.5 36zM198 635h285l-6 -37h-285z" />
    <glyph glyph-name="Abreve" unicode="&#x102;" horiz-adv-x="634" 
d="M339 705h100l145 -705h-86l-33 170h-319l-87 -170h-90zM453 242l-74 383h-2l-197 -383h273zM320.5 819q-30.5 29 -30.5 76q0 7 2 23h36q-1 -6 -1 -17q0 -33 21.5 -53.5t57.5 -20.5q40 0 70.5 26t37.5 65h39q-9 -56 -51.5 -92t-99.5 -36q-51 0 -81.5 29z" />
    <glyph glyph-name="abreve" unicode="&#x103;" horiz-adv-x="577" 
d="M122.5 9.5q-46.5 27.5 -71.5 77t-25 113.5q0 85 37 159.5t101.5 119t143.5 44.5q59 0 102 -26.5t65 -74.5h1l23 83h68l-80 -505h-66l7 82h-1q-37 -47 -88 -73.5t-108 -26.5q-62 0 -108.5 27.5zM352.5 86q49.5 36 77.5 94t28 120q0 68 -38.5 111t-103.5 43
q-60 0 -109.5 -36t-78 -93.5t-28.5 -119.5q0 -69 39 -112t104 -43q60 0 109.5 36zM237.5 627q-35.5 35 -35.5 92q0 19 2 29h37q-2 -16 -2 -22q0 -43 27 -70t71 -27q52 0 90.5 33.5t46.5 85.5h39q-11 -68 -61.5 -112t-118.5 -44q-60 0 -95.5 35z" />
    <glyph glyph-name="Aogonek" unicode="&#x104;" horiz-adv-x="634" 
d="M441 -64.5q-43 -28.5 -43 -69.5q0 -17 10.5 -26.5t29.5 -9.5q16 0 36.5 12t38.5 31l22 -26q-22 -24 -51 -38t-54 -14q-33 0 -52 18t-19 47q0 45 35.5 78.5t103.5 62.5l-33 169h-319l-87 -170h-90l370 705h100l145 -705h-4q-96 -36 -139 -64.5zM453 242l-74 383h-2
l-197 -383h273z" />
    <glyph glyph-name="aogonek" unicode="&#x105;" horiz-adv-x="577" 
d="M348 -64.5q-43 -28.5 -43 -69.5q0 -17 10.5 -26.5t29.5 -9.5q16 0 36.5 12t38.5 31l22 -26q-22 -24 -51 -38t-54 -14q-33 0 -52 18t-19 47q0 48 39 82.5t117 65.5l6 74h-1q-37 -47 -88 -73.5t-108 -26.5q-62 0 -108.5 27.5t-71.5 77t-25 113.5q0 85 37 159.5t101.5 119
t143.5 44.5q59 0 102 -26.5t65 -74.5h1l23 83h68l-80 -505q-96 -36 -139 -64.5zM352.5 86q49.5 36 77.5 94t28 120q0 68 -38.5 111t-103.5 43q-60 0 -109.5 -36t-78 -93.5t-28.5 -119.5q0 -69 39 -112t104 -43q60 0 109.5 36z" />
    <glyph glyph-name="Cacute" unicode="&#x106;" horiz-adv-x="730" 
d="M188 15q-68 38 -105 107.5t-37 160.5q0 114 48.5 216.5t135.5 165.5t196 63q114 0 185 -66t83 -176l-80 -13q-8 85 -57.5 133.5t-134.5 48.5t-152 -53t-104 -138t-37 -175q0 -110 59.5 -174.5t161.5 -64.5q63 0 121.5 30.5t102 84t62.5 119.5l75 -25q-24 -81 -79 -145.5
t-129.5 -100.5t-155.5 -36q-91 0 -159 38zM428 801l108 125l27 -22l-109 -125z" />
    <glyph glyph-name="cacute" unicode="&#x107;" horiz-adv-x="540" 
d="M85 42q-59 60 -59 160q0 83 36 157t99.5 119t141.5 45q86 0 136.5 -49t55.5 -128l-73 -12q-6 57 -38 89t-84 32q-56 0 -101.5 -36t-71 -93.5t-25.5 -117.5q0 -74 40 -116.5t108 -42.5q62 0 115.5 42.5t72.5 107.5l70 -20q-17 -57 -57 -102t-94 -70t-113 -25
q-100 0 -159 60zM297 623l129 145l28 -24l-129 -145z" />
    <glyph glyph-name="Ccircumflex" unicode="&#x108;" horiz-adv-x="730" 
d="M188 15q-68 38 -105 107.5t-37 160.5q0 114 48.5 216.5t135.5 165.5t196 63q114 0 185 -66t83 -176l-80 -13q-8 85 -57.5 133.5t-134.5 48.5t-152 -53t-104 -138t-37 -175q0 -110 59.5 -174.5t161.5 -64.5q63 0 121.5 30.5t102 84t62.5 119.5l75 -25q-24 -81 -79 -145.5
t-129.5 -100.5t-155.5 -36q-91 0 -159 38zM307 808l133 110h53l97 -110l-28 -27l-98 109l-133 -109z" />
    <glyph glyph-name="ccircumflex" unicode="&#x109;" horiz-adv-x="540" 
d="M85 42q-59 60 -59 160q0 83 36 157t99.5 119t141.5 45q86 0 136.5 -49t55.5 -128l-73 -12q-6 57 -38 89t-84 32q-56 0 -101.5 -36t-71 -93.5t-25.5 -117.5q0 -74 40 -116.5t108 -42.5q62 0 115.5 42.5t72.5 107.5l70 -20q-17 -57 -57 -102t-94 -70t-113 -25
q-100 0 -159 60zM163 618l157 130h52l116 -130l-28 -27l-116 129l-156 -129z" />
    <glyph glyph-name="Cdotaccent" unicode="&#x10a;" horiz-adv-x="730" 
d="M188 15q-68 38 -105 107.5t-37 160.5q0 114 48.5 216.5t135.5 165.5t196 63q114 0 185 -66t83 -176l-80 -13q-8 85 -57.5 133.5t-134.5 48.5t-152 -53t-104 -138t-37 -175q0 -110 59.5 -174.5t161.5 -64.5q63 0 121.5 30.5t102 84t62.5 119.5l75 -25q-24 -81 -79 -145.5
t-129.5 -100.5t-155.5 -36q-91 0 -159 38zM416 816q-13 13 -13 33q0 28 18.5 46t45.5 18q22 0 35.5 -12.5t13.5 -32.5q0 -28 -19.5 -46.5t-46.5 -18.5q-21 0 -34 13z" />
    <glyph glyph-name="cdotaccent" unicode="&#x10b;" horiz-adv-x="540" 
d="M85 42q-59 60 -59 160q0 83 36 157t99.5 119t141.5 45q86 0 136.5 -49t55.5 -128l-73 -12q-6 57 -38 89t-84 32q-56 0 -101.5 -36t-71 -93.5t-25.5 -117.5q0 -74 40 -116.5t108 -42.5q62 0 115.5 42.5t72.5 107.5l70 -20q-17 -57 -57 -102t-94 -70t-113 -25
q-100 0 -159 60zM285 615.5q-13 12.5 -13 32.5q0 28 19 46.5t46 18.5q22 0 35 -12.5t13 -32.5q0 -28 -19 -46.5t-46 -18.5q-22 0 -35 12.5z" />
    <glyph glyph-name="Ccaron" unicode="&#x10c;" horiz-adv-x="730" 
d="M188 15q-68 38 -105 107.5t-37 160.5q0 114 48.5 216.5t135.5 165.5t196 63q114 0 185 -66t83 -176l-80 -13q-8 85 -57.5 133.5t-134.5 48.5t-152 -53t-104 -138t-37 -175q0 -110 59.5 -174.5t161.5 -64.5q63 0 121.5 30.5t102 84t62.5 119.5l75 -25q-24 -81 -79 -145.5
t-129.5 -100.5t-155.5 -36q-91 0 -159 38zM321 900l29 27l98 -109l133 109l24 -27l-133 -110h-52z" />
    <glyph glyph-name="ccaron" unicode="&#x10d;" horiz-adv-x="540" 
d="M85 42q-59 60 -59 160q0 83 36 157t99.5 119t141.5 45q86 0 136.5 -49t55.5 -128l-73 -12q-6 57 -38 89t-84 32q-56 0 -101.5 -36t-71 -93.5t-25.5 -117.5q0 -74 40 -116.5t108 -42.5q62 0 115.5 42.5t72.5 107.5l70 -20q-17 -57 -57 -102t-94 -70t-113 -25
q-100 0 -159 60zM178 732l28 27l116 -129l157 129l24 -27l-157 -130h-53z" />
    <glyph glyph-name="Dcaron" unicode="&#x10e;" horiz-adv-x="690" 
d="M132 705h208q163 0 248.5 -76t85.5 -217q0 -196 -114 -304t-328 -108h-212zM240 73q170 0 261.5 88.5t91.5 247.5q0 107 -66.5 165.5t-192.5 58.5h-131l-89 -560h126zM283 900l29 27l98 -109l133 109l24 -27l-133 -110h-52z" />
    <glyph glyph-name="dcaron" unicode="&#x10f;" horiz-adv-x="577" 
d="M122.5 9.5q-46.5 27.5 -72 76.5t-25.5 114q0 85 37 159.5t102 119t143 44.5q60 0 103 -26.5t66 -74.5h1l50 313h76l-116 -735h-66l7 82h-1q-38 -48 -88.5 -74t-107.5 -26q-62 0 -108.5 27.5zM351.5 85.5q49.5 35.5 78 93t28.5 118.5q0 70 -38.5 113.5t-104.5 43.5
q-59 0 -108.5 -36t-78 -93.5t-28.5 -119.5q0 -69 39 -112t104 -43q59 0 108.5 35.5zM632 588q15 -3 26 -3q24 0 36.5 13t13.5 37q-9 -3 -17 -3q-18 0 -31 13t-13 31q0 19 14 32.5t34 13.5q23 0 37 -17.5t14 -48.5q0 -51 -24.5 -77t-65.5 -26q-14 0 -29 3z" />
    <glyph glyph-name="Dcroat" unicode="&#x110;" horiz-adv-x="731" 
d="M629.5 629q85.5 -76 85.5 -217q0 -196 -114 -304t-328 -108h-212l61 386h-124l4 37h126l45 282h208q163 0 248.5 -76zM542.5 161.5q91.5 88.5 91.5 247.5q0 107 -66.5 165.5t-192.5 58.5h-131l-33 -210h175l-3 -37h-178l-50 -313h126q170 0 261.5 88.5z" />
    <glyph glyph-name="dcroat" unicode="&#x111;" horiz-adv-x="587" 
d="M675 604h-93l-95 -604h-66l7 82h-1q-38 -48 -88.5 -74t-107.5 -26q-62 0 -108.5 27.5t-72 76.5t-25.5 114q0 85 37 159.5t102 119t143 44.5q60 0 103 -26.5t66 -74.5h1l29 182h-198l4 37h200l15 94h76l-15 -94h91zM351.5 85.5q49.5 35.5 78 93t28.5 118.5
q0 70 -38.5 113.5t-104.5 43.5q-59 0 -108.5 -36t-78 -93.5t-28.5 -119.5q0 -69 39 -112t104 -43q59 0 108.5 35.5z" />
    <glyph glyph-name="Emacron" unicode="&#x112;" horiz-adv-x="546" 
d="M132 705h450l-11 -73h-371l-37 -233h331l-11 -70h-331l-40 -256h380l-11 -73h-461zM246 835h285l-6 -37h-285z" />
    <glyph glyph-name="emacron" unicode="&#x113;" horiz-adv-x="545" 
d="M133.5 10.5q-51.5 28.5 -79.5 79.5t-28 118q0 84 36 156.5t100 115.5t143 43q94 0 149.5 -59.5t55.5 -156.5q0 -18 -2.5 -42.5t-6.5 -39.5h-399q-5 -80 37 -127.5t118 -47.5q58 0 107 28.5t74 73.5l62 -33q-32 -62 -99 -99.5t-147 -37.5q-69 0 -120.5 28.5zM433 290
q3 76 -33 120.5t-105 44.5q-64 0 -114.5 -46t-66.5 -119h319zM190 635h285l-6 -37h-285z" />
    <glyph glyph-name="Ebreve" unicode="&#x114;" horiz-adv-x="546" 
d="M132 705h450l-11 -73h-371l-37 -233h331l-11 -70h-331l-40 -256h380l-11 -73h-461zM299.5 819q-30.5 29 -30.5 76q0 7 2 23h36q-1 -6 -1 -17q0 -33 21.5 -53.5t57.5 -20.5q40 0 70.5 26t37.5 65h39q-9 -56 -51.5 -92t-99.5 -36q-51 0 -81.5 29z" />
    <glyph glyph-name="ebreve" unicode="&#x115;" horiz-adv-x="545" 
d="M133.5 10.5q-51.5 28.5 -79.5 79.5t-28 118q0 84 36 156.5t100 115.5t143 43q94 0 149.5 -59.5t55.5 -156.5q0 -18 -2.5 -42.5t-6.5 -39.5h-399q-5 -80 37 -127.5t118 -47.5q58 0 107 28.5t74 73.5l62 -33q-32 -62 -99 -99.5t-147 -37.5q-69 0 -120.5 28.5zM433 290
q3 76 -33 120.5t-105 44.5q-64 0 -114.5 -46t-66.5 -119h319zM229.5 627q-35.5 35 -35.5 92q0 19 2 29h37q-2 -16 -2 -22q0 -43 27 -70t71 -27q52 0 90.5 33.5t46.5 85.5h39q-11 -68 -61.5 -112t-118.5 -44q-60 0 -95.5 35z" />
    <glyph glyph-name="Edotaccent" unicode="&#x116;" horiz-adv-x="546" 
d="M132 705h450l-11 -73h-371l-37 -233h331l-11 -70h-331l-40 -256h380l-11 -73h-461zM350 816q-13 13 -13 33q0 28 18.5 46t45.5 18q22 0 35.5 -12.5t13.5 -32.5q0 -28 -19.5 -46.5t-46.5 -18.5q-21 0 -34 13z" />
    <glyph glyph-name="edotaccent" unicode="&#x117;" horiz-adv-x="545" 
d="M133.5 10.5q-51.5 28.5 -79.5 79.5t-28 118q0 84 36 156.5t100 115.5t143 43q94 0 149.5 -59.5t55.5 -156.5q0 -18 -2.5 -42.5t-6.5 -39.5h-399q-5 -80 37 -127.5t118 -47.5q58 0 107 28.5t74 73.5l62 -33q-32 -62 -99 -99.5t-147 -37.5q-69 0 -120.5 28.5zM433 290
q3 76 -33 120.5t-105 44.5q-64 0 -114.5 -46t-66.5 -119h319zM292 615.5q-13 12.5 -13 32.5q0 28 19 46.5t46 18.5q22 0 35 -12.5t13 -32.5q0 -28 -19 -46.5t-46 -18.5q-22 0 -35 12.5z" />
    <glyph glyph-name="Eogonek" unicode="&#x118;" horiz-adv-x="546" 
d="M200 632l-37 -233h331l-11 -70h-331l-40 -256h380l-11 -73q-96 -36 -139 -64.5t-43 -69.5q0 -17 10.5 -26.5t29.5 -9.5q16 0 36.5 12t38.5 31l22 -26q-22 -24 -51 -38t-54 -14q-33 0 -52 18t-19 47q0 44 34.5 77.5t101.5 62.5h-376l112 705h450l-11 -73h-371z" />
    <glyph glyph-name="eogonek" unicode="&#x119;" horiz-adv-x="545" 
d="M102 225q-5 -80 37 -127.5t118 -47.5q58 0 107 28.5t74 73.5l62 -33q-24 -45 -67 -78t-97 -48q-80 -31 -118.5 -57t-44.5 -62q-3 -20 7.5 -32t31.5 -12q16 0 36.5 12t38.5 31l22 -26q-22 -24 -51 -38t-54 -14q-33 0 -52 18t-19 47q0 38 25.5 67.5t74.5 55.5
q-95 7 -151 68t-56 157q0 84 36 156.5t100 115.5t143 43q94 0 149.5 -59.5t55.5 -156.5q0 -18 -2.5 -42.5t-6.5 -39.5h-399zM180.5 409q-50.5 -46 -66.5 -119h319q3 76 -33 120.5t-105 44.5q-64 0 -114.5 -46z" />
    <glyph glyph-name="Ecaron" unicode="&#x11a;" horiz-adv-x="546" 
d="M132 705h450l-11 -73h-371l-37 -233h331l-11 -70h-331l-40 -256h380l-11 -73h-461zM255 900l29 27l98 -109l133 109l24 -27l-133 -110h-52z" />
    <glyph glyph-name="ecaron" unicode="&#x11b;" horiz-adv-x="545" 
d="M133.5 10.5q-51.5 28.5 -79.5 79.5t-28 118q0 84 36 156.5t100 115.5t143 43q94 0 149.5 -59.5t55.5 -156.5q0 -18 -2.5 -42.5t-6.5 -39.5h-399q-5 -80 37 -127.5t118 -47.5q58 0 107 28.5t74 73.5l62 -33q-32 -62 -99 -99.5t-147 -37.5q-69 0 -120.5 28.5zM433 290
q3 76 -33 120.5t-105 44.5q-64 0 -114.5 -46t-66.5 -119h319zM185 732l28 27l116 -129l157 129l24 -27l-157 -130h-53z" />
    <glyph glyph-name="Gcircumflex" unicode="&#x11c;" horiz-adv-x="770" 
d="M184 15q-67 38 -103 106.5t-36 158.5q0 118 52.5 221t144 165t204.5 62q67 0 122 -27.5t90.5 -76t44.5 -109.5l-78 -19q-11 71 -61.5 115t-122.5 44q-88 0 -160 -53t-112.5 -138.5t-40.5 -179.5q0 -70 27 -123t77.5 -82t119.5 -29q73 0 138.5 35t110 96t56.5 137l-383 -2
l12 73h466l-62 -389h-69l13 130h-1q-55 -73 -131 -113t-162 -40q-89 0 -156 38zM319 808l133 110h53l97 -110l-28 -27l-98 109l-133 -109z" />
    <glyph glyph-name="gcircumflex" unicode="&#x11d;" horiz-adv-x="572" 
d="M28 -190.5q-68 37.5 -91 98.5l64 45q19 -51 68.5 -82t112.5 -31q89 0 152.5 53.5t78.5 142.5l10 55h-1q-35 -44 -87.5 -70.5t-102.5 -26.5q-94 0 -149 57t-55 153q0 85 35.5 158t99 116.5t143.5 43.5q53 0 98.5 -27.5t67.5 -71.5h1l22 82h67l-75 -474q-12 -79 -54 -137.5
t-106.5 -90t-143.5 -31.5q-87 0 -155 37.5zM350.5 95.5q48.5 34.5 76 90.5t27.5 117q0 68 -37.5 110t-101.5 42q-60 0 -108.5 -35t-76 -92t-27.5 -120q0 -67 38 -107t102 -40q59 0 107.5 34.5zM175 618l157 130h52l116 -130l-28 -27l-116 129l-156 -129z" />
    <glyph glyph-name="Gbreve" unicode="&#x11e;" horiz-adv-x="770" 
d="M184 15q-67 38 -103 106.5t-36 158.5q0 118 52.5 221t144 165t204.5 62q67 0 122 -27.5t90.5 -76t44.5 -109.5l-78 -19q-11 71 -61.5 115t-122.5 44q-88 0 -160 -53t-112.5 -138.5t-40.5 -179.5q0 -70 27 -123t77.5 -82t119.5 -29q73 0 138.5 35t110 96t56.5 137l-383 -2
l12 73h466l-62 -389h-69l13 130h-1q-55 -73 -131 -113t-162 -40q-89 0 -156 38zM376.5 819q-30.5 29 -30.5 76q0 7 2 23h36q-1 -6 -1 -17q0 -33 21.5 -53.5t57.5 -20.5q40 0 70.5 26t37.5 65h39q-9 -56 -51.5 -92t-99.5 -36q-51 0 -81.5 29z" />
    <glyph glyph-name="gbreve" unicode="&#x11f;" horiz-adv-x="572" 
d="M28 -190.5q-68 37.5 -91 98.5l64 45q19 -51 68.5 -82t112.5 -31q89 0 152.5 53.5t78.5 142.5l10 55h-1q-35 -44 -87.5 -70.5t-102.5 -26.5q-94 0 -149 57t-55 153q0 85 35.5 158t99 116.5t143.5 43.5q53 0 98.5 -27.5t67.5 -71.5h1l22 82h67l-75 -474q-12 -79 -54 -137.5
t-106.5 -90t-143.5 -31.5q-87 0 -155 37.5zM350.5 95.5q48.5 34.5 76 90.5t27.5 117q0 68 -37.5 110t-101.5 42q-60 0 -108.5 -35t-76 -92t-27.5 -120q0 -67 38 -107t102 -40q59 0 107.5 34.5zM234.5 627q-35.5 35 -35.5 92q0 19 2 29h37q-2 -16 -2 -22q0 -43 27 -70t71 -27
q52 0 90.5 33.5t46.5 85.5h39q-11 -68 -61.5 -112t-118.5 -44q-60 0 -95.5 35z" />
    <glyph glyph-name="Gdotaccent" unicode="&#x120;" horiz-adv-x="770" 
d="M184 15q-67 38 -103 106.5t-36 158.5q0 118 52.5 221t144 165t204.5 62q67 0 122 -27.5t90.5 -76t44.5 -109.5l-78 -19q-11 71 -61.5 115t-122.5 44q-88 0 -160 -53t-112.5 -138.5t-40.5 -179.5q0 -70 27 -123t77.5 -82t119.5 -29q73 0 138.5 35t110 96t56.5 137l-383 -2
l12 73h466l-62 -389h-69l13 130h-1q-55 -73 -131 -113t-162 -40q-89 0 -156 38zM428 816q-13 13 -13 33q0 28 18.5 46t45.5 18q22 0 35.5 -12.5t13.5 -32.5q0 -28 -19.5 -46.5t-46.5 -18.5q-21 0 -34 13z" />
    <glyph glyph-name="gdotaccent" unicode="&#x121;" horiz-adv-x="572" 
d="M28 -190.5q-68 37.5 -91 98.5l64 45q19 -51 68.5 -82t112.5 -31q89 0 152.5 53.5t78.5 142.5l10 55h-1q-35 -44 -87.5 -70.5t-102.5 -26.5q-94 0 -149 57t-55 153q0 85 35.5 158t99 116.5t143.5 43.5q53 0 98.5 -27.5t67.5 -71.5h1l22 82h67l-75 -474q-12 -79 -54 -137.5
t-106.5 -90t-143.5 -31.5q-87 0 -155 37.5zM350.5 95.5q48.5 34.5 76 90.5t27.5 117q0 68 -37.5 110t-101.5 42q-60 0 -108.5 -35t-76 -92t-27.5 -120q0 -67 38 -107t102 -40q59 0 107.5 34.5zM297 615.5q-13 12.5 -13 32.5q0 28 19 46.5t46 18.5q22 0 35 -12.5t13 -32.5
q0 -28 -19 -46.5t-46 -18.5q-22 0 -35 12.5z" />
    <glyph glyph-name="uni0122" unicode="&#x122;" horiz-adv-x="770" 
d="M184 15q-67 38 -103 106.5t-36 158.5q0 118 52.5 221t144 165t204.5 62q67 0 122 -27.5t90.5 -76t44.5 -109.5l-78 -19q-11 71 -61.5 115t-122.5 44q-88 0 -160 -53t-112.5 -138.5t-40.5 -179.5q0 -70 27 -123t77.5 -82t119.5 -29q73 0 138.5 35t110 96t56.5 137l-383 -2
l12 73h466l-62 -389h-69l13 130h-1q-55 -73 -131 -113t-162 -40q-89 0 -156 38zM259 -209q15 -3 26 -3q24 0 36.5 13t13.5 37q-9 -3 -17 -3q-18 0 -31 13t-13 31q0 19 14 32.5t34 13.5q23 0 37 -17.5t14 -48.5q0 -51 -24.5 -77t-65.5 -26q-14 0 -29 3z" />
    <glyph glyph-name="uni0123" unicode="&#x123;" horiz-adv-x="572" 
d="M399 714q-15 3 -26 3q-24 0 -36.5 -13t-13.5 -37q9 3 17 3q18 0 31 -13t13 -31q0 -19 -14 -32.5t-34 -13.5q-23 0 -37 17.5t-14 48.5q0 51 24.5 77t65.5 26q14 0 29 -3zM28 -190.5q-68 37.5 -91 98.5l64 45q19 -51 68.5 -82t112.5 -31q89 0 152.5 53.5t78.5 142.5l10 55
h-1q-35 -44 -87.5 -70.5t-102.5 -26.5q-94 0 -149 57t-55 153q0 85 35.5 158t99 116.5t143.5 43.5q53 0 98.5 -27.5t67.5 -71.5h1l22 82h67l-75 -474q-12 -79 -54 -137.5t-106.5 -90t-143.5 -31.5q-87 0 -155 37.5zM350.5 95.5q48.5 34.5 76 90.5t27.5 117q0 68 -37.5 110
t-101.5 42q-60 0 -108.5 -35t-76 -92t-27.5 -120q0 -67 38 -107t102 -40q59 0 107.5 34.5z" />
    <glyph glyph-name="Itilde" unicode="&#x128;" horiz-adv-x="202" 
d="M204 797q-14 17 -25 45q-9 23 -15.5 33.5t-16.5 10.5q-16 0 -30.5 -27t-21.5 -69h-37q9 60 33.5 96.5t58.5 36.5q24 0 38 -17t26 -46q9 -23 15 -33t16 -10q16 0 30.5 27.5t21.5 69.5h37q-9 -61 -33 -97.5t-59 -36.5q-24 0 -38 17zM132 705h82l-112 -705h-82z" />
    <glyph glyph-name="itilde" unicode="&#x129;" horiz-adv-x="175" 
d="M140 643q-2 5 -8.5 21t-13 24t-14.5 8q-16 0 -30.5 -27t-21.5 -69h-37q9 59 34.5 96t59.5 37q23 0 36.5 -16t23.5 -43q9 -24 15.5 -35.5t17.5 -11.5q17 0 30.5 27t20.5 70h37q-9 -60 -33.5 -97t-58.5 -37q-38 0 -58 53zM90 505h75l-80 -505h-75z" />
    <glyph glyph-name="Imacron" unicode="&#x12a;" horiz-adv-x="202" 
d="M105 833h176l-6 -37h-175zM132 705h82l-112 -705h-82z" />
    <glyph glyph-name="imacron" unicode="&#x12b;" horiz-adv-x="175" 
d="M63 635h170l-6 -37h-169zM90 505h75l-80 -505h-75z" />
    <glyph glyph-name="Iogonek" unicode="&#x12e;" horiz-adv-x="202" 
d="M-36 -64.5q-43 -28.5 -43 -69.5q0 -17 10.5 -26.5t29.5 -9.5q16 0 36.5 12t38.5 31l22 -26q-22 -24 -51 -38t-54 -14q-33 0 -52 18t-19 47q0 44 35 77t103 64l112 704h82l-112 -703l1 -2q-96 -36 -139 -64.5z" />
    <glyph glyph-name="iogonek" unicode="&#x12f;" horiz-adv-x="175" 
d="M201 700q14 -13 14 -35q0 -28 -17 -45t-43 -17q-23 0 -37 13.5t-14 35.5q0 27 16.5 44t42.5 17q24 0 38 -13zM97 505h75l-80 -505q-90 -34 -132.5 -61.5t-48.5 -64.5q-2 -20 8 -32t31 -12q17 0 37 12t39 31l21 -26q-22 -24 -51 -38t-54 -14q-33 0 -52 18t-19 47
q0 46 37 80.5t110 64.5z" />
    <glyph glyph-name="Idotaccent" unicode="&#x130;" horiz-adv-x="202" 
d="M132 705h82l-112 -705h-82zM156 816q-13 13 -13 33q0 28 18.5 46t45.5 18q22 0 35.5 -12.5t13.5 -32.5q0 -28 -19.5 -46.5t-46.5 -18.5q-21 0 -34 13z" />
    <glyph glyph-name="dotlessi" unicode="&#x131;" horiz-adv-x="175" 
d="M90 505h75l-80 -505h-75z" />
    <glyph glyph-name="IJ" unicode="&#x132;" horiz-adv-x="680" 
d="M132 705h82l-112 -705h-82zM300.5 4q-42.5 23 -67 63.5t-26.5 91.5l76 25q-1 -57 31.5 -94t82.5 -37q56 0 93 37t49 107l80 508h82l-82 -521q-16 -99 -73.5 -151t-147.5 -52q-55 0 -97.5 23z" />
    <glyph glyph-name="ij" unicode="&#x133;" horiz-adv-x="383" 
d="M118 616.5q-14 13.5 -14 35.5q0 27 16.5 44t42.5 17q24 0 38 -13t14 -35q0 -28 -17 -45t-43 -17q-23 0 -37 13.5zM97 505h75l-80 -505h-75zM309 616.5q-14 13.5 -14 35.5q0 27 17 44t43 17q23 0 37.5 -13.5t14.5 -35.5q0 -26 -17.5 -43.5t-43.5 -17.5q-23 0 -37 13.5z
M34 -214l16 61q22 -9 50 -9q38 0 64.5 24t32.5 64l92 579h75l-94 -591q-10 -67 -53.5 -104.5t-110.5 -37.5q-44 0 -72 14z" />
    <glyph glyph-name="uni0136" unicode="&#x136;" horiz-adv-x="551" 
d="M132 705h82l-53 -325h1l334 325h101l-288 -280l192 -425h-94l-160 366l-100 -96l-45 -270h-82zM164 -209q15 -3 26 -3q24 0 36.5 13t13.5 37q-9 -3 -17 -3q-18 0 -31 13t-13 31q0 19 14 32.5t34 13.5q23 0 37 -17.5t14 -48.5q0 -51 -24.5 -77t-65.5 -26q-14 0 -29 3z" />
    <glyph glyph-name="uni0137" unicode="&#x137;" horiz-adv-x="441" 
d="M126 735h75l-71 -449h1l235 219h100l-214 -197l148 -308h-84l-120 255l-81 -74l-30 -181h-75zM99 -209q15 -3 26 -3q24 0 36.5 13t13.5 37q-9 -3 -17 -3q-18 0 -31 13t-13 31q0 19 14 32.5t34 13.5q23 0 37 -17.5t14 -48.5q0 -51 -24.5 -77t-65.5 -26q-14 0 -29 3z" />
    <glyph glyph-name="Lacute" unicode="&#x139;" horiz-adv-x="483" 
d="M132 705h82l-100 -632h330l-11 -73h-413zM167 801l108 125l27 -22l-109 -125z" />
    <glyph glyph-name="lacute" unicode="&#x13a;" horiz-adv-x="175" 
d="M126 735h75l-116 -735h-75zM154 801l108 125l27 -22l-109 -125z" />
    <glyph glyph-name="uni013B" unicode="&#x13b;" horiz-adv-x="483" 
d="M132 705h82l-100 -632h330l-11 -73h-413zM145 -209q15 -3 26 -3q24 0 36.5 13t13.5 37q-9 -3 -17 -3q-18 0 -31 13t-13 31q0 19 14 32.5t34 13.5q23 0 37 -17.5t14 -48.5q0 -51 -24.5 -77t-65.5 -26q-14 0 -29 3z" />
    <glyph glyph-name="uni013C" unicode="&#x13c;" horiz-adv-x="175" 
d="M126 735h75l-116 -735h-75zM-35 -209q15 -3 26 -3q24 0 36.5 13t13.5 37q-9 -3 -17 -3q-18 0 -31 13t-13 31q0 19 14 32.5t34 13.5q23 0 37 -17.5t14 -48.5q0 -51 -24.5 -77t-65.5 -26q-14 0 -29 3z" />
    <glyph glyph-name="Lcaron" unicode="&#x13d;" horiz-adv-x="483" 
d="M132 705h82l-100 -632h330l-11 -73h-413zM306 588q15 -3 26 -3q24 0 36.5 13t13.5 37q-9 -3 -17 -3q-18 0 -31 13t-13 31q0 19 14 32.5t34 13.5q23 0 37 -17.5t14 -48.5q0 -51 -24.5 -77t-65.5 -26q-14 0 -29 3z" />
    <glyph glyph-name="lcaron" unicode="&#x13e;" horiz-adv-x="175" 
d="M126 735h75l-116 -735h-75zM230 588q15 -3 26 -3q24 0 36.5 13t13.5 37q-9 -3 -17 -3q-18 0 -31 13t-13 31q0 19 14 32.5t34 13.5q23 0 37 -17.5t14 -48.5q0 -51 -24.5 -77t-65.5 -26q-14 0 -29 3z" />
    <glyph glyph-name="Lslash" unicode="&#x141;" horiz-adv-x="550" 
d="M511 73l-11 -73h-413l49 311l-117 -68l-19 33l144 83l55 346h82l-46 -293l208 120l19 -33l-235 -136l-46 -290h330z" />
    <glyph glyph-name="lslash" unicode="&#x142;" horiz-adv-x="372" 
d="M224 396l-62 -396h-76l54 341l-121 -79l-19 33l148 97l54 343h76l-45 -288l119 78l20 -33z" />
    <glyph glyph-name="Nacute" unicode="&#x143;" horiz-adv-x="646" 
d="M132 705h108l237 -599h2l96 599h83l-112 -705h-108l-238 599h-2l-96 -599h-82zM392 801l108 125l27 -22l-109 -125z" />
    <glyph glyph-name="nacute" unicode="&#x144;" 
d="M455 484q40 -39 40 -108q0 -13 -4 -43l-53 -333h-75l52 331q3 17 3 31q0 46 -25.5 71t-72.5 25q-46 0 -86 -21t-67.5 -58t-34.5 -84l-47 -295h-75l80 505h68l-5 -68h1q74 86 189 86q72 0 112 -39zM309 623l129 145l28 -24l-129 -145z" />
    <glyph glyph-name="uni0145" unicode="&#x145;" horiz-adv-x="646" 
d="M132 705h108l237 -599h2l96 599h83l-112 -705h-108l-238 599h-2l-96 -599h-82zM203 -209q15 -3 26 -3q24 0 36.5 13t13.5 37q-9 -3 -17 -3q-18 0 -31 13t-13 31q0 19 14 32.5t34 13.5q23 0 37 -17.5t14 -48.5q0 -51 -24.5 -77t-65.5 -26q-14 0 -29 3z" />
    <glyph glyph-name="uni0146" unicode="&#x146;" 
d="M455 484q40 -39 40 -108q0 -13 -4 -43l-53 -333h-75l52 331q3 17 3 31q0 46 -25.5 71t-72.5 25q-46 0 -86 -21t-67.5 -58t-34.5 -84l-47 -295h-75l80 505h68l-5 -68h1q74 86 189 86q72 0 112 -39zM143 -209q15 -3 26 -3q24 0 36.5 13t13.5 37q-9 -3 -17 -3q-18 0 -31 13
t-13 31q0 19 14 32.5t34 13.5q23 0 37 -17.5t14 -48.5q0 -51 -24.5 -77t-65.5 -26q-14 0 -29 3z" />
    <glyph glyph-name="Ncaron" unicode="&#x147;" horiz-adv-x="646" 
d="M132 705h108l237 -599h2l96 599h83l-112 -705h-108l-238 599h-2l-96 -599h-82zM285 900l29 27l98 -109l133 109l24 -27l-133 -110h-52z" />
    <glyph glyph-name="ncaron" unicode="&#x148;" 
d="M455 484q40 -39 40 -108q0 -13 -4 -43l-53 -333h-75l52 331q3 17 3 31q0 46 -25.5 71t-72.5 25q-46 0 -86 -21t-67.5 -58t-34.5 -84l-47 -295h-75l80 505h68l-5 -68h1q74 86 189 86q72 0 112 -39zM190 732l28 27l116 -129l157 129l24 -27l-157 -130h-53z" />
    <glyph glyph-name="Omacron" unicode="&#x14c;" horiz-adv-x="783" 
d="M188 13.5q-69 36.5 -106 103.5t-37 159q0 125 53 228t148.5 163t216.5 60q95 0 164 -36.5t106 -103.5t37 -159q0 -124 -53.5 -227t-148.5 -163.5t-216 -60.5q-95 0 -164 36.5zM528 100.5q75 50.5 117 136t42 185.5q0 109 -61 171t-170 62q-94 0 -169 -50.5t-117 -136
t-42 -185.5q0 -110 61 -171.5t170 -61.5q94 0 169 50.5zM342 835h285l-6 -37h-285z" />
    <glyph glyph-name="omacron" unicode="&#x14d;" horiz-adv-x="567" 
d="M84 40q-59 58 -59 157q0 89 37.5 164t105.5 118.5t154 43.5q102 0 161 -58.5t59 -157.5q0 -89 -37.5 -163.5t-105.5 -118t-154 -43.5q-102 0 -161 58zM361 85q50 35 77.5 93.5t27.5 125.5q0 70 -38.5 110.5t-107.5 40.5q-64 0 -114 -35t-77.5 -93.5t-27.5 -125.5
q0 -71 38.5 -111t107.5 -40q64 0 114 35zM202 635h285l-6 -37h-285z" />
    <glyph glyph-name="Obreve" unicode="&#x14e;" horiz-adv-x="783" 
d="M188 13.5q-69 36.5 -106 103.5t-37 159q0 125 53 228t148.5 163t216.5 60q95 0 164 -36.5t106 -103.5t37 -159q0 -124 -53.5 -227t-148.5 -163.5t-216 -60.5q-95 0 -164 36.5zM528 100.5q75 50.5 117 136t42 185.5q0 109 -61 171t-170 62q-94 0 -169 -50.5t-117 -136
t-42 -185.5q0 -110 61 -171.5t170 -61.5q94 0 169 50.5zM395.5 819q-30.5 29 -30.5 76q0 7 2 23h36q-1 -6 -1 -17q0 -33 21.5 -53.5t57.5 -20.5q40 0 70.5 26t37.5 65h39q-9 -56 -51.5 -92t-99.5 -36q-51 0 -81.5 29z" />
    <glyph glyph-name="obreve" unicode="&#x14f;" horiz-adv-x="567" 
d="M84 40q-59 58 -59 157q0 89 37.5 164t105.5 118.5t154 43.5q102 0 161 -58.5t59 -157.5q0 -89 -37.5 -163.5t-105.5 -118t-154 -43.5q-102 0 -161 58zM361 85q50 35 77.5 93.5t27.5 125.5q0 70 -38.5 110.5t-107.5 40.5q-64 0 -114 -35t-77.5 -93.5t-27.5 -125.5
q0 -71 38.5 -111t107.5 -40q64 0 114 35zM241.5 627q-35.5 35 -35.5 92q0 19 2 29h37q-2 -16 -2 -22q0 -43 27 -70t71 -27q52 0 90.5 33.5t46.5 85.5h39q-11 -68 -61.5 -112t-118.5 -44q-60 0 -95.5 35z" />
    <glyph glyph-name="Ohungarumlaut" unicode="&#x150;" horiz-adv-x="783" 
d="M188 13.5q-69 36.5 -106 103.5t-37 159q0 125 53 228t148.5 163t216.5 60q95 0 164 -36.5t106 -103.5t37 -159q0 -124 -53.5 -227t-148.5 -163.5t-216 -60.5q-95 0 -164 36.5zM528 100.5q75 50.5 117 136t42 185.5q0 109 -61 171t-170 62q-94 0 -169 -50.5t-117 -136
t-42 -185.5q0 -110 61 -171.5t170 -61.5q94 0 169 50.5zM380 786l107 125l27 -22l-109 -125zM529 786l108 125l26 -22l-108 -125z" />
    <glyph glyph-name="ohungarumlaut" unicode="&#x151;" horiz-adv-x="567" 
d="M84 40q-59 58 -59 157q0 89 37.5 164t105.5 118.5t154 43.5q102 0 161 -58.5t59 -157.5q0 -89 -37.5 -163.5t-105.5 -118t-154 -43.5q-102 0 -161 58zM361 85q50 35 77.5 93.5t27.5 125.5q0 70 -38.5 110.5t-107.5 40.5q-64 0 -114 -35t-77.5 -93.5t-27.5 -125.5
q0 -71 38.5 -111t107.5 -40q64 0 114 35zM243 621l129 146l27 -23l-129 -145zM394 621l129 146l27 -23l-129 -145z" />
    <glyph glyph-name="OE" unicode="&#x152;" horiz-adv-x="956" 
d="M184 18.5q-67 35.5 -103 102t-36 156.5q0 41 7 80q17 110 72.5 192.5t141 127.5t189.5 45q58 0 125 -18l414 1l-12 -73h-341l-38 -240h300l-11 -69h-301l-39 -250h350l-12 -73l-419 -1q-67 -16 -127 -16q-93 0 -160 35.5zM412 61.5q33 5.5 56 13.5l92 555
q-17 9 -45.5 13.5t-58.5 4.5q-83 0 -151.5 -37t-113.5 -105t-59 -159q-6 -34 -6 -66q0 -105 58.5 -165t160.5 -60q34 0 67 5.5z" />
    <glyph glyph-name="oe" unicode="&#x153;" horiz-adv-x="982" 
d="M539 225q-3 -52 16.5 -91.5t57 -61.5t86.5 -22q55 0 102 27.5t74 72.5l63 -32q-35 -63 -99 -99.5t-142 -36.5q-77 0 -133 33t-82 93q-39 -60 -101 -93t-137 -33q-102 0 -160.5 58t-58.5 158q0 26 5 59q13 80 53.5 140t102 93t136.5 33q74 0 125.5 -31t74.5 -88
q39 57 97.5 88t128.5 31q92 0 145.5 -57t53.5 -154q0 -24 -5 -59q-4 -20 -7 -28h-396zM388 107q59 57 74 150q4 32 4 45q0 71 -38.5 112t-107.5 41q-83 0 -142 -57t-74 -151q-4 -21 -4 -46q0 -70 38.5 -110.5t107.5 -40.5q83 0 142 57zM623 408q-54 -47 -73 -120h319l1 19
q0 68 -33.5 108t-91.5 40q-68 0 -122 -47z" />
    <glyph glyph-name="Racute" unicode="&#x154;" horiz-adv-x="656" 
d="M439 4q-22 23 -26 61l-18 146q-5 40 -28 63.5t-59 23.5h-159l-47 -298h-82l112 705h287q104 0 160.5 -46t56.5 -130t-60 -142.5t-154 -74.5v-1q24 -13 38 -38.5t17 -58.5l14 -125q3 -39 30 -39q16 0 34 12.5t33 33.5l36 -51q-26 -30 -57.5 -47t-64.5 -17q-41 0 -63 23z
M366 371q50 0 93.5 20t69.5 55t26 78q0 51 -37 79.5t-106 28.5h-209l-42 -261h205zM370 801l108 125l27 -22l-109 -125z" />
    <glyph glyph-name="racute" unicode="&#x155;" horiz-adv-x="425" 
d="M389.5 487.5q33.5 -36.5 33.5 -103.5q0 -15 -1 -22l-75 -17q4 55 -14.5 82.5t-55.5 27.5q-58 0 -96.5 -49t-52.5 -135l-43 -271h-75l80 505h64l-6 -74h1q27 45 65.5 69t82.5 24q59 0 92.5 -36.5zM260 623l129 145l28 -24l-129 -145z" />
    <glyph glyph-name="uni0156" unicode="&#x156;" horiz-adv-x="656" 
d="M439 4q-22 23 -26 61l-18 146q-5 40 -28 63.5t-59 23.5h-159l-47 -298h-82l112 705h287q104 0 160.5 -46t56.5 -130t-60 -142.5t-154 -74.5v-1q24 -13 38 -38.5t17 -58.5l14 -125q3 -39 30 -39q16 0 34 12.5t33 33.5l36 -51q-26 -30 -57.5 -47t-64.5 -17q-41 0 -63 23z
M366 371q50 0 93.5 20t69.5 55t26 78q0 51 -37 79.5t-106 28.5h-209l-42 -261h205zM190 -209q15 -3 26 -3q24 0 36.5 13t13.5 37q-9 -3 -17 -3q-18 0 -31 13t-13 31q0 19 14 32.5t34 13.5q23 0 37 -17.5t14 -48.5q0 -51 -24.5 -77t-65.5 -26q-14 0 -29 3z" />
    <glyph glyph-name="uni0157" unicode="&#x157;" horiz-adv-x="425" 
d="M389.5 487.5q33.5 -36.5 33.5 -103.5q0 -15 -1 -22l-75 -17q4 55 -14.5 82.5t-55.5 27.5q-58 0 -96.5 -49t-52.5 -135l-43 -271h-75l80 505h64l-6 -74h1q27 45 65.5 69t82.5 24q59 0 92.5 -36.5zM-35 -209q15 -3 26 -3q24 0 36.5 13t13.5 37q-9 -3 -17 -3q-18 0 -31 13
t-13 31q0 19 14 32.5t34 13.5q23 0 37 -17.5t14 -48.5q0 -51 -24.5 -77t-65.5 -26q-14 0 -29 3z" />
    <glyph glyph-name="Rcaron" unicode="&#x158;" horiz-adv-x="656" 
d="M439 4q-22 23 -26 61l-18 146q-5 40 -28 63.5t-59 23.5h-159l-47 -298h-82l112 705h287q104 0 160.5 -46t56.5 -130t-60 -142.5t-154 -74.5v-1q24 -13 38 -38.5t17 -58.5l14 -125q3 -39 30 -39q16 0 34 12.5t33 33.5l36 -51q-26 -30 -57.5 -47t-64.5 -17q-41 0 -63 23z
M366 371q50 0 93.5 20t69.5 55t26 78q0 51 -37 79.5t-106 28.5h-209l-42 -261h205zM263 900l29 27l98 -109l133 109l24 -27l-133 -110h-52z" />
    <glyph glyph-name="rcaron" unicode="&#x159;" horiz-adv-x="425" 
d="M389.5 487.5q33.5 -36.5 33.5 -103.5q0 -15 -1 -22l-75 -17q4 55 -14.5 82.5t-55.5 27.5q-58 0 -96.5 -49t-52.5 -135l-43 -271h-75l80 505h64l-6 -74h1q27 45 65.5 69t82.5 24q59 0 92.5 -36.5zM141 732l28 27l116 -129l157 129l24 -27l-157 -130h-53z" />
    <glyph glyph-name="Sacute" unicode="&#x15a;" horiz-adv-x="581" 
d="M135.5 9q-60.5 32 -92.5 88.5t-28 128.5l83 10q-4 -84 45 -135t136 -51q82 0 135 37t53 104q0 43 -30 69t-101 51l-84 28q-79 26 -115.5 68.5t-36.5 107.5q0 66 31.5 114t87.5 73.5t126 25.5q68 0 117.5 -26t75.5 -72.5t25 -105.5l-83 -15q5 66 -34.5 106t-110.5 40
q-66 0 -107.5 -37t-41.5 -95q0 -44 26.5 -68.5t90.5 -45.5l83 -28q83 -27 124 -71.5t41 -111.5q0 -70 -36 -120t-99 -75.5t-141 -25.5q-79 0 -139.5 32zM350 801l108 125l27 -22l-109 -125z" />
    <glyph glyph-name="sacute" unicode="&#x15b;" horiz-adv-x="471" 
d="M62 26q-58 44 -58 118l1 15l75 10q-5 -54 32.5 -87t104.5 -33q61 0 101.5 23.5t40.5 68.5q0 27 -20 44t-65 29l-85 23q-64 16 -93.5 44.5t-29.5 76.5q0 47 25.5 84.5t70 59t98.5 21.5q78 0 126 -40.5t50 -104.5l-73 -15q2 42 -27.5 68t-82.5 26q-50 0 -81.5 -24
t-31.5 -65q0 -25 19.5 -41.5t61.5 -27.5l81 -22q69 -17 100 -47t31 -80t-29.5 -88.5t-79.5 -59t-112 -20.5q-92 0 -150 44zM256 623l129 145l28 -24l-129 -145z" />
    <glyph glyph-name="Scircumflex" unicode="&#x15c;" horiz-adv-x="581" 
d="M135.5 9q-60.5 32 -92.5 88.5t-28 128.5l83 10q-4 -84 45 -135t136 -51q82 0 135 37t53 104q0 43 -30 69t-101 51l-84 28q-79 26 -115.5 68.5t-36.5 107.5q0 66 31.5 114t87.5 73.5t126 25.5q68 0 117.5 -26t75.5 -72.5t25 -105.5l-83 -15q5 66 -34.5 106t-110.5 40
q-66 0 -107.5 -37t-41.5 -95q0 -44 26.5 -68.5t90.5 -45.5l83 -28q83 -27 124 -71.5t41 -111.5q0 -70 -36 -120t-99 -75.5t-141 -25.5q-79 0 -139.5 32zM229 808l133 110h53l97 -110l-28 -27l-98 109l-133 -109z" />
    <glyph glyph-name="scircumflex" unicode="&#x15d;" horiz-adv-x="471" 
d="M62 26q-58 44 -58 118l1 15l75 10q-5 -54 32.5 -87t104.5 -33q61 0 101.5 23.5t40.5 68.5q0 27 -20 44t-65 29l-85 23q-64 16 -93.5 44.5t-29.5 76.5q0 47 25.5 84.5t70 59t98.5 21.5q78 0 126 -40.5t50 -104.5l-73 -15q2 42 -27.5 68t-82.5 26q-50 0 -81.5 -24
t-31.5 -65q0 -25 19.5 -41.5t61.5 -27.5l81 -22q69 -17 100 -47t31 -80t-29.5 -88.5t-79.5 -59t-112 -20.5q-92 0 -150 44zM122 618l157 130h52l116 -130l-28 -27l-116 129l-156 -129z" />
    <glyph glyph-name="Scedilla" unicode="&#x15e;" horiz-adv-x="581" 
d="M480 509q5 66 -34.5 106t-110.5 40q-66 0 -107.5 -37t-41.5 -95q0 -44 26.5 -68.5t90.5 -45.5l83 -28q83 -27 124 -71.5t41 -111.5q0 -70 -36 -120t-99 -75.5t-141 -25.5h-5l-7 -26q85 -7 85 -68q0 -10 -1 -16q-5 -32 -34 -52.5t-70 -20.5q-29 0 -53 15.5t-32 38.5l34 23
q4 -17 20.5 -28t37.5 -11q27 0 43.5 12.5t16.5 33.5q0 18 -16.5 28t-44.5 10h-33l18 63q-68 8 -119 42t-77 87t-23 118l83 10q-4 -84 45 -135t136 -51q82 0 135 37t53 104q0 43 -30 69t-101 51l-84 28q-79 26 -115.5 68.5t-36.5 107.5q0 66 31.5 114t87.5 73.5t126 25.5
q68 0 117.5 -26t75.5 -72.5t25 -105.5z" />
    <glyph glyph-name="scedilla" unicode="&#x15f;" horiz-adv-x="471" 
d="M402 230q31 -30 31 -80t-29 -88t-78.5 -58.5t-110.5 -21.5l-9 -31q85 -7 85 -68q0 -10 -1 -16q-5 -32 -34 -52.5t-70 -20.5q-29 0 -53 15.5t-32 38.5l34 23q4 -17 20.5 -28t37.5 -11q27 0 43.5 12.5t16.5 33.5q0 18 -16.5 28t-44.5 10h-33l19 68q-83 8 -131 55t-42 120
l75 10q-5 -54 32.5 -87t104.5 -33q61 0 101.5 23.5t40.5 68.5q0 27 -20 44t-65 29l-85 23q-64 16 -93.5 44.5t-29.5 76.5q0 47 25.5 84.5t70 59t98.5 21.5q78 0 126 -40.5t50 -104.5l-73 -15q2 42 -27.5 68t-82.5 26q-50 0 -81.5 -24t-31.5 -65q0 -25 19.5 -41.5t61.5 -27.5
l81 -22q69 -17 100 -47z" />
    <glyph glyph-name="Scaron" unicode="&#x160;" horiz-adv-x="581" 
d="M135.5 9q-60.5 32 -92.5 88.5t-28 128.5l83 10q-4 -84 45 -135t136 -51q82 0 135 37t53 104q0 43 -30 69t-101 51l-84 28q-79 26 -115.5 68.5t-36.5 107.5q0 66 31.5 114t87.5 73.5t126 25.5q68 0 117.5 -26t75.5 -72.5t25 -105.5l-83 -15q5 66 -34.5 106t-110.5 40
q-66 0 -107.5 -37t-41.5 -95q0 -44 26.5 -68.5t90.5 -45.5l83 -28q83 -27 124 -71.5t41 -111.5q0 -70 -36 -120t-99 -75.5t-141 -25.5q-79 0 -139.5 32zM243 900l29 27l98 -109l133 109l24 -27l-133 -110h-52z" />
    <glyph glyph-name="scaron" unicode="&#x161;" horiz-adv-x="471" 
d="M62 26q-58 44 -58 118l1 15l75 10q-5 -54 32.5 -87t104.5 -33q61 0 101.5 23.5t40.5 68.5q0 27 -20 44t-65 29l-85 23q-64 16 -93.5 44.5t-29.5 76.5q0 47 25.5 84.5t70 59t98.5 21.5q78 0 126 -40.5t50 -104.5l-73 -15q2 42 -27.5 68t-82.5 26q-50 0 -81.5 -24
t-31.5 -65q0 -25 19.5 -41.5t61.5 -27.5l81 -22q69 -17 100 -47t31 -80t-29.5 -88.5t-79.5 -59t-112 -20.5q-92 0 -150 44zM137 732l28 27l116 -129l157 129l24 -27l-157 -130h-53z" />
    <glyph glyph-name="uni0162" unicode="&#x162;" horiz-adv-x="544" 
d="M605 705l-11 -73h-221l-100 -632h-24l-13 -49q85 -7 85 -68q0 -10 -1 -16q-5 -32 -34 -52.5t-70 -20.5q-29 0 -53 15.5t-32 38.5l34 23q4 -17 20.5 -28t37.5 -11q27 0 43.5 12.5t16.5 33.5q0 18 -16.5 28t-44.5 10h-33l23 84h-21l100 632h-221l12 73h523z" />
    <glyph glyph-name="uni0163" unicode="&#x163;" horiz-adv-x="429" 
d="M164 140q-1 -7 -1 -20q0 -34 17.5 -53.5t48.5 -19.5q39 0 72.5 28t45.5 75l58 -31q-17 -63 -68.5 -99.5t-113.5 -37.5l-9 -31q85 -7 85 -68q0 -10 -1 -16q-5 -32 -34 -52.5t-70 -20.5q-29 0 -53 15.5t-32 38.5l34 23q4 -17 20.5 -28t37.5 -11q27 0 43.5 12.5t16.5 33.5
q0 18 -16.5 28t-44.5 10h-33l19 69q-46 10 -72.5 43t-26.5 81q0 9 2 27l48 307h-107l10 62h107l24 149l78 18l-27 -167h213l-10 -62h-212z" />
    <glyph glyph-name="Tcaron" unicode="&#x164;" horiz-adv-x="544" 
d="M291 632h-221l12 73h523l-11 -73h-221l-100 -632h-82zM232 900l29 27l98 -109l133 109l24 -27l-133 -110h-52z" />
    <glyph glyph-name="tcaron" unicode="&#x165;" horiz-adv-x="429" 
d="M123.5 17q-36.5 35 -36.5 91q0 8 2 28l48 307h-107l10 62h107l24 149l78 18l-27 -167h213l-10 -62h-212l-49 -303q-1 -7 -1 -20q0 -34 17.5 -53.5t48.5 -19.5q39 0 72.5 28t45.5 75l58 -31q-17 -63 -69 -100t-115 -37q-61 0 -97.5 35zM312 607q15 -3 26 -3q24 0 36.5 13
t13.5 37q-9 -3 -17 -3q-18 0 -31 13t-13 31q0 19 14 32.5t34 13.5q23 0 37 -17.5t14 -48.5q0 -51 -24.5 -77t-65.5 -26q-14 0 -29 3z" />
    <glyph glyph-name="Utilde" unicode="&#x168;" horiz-adv-x="640" 
d="M105.5 31q-60.5 54 -60.5 155q0 25 5 60l72 459h82l-75 -471q-4 -30 -4 -43q0 -68 40.5 -104.5t118.5 -36.5q92 0 149.5 49t71.5 140l74 466h83l-75 -471q-20 -124 -99.5 -190.5t-206.5 -66.5q-115 0 -175.5 54zM432 797q-17 17 -37 49q-12 20 -22 30t-24 10
q-23 0 -42 -27t-26 -69h-37q9 59 39 96t71 37q26 0 43.5 -15.5t32.5 -41.5q16 -26 26 -37.5t26 -11.5q24 0 43 27.5t26 69.5h38q-10 -59 -40 -96.5t-71 -37.5q-29 0 -46 17z" />
    <glyph glyph-name="utilde" unicode="&#x169;" 
d="M68 21q-40 39 -40 108q0 13 4 43l53 333h75l-52 -331q-3 -16 -3 -31q0 -46 25.5 -71t72.5 -25q46 0 86 21t67.5 58t34.5 84l47 295h75l-80 -505h-68l5 68h-1q-74 -86 -189 -86q-72 0 -112 39zM339 604.5q-16 14.5 -34 42.5q-14 24 -25 36.5t-27 12.5q-23 0 -41.5 -27
t-25.5 -69h-37q9 58 39.5 95.5t71.5 37.5q26 0 42.5 -14.5t31.5 -40.5q16 -28 26 -39.5t26 -11.5q24 0 43 26.5t29 70.5h36q-12 -60 -42 -97t-70 -37q-27 0 -43 14.5z" />
    <glyph glyph-name="Umacron" unicode="&#x16a;" horiz-adv-x="640" 
d="M105.5 31q-60.5 54 -60.5 155q0 25 5 60l72 459h82l-75 -471q-4 -30 -4 -43q0 -68 40.5 -104.5t118.5 -36.5q92 0 149.5 49t71.5 140l74 466h83l-75 -471q-20 -124 -99.5 -190.5t-206.5 -66.5q-115 0 -175.5 54zM270 835h285l-6 -37h-285z" />
    <glyph glyph-name="umacron" unicode="&#x16b;" 
d="M68 21q-40 39 -40 108q0 13 4 43l53 333h75l-52 -331q-3 -16 -3 -31q0 -46 25.5 -71t72.5 -25q46 0 86 21t67.5 58t34.5 84l47 295h75l-80 -505h-68l5 68h-1q-74 -86 -189 -86q-72 0 -112 39zM174 635h285l-6 -37h-285z" />
    <glyph glyph-name="Ubreve" unicode="&#x16c;" horiz-adv-x="640" 
d="M105.5 31q-60.5 54 -60.5 155q0 25 5 60l72 459h82l-75 -471q-4 -30 -4 -43q0 -68 40.5 -104.5t118.5 -36.5q92 0 149.5 49t71.5 140l74 466h83l-75 -471q-20 -124 -99.5 -190.5t-206.5 -66.5q-115 0 -175.5 54zM323.5 819q-30.5 29 -30.5 76q0 7 2 23h36q-1 -6 -1 -17
q0 -33 21.5 -53.5t57.5 -20.5q40 0 70.5 26t37.5 65h39q-9 -56 -51.5 -92t-99.5 -36q-51 0 -81.5 29z" />
    <glyph glyph-name="ubreve" unicode="&#x16d;" 
d="M68 21q-40 39 -40 108q0 13 4 43l53 333h75l-52 -331q-3 -16 -3 -31q0 -46 25.5 -71t72.5 -25q46 0 86 21t67.5 58t34.5 84l47 295h75l-80 -505h-68l5 68h-1q-74 -86 -189 -86q-72 0 -112 39zM213.5 627q-35.5 35 -35.5 92q0 19 2 29h37q-2 -16 -2 -22q0 -43 27 -70
t71 -27q52 0 90.5 33.5t46.5 85.5h39q-11 -68 -61.5 -112t-118.5 -44q-60 0 -95.5 35z" />
    <glyph glyph-name="Uring" unicode="&#x16e;" horiz-adv-x="640" 
d="M105.5 31q-60.5 54 -60.5 155q0 25 5 60l72 459h82l-75 -471q-4 -30 -4 -43q0 -68 40.5 -104.5t118.5 -36.5q92 0 149.5 49t71.5 140l74 466h83l-75 -471q-20 -124 -99.5 -190.5t-206.5 -66.5q-115 0 -175.5 54zM346.5 803.5q-21.5 21.5 -21.5 54.5q0 48 31.5 79t76.5 31
q36 0 57.5 -21.5t21.5 -56.5q0 -45 -32 -76.5t-76 -31.5q-36 0 -57.5 21.5zM455.5 838.5q18.5 20.5 18.5 46.5q0 21 -13 34t-35 13q-26 0 -45.5 -20t-19.5 -48q0 -20 13.5 -33t34.5 -13q28 0 46.5 20.5z" />
    <glyph glyph-name="uring" unicode="&#x16f;" 
d="M68 21q-40 39 -40 108q0 13 4 43l53 333h75l-52 -331q-3 -16 -3 -31q0 -46 25.5 -71t72.5 -25q46 0 86 21t67.5 58t34.5 84l47 295h75l-80 -505h-68l5 68h-1q-74 -86 -189 -86q-72 0 -112 39zM251.5 613q-21.5 21 -21.5 55q0 48 31.5 79t77.5 31q36 0 57.5 -21t21.5 -55
q0 -48 -31.5 -79t-77.5 -31q-36 0 -57.5 21zM361 647.5q19 19.5 19 48.5q0 21 -13 33.5t-35 12.5q-27 0 -46.5 -19t-19.5 -48q0 -22 13.5 -34.5t35.5 -12.5q27 0 46 19.5z" />
    <glyph glyph-name="Uhungarumlaut" unicode="&#x170;" horiz-adv-x="640" 
d="M105.5 31q-60.5 54 -60.5 155q0 25 5 60l72 459h82l-75 -471q-4 -30 -4 -43q0 -68 40.5 -104.5t118.5 -36.5q92 0 149.5 49t71.5 140l74 466h83l-75 -471q-20 -124 -99.5 -190.5t-206.5 -66.5q-115 0 -175.5 54zM308 786l107 125l27 -22l-109 -125zM457 786l108 125
l26 -22l-108 -125z" />
    <glyph glyph-name="uhungarumlaut" unicode="&#x171;" 
d="M68 21q-40 39 -40 108q0 13 4 43l53 333h75l-52 -331q-3 -16 -3 -31q0 -46 25.5 -71t72.5 -25q46 0 86 21t67.5 58t34.5 84l47 295h75l-80 -505h-68l5 68h-1q-74 -86 -189 -86q-72 0 -112 39zM215 621l129 146l27 -23l-129 -145zM366 621l129 146l27 -23l-129 -145z" />
    <glyph glyph-name="Uogonek" unicode="&#x172;" horiz-adv-x="640" 
d="M662 705l-75 -471q-16 -96 -67.5 -158t-134.5 -86q-79 -31 -117 -58.5t-38 -64.5q0 -17 10.5 -26.5t29.5 -9.5q16 0 36.5 12t38.5 31l22 -26q-22 -24 -51 -38t-54 -14q-33 0 -52 18t-19 47q0 36 22 64t65 52q-114 1 -173.5 55t-59.5 153q0 26 5 61l72 459h82l-75 -471
q-4 -30 -4 -43q0 -68 40.5 -104.5t118.5 -36.5q92 0 149.5 49t71.5 140l74 466h83z" />
    <glyph glyph-name="uogonek" unicode="&#x173;" 
d="M294 -64.5q-43 -28.5 -43 -69.5q0 -17 10.5 -26.5t29.5 -9.5q16 0 36.5 12t38.5 31l22 -26q-22 -24 -51 -38t-54 -14q-33 0 -52 18t-19 47q0 48 38.5 82t115.5 65l4 61h-1q-74 -86 -189 -86q-72 0 -112 39t-40 108q0 13 4 43l53 333h75l-52 -331q-3 -16 -3 -31
q0 -46 25.5 -71t72.5 -25q46 0 86 21t67.5 58t34.5 84l47 295h75l-80 -505q-96 -36 -139 -64.5z" />
    <glyph glyph-name="Wcircumflex" unicode="&#x174;" horiz-adv-x="950" 
d="M82 705h84l69 -624h2l247 624h125l50 -624h2l265 624h86l-304 -705h-121l-51 622h-2l-250 -622h-120zM421 808l133 110h53l97 -110l-28 -27l-98 109l-133 -109z" />
    <glyph glyph-name="wcircumflex" unicode="&#x175;" horiz-adv-x="770" 
d="M51 505h77l57 -430h1l190 430h96l57 -431h1l191 431h80l-233 -505h-98l-56 425h-1l-187 -425h-99zM283 618l157 130h52l116 -130l-28 -27l-116 129l-156 -129z" />
    <glyph glyph-name="Ycircumflex" unicode="&#x176;" horiz-adv-x="581" 
d="M253 262l-170 443h88l132 -361h1l246 361h94l-309 -443l-42 -262h-83zM235 808l133 110h53l97 -110l-28 -27l-98 109l-133 -109z" />
    <glyph glyph-name="ycircumflex" unicode="&#x177;" 
d="M9.5 -191.5q-59.5 36.5 -77.5 99.5l69 39q14 -51 55 -79t101 -28q81 0 134.5 44.5t67.5 122.5l6 39h-1q-29 -40 -74.5 -62t-93.5 -22q-79 0 -123.5 46t-44.5 122q0 21 3 42l53 333h75l-53 -338q-3 -16 -3 -31q0 -49 27 -77.5t77 -28.5q42 0 80.5 20t65 55t33.5 79l51 321
h75l-79 -503q-17 -109 -90.5 -169.5t-184.5 -60.5q-89 0 -148.5 36.5zM159 618l157 130h52l116 -130l-28 -27l-116 129l-156 -129z" />
    <glyph glyph-name="Ydieresis" unicode="&#x178;" horiz-adv-x="581" 
d="M253 262l-170 443h88l132 -361h1l246 361h94l-309 -443l-42 -262h-83zM232 815.5q-13 12.5 -13 32.5q0 27 19 45.5t46 18.5q22 0 35 -12t13 -32q0 -27 -19 -46t-46 -19q-22 0 -35 12.5zM452 815.5q-13 12.5 -13 33.5q0 27 19 45t46 18q22 0 34.5 -12t12.5 -32
q0 -27 -18.5 -46t-45.5 -19q-22 0 -35 12.5z" />
    <glyph glyph-name="Zacute" unicode="&#x179;" horiz-adv-x="542" 
d="M-18 78l512 559h-413l11 68h502l-11 -78l-512 -559h432l-11 -68h-522zM346 801l108 125l27 -22l-109 -125z" />
    <glyph glyph-name="zacute" unicode="&#x17a;" horiz-adv-x="462" 
d="M-8 83l387 354h-320l11 68h401l-12 -83l-387 -354h341l-11 -68h-422zM266 623l129 145l28 -24l-129 -145z" />
    <glyph glyph-name="Zdotaccent" unicode="&#x17b;" horiz-adv-x="542" 
d="M-18 78l512 559h-413l11 68h502l-11 -78l-512 -559h432l-11 -68h-522zM334 816q-13 13 -13 33q0 28 18.5 46t45.5 18q22 0 35.5 -12.5t13.5 -32.5q0 -28 -19.5 -46.5t-46.5 -18.5q-21 0 -34 13z" />
    <glyph glyph-name="zdotaccent" unicode="&#x17c;" horiz-adv-x="462" 
d="M-8 83l387 354h-320l11 68h401l-12 -83l-387 -354h341l-11 -68h-422zM254 615.5q-13 12.5 -13 32.5q0 28 19 46.5t46 18.5q22 0 35 -12.5t13 -32.5q0 -28 -19 -46.5t-46 -18.5q-22 0 -35 12.5z" />
    <glyph glyph-name="Zcaron" unicode="&#x17d;" horiz-adv-x="542" 
d="M-18 78l512 559h-413l11 68h502l-11 -78l-512 -559h432l-11 -68h-522zM239 900l29 27l98 -109l133 109l24 -27l-133 -110h-52z" />
    <glyph glyph-name="zcaron" unicode="&#x17e;" horiz-adv-x="462" 
d="M-8 83l387 354h-320l11 68h401l-12 -83l-387 -354h341l-11 -68h-422zM147 732l28 27l116 -129l157 129l24 -27l-157 -130h-53z" />
    <glyph glyph-name="AEacute" unicode="&#x1fc;" horiz-adv-x="844" 
d="M445 705h436l-11 -73h-315l-38 -240h274l-10 -68h-275l-39 -251h324l-12 -73h-404l23 144h-248l-98 -144h-94zM409 213l66 413h-1l-280 -413h215zM485 801l108 125l27 -22l-109 -125z" />
    <glyph glyph-name="aeacute" unicode="&#x1fd;" horiz-adv-x="862" 
d="M46.5 17.5q-47.5 35.5 -47.5 93.5q0 68 58.5 116.5t164.5 60.5l136 16q21 3 33.5 20t12.5 45q0 41 -29 63.5t-78 22.5q-44 0 -81.5 -17t-61.5 -44t-31 -57l-62 34q10 41 43 76t82 55.5t105 20.5q65 0 111.5 -29t59.5 -80q35 51 86 80t106 29q80 0 126.5 -56t46.5 -151
q0 -26 -5 -63q-2 -15 -6 -29h-351q-4 -80 32.5 -127t103.5 -47q50 0 88.5 27.5t64.5 74.5l63 -33q-34 -64 -91 -100.5t-126 -36.5q-74 0 -124.5 40.5t-60.5 104.5q-30 -67 -97 -106t-147 -39q-77 0 -124.5 35.5zM749 289q2 22 2 30q0 63 -29 99.5t-78 36.5
q-56 0 -101.5 -46.5t-66.5 -119.5h273zM276.5 71q42.5 21 71 58.5t35.5 83.5l5 33l-171 -20q-60 -8 -101 -38.5t-41 -69.5q0 -31 30 -49.5t79 -18.5q50 0 92.5 21zM474 623l129 145l28 -24l-129 -145z" />
    <glyph glyph-name="Oslashacute" unicode="&#x1fe;" horiz-adv-x="783" 
d="M706.5 627.5q63.5 -77.5 63.5 -199.5q0 -124 -53.5 -227t-148.5 -163.5t-216 -60.5q-26 0 -52 3l-36 -117l-35 10l34 113q-104 23 -161 99t-57 191q0 125 53 228t148.5 163t216.5 60q17 0 26 -1l28 93l37 -11l-26 -86q115 -17 178.5 -94.5zM169 136q41 -58 116 -78
l182 597h-11q-94 0 -169 -50.5t-117 -136t-42 -185.5q0 -89 41 -147zM528 100.5q75 50.5 117 136t42 185.5q0 96 -47.5 155.5t-133.5 73.5l-184 -599q24 -2 37 -2q94 0 169 50.5zM369 801l108 125l27 -22l-109 -125z" />
    <glyph glyph-name="oslashacute" unicode="&#x1ff;" horiz-adv-x="566" 
d="M501 443q40 -55 40 -138q0 -24 -5 -57q-13 -80 -53.5 -140.5t-102 -93t-136.5 -32.5q-13 0 -20 1l-68 -223l-36 11l66 217q-76 15 -118.5 70.5t-42.5 140.5q0 25 5 58q13 80 53 140.5t101.5 93t136.5 32.5q19 0 28 -1l60 195l37 -12l-58 -190q73 -17 113 -72zM100 203
q0 -60 28 -99.5t78 -49.5l123 401h-10q-83 0 -141.5 -56.5t-73.5 -150.5q-4 -32 -4 -45zM466 302q0 57 -26 95t-73 52l-122 -399h1q83 0 142 56.5t74 150.5q4 32 4 45zM223 623l129 145l28 -24l-129 -145z" />
    <glyph glyph-name="uni0218" unicode="&#x218;" horiz-adv-x="581" 
d="M135.5 9q-60.5 32 -92.5 88.5t-28 128.5l83 10q-4 -84 45 -135t136 -51q82 0 135 37t53 104q0 43 -30 69t-101 51l-84 28q-79 26 -115.5 68.5t-36.5 107.5q0 66 31.5 114t87.5 73.5t126 25.5q68 0 117.5 -26t75.5 -72.5t25 -105.5l-83 -15q5 66 -34.5 106t-110.5 40
q-66 0 -107.5 -37t-41.5 -95q0 -44 26.5 -68.5t90.5 -45.5l83 -28q83 -27 124 -71.5t41 -111.5q0 -70 -36 -120t-99 -75.5t-141 -25.5q-79 0 -139.5 32zM176 -209q15 -3 26 -3q24 0 36.5 13t13.5 37q-9 -3 -17 -3q-18 0 -31 13t-13 31q0 19 14 32.5t34 13.5q23 0 37 -17.5
t14 -48.5q0 -51 -24.5 -77t-65.5 -26q-14 0 -29 3z" />
    <glyph glyph-name="uni0219" unicode="&#x219;" horiz-adv-x="471" 
d="M62 26q-58 44 -58 118l1 15l75 10q-5 -54 32.5 -87t104.5 -33q61 0 101.5 23.5t40.5 68.5q0 27 -20 44t-65 29l-85 23q-64 16 -93.5 44.5t-29.5 76.5q0 47 25.5 84.5t70 59t98.5 21.5q78 0 126 -40.5t50 -104.5l-73 -15q2 42 -27.5 68t-82.5 26q-50 0 -81.5 -24
t-31.5 -65q0 -25 19.5 -41.5t61.5 -27.5l81 -22q69 -17 100 -47t31 -80t-29.5 -88.5t-79.5 -59t-112 -20.5q-92 0 -150 44zM119 -209q15 -3 26 -3q24 0 36.5 13t13.5 37q-9 -3 -17 -3q-18 0 -31 13t-13 31q0 19 14 32.5t34 13.5q23 0 37 -17.5t14 -48.5q0 -51 -24.5 -77
t-65.5 -26q-14 0 -29 3z" />
    <glyph glyph-name="uni021A" unicode="&#x21a;" horiz-adv-x="544" 
d="M291 632h-221l12 73h523l-11 -73h-221l-100 -632h-82zM149 -209q15 -3 26 -3q24 0 36.5 13t13.5 37q-9 -3 -17 -3q-18 0 -31 13t-13 31q0 19 14 32.5t34 13.5q23 0 37 -17.5t14 -48.5q0 -51 -24.5 -77t-65.5 -26q-14 0 -29 3z" />
    <glyph glyph-name="uni021B" unicode="&#x21b;" horiz-adv-x="429" 
d="M123.5 17q-36.5 35 -36.5 91q0 8 2 28l48 307h-107l10 62h107l24 149l78 18l-27 -167h213l-10 -62h-212l-49 -303q-1 -7 -1 -20q0 -34 17.5 -53.5t48.5 -19.5q39 0 72.5 28t45.5 75l58 -31q-17 -63 -69 -100t-115 -37q-61 0 -97.5 35zM127 -209q15 -3 26 -3q24 0 36.5 13
t13.5 37q-9 -3 -17 -3q-18 0 -31 13t-13 31q0 19 14 32.5t34 13.5q23 0 37 -17.5t14 -48.5q0 -51 -24.5 -77t-65.5 -26q-14 0 -29 3z" />
    <glyph glyph-name="uni0237" unicode="&#x237;" horiz-adv-x="190" 
d="M-157 -214l16 61q22 -9 50 -9q38 0 64.5 24t32.5 64l92 579h75l-94 -591q-10 -67 -53.5 -104.5t-110.5 -37.5q-44 0 -72 14z" />
    <glyph glyph-name="circumflex" unicode="&#x2c6;" horiz-adv-x="365" 
d="M78 618l157 130h52l116 -130l-28 -27l-116 129l-156 -129z" />
    <glyph glyph-name="caron" unicode="&#x2c7;" horiz-adv-x="365" 
d="M96 732l28 27l116 -129l157 129l24 -27l-157 -130h-53z" />
    <glyph glyph-name="breve" unicode="&#x2d8;" horiz-adv-x="349" 
d="M132.5 627q-35.5 35 -35.5 92q0 19 2 29h37q-2 -16 -2 -22q0 -43 27 -70t71 -27q52 0 90.5 33.5t46.5 85.5h39q-11 -68 -61.5 -112t-118.5 -44q-60 0 -95.5 35z" />
    <glyph glyph-name="dotaccent" unicode="&#x2d9;" horiz-adv-x="151" 
d="M96 615.5q-13 12.5 -13 32.5q0 28 19 46.5t46 18.5q22 0 35 -12.5t13 -32.5q0 -28 -19 -46.5t-46 -18.5q-22 0 -35 12.5z" />
    <glyph glyph-name="ring" unicode="&#x2da;" horiz-adv-x="225" 
d="M108.5 613q-21.5 21 -21.5 55q0 48 31.5 79t77.5 31q36 0 57.5 -21t21.5 -55q0 -48 -31.5 -79t-77.5 -31q-36 0 -57.5 21zM218 647.5q19 19.5 19 48.5q0 21 -13 33.5t-35 12.5q-27 0 -46.5 -19t-19.5 -48q0 -22 13.5 -34.5t35.5 -12.5q27 0 46 19.5z" />
    <glyph glyph-name="ogonek" unicode="&#x2db;" horiz-adv-x="251" 
d="M-29 -187q-19 18 -19 47q0 55 52 93.5t158 75.5l11 -29q-96 -36 -139 -64.5t-43 -69.5q0 -17 10.5 -26.5t29.5 -9.5q16 0 36.5 12t38.5 31l22 -26q-22 -24 -51 -38t-54 -14q-33 0 -52 18z" />
    <glyph glyph-name="tilde" unicode="&#x2dc;" horiz-adv-x="365" 
d="M265 604.5q-16 14.5 -34 42.5q-14 24 -25 36.5t-27 12.5q-23 0 -41.5 -27t-25.5 -69h-37q9 58 39.5 95.5t71.5 37.5q26 0 42.5 -14.5t31.5 -40.5q16 -28 26 -39.5t26 -11.5q24 0 43 26.5t29 70.5h36q-12 -60 -42 -97t-70 -37q-27 0 -43 14.5z" />
    <glyph glyph-name="hungarumlaut" unicode="&#x2dd;" horiz-adv-x="327" 
d="M78 621l129 146l27 -23l-129 -145zM229 621l129 146l27 -23l-129 -145z" />
    <glyph glyph-name="Wgrave" unicode="&#x1e80;" horiz-adv-x="950" 
d="M82 705h84l69 -624h2l247 624h125l50 -624h2l265 624h86l-304 -705h-121l-51 622h-2l-250 -622h-120zM496 906l32 20l67 -125l-31 -20z" />
    <glyph glyph-name="wgrave" unicode="&#x1e81;" horiz-adv-x="770" 
d="M51 505h77l57 -430h1l190 430h96l57 -431h1l191 431h80l-233 -505h-98l-56 425h-1l-187 -425h-99zM358 744l32 21l83 -146l-32 -20z" />
    <glyph glyph-name="Wacute" unicode="&#x1e82;" horiz-adv-x="950" 
d="M82 705h84l69 -624h2l247 624h125l50 -624h2l265 624h86l-304 -705h-121l-51 622h-2l-250 -622h-120zM541 801l108 125l27 -22l-109 -125z" />
    <glyph glyph-name="wacute" unicode="&#x1e83;" horiz-adv-x="770" 
d="M51 505h77l57 -430h1l190 430h96l57 -431h1l191 431h80l-233 -505h-98l-56 425h-1l-187 -425h-99zM418 623l129 145l28 -24l-129 -145z" />
    <glyph glyph-name="Wdieresis" unicode="&#x1e84;" horiz-adv-x="950" 
d="M82 705h84l69 -624h2l247 624h125l50 -624h2l265 624h86l-304 -705h-121l-51 622h-2l-250 -622h-120zM418 815.5q-13 12.5 -13 32.5q0 27 19 45.5t46 18.5q22 0 35 -12t13 -32q0 -27 -19 -46t-46 -19q-22 0 -35 12.5zM638 815.5q-13 12.5 -13 33.5q0 27 19 45t46 18
q22 0 34.5 -12t12.5 -32q0 -27 -18.5 -46t-45.5 -19q-22 0 -35 12.5z" />
    <glyph glyph-name="wdieresis" unicode="&#x1e85;" horiz-adv-x="770" 
d="M51 505h77l57 -430h1l190 430h96l57 -431h1l191 431h80l-233 -505h-98l-56 425h-1l-187 -425h-99zM299 617.5q-13 12.5 -13 32.5q0 27 19 45t46 18q23 0 36 -12t13 -32q0 -27 -19.5 -45.5t-46.5 -18.5q-22 0 -35 12.5zM511.5 617q-12.5 12 -12.5 32q0 28 19 46t46 18
q22 0 35 -12t13 -32q0 -27 -19.5 -45.5t-46.5 -18.5q-22 0 -34.5 12z" />
    <glyph glyph-name="uni1E9E" unicode="&#x1e9e;" horiz-adv-x="560" 
d="M489.5 228q23.5 -32 23.5 -74q0 -50 -24.5 -88t-67 -58.5t-94.5 -20.5q-74 0 -115.5 41.5t-41.5 110.5q0 17 3 35l73 13q-3 -18 -3 -35q0 -48 23.5 -75.5t68.5 -27.5q40 0 71.5 27t31.5 67q0 23 -14.5 41.5t-45.5 35.5l-68 38q-42 23 -60.5 48t-18.5 56q0 57 51 93.5
t145 46.5q17 37 17 71q0 38 -26 58.5t-71 20.5q-66 0 -116 -45.5t-62 -119.5l-77 -487h-82l79 500q11 67 48 118t93 79t123 28q77 0 123.5 -38t46.5 -109q0 -31 -9.5 -68t-23.5 -61q-175 -9 -181 -76q-1 -14 8.5 -26t31.5 -25l66 -36q51 -26 74.5 -58z" />
    <glyph glyph-name="Ygrave" unicode="&#x1ef2;" horiz-adv-x="581" 
d="M253 262l-170 443h88l132 -361h1l246 361h94l-309 -443l-42 -262h-83zM310 906l32 20l67 -125l-31 -20z" />
    <glyph glyph-name="ygrave" unicode="&#x1ef3;" 
d="M9.5 -191.5q-59.5 36.5 -77.5 99.5l69 39q14 -51 55 -79t101 -28q81 0 134.5 44.5t67.5 122.5l6 39h-1q-29 -40 -74.5 -62t-93.5 -22q-79 0 -123.5 46t-44.5 122q0 21 3 42l53 333h75l-53 -338q-3 -16 -3 -31q0 -49 27 -77.5t77 -28.5q42 0 80.5 20t65 55t33.5 79l51 321
h75l-79 -503q-17 -109 -90.5 -169.5t-184.5 -60.5q-89 0 -148.5 36.5zM233 744l32 21l83 -146l-32 -20z" />
    <glyph glyph-name="endash" unicode="&#x2013;" horiz-adv-x="630" 
d="M56 288h530l-6 -38h-530z" />
    <glyph glyph-name="emdash" unicode="&#x2014;" horiz-adv-x="986" 
d="M56 288h886l-6 -38h-886z" />
    <glyph glyph-name="quoteleft" unicode="&#x2018;" horiz-adv-x="219" 
d="M248 690q-14 3 -26 3q-39 0 -62.5 -27.5t-28.5 -71.5q13 6 26 6q19 0 32.5 -13t13.5 -35q0 -26 -15 -42.5t-40 -16.5t-40 19.5t-15 50.5q0 67 35 114t91 47q17 0 32 -4z" />
    <glyph glyph-name="quoteright" unicode="&#x2019;" horiz-adv-x="218" 
d="M84 528q14 -3 26 -3q39 0 62.5 27t27.5 72q-12 -6 -25 -6q-19 0 -32.5 13t-13.5 34q0 26 15 42.5t40 16.5t40 -19t15 -50q0 -66 -35 -113.5t-91 -47.5q-17 0 -32 4z" />
    <glyph glyph-name="quotesinglbase" unicode="&#x201a;" horiz-adv-x="219" 
d="M-15 -100q14 -3 26 -3q39 0 62.5 27t27.5 72q-12 -6 -25 -6q-19 0 -32.5 13t-13.5 34q0 26 15 42.5t40 16.5t40 -19t15 -50q0 -66 -35 -113.5t-91 -47.5q-17 0 -32 4z" />
    <glyph glyph-name="quotedblleft" unicode="&#x201c;" horiz-adv-x="375" 
d="M248 690q-14 3 -26 3q-39 0 -62.5 -27.5t-28.5 -71.5q13 6 26 6q19 0 32.5 -13t13.5 -35q0 -26 -15 -42.5t-40 -16.5t-40 19.5t-15 50.5q0 67 35 114t91 47q17 0 32 -4zM404 690q-14 3 -26 3q-39 0 -62.5 -27.5t-28.5 -71.5q13 6 26 6q19 0 32.5 -13t13.5 -35
q0 -26 -15 -42.5t-40 -16.5t-40 19.5t-15 50.5q0 67 35 114t91 47q17 0 32 -4z" />
    <glyph glyph-name="quotedblright" unicode="&#x201d;" horiz-adv-x="374" 
d="M84 528q13 -3 26 -3q39 0 62.5 27t27.5 72q-12 -6 -25 -6q-19 0 -32.5 13t-13.5 34q0 26 15 42.5t40 16.5t40 -19t15 -50q0 -67 -35.5 -114.5t-92.5 -47.5q-16 0 -31 4zM240 528q14 -3 27 -3q39 0 62 27t28 72q-14 -6 -26 -6q-19 0 -32.5 13t-13.5 34q0 26 15 42.5
t40 16.5t40 -19t15 -50q0 -67 -35.5 -114.5t-91.5 -47.5q-16 0 -31 4z" />
    <glyph glyph-name="quotedblbase" unicode="&#x201e;" horiz-adv-x="375" 
d="M-15 -100q14 -3 26 -3q39 0 62.5 27t27.5 72q-12 -6 -25 -6q-19 0 -32.5 13t-13.5 34q0 26 15 42.5t40 16.5t40 -19t15 -50q0 -66 -35 -113.5t-91 -47.5q-17 0 -32 4zM141 -100q14 -3 27 -3q39 0 62 27t28 72q-13 -6 -26 -6q-19 0 -32.5 13t-13.5 34q0 26 15 42.5
t40 16.5t40 -19t15 -50q0 -67 -35 -114t-91 -47q-17 0 -32 4z" />
    <glyph glyph-name="bullet" unicode="&#x2022;" horiz-adv-x="274" 
d="M77 242.5q-27 26.5 -27 67.5t27 67.5t69 26.5q43 0 69.5 -26.5t26.5 -67.5t-26.5 -67.5t-69.5 -26.5q-42 0 -69 26.5z" />
    <glyph glyph-name="ellipsis" unicode="&#x2026;" horiz-adv-x="533" 
d="M21 1.5q-14 13.5 -14 35.5q0 26 17 43.5t43 17.5q23 0 37 -14t14 -36q0 -26 -17 -43t-43 -17q-23 0 -37 13.5zM191 1.5q-14 13.5 -14 35.5q0 26 17 43.5t43 17.5q23 0 37 -14t14 -36q0 -26 -17 -43t-43 -17q-23 0 -37 13.5zM363 1.5q-14 13.5 -14 35.5q0 26 17 43.5
t43 17.5q23 0 37 -14t14 -36q0 -26 -17 -43t-43 -17q-23 0 -37 13.5z" />
    <glyph glyph-name="perthousand" unicode="&#x2030;" horiz-adv-x="1458" 
d="M177 11l630 734l30 -22l-631 -733zM122 389.5q-49 45.5 -49 119.5q0 63 30 115t82 82t115 30q79 0 127.5 -46.5t48.5 -122.5q0 -63 -29.5 -114t-81.5 -80t-115 -29q-79 0 -128 45.5zM335 425.5q35 21.5 54 58t19 79.5q0 51 -30.5 81.5t-80.5 30.5q-46 0 -82 -22
t-55 -58.5t-19 -79.5q0 -51 30.5 -81t82.5 -30q46 0 81 21.5zM576 33q-49 46 -49 120q0 62 30 114t82 82t115 30q79 0 127.5 -46.5t48.5 -122.5q0 -63 -29.5 -114t-81.5 -80t-115 -29q-79 0 -128 46zM1066 33q-49 46 -49 120q0 62 30 114t82 82t115 30q79 0 127.5 -46.5
t48.5 -122.5q0 -63 -29.5 -114t-81.5 -80t-115 -29q-79 0 -128 46zM789 69.5q35 21.5 54 58t19 79.5q0 50 -30.5 80.5t-80.5 30.5q-46 0 -81.5 -22t-54.5 -58.5t-19 -79.5q0 -50 30.5 -80t81.5 -30q46 0 81 21.5zM1279 69.5q35 21.5 54 58t19 79.5q0 50 -30.5 80.5
t-80.5 30.5q-46 0 -81.5 -22t-54.5 -58.5t-19 -79.5q0 -50 30.5 -80t81.5 -30q46 0 81 21.5z" />
    <glyph glyph-name="guilsinglleft" unicode="&#x2039;" horiz-adv-x="288" 
d="M29 252l242 263l26 -23l-220 -240l144 -239l-34 -23z" />
    <glyph glyph-name="guilsinglright" unicode="&#x203a;" horiz-adv-x="288" 
d="M-9 13l220 239l-144 240l34 23l158 -263l-242 -262z" />
    <glyph glyph-name="lira" unicode="&#x20a4;" horiz-adv-x="541" 
d="M1 73q50 15 90 71t52 130h-102l6 38h102l8 53h-102l6 38h102l20 124q14 91 70 146t137 55q77 0 121 -51t44 -134q0 -17 -1 -26l-74 -7q1 9 1 26q0 59 -22.5 92.5t-67.5 33.5q-50 0 -86 -39.5t-45 -101.5l-19 -118h248l-6 -38h-248l-9 -53h249l-6 -38h-250
q-11 -70 -49.5 -127t-88.5 -80v-1l400 1l-10 -67h-481z" />
    <glyph glyph-name="Euro" unicode="&#x20ac;" horiz-adv-x="854" 
d="M835 259q-24 -81 -79 -145.5t-130 -100.5t-156 -36q-91 0 -159 38t-104.5 107.5t-36.5 160.5v1h-113v38h115q1 23 9 67h-124v38h134q25 85 76.5 153.5t124 108t158.5 39.5q114 0 185 -66t82 -176l-79 -13q-8 85 -57.5 133.5t-134.5 48.5q-94 0 -165.5 -64.5
t-104.5 -163.5h328v-38h-339q-8 -37 -11 -67h350v-38h-351q2 -107 61.5 -170.5t159.5 -63.5q63 0 121.5 30.5t102 84t62.5 119.5z" />
    <glyph glyph-name="trademark" unicode="&#x2122;" horiz-adv-x="966" 
d="M213 645h-141l10 60h348l-9 -60h-142l-58 -365h-66zM474 705h96l101 -347l210 347h97l-68 -425h-66l54 341l-207 -341h-65l-99 341l-54 -341h-66z" />
    <glyph glyph-name="arrowleft" unicode="&#x2190;" horiz-adv-x="594" 
d="M36 261l220 229l27 -26l-176 -184h452v-38h-452l176 -184l-27 -26z" />
    <glyph glyph-name="arrowup" unicode="&#x2191;" horiz-adv-x="527" 
d="M271 522l229 -220l-25 -28l-185 177v-452h-38v452l-183 -177l-27 28z" />
    <glyph glyph-name="arrowright" unicode="&#x2192;" horiz-adv-x="594" 
d="M314 58l177 184h-452v38h452l-177 184l27 26l220 -229l-220 -229z" />
    <glyph glyph-name="arrowdown" unicode="&#x2193;" horiz-adv-x="527" 
d="M54 230l183 -176v452h38v-452l185 176l25 -27l-229 -220l-229 220z" />
    <glyph glyph-name="arrowboth" unicode="&#x2194;" horiz-adv-x="922" 
d="M889 261l-220 -229l-27 26l177 184h-712l176 -184l-27 -26l-220 229l220 229l27 -26l-176 -184h712l-177 184l27 26z" />
    <glyph glyph-name="arrowupdn" unicode="&#x2195;" horiz-adv-x="583" 
d="M495 100l26 -27l-229 -220l-229 220l26 27l184 -176v657l-184 -177l-26 28l229 220l229 -220l-26 -28l-184 177v-657z" />
    <glyph glyph-name="uni2196" unicode="&#x2196;" horiz-adv-x="534" 
d="M409 413l-255 -5l320 -320l-27 -27l-320 320l-5 -255l-38 1l7 317l317 7z" />
    <glyph glyph-name="uni2197" unicode="&#x2197;" horiz-adv-x="478" 
d="M392 444l6 -317l-37 -1l-6 255l-319 -320l-27 27l320 320l-255 5l1 38z" />
    <glyph glyph-name="uni2198" unicode="&#x2198;" horiz-adv-x="534" 
d="M446 78l-317 -6l-1 37l255 6l-319 319l26 27l320 -320l5 255h38z" />
    <glyph glyph-name="uni2199" unicode="&#x2199;" horiz-adv-x="478" 
d="M121 396l5 -255l319 320l27 -27l-320 -319l256 -6l-1 -37l-318 6l-6 318h38z" />
    <glyph glyph-name="minus" unicode="&#x2212;" horiz-adv-x="488" 
d="M74 402h388l-11 -69h-388z" />
    <glyph glyph-name="notequal" unicode="&#x2260;" horiz-adv-x="539" 
d="M341 416l-58 -118h214l-12 -69h-236l-116 -235l-34 10l110 225h-163l12 69h185l58 118h-225l11 68h247l110 224l35 -12l-104 -212h151l-11 -68h-174z" />
    <glyph glyph-name="lessequal" unicode="&#x2264;" horiz-adv-x="432" 
d="M66 352l15 98l330 142l14 -69l-292 -121l253 -123l-35 -69zM34 151h331l-5 -38h-332z" />
    <glyph glyph-name="greaterequal" unicode="&#x2265;" horiz-adv-x="432" 
d="M54 279l292 123l-253 121l35 69l285 -142l-15 -98l-331 -142zM28 113l6 38h331l-5 -38h-332z" />
    <glyph glyph-name="uniF6C3" unicode="&#xf6c3;" horiz-adv-x="0" 
d="M-198 -209q15 -3 26 -3q24 0 36.5 13t13.5 37q-9 -3 -17 -3q-18 0 -31 13t-13 31q0 19 14 32.5t34 13.5q23 0 37 -17.5t14 -48.5q0 -51 -24.5 -77t-65.5 -26q-14 0 -29 3z" />
    <glyph glyph-name="G.alt1" horiz-adv-x="777" 
d="M192 15q-70 38 -108 107.5t-38 160.5q0 117 52.5 219.5t144 164t203.5 61.5q66 0 121.5 -26.5t91.5 -74t45 -106.5l-78 -19q-10 69 -61 111t-124 42q-88 0 -159.5 -53t-112.5 -138t-41 -178q0 -70 28 -123.5t80 -83t122 -29.5q75 0 141.5 35t112 96t59.5 137l-376 -2
l11 73l457 -2q-2 -23 -5 -40q-17 -109 -73.5 -193t-142 -130.5t-187.5 -46.5q-93 0 -163 38z" />
    <glyph glyph-name="K.alt1" horiz-adv-x="541" 
d="M132 705h82l-50 -311l1 -1l329 312h103l-366 -340l270 -365h-105l-238 335h-1l-55 -335h-82z" />
    <glyph glyph-name="R.alt1" horiz-adv-x="635" 
d="M132 705h287q104 0 160.5 -46t56.5 -129q0 -69 -42 -121t-115 -79v-1q81 -20 81 -102q0 -14 -1 -22l-33 -205h-83l34 209q1 7 1 20q0 69 -70 69h-259l-47 -298h-82zM366 371q50 0 93.5 20t69.5 55t26 78q0 51 -37 79.5t-106 28.5h-209l-42 -261h205z" />
    <glyph glyph-name="R.alt2" horiz-adv-x="626" 
d="M132 705h287q104 0 160.5 -46t56.5 -129q0 -84 -58.5 -143.5t-150.5 -73.5l121 -313h-91l-113 298h-195l-47 -298h-82zM366 371q52 0 95 20t68.5 55t25.5 78q0 51 -37 79.5t-106 28.5h-209l-42 -261h205z" />
    <glyph glyph-name="a.alt1" horiz-adv-x="508" 
d="M45.5 18q-45.5 36 -45.5 97q0 78 67 123.5t175 59.5l116 14q20 2 32.5 13.5t15.5 30.5q1 6 1 18q0 39 -29 60t-82 21q-69 0 -119 -37t-65 -87l-63 34q14 43 48.5 79t85.5 57.5t110 21.5q86 0 136.5 -40t50.5 -112q0 -16 -3 -34l-54 -337h-67l5 78h-1q-33 -46 -83 -71
t-110 -25q-76 0 -121.5 36zM275 71.5q43 21.5 72 59.5t36 85l5 35l-144 -17q-74 -9 -121.5 -38t-47.5 -75q0 -33 29 -52t78 -19q50 0 93 21.5z" />
    <glyph glyph-name="a.alt2" horiz-adv-x="569" 
d="M45.5 18.5q-45.5 36.5 -45.5 97.5q0 77 67 122.5t175 59.5l116 14q24 3 36.5 19t12.5 43q0 39 -29.5 60t-81.5 21q-69 0 -119 -37t-65 -87l-63 34q14 43 48.5 79t85.5 57.5t111 21.5q86 0 136 -40t50 -112q0 -16 -3 -34l-40 -255q-1 -4 -1 -10q0 -21 18 -21q11 0 24 9
t22 23l35 -52q-19 -23 -47.5 -36t-54.5 -13q-34 0 -54.5 20.5t-20.5 50.5q0 7 1 11l2 14h-1q-33 -46 -83 -71t-110 -25q-76 0 -121.5 36.5zM275.5 71.5q43.5 21.5 72 59.5t35.5 85l5 35l-144 -17q-74 -9 -121.5 -38.5t-47.5 -75.5q0 -33 29.5 -51.5t78.5 -18.5t92.5 21.5z
" />
    <glyph glyph-name="k.alt1" horiz-adv-x="441" 
d="M126 735h75l-70 -443h1l234 213h100l-266 -236l200 -269h-92l-181 247h-1l-41 -247h-75z" />
    <glyph glyph-name="u.alt1" horiz-adv-x="518" 
d="M79 22q-49 40 -49 115q0 23 4 43l51 325h75l-52 -330q-2 -10 -2 -28q0 -48 30 -72.5t87 -24.5q68 0 110.5 33.5t52.5 96.5l52 325h75l-52 -330q-15 -93 -77.5 -143t-163.5 -50q-92 0 -141 40z" />
    <glyph glyph-name="y.alt1" horiz-adv-x="494" 
d="M195 31l-144 474h79l113 -377h1l201 377h80l-382 -715h-80z" />
    <glyph glyph-name="agrave.alt1" horiz-adv-x="508" 
d="M45.5 18q-45.5 36 -45.5 97q0 78 67 123.5t175 59.5l116 14q20 2 32.5 13.5t15.5 30.5q1 6 1 18q0 39 -29 60t-82 21q-69 0 -119 -37t-65 -87l-63 34q14 43 48.5 79t85.5 57.5t110 21.5q86 0 136.5 -40t50.5 -112q0 -16 -3 -34l-54 -337h-67l5 78h-1q-33 -46 -83 -71
t-110 -25q-76 0 -121.5 36zM275 71.5q43 21.5 72 59.5t36 85l5 35l-144 -17q-74 -9 -121.5 -38t-47.5 -75q0 -33 29 -52t78 -19q50 0 93 21.5zM228 744l32 21l83 -146l-32 -20z" />
    <glyph glyph-name="agrave.alt2" horiz-adv-x="569" 
d="M45.5 18.5q-45.5 36.5 -45.5 97.5q0 77 67 122.5t175 59.5l116 14q24 3 36.5 19t12.5 43q0 39 -29.5 60t-81.5 21q-69 0 -119 -37t-65 -87l-63 34q14 43 48.5 79t85.5 57.5t111 21.5q86 0 136 -40t50 -112q0 -16 -3 -34l-40 -255q-1 -4 -1 -10q0 -21 18 -21q11 0 24 9
t22 23l35 -52q-19 -23 -47.5 -36t-54.5 -13q-34 0 -54.5 20.5t-20.5 50.5q0 7 1 11l2 14h-1q-33 -46 -83 -71t-110 -25q-76 0 -121.5 36.5zM275.5 71.5q43.5 21.5 72 59.5t35.5 85l5 35l-144 -17q-74 -9 -121.5 -38.5t-47.5 -75.5q0 -33 29.5 -51.5t78.5 -18.5t92.5 21.5z
M228 744l32 21l83 -146l-32 -20z" />
    <glyph glyph-name="aacute.alt1" horiz-adv-x="508" 
d="M45.5 18q-45.5 36 -45.5 97q0 78 67 123.5t175 59.5l116 14q20 2 32.5 13.5t15.5 30.5q1 6 1 18q0 39 -29 60t-82 21q-69 0 -119 -37t-65 -87l-63 34q14 43 48.5 79t85.5 57.5t110 21.5q86 0 136.5 -40t50.5 -112q0 -16 -3 -34l-54 -337h-67l5 78h-1q-33 -46 -83 -71
t-110 -25q-76 0 -121.5 36zM275 71.5q43 21.5 72 59.5t36 85l5 35l-144 -17q-74 -9 -121.5 -38t-47.5 -75q0 -33 29 -52t78 -19q50 0 93 21.5zM288 623l129 145l28 -24l-129 -145z" />
    <glyph glyph-name="aacute.alt2" horiz-adv-x="569" 
d="M45.5 18.5q-45.5 36.5 -45.5 97.5q0 77 67 122.5t175 59.5l116 14q24 3 36.5 19t12.5 43q0 39 -29.5 60t-81.5 21q-69 0 -119 -37t-65 -87l-63 34q14 43 48.5 79t85.5 57.5t111 21.5q86 0 136 -40t50 -112q0 -16 -3 -34l-40 -255q-1 -4 -1 -10q0 -21 18 -21q11 0 24 9
t22 23l35 -52q-19 -23 -47.5 -36t-54.5 -13q-34 0 -54.5 20.5t-20.5 50.5q0 7 1 11l2 14h-1q-33 -46 -83 -71t-110 -25q-76 0 -121.5 36.5zM275.5 71.5q43.5 21.5 72 59.5t35.5 85l5 35l-144 -17q-74 -9 -121.5 -38.5t-47.5 -75.5q0 -33 29.5 -51.5t78.5 -18.5t92.5 21.5z
M288 623l129 145l28 -24l-129 -145z" />
    <glyph glyph-name="atilde.alt1" horiz-adv-x="508" 
d="M45.5 18q-45.5 36 -45.5 97q0 78 67 123.5t175 59.5l116 14q20 2 32.5 13.5t15.5 30.5q1 6 1 18q0 39 -29 60t-82 21q-69 0 -119 -37t-65 -87l-63 34q14 43 48.5 79t85.5 57.5t110 21.5q86 0 136.5 -40t50.5 -112q0 -16 -3 -34l-54 -337h-67l5 78h-1q-33 -46 -83 -71
t-110 -25q-76 0 -121.5 36zM275 71.5q43 21.5 72 59.5t36 85l5 35l-144 -17q-74 -9 -121.5 -38t-47.5 -75q0 -33 29 -52t78 -19q50 0 93 21.5zM338 604.5q-16 14.5 -34 42.5q-14 24 -25 36.5t-27 12.5q-23 0 -41.5 -27t-25.5 -69h-37q9 58 39.5 95.5t71.5 37.5
q26 0 42.5 -14.5t31.5 -40.5q16 -28 26 -39.5t26 -11.5q24 0 43 26.5t29 70.5h36q-12 -60 -42 -97t-70 -37q-27 0 -43 14.5z" />
    <glyph glyph-name="atilde.alt2" horiz-adv-x="569" 
d="M45.5 18.5q-45.5 36.5 -45.5 97.5q0 77 67 122.5t175 59.5l116 14q24 3 36.5 19t12.5 43q0 39 -29.5 60t-81.5 21q-69 0 -119 -37t-65 -87l-63 34q14 43 48.5 79t85.5 57.5t111 21.5q86 0 136 -40t50 -112q0 -16 -3 -34l-40 -255q-1 -4 -1 -10q0 -21 18 -21q11 0 24 9
t22 23l35 -52q-19 -23 -47.5 -36t-54.5 -13q-34 0 -54.5 20.5t-20.5 50.5q0 7 1 11l2 14h-1q-33 -46 -83 -71t-110 -25q-76 0 -121.5 36.5zM275.5 71.5q43.5 21.5 72 59.5t35.5 85l5 35l-144 -17q-74 -9 -121.5 -38.5t-47.5 -75.5q0 -33 29.5 -51.5t78.5 -18.5t92.5 21.5z
M339 604.5q-16 14.5 -34 42.5q-14 24 -25 36.5t-27 12.5q-23 0 -41.5 -27t-25.5 -69h-37q9 58 39.5 95.5t71.5 37.5q26 0 42.5 -14.5t31.5 -40.5q16 -28 26 -39.5t26 -11.5q24 0 43 26.5t29 70.5h36q-12 -60 -42 -97t-70 -37q-27 0 -43 14.5z" />
    <glyph glyph-name="adieresis.alt1" horiz-adv-x="508" 
d="M45.5 18q-45.5 36 -45.5 97q0 78 67 123.5t175 59.5l116 14q20 2 32.5 13.5t15.5 30.5q1 6 1 18q0 39 -29 60t-82 21q-69 0 -119 -37t-65 -87l-63 34q14 43 48.5 79t85.5 57.5t110 21.5q86 0 136.5 -40t50.5 -112q0 -16 -3 -34l-54 -337h-67l5 78h-1q-33 -46 -83 -71
t-110 -25q-76 0 -121.5 36zM275 71.5q43 21.5 72 59.5t36 85l5 35l-144 -17q-74 -9 -121.5 -38t-47.5 -75q0 -33 29 -52t78 -19q50 0 93 21.5zM169 617.5q-13 12.5 -13 32.5q0 27 19 45t46 18q23 0 36 -12t13 -32q0 -27 -19.5 -45.5t-46.5 -18.5q-22 0 -35 12.5zM381.5 617
q-12.5 12 -12.5 32q0 28 19 46t46 18q22 0 35 -12t13 -32q0 -27 -19.5 -45.5t-46.5 -18.5q-22 0 -34.5 12z" />
    <glyph glyph-name="adieresis.alt2" horiz-adv-x="569" 
d="M45.5 18.5q-45.5 36.5 -45.5 97.5q0 77 67 122.5t175 59.5l116 14q24 3 36.5 19t12.5 43q0 39 -29.5 60t-81.5 21q-69 0 -119 -37t-65 -87l-63 34q14 43 48.5 79t85.5 57.5t111 21.5q86 0 136 -40t50 -112q0 -16 -3 -34l-40 -255q-1 -4 -1 -10q0 -21 18 -21q11 0 24 9
t22 23l35 -52q-19 -23 -47.5 -36t-54.5 -13q-34 0 -54.5 20.5t-20.5 50.5q0 7 1 11l2 14h-1q-33 -46 -83 -71t-110 -25q-76 0 -121.5 36.5zM275.5 71.5q43.5 21.5 72 59.5t35.5 85l5 35l-144 -17q-74 -9 -121.5 -38.5t-47.5 -75.5q0 -33 29.5 -51.5t78.5 -18.5t92.5 21.5z
M170 617.5q-13 12.5 -13 32.5q0 27 19 45t46 18q23 0 36 -12t13 -32q0 -27 -19.5 -45.5t-46.5 -18.5q-22 0 -35 12.5zM382.5 617q-12.5 12 -12.5 32q0 28 19 46t46 18q22 0 35 -12t13 -32q0 -27 -19.5 -45.5t-46.5 -18.5q-22 0 -34.5 12z" />
    <glyph glyph-name="aring.alt1" horiz-adv-x="508" 
d="M45.5 18q-45.5 36 -45.5 97q0 78 67 123.5t175 59.5l116 14q20 2 32.5 13.5t15.5 30.5q1 6 1 18q0 39 -29 60t-82 21q-69 0 -119 -37t-65 -87l-63 34q14 43 48.5 79t85.5 57.5t110 21.5q86 0 136.5 -40t50.5 -112q0 -16 -3 -34l-54 -337h-67l5 78h-1q-33 -46 -83 -71
t-110 -25q-76 0 -121.5 36zM275 71.5q43 21.5 72 59.5t36 85l5 35l-144 -17q-74 -9 -121.5 -38t-47.5 -75q0 -33 29 -52t78 -19q50 0 93 21.5zM250.5 613q-21.5 21 -21.5 55q0 48 31.5 79t77.5 31q36 0 57.5 -21t21.5 -55q0 -48 -31.5 -79t-77.5 -31q-36 0 -57.5 21z
M360 647.5q19 19.5 19 48.5q0 21 -13 33.5t-35 12.5q-27 0 -46.5 -19t-19.5 -48q0 -22 13.5 -34.5t35.5 -12.5q27 0 46 19.5z" />
    <glyph glyph-name="aring.alt2" horiz-adv-x="569" 
d="M45.5 18.5q-45.5 36.5 -45.5 97.5q0 77 67 122.5t175 59.5l116 14q24 3 36.5 19t12.5 43q0 39 -29.5 60t-81.5 21q-69 0 -119 -37t-65 -87l-63 34q14 43 48.5 79t85.5 57.5t111 21.5q86 0 136 -40t50 -112q0 -16 -3 -34l-40 -255q-1 -4 -1 -10q0 -21 18 -21q11 0 24 9
t22 23l35 -52q-19 -23 -47.5 -36t-54.5 -13q-34 0 -54.5 20.5t-20.5 50.5q0 7 1 11l2 14h-1q-33 -46 -83 -71t-110 -25q-76 0 -121.5 36.5zM275.5 71.5q43.5 21.5 72 59.5t35.5 85l5 35l-144 -17q-74 -9 -121.5 -38.5t-47.5 -75.5q0 -33 29.5 -51.5t78.5 -18.5t92.5 21.5z
M251.5 613q-21.5 21 -21.5 55q0 48 31.5 79t77.5 31q36 0 57.5 -21t21.5 -55q0 -48 -31.5 -79t-77.5 -31q-36 0 -57.5 21zM361 647.5q19 19.5 19 48.5q0 21 -13 33.5t-35 12.5q-27 0 -46.5 -19t-19.5 -48q0 -22 13.5 -34.5t35.5 -12.5q27 0 46 19.5z" />
    <glyph glyph-name="amacron.alt1" horiz-adv-x="508" 
d="M45.5 18q-45.5 36 -45.5 97q0 78 67 123.5t175 59.5l116 14q20 2 32.5 13.5t15.5 30.5q1 6 1 18q0 39 -29 60t-82 21q-69 0 -119 -37t-65 -87l-63 34q14 43 48.5 79t85.5 57.5t110 21.5q86 0 136.5 -40t50.5 -112q0 -16 -3 -34l-54 -337h-67l5 78h-1q-33 -46 -83 -71
t-110 -25q-76 0 -121.5 36zM275 71.5q43 21.5 72 59.5t36 85l5 35l-144 -17q-74 -9 -121.5 -38t-47.5 -75q0 -33 29 -52t78 -19q50 0 93 21.5zM173 635h285l-6 -37h-285z" />
    <glyph glyph-name="amacron.alt2" horiz-adv-x="569" 
d="M45.5 18.5q-45.5 36.5 -45.5 97.5q0 77 67 122.5t175 59.5l116 14q24 3 36.5 19t12.5 43q0 39 -29.5 60t-81.5 21q-69 0 -119 -37t-65 -87l-63 34q14 43 48.5 79t85.5 57.5t111 21.5q86 0 136 -40t50 -112q0 -16 -3 -34l-40 -255q-1 -4 -1 -10q0 -21 18 -21q11 0 24 9
t22 23l35 -52q-19 -23 -47.5 -36t-54.5 -13q-34 0 -54.5 20.5t-20.5 50.5q0 7 1 11l2 14h-1q-33 -46 -83 -71t-110 -25q-76 0 -121.5 36.5zM275.5 71.5q43.5 21.5 72 59.5t35.5 85l5 35l-144 -17q-74 -9 -121.5 -38.5t-47.5 -75.5q0 -33 29.5 -51.5t78.5 -18.5t92.5 21.5z
M174 635h285l-6 -37h-285z" />
    <glyph glyph-name="abreve.alt1" horiz-adv-x="508" 
d="M45.5 18q-45.5 36 -45.5 97q0 78 67 123.5t175 59.5l116 14q20 2 32.5 13.5t15.5 30.5q1 6 1 18q0 39 -29 60t-82 21q-69 0 -119 -37t-65 -87l-63 34q14 43 48.5 79t85.5 57.5t110 21.5q86 0 136.5 -40t50.5 -112q0 -16 -3 -34l-54 -337h-67l5 78h-1q-33 -46 -83 -71
t-110 -25q-76 0 -121.5 36zM275 71.5q43 21.5 72 59.5t36 85l5 35l-144 -17q-74 -9 -121.5 -38t-47.5 -75q0 -33 29 -52t78 -19q50 0 93 21.5zM212.5 627q-35.5 35 -35.5 92q0 19 2 29h37q-2 -16 -2 -22q0 -43 27 -70t71 -27q52 0 90.5 33.5t46.5 85.5h39
q-11 -68 -61.5 -112t-118.5 -44q-60 0 -95.5 35z" />
    <glyph glyph-name="abreve.alt2" horiz-adv-x="569" 
d="M45.5 18.5q-45.5 36.5 -45.5 97.5q0 77 67 122.5t175 59.5l116 14q24 3 36.5 19t12.5 43q0 39 -29.5 60t-81.5 21q-69 0 -119 -37t-65 -87l-63 34q14 43 48.5 79t85.5 57.5t111 21.5q86 0 136 -40t50 -112q0 -16 -3 -34l-40 -255q-1 -4 -1 -10q0 -21 18 -21q11 0 24 9
t22 23l35 -52q-19 -23 -47.5 -36t-54.5 -13q-34 0 -54.5 20.5t-20.5 50.5q0 7 1 11l2 14h-1q-33 -46 -83 -71t-110 -25q-76 0 -121.5 36.5zM275.5 71.5q43.5 21.5 72 59.5t35.5 85l5 35l-144 -17q-74 -9 -121.5 -38.5t-47.5 -75.5q0 -33 29.5 -51.5t78.5 -18.5t92.5 21.5z
M213.5 627q-35.5 35 -35.5 92q0 19 2 29h37q-2 -16 -2 -22q0 -43 27 -70t71 -27q52 0 90.5 33.5t46.5 85.5h39q-11 -68 -61.5 -112t-118.5 -44q-60 0 -95.5 35z" />
    <glyph glyph-name="aogonek.alt1" horiz-adv-x="508" 
d="M429.5 483q50.5 -40 50.5 -112q0 -16 -3 -34l-54 -335l1 -2q-96 -36 -139 -64.5t-43 -69.5q0 -17 10.5 -26.5t29.5 -9.5q16 0 36.5 12t38.5 31l22 -26q-22 -24 -51 -38t-54 -14q-33 0 -52 18t-19 47q0 48 38.5 82t114.5 65l5 71h-1q-33 -46 -83 -71t-110 -25
q-76 0 -121.5 36t-45.5 97q0 78 67 123.5t175 59.5l116 14q20 2 32.5 13.5t15.5 30.5q1 6 1 18q0 39 -29 60t-82 21q-69 0 -119 -37t-65 -87l-63 34q14 43 48.5 79t85.5 57.5t110 21.5q86 0 136.5 -40zM275 71.5q43 21.5 72 59.5t36 85l5 35l-144 -17q-74 -9 -121.5 -38
t-47.5 -75q0 -33 29 -52t78 -19q50 0 93 21.5z" />
    <glyph glyph-name="aogonek.alt2" horiz-adv-x="569" 
d="M349.5 -69q-33.5 -25 -38.5 -57q-3 -20 7.5 -32t31.5 -12q16 0 36.5 12t38.5 31l22 -26q-22 -24 -51 -38t-54 -14q-33 0 -52 18t-19 47q0 41 30.5 72.5t89.5 60.5q-16 9 -24.5 24.5t-8.5 35.5q0 7 1 11l2 14h-1q-33 -46 -83 -71t-110 -25q-76 0 -121.5 36.5t-45.5 97.5
q0 77 67 122.5t175 59.5l116 14q24 3 36.5 19t12.5 43q0 39 -29.5 60t-81.5 21q-69 0 -119 -37t-65 -87l-63 34q14 43 48.5 79t85.5 57.5t111 21.5q86 0 136 -40t50 -112q0 -16 -3 -34l-40 -255q-1 -4 -1 -10q0 -21 18 -21q11 0 24 9t22 23l35 -52q-16 -19 -39 -31.5
t-47 -16.5q-66 -27 -99.5 -52zM388 251l-144 -17q-74 -9 -121.5 -38.5t-47.5 -75.5q0 -33 29.5 -51.5t78.5 -18.5t92.5 21.5t72 59.5t35.5 85z" />
    <glyph glyph-name="acircumflex.alt1" horiz-adv-x="508" 
d="M45.5 18q-45.5 36 -45.5 97q0 78 67 123.5t175 59.5l116 14q20 2 32.5 13.5t15.5 30.5q1 6 1 18q0 39 -29 60t-82 21q-69 0 -119 -37t-65 -87l-63 34q14 43 48.5 79t85.5 57.5t110 21.5q86 0 136.5 -40t50.5 -112q0 -16 -3 -34l-54 -337h-67l5 78h-1q-33 -46 -83 -71
t-110 -25q-76 0 -121.5 36zM275 71.5q43 21.5 72 59.5t36 85l5 35l-144 -17q-74 -9 -121.5 -38t-47.5 -75q0 -33 29 -52t78 -19q50 0 93 21.5zM153 618l157 130h52l116 -130l-28 -27l-116 129l-156 -129z" />
    <glyph glyph-name="acircumflex.alt2" horiz-adv-x="569" 
d="M45.5 18.5q-45.5 36.5 -45.5 97.5q0 77 67 122.5t175 59.5l116 14q24 3 36.5 19t12.5 43q0 39 -29.5 60t-81.5 21q-69 0 -119 -37t-65 -87l-63 34q14 43 48.5 79t85.5 57.5t111 21.5q86 0 136 -40t50 -112q0 -16 -3 -34l-40 -255q-1 -4 -1 -10q0 -21 18 -21q11 0 24 9
t22 23l35 -52q-19 -23 -47.5 -36t-54.5 -13q-34 0 -54.5 20.5t-20.5 50.5q0 7 1 11l2 14h-1q-33 -46 -83 -71t-110 -25q-76 0 -121.5 36.5zM275.5 71.5q43.5 21.5 72 59.5t35.5 85l5 35l-144 -17q-74 -9 -121.5 -38.5t-47.5 -75.5q0 -33 29.5 -51.5t78.5 -18.5t92.5 21.5z
M154 618l157 130h52l116 -130l-28 -27l-116 129l-156 -129z" />
    <glyph glyph-name="Gcircumflex.alt1" horiz-adv-x="777" 
d="M192 15q-70 38 -108 107.5t-38 160.5q0 117 52.5 219.5t144 164t203.5 61.5q66 0 121.5 -26.5t91.5 -74t45 -106.5l-78 -19q-10 69 -61 111t-124 42q-88 0 -159.5 -53t-112.5 -138t-41 -178q0 -70 28 -123.5t80 -83t122 -29.5q75 0 141.5 35t112 96t59.5 137l-376 -2
l11 73l457 -2q-2 -23 -5 -40q-17 -109 -73.5 -193t-142 -130.5t-187.5 -46.5q-93 0 -163 38zM320 808l133 110h53l97 -110l-28 -27l-98 109l-133 -109z" />
    <glyph glyph-name="Gbreve.alt1" horiz-adv-x="777" 
d="M192 15q-70 38 -108 107.5t-38 160.5q0 117 52.5 219.5t144 164t203.5 61.5q66 0 121.5 -26.5t91.5 -74t45 -106.5l-78 -19q-10 69 -61 111t-124 42q-88 0 -159.5 -53t-112.5 -138t-41 -178q0 -70 28 -123.5t80 -83t122 -29.5q75 0 141.5 35t112 96t59.5 137l-376 -2
l11 73l457 -2q-2 -23 -5 -40q-17 -109 -73.5 -193t-142 -130.5t-187.5 -46.5q-93 0 -163 38zM377.5 819q-30.5 29 -30.5 76q0 7 2 23h36q-1 -6 -1 -17q0 -33 21.5 -53.5t57.5 -20.5q40 0 70.5 26t37.5 65h39q-9 -56 -51.5 -92t-99.5 -36q-51 0 -81.5 29z" />
    <glyph glyph-name="Gdotaccent.alt1" horiz-adv-x="777" 
d="M192 15q-70 38 -108 107.5t-38 160.5q0 117 52.5 219.5t144 164t203.5 61.5q66 0 121.5 -26.5t91.5 -74t45 -106.5l-78 -19q-10 69 -61 111t-124 42q-88 0 -159.5 -53t-112.5 -138t-41 -178q0 -70 28 -123.5t80 -83t122 -29.5q75 0 141.5 35t112 96t59.5 137l-376 -2
l11 73l457 -2q-2 -23 -5 -40q-17 -109 -73.5 -193t-142 -130.5t-187.5 -46.5q-93 0 -163 38zM428 816q-13 13 -13 33q0 28 18.5 46t45.5 18q22 0 35.5 -12.5t13.5 -32.5q0 -28 -19.5 -46.5t-46.5 -18.5q-21 0 -34 13z" />
    <glyph glyph-name="uni0122.alt1" horiz-adv-x="777" 
d="M192 15q-70 38 -108 107.5t-38 160.5q0 117 52.5 219.5t144 164t203.5 61.5q66 0 121.5 -26.5t91.5 -74t45 -106.5l-78 -19q-10 69 -61 111t-124 42q-88 0 -159.5 -53t-112.5 -138t-41 -178q0 -70 28 -123.5t80 -83t122 -29.5q75 0 141.5 35t112 96t59.5 137l-376 -2
l11 73l457 -2q-2 -23 -5 -40q-17 -109 -73.5 -193t-142 -130.5t-187.5 -46.5q-93 0 -163 38zM274 -209q15 -3 26 -3q24 0 36.5 13t13.5 37q-9 -3 -17 -3q-18 0 -31 13t-13 31q0 19 14 32.5t34 13.5q23 0 37 -17.5t14 -48.5q0 -51 -24.5 -77t-65.5 -26q-14 0 -29 3z" />
    <glyph glyph-name="IJacute" horiz-adv-x="680" 
d="M165 801l105 125l26 -22l-105 -125zM647 801l105 125l27 -22l-106 -125zM132 705h83l-112 -705h-83zM301.5 4q-42.5 23 -67 63.5t-26.5 91.5l75 25q-1 -57 31.5 -94t82.5 -37q57 0 93.5 36.5t48.5 107.5l81 508h82l-83 -521q-16 -99 -73.5 -151t-147.5 -52
q-54 0 -96.5 23z" />
    <glyph glyph-name="ijacute" horiz-adv-x="365" 
d="M121 615l94 152l31 -16l-93 -151zM302 615l93 152l32 -16l-93 -151zM90 505h75l-80 -505h-75zM19 -214l16 61q21 -9 50 -9q38 0 64 24t33 64l91 579h76l-94 -591q-10 -67 -53.5 -104.5t-111.5 -37.5q-43 0 -71 14z" />
    <glyph glyph-name="uni0136.alt1" horiz-adv-x="541" 
d="M132 705h82l-50 -311l1 -1l329 312h103l-366 -340l270 -365h-105l-238 335h-1l-55 -335h-82zM164 -209q15 -3 26 -3q24 0 36.5 13t13.5 37q-9 -3 -17 -3q-18 0 -31 13t-13 31q0 19 14 32.5t34 13.5q23 0 37 -17.5t14 -48.5q0 -51 -24.5 -77t-65.5 -26q-14 0 -29 3z" />
    <glyph glyph-name="uni0137.alt1" horiz-adv-x="441" 
d="M126 735h75l-70 -443h1l234 213h100l-266 -236l200 -269h-92l-181 247h-1l-41 -247h-75zM99 -209q15 -3 26 -3q24 0 36.5 13t13.5 37q-9 -3 -17 -3q-18 0 -31 13t-13 31q0 19 14 32.5t34 13.5q23 0 37 -17.5t14 -48.5q0 -51 -24.5 -77t-65.5 -26q-14 0 -29 3z" />
    <glyph glyph-name="Racute.alt1" horiz-adv-x="635" 
d="M132 705h287q104 0 160.5 -46t56.5 -129q0 -69 -42 -121t-115 -79v-1q81 -20 81 -102q0 -14 -1 -22l-33 -205h-83l34 209q1 7 1 20q0 69 -70 69h-259l-47 -298h-82zM366 371q50 0 93.5 20t69.5 55t26 78q0 51 -37 79.5t-106 28.5h-209l-42 -261h205zM370 801l108 125
l27 -22l-109 -125z" />
    <glyph glyph-name="Racute.alt2" horiz-adv-x="626" 
d="M132 705h287q104 0 160.5 -46t56.5 -129q0 -84 -58.5 -143.5t-150.5 -73.5l121 -313h-91l-113 298h-195l-47 -298h-82zM366 371q52 0 95 20t68.5 55t25.5 78q0 51 -37 79.5t-106 28.5h-209l-42 -261h205zM370 801l108 125l27 -22l-109 -125z" />
    <glyph glyph-name="Rcaron.alt1" horiz-adv-x="635" 
d="M132 705h287q104 0 160.5 -46t56.5 -129q0 -69 -42 -121t-115 -79v-1q81 -20 81 -102q0 -14 -1 -22l-33 -205h-83l34 209q1 7 1 20q0 69 -70 69h-259l-47 -298h-82zM366 371q50 0 93.5 20t69.5 55t26 78q0 51 -37 79.5t-106 28.5h-209l-42 -261h205zM263 900l29 27
l98 -109l133 109l24 -27l-133 -110h-52z" />
    <glyph glyph-name="Rcaron.alt2" horiz-adv-x="626" 
d="M132 705h287q104 0 160.5 -46t56.5 -129q0 -84 -58.5 -143.5t-150.5 -73.5l121 -313h-91l-113 298h-195l-47 -298h-82zM366 371q52 0 95 20t68.5 55t25.5 78q0 51 -37 79.5t-106 28.5h-209l-42 -261h205zM264 900l29 27l98 -109l133 109l24 -27l-133 -110h-52z" />
    <glyph glyph-name="uni0156.alt1" horiz-adv-x="635" 
d="M132 705h287q104 0 160.5 -46t56.5 -129q0 -69 -42 -121t-115 -79v-1q81 -20 81 -102q0 -14 -1 -22l-33 -205h-83l34 209q1 7 1 20q0 69 -70 69h-259l-47 -298h-82zM366 371q50 0 93.5 20t69.5 55t26 78q0 51 -37 79.5t-106 28.5h-209l-42 -261h205zM190 -209
q15 -3 26 -3q24 0 36.5 13t13.5 37q-9 -3 -17 -3q-18 0 -31 13t-13 31q0 19 14 32.5t34 13.5q23 0 37 -17.5t14 -48.5q0 -51 -24.5 -77t-65.5 -26q-14 0 -29 3z" />
    <glyph glyph-name="uni0156.alt2" horiz-adv-x="626" 
d="M132 705h287q104 0 160.5 -46t56.5 -129q0 -84 -58.5 -143.5t-150.5 -73.5l121 -313h-91l-113 298h-195l-47 -298h-82zM366 371q52 0 95 20t68.5 55t25.5 78q0 51 -37 79.5t-106 28.5h-209l-42 -261h205zM191 -209q15 -3 26 -3q24 0 36.5 13t13.5 37q-9 -3 -17 -3
q-18 0 -31 13t-13 31q0 19 14 32.5t34 13.5q23 0 37 -17.5t14 -48.5q0 -51 -24.5 -77t-65.5 -26q-14 0 -29 3z" />
    <glyph glyph-name="ugrave.alt1" horiz-adv-x="518" 
d="M79 22q-49 40 -49 115q0 23 4 43l51 325h75l-52 -330q-2 -10 -2 -28q0 -48 30 -72.5t87 -24.5q68 0 110.5 33.5t52.5 96.5l52 325h75l-52 -330q-15 -93 -77.5 -143t-163.5 -50q-92 0 -141 40zM234 744l32 21l83 -146l-32 -20z" />
    <glyph glyph-name="uacute.alt1" horiz-adv-x="518" 
d="M79 22q-49 40 -49 115q0 23 4 43l51 325h75l-52 -330q-2 -10 -2 -28q0 -48 30 -72.5t87 -24.5q68 0 110.5 33.5t52.5 96.5l52 325h75l-52 -330q-15 -93 -77.5 -143t-163.5 -50q-92 0 -141 40zM294 623l129 145l28 -24l-129 -145z" />
    <glyph glyph-name="ucircumflex.alt1" horiz-adv-x="518" 
d="M79 22q-49 40 -49 115q0 23 4 43l51 325h75l-52 -330q-2 -10 -2 -28q0 -48 30 -72.5t87 -24.5q68 0 110.5 33.5t52.5 96.5l52 325h75l-52 -330q-15 -93 -77.5 -143t-163.5 -50q-92 0 -141 40zM160 618l157 130h52l116 -130l-28 -27l-116 129l-156 -129z" />
    <glyph glyph-name="utilde.alt1" horiz-adv-x="518" 
d="M79 22q-49 40 -49 115q0 23 4 43l51 325h75l-52 -330q-2 -10 -2 -28q0 -48 30 -72.5t87 -24.5q68 0 110.5 33.5t52.5 96.5l52 325h75l-52 -330q-15 -93 -77.5 -143t-163.5 -50q-92 0 -141 40zM345 604.5q-16 14.5 -34 42.5q-14 24 -25 36.5t-27 12.5q-23 0 -41.5 -27
t-25.5 -69h-37q9 58 39.5 95.5t71.5 37.5q26 0 42.5 -14.5t31.5 -40.5q16 -28 26 -39.5t26 -11.5q24 0 43 26.5t29 70.5h36q-12 -60 -42 -97t-70 -37q-27 0 -43 14.5z" />
    <glyph glyph-name="umacron.alt1" horiz-adv-x="518" 
d="M79 22q-49 40 -49 115q0 23 4 43l51 325h75l-52 -330q-2 -10 -2 -28q0 -48 30 -72.5t87 -24.5q68 0 110.5 33.5t52.5 96.5l52 325h75l-52 -330q-15 -93 -77.5 -143t-163.5 -50q-92 0 -141 40zM180 635h285l-6 -37h-285z" />
    <glyph glyph-name="ubreve.alt1" horiz-adv-x="518" 
d="M79 22q-49 40 -49 115q0 23 4 43l51 325h75l-52 -330q-2 -10 -2 -28q0 -48 30 -72.5t87 -24.5q68 0 110.5 33.5t52.5 96.5l52 325h75l-52 -330q-15 -93 -77.5 -143t-163.5 -50q-92 0 -141 40zM219.5 627q-35.5 35 -35.5 92q0 19 2 29h37q-2 -16 -2 -22q0 -43 27 -70
t71 -27q52 0 90.5 33.5t46.5 85.5h39q-11 -68 -61.5 -112t-118.5 -44q-60 0 -95.5 35z" />
    <glyph glyph-name="uring.alt1" horiz-adv-x="518" 
d="M79 22q-49 40 -49 115q0 23 4 43l51 325h75l-52 -330q-2 -10 -2 -28q0 -48 30 -72.5t87 -24.5q68 0 110.5 33.5t52.5 96.5l52 325h75l-52 -330q-15 -93 -77.5 -143t-163.5 -50q-92 0 -141 40zM256.5 613q-21.5 21 -21.5 55q0 48 31.5 79t77.5 31q36 0 57.5 -21t21.5 -55
q0 -48 -31.5 -79t-77.5 -31q-36 0 -57.5 21zM366 647.5q19 19.5 19 48.5q0 21 -13 33.5t-35 12.5q-27 0 -46.5 -19t-19.5 -48q0 -22 13.5 -34.5t35.5 -12.5q27 0 46 19.5z" />
    <glyph glyph-name="uhungarumlaut.alt1" horiz-adv-x="518" 
d="M79 22q-49 40 -49 115q0 23 4 43l51 325h75l-52 -330q-2 -10 -2 -28q0 -48 30 -72.5t87 -24.5q68 0 110.5 33.5t52.5 96.5l52 325h75l-52 -330q-15 -93 -77.5 -143t-163.5 -50q-92 0 -141 40zM220 621l129 146l27 -23l-129 -145zM371 621l129 146l27 -23l-129 -145z" />
    <glyph glyph-name="udieresis.alt1" horiz-adv-x="518" 
d="M79 22q-49 40 -49 115q0 23 4 43l51 325h75l-52 -330q-2 -10 -2 -28q0 -48 30 -72.5t87 -24.5q68 0 110.5 33.5t52.5 96.5l52 325h75l-52 -330q-15 -93 -77.5 -143t-163.5 -50q-92 0 -141 40zM176 617.5q-13 12.5 -13 32.5q0 27 19 45t46 18q23 0 36 -12t13 -32
q0 -27 -19.5 -45.5t-46.5 -18.5q-22 0 -35 12.5zM388.5 617q-12.5 12 -12.5 32q0 28 19 46t46 18q22 0 35 -12t13 -32q0 -27 -19.5 -45.5t-46.5 -18.5q-22 0 -34.5 12z" />
    <glyph glyph-name="uogonek.alt1" horiz-adv-x="518" 
d="M513 505l-52 -330q-11 -69 -48.5 -114.5t-98.5 -65.5q-83 -32 -123 -58.5t-46 -62.5q-3 -20 7.5 -32t31.5 -12q16 0 36.5 12t38.5 31l22 -26q-22 -24 -51 -38t-54 -14q-33 0 -52 18t-19 47q0 38 25 67t74 55q-84 4 -129 43.5t-45 111.5q0 13 4 43l51 325h75l-52 -330
q-2 -10 -2 -28q0 -48 30 -72.5t87 -24.5q68 0 110.5 33.5t52.5 96.5l52 325h75z" />
    <glyph glyph-name="ygrave.alt1" horiz-adv-x="494" 
d="M195 31l-144 474h79l113 -377h1l201 377h80l-382 -715h-80zM224 744l32 21l83 -146l-32 -20z" />
    <glyph glyph-name="yacute.alt1" horiz-adv-x="494" 
d="M195 31l-144 474h79l113 -377h1l201 377h80l-382 -715h-80zM284 623l129 145l28 -24l-129 -145z" />
    <glyph glyph-name="ydieresis.alt1" horiz-adv-x="494" 
d="M195 31l-144 474h79l113 -377h1l201 377h80l-382 -715h-80zM166 617.5q-13 12.5 -13 32.5q0 27 19 45t46 18q23 0 36 -12t13 -32q0 -27 -19.5 -45.5t-46.5 -18.5q-22 0 -35 12.5zM378.5 617q-12.5 12 -12.5 32q0 28 19 46t46 18q22 0 35 -12t13 -32q0 -27 -19.5 -45.5
t-46.5 -18.5q-22 0 -34.5 12z" />
    <glyph glyph-name="ycircumflex.alt1" horiz-adv-x="494" 
d="M195 31l-144 474h79l113 -377h1l201 377h80l-382 -715h-80zM150 618l157 130h52l116 -130l-28 -27l-116 129l-156 -129z" />
    <glyph glyph-name="three.alt1" horiz-adv-x="564" 
d="M137.5 4.5q-49.5 27.5 -76.5 77t-27 111.5q0 11 2 33l78 15q-2 -22 -2 -31q0 -72 37 -116.5t104 -44.5q51 0 93.5 26.5t67 71t24.5 95.5q0 55 -35.5 89.5t-93.5 34.5q-27 0 -60 -12l-33 56l231 222h-290l12 73h372l-12 -84l-208 -195q8 1 21 1q79 -2 128 -52.5t49 -131.5
q0 -73 -35.5 -134t-96.5 -96.5t-134 -35.5q-66 0 -115.5 27.5z" />
    <glyph glyph-name="colon.case" horiz-adv-x="192" 
d="M99 493.5q-14 13.5 -14 35.5q0 27 17 44t43 17q23 0 37 -14t14 -35q0 -27 -17.5 -44t-42.5 -17q-23 0 -37 13.5zM34 86.5q-14 13.5 -14 35.5q0 26 17 43.5t43 17.5q23 0 37.5 -14t14.5 -36q0 -26 -17.5 -43t-43.5 -17q-23 0 -37 13.5z" />
    <glyph glyph-name="semicolon.case" horiz-adv-x="218" 
d="M-2 -15q14 -3 26 -3q39 0 62.5 27t27.5 72q-12 -6 -25 -6q-19 0 -32.5 13t-13.5 34q0 26 15 42.5t40 16.5t40 -19t15 -50q0 -66 -35 -113.5t-91 -47.5q-17 0 -32 4zM121 494.5q-14 13.5 -14 35.5q0 26 17 43.5t43 17.5q23 0 37 -14t14 -36q0 -26 -17 -43t-43 -17
q-23 0 -37 13.5z" />
    <glyph glyph-name="exclamdown.case" horiz-adv-x="212" 
d="M213 703.5q14 -13.5 14 -35.5q0 -26 -17 -43.5t-43 -17.5q-23 0 -37.5 14t-14.5 36q0 26 17.5 43t43.5 17q23 0 37 -13.5zM138 189l-31 -189h-83l31 189l71 336h48z" />
    <glyph glyph-name="questiondown.case" horiz-adv-x="475" 
d="M346 703.5q14 -13.5 14 -35.5q0 -26 -16.5 -43.5t-42.5 -17.5q-23 0 -37.5 14t-14.5 36q0 26 17.5 43t42.5 17q23 0 37 -13.5zM284.5 410q-25.5 -44 -72.5 -77l-41 -34q-48 -35 -70 -69t-22 -74q0 -48 31 -77.5t81 -29.5q62 0 110 45.5t65 122.5l74 -26q-23 -99 -93 -157
t-161 -58q-55 0 -98 22t-67 62t-24 92q0 62 29.5 110t93.5 91l39 31q38 26 58.5 59.5t27.5 84.5l76 -5q-11 -69 -36.5 -113z" />
    <glyph glyph-name="slash.case" horiz-adv-x="201" 
d="M-46 -41l289 800l36 -15l-291 -800z" />
    <glyph glyph-name="backslash.case" horiz-adv-x="450" 
d="M78 744l36 15l289 -800l-34 -15z" />
    <glyph glyph-name="parenleft.case" horiz-adv-x="224" 
d="M68.5 38.5q-26.5 95.5 -26.5 197.5q0 61 8 109q19 129 85 261t149 209l25 -24q-80 -78 -141.5 -202.5t-79.5 -243.5q-8 -54 -8 -106q0 -96 23.5 -186t64.5 -148l-29 -22q-44 60 -70.5 155.5z" />
    <glyph glyph-name="parenright.case" horiz-adv-x="221" 
d="M-55 -95q78 76 139.5 199.5t80.5 240.5q9 54 9 111q0 96 -23.5 185.5t-65.5 149.5l30 22q45 -61 71 -154.5t26 -194.5q0 -63 -10 -119q-20 -128 -85.5 -259.5t-146.5 -205.5z" />
    <glyph glyph-name="braceleft.case" horiz-adv-x="289" 
d="M89.5 -99.5q-19.5 20.5 -19.5 55.5q0 6 2 22l42 263q1 6 1 17q0 27 -13.5 43t-38.5 18l-18 1l9 58l19 1q29 2 49.5 23t25.5 56l41 259q7 44 35 71t68 27h86l-6 -38h-86q-22 0 -38.5 -16.5t-21.5 -43.5l-41 -267q-7 -41 -33 -68.5t-62 -30.5v-2q31 -3 48 -24.5t17 -55.5
q0 -6 -2 -20l-43 -271q-1 -5 -1 -15q0 -21 11 -33t30 -12h86l-7 -38h-86q-34 0 -53.5 20.5z" />
    <glyph glyph-name="braceright.case" horiz-adv-x="288" 
d="M-58 -120l5 38h85q23 0 39.5 16t20.5 44l43 271q7 41 33 68.5t61 31.5v2q-30 2 -47 23t-17 54q0 8 2 22l42 267q1 5 1 14q0 21 -11 33.5t-30 12.5h-86l6 38h86q34 0 54 -21t20 -56q0 -7 -2 -21l-41 -259q-1 -6 -1 -18q0 -27 13.5 -43t38.5 -18l17 -1l-9 -58l-18 -1
q-29 -2 -49.5 -23t-25.5 -55l-42 -263q-8 -44 -35.5 -71t-67.5 -27h-85z" />
    <glyph glyph-name="bracketleft.case" horiz-adv-x="225" 
d="M149 815h165l-6 -38h-126l-137 -859h126l-5 -38h-165z" />
    <glyph glyph-name="bracketright.case" horiz-adv-x="225" 
d="M-59 -120l6 38h126l136 859h-126l6 38h165l-148 -935h-165z" />
    <glyph glyph-name="hyphen.case" horiz-adv-x="445" 
d="M74 404h344l-11 -69h-344z" />
    <glyph glyph-name="endash.case" horiz-adv-x="630" 
d="M72 388h530l-6 -38h-530z" />
    <glyph glyph-name="emdash.case" horiz-adv-x="987" 
d="M72 388h886l-6 -38h-886z" />
    <glyph glyph-name="guillemotleft.case" horiz-adv-x="461" 
d="M45 352l242 263l26 -23l-220 -240l144 -239l-34 -23zM217 352l242 263l27 -23l-221 -240l144 -239l-33 -23z" />
    <glyph glyph-name="guillemotright.case" horiz-adv-x="461" 
d="M275 353l-242 -263l-27 23l221 240l-144 239l33 23zM447 353l-242 -263l-26 23l220 240l-144 239l34 23z" />
    <glyph glyph-name="guilsinglleft.case" horiz-adv-x="288" 
d="M45 352l242 263l26 -23l-220 -240l144 -239l-34 -23z" />
    <glyph glyph-name="guilsinglright.case" horiz-adv-x="288" 
d="M275 353l-242 -263l-26 23l220 240l-144 239l34 23z" />
    <glyph glyph-name="at.case" horiz-adv-x="843" 
d="M201 -21.5q-75 40.5 -115.5 115.5t-40.5 175q0 136 59 250.5t164.5 181.5t236.5 67q99 0 172.5 -41t112.5 -117.5t39 -181.5q0 -82 -21 -158t-62.5 -124.5t-100.5 -48.5q-98 0 -97 84l1 11h-1q-33 -45 -83 -70t-110 -25q-75 0 -121 36.5t-46 95.5q0 70 57 119t171 63
l129 16q24 2 37 16.5t13 38.5q0 42 -29 65t-83 23q-43 0 -81.5 -17.5t-65 -45.5t-36.5 -59l-63 34q14 43 49 78.5t85.5 56.5t109.5 21q85 0 135 -40t50 -114q0 -18 -3 -39l-41 -248q-2 -14 -2 -18q0 -35 36 -35q43 0 73.5 44t46 110.5t15.5 132.5q0 142 -77 222t-213 80
q-121 0 -217 -64t-150 -171.5t-54 -230.5q0 -89 36 -155.5t103.5 -102.5t158.5 -36q105 0 194 50l18 -32q-97 -53 -213 -53q-101 0 -176 40.5zM463.5 186.5q42.5 21.5 71 59.5t35.5 85l5 35l-155 -19q-77 -9 -117 -39.5t-40 -72.5q0 -32 30 -51t78 -19q50 0 92.5 21.5z" />
    <glyph glyph-name="acute.case" horiz-adv-x="158" 
d="M106 801l108 125l27 -22l-109 -125z" />
    <glyph glyph-name="breve.case" horiz-adv-x="301" 
d="M154.5 819q-30.5 29 -30.5 76q0 7 2 23h36q-1 -6 -1 -17q0 -33 21.5 -53.5t57.5 -20.5q40 0 70.5 26t37.5 65h39q-9 -56 -51.5 -92t-99.5 -36q-51 0 -81.5 29z" />
    <glyph glyph-name="caron.case" horiz-adv-x="324" 
d="M122 900l29 27l98 -109l133 109l24 -27l-133 -110h-52z" />
    <glyph glyph-name="caron.alt1" horiz-adv-x="150" 
d="M78 588q15 -3 26 -3q24 0 36.5 13t13.5 37q-9 -3 -17 -3q-18 0 -31 13t-13 31q0 19 14 32.5t34 13.5q23 0 37 -17.5t14 -48.5q0 -51 -24.5 -77t-65.5 -26q-14 0 -29 3z" />
    <glyph glyph-name="circumflex.case" horiz-adv-x="324" 
d="M108 808l133 110h53l97 -110l-28 -27l-98 109l-133 -109z" />
    <glyph glyph-name="dieresis.case" horiz-adv-x="371" 
d="M128 815.5q-13 12.5 -13 32.5q0 27 19 45.5t46 18.5q22 0 35 -12t13 -32q0 -27 -19 -46t-46 -19q-22 0 -35 12.5zM348 815.5q-13 12.5 -13 33.5q0 27 19 45t46 18q22 0 34.5 -12t12.5 -32q0 -27 -18.5 -46t-45.5 -19q-22 0 -35 12.5z" />
    <glyph glyph-name="dotaccent.case" horiz-adv-x="151" 
d="M129 816q-13 13 -13 33q0 28 18.5 46t45.5 18q22 0 35.5 -12.5t13.5 -32.5q0 -28 -19.5 -46.5t-46.5 -18.5q-21 0 -34 13z" />
    <glyph glyph-name="grave.case" horiz-adv-x="158" 
d="M125 906l32 20l67 -125l-31 -20z" />
    <glyph glyph-name="hungarumlaut.case" horiz-adv-x="307" 
d="M107 801l107 125l27 -22l-109 -125zM256 801l108 125l26 -22l-108 -125z" />
    <glyph glyph-name="ring.case" horiz-adv-x="225" 
d="M139.5 803.5q-21.5 21.5 -21.5 54.5q0 48 31.5 79t76.5 31q36 0 57.5 -21.5t21.5 -56.5q0 -45 -32 -76.5t-76 -31.5q-36 0 -57.5 21.5zM248.5 838.5q18.5 20.5 18.5 46.5q0 21 -13 34t-35 13q-26 0 -45.5 -20t-19.5 -48q0 -20 13.5 -33t34.5 -13q28 0 46.5 20.5z" />
    <glyph glyph-name="tilde.case" horiz-adv-x="365" 
d="M293 797q-17 17 -37 49q-12 20 -22 30t-24 10q-23 0 -42 -27t-26 -69h-37q9 59 39 96t71 37q26 0 43.5 -15.5t32.5 -41.5q16 -26 26 -37.5t26 -11.5q24 0 43 27.5t26 69.5h38q-10 -59 -40 -96.5t-71 -37.5q-29 0 -46 17z" />
    <glyph glyph-name="arrowup.case" horiz-adv-x="527" 
d="M285 608l229 -220l-25 -27l-185 176v-452h-38v452l-183 -176l-27 27z" />
    <glyph glyph-name="uni2197.case" horiz-adv-x="479" 
d="M406 531l6 -318l-37 -1l-6 256l-319 -320l-27 27l320 319l-255 5l1 38z" />
    <glyph glyph-name="arrowright.case" horiz-adv-x="594" 
d="M330 158l177 184h-452v38h452l-177 184l27 26l220 -229l-220 -229z" />
    <glyph glyph-name="uni2198.case" horiz-adv-x="534" 
d="M460 165l-317 -7l-1 38l255 5l-320 320l27 26l320 -319l5 255l38 -1z" />
    <glyph glyph-name="arrowdown.case" horiz-adv-x="527" 
d="M68 326l184 -177v452h38v-452l184 177l26 -28l-229 -220l-229 220z" />
    <glyph glyph-name="uni2199.case" horiz-adv-x="478" 
d="M137 496l5 -255l319 320l27 -27l-320 -319l256 -6l-1 -37l-318 6l-6 318h38z" />
    <glyph glyph-name="arrowleft.case" horiz-adv-x="594" 
d="M52 361l220 229l27 -26l-176 -184h452v-38h-452l176 -184l-27 -26z" />
    <glyph glyph-name="uni2196.case" horiz-adv-x="534" 
d="M425 513l-255 -5l320 -320l-27 -27l-320 320l-5 -255l-38 1l7 317l317 7z" />
    <glyph glyph-name="arrowboth.case" horiz-adv-x="922" 
d="M905 361l-220 -229l-27 26l177 184h-712l176 -184l-27 -26l-220 229l220 229l27 -26l-176 -184h712l-177 184l27 26z" />
    <glyph glyph-name="arrowupdn.case" horiz-adv-x="584" 
d="M511 200l26 -27l-229 -220l-229 220l26 27l184 -176v657l-184 -177l-26 28l229 220l229 -220l-26 -28l-184 177v-657z" />
    </font>
</defs>
</svg>
